G04 #@! TF.GenerationSoftware,KiCad,Pcbnew,(5.1.5)-3*
G04 #@! TF.CreationDate,2020-05-27T22:27:18+01:00*
G04 #@! TF.ProjectId,dmxhat,646d7868-6174-42e6-9b69-6361645f7063,rev?*
G04 #@! TF.SameCoordinates,Original*
G04 #@! TF.FileFunction,Copper,L2,Bot*
G04 #@! TF.FilePolarity,Positive*
%FSLAX46Y46*%
G04 Gerber Fmt 4.6, Leading zero omitted, Abs format (unit mm)*
G04 Created by KiCad (PCBNEW (5.1.5)-3) date 2020-05-27 22:27:18*
%MOMM*%
%LPD*%
G04 APERTURE LIST*
%ADD10O,1.700000X1.700000*%
%ADD11R,1.700000X1.700000*%
%ADD12C,1.800000*%
%ADD13R,1.800000X1.800000*%
%ADD14O,1.600000X1.600000*%
%ADD15C,1.600000*%
%ADD16C,2.900000*%
%ADD17C,3.400000*%
%ADD18R,1.600000X1.600000*%
%ADD19O,2.800000X2.800000*%
%ADD20R,2.800000X2.800000*%
%ADD21O,1.727200X2.032000*%
%ADD22C,4.064000*%
%ADD23C,0.750000*%
%ADD24C,0.250000*%
%ADD25C,0.254000*%
G04 APERTURE END LIST*
D10*
X135128000Y-123825000D03*
X132588000Y-123825000D03*
D11*
X130048000Y-123825000D03*
D12*
X130048000Y-118745000D03*
D13*
X130048000Y-116205000D03*
D14*
X135128000Y-117475000D03*
D15*
X145288000Y-117475000D03*
D16*
X123068000Y-99695000D03*
X112898000Y-107945000D03*
D17*
X123068000Y-95885000D03*
D16*
X119253000Y-92715000D03*
X119253000Y-99695000D03*
D17*
X123068000Y-103505000D03*
D14*
X130048000Y-103505000D03*
D18*
X130048000Y-95885000D03*
D19*
X135298000Y-80645000D03*
D20*
X135298000Y-90805000D03*
D19*
X128778000Y-90805000D03*
D20*
X128778000Y-80645000D03*
D14*
X165608000Y-89535000D03*
X155448000Y-81915000D03*
X163068000Y-89535000D03*
X157988000Y-81915000D03*
X160528000Y-89535000D03*
X160528000Y-81915000D03*
X157988000Y-89535000D03*
X163068000Y-81915000D03*
X155448000Y-89535000D03*
D18*
X165608000Y-81915000D03*
D15*
X147828000Y-109895000D03*
D18*
X147828000Y-112395000D03*
D15*
X140208000Y-108665000D03*
X140208000Y-113665000D03*
D14*
X157988000Y-117475000D03*
D15*
X147828000Y-117475000D03*
D12*
X173228000Y-118745000D03*
D13*
X170688000Y-118745000D03*
D14*
X146558000Y-90805000D03*
D15*
X146558000Y-80645000D03*
D14*
X141478000Y-90805000D03*
D15*
X141478000Y-80645000D03*
D14*
X135128000Y-104775000D03*
D15*
X135128000Y-94615000D03*
D14*
X140208000Y-103505000D03*
X147828000Y-95885000D03*
X140208000Y-100965000D03*
X147828000Y-98425000D03*
X140208000Y-98425000D03*
X147828000Y-100965000D03*
X140208000Y-95885000D03*
D18*
X147828000Y-103505000D03*
D21*
X138938000Y-123825000D03*
X141478000Y-123825000D03*
X144018000Y-123825000D03*
X146558000Y-123825000D03*
X149098000Y-123825000D03*
X151638000Y-123825000D03*
X154178000Y-123825000D03*
X156718000Y-123825000D03*
X161798000Y-123825000D03*
X164338000Y-123825000D03*
X166878000Y-123825000D03*
X169418000Y-123825000D03*
X171958000Y-123825000D03*
X174498000Y-123825000D03*
X129794000Y-75565000D03*
X132334000Y-75565000D03*
X134874000Y-75565000D03*
X137414000Y-75565000D03*
X139954000Y-75565000D03*
X142494000Y-75565000D03*
X145034000Y-75565000D03*
X147574000Y-75565000D03*
X150114000Y-75565000D03*
X152654000Y-75565000D03*
X156718000Y-75565000D03*
X159258000Y-75565000D03*
X161798000Y-75565000D03*
X164338000Y-75565000D03*
X166878000Y-75565000D03*
X169418000Y-75565000D03*
X171958000Y-75565000D03*
X174498000Y-75565000D03*
D22*
X124968000Y-123825000D03*
X177038000Y-118745000D03*
X126238000Y-75565000D03*
D23*
X149098000Y-118745000D02*
X147828000Y-117475000D01*
X149098000Y-123825000D02*
X149098000Y-118745000D01*
X147828000Y-117475000D02*
X147828000Y-112395000D01*
X141478000Y-112395000D02*
X140208000Y-113665000D01*
X147828000Y-112395000D02*
X141478000Y-112395000D01*
X140208000Y-113665000D02*
X138938000Y-113665000D01*
X138938000Y-113665000D02*
X137668000Y-112395000D01*
X137668000Y-106045000D02*
X140208000Y-103505000D01*
X137668000Y-112395000D02*
X137668000Y-106045000D01*
X146558000Y-92075000D02*
X146558000Y-90805000D01*
X144018000Y-94615000D02*
X146558000Y-92075000D01*
X140208000Y-103505000D02*
X144018000Y-99695000D01*
X144018000Y-99695000D02*
X144018000Y-94615000D01*
X147828000Y-117475000D02*
X145288000Y-117475000D01*
D24*
X164118000Y-79375000D02*
X152658000Y-79375000D01*
X150114000Y-76831000D02*
X150114000Y-75565000D01*
X165608000Y-80865000D02*
X164118000Y-79375000D01*
X152658000Y-79375000D02*
X150114000Y-76831000D01*
X165608000Y-81915000D02*
X165608000Y-80865000D01*
X149098000Y-94615000D02*
X147828000Y-95885000D01*
X149098000Y-89535000D02*
X149098000Y-94615000D01*
X152908000Y-85725000D02*
X149098000Y-89535000D01*
X165608000Y-85725000D02*
X152908000Y-85725000D01*
X156718000Y-75565000D02*
X156718000Y-76831000D01*
X156718000Y-76831000D02*
X157992000Y-78105000D01*
X157992000Y-78105000D02*
X165608000Y-78105000D01*
X165608000Y-78105000D02*
X166878000Y-79375000D01*
X166878000Y-84455000D02*
X165608000Y-85725000D01*
X166878000Y-79375000D02*
X166878000Y-84455000D01*
X149098000Y-103505000D02*
X147828000Y-103505000D01*
X163068000Y-89535000D02*
X149098000Y-103505000D01*
X128948000Y-123825000D02*
X124968000Y-119845000D01*
X130048000Y-123825000D02*
X128948000Y-123825000D01*
X139076630Y-98425000D02*
X140208000Y-98425000D01*
X124968000Y-112533630D02*
X139076630Y-98425000D01*
X124968000Y-119845000D02*
X124968000Y-112533630D01*
X132588000Y-123825000D02*
X130048000Y-121285000D01*
X130048000Y-121285000D02*
X127508000Y-121285000D01*
X127508000Y-121285000D02*
X126238000Y-120015000D01*
X139076630Y-100965000D02*
X140208000Y-100965000D01*
X137272998Y-100965000D02*
X139076630Y-100965000D01*
X126238000Y-111999998D02*
X137272998Y-100965000D01*
X126238000Y-120015000D02*
X126238000Y-111999998D01*
D23*
X133858000Y-118745000D02*
X130048000Y-118745000D01*
X135128000Y-117475000D02*
X133858000Y-118745000D01*
D25*
G36*
X178868001Y-74589093D02*
G01*
X178868000Y-77810908D01*
X178013909Y-78665000D01*
X169452877Y-78665000D01*
X169418000Y-78661565D01*
X169383123Y-78665000D01*
X169278816Y-78675273D01*
X169144980Y-78715872D01*
X169021637Y-78781800D01*
X168913525Y-78870525D01*
X168824800Y-78978637D01*
X168758872Y-79101980D01*
X168718273Y-79235816D01*
X168704565Y-79375000D01*
X168708001Y-79409887D01*
X168708000Y-116170123D01*
X168704565Y-116205000D01*
X168718273Y-116344184D01*
X168758872Y-116478020D01*
X168824800Y-116601363D01*
X168913525Y-116709475D01*
X169018070Y-116795273D01*
X169021637Y-116798200D01*
X169144980Y-116864128D01*
X169278816Y-116904727D01*
X169418000Y-116918435D01*
X169452877Y-116915000D01*
X175096293Y-116915000D01*
X174966406Y-117044887D01*
X174674536Y-117481702D01*
X174504427Y-117892382D01*
X174420312Y-117766495D01*
X174206505Y-117552688D01*
X173955095Y-117384701D01*
X173675743Y-117268989D01*
X173379184Y-117210000D01*
X173076816Y-117210000D01*
X172780257Y-117268989D01*
X172500905Y-117384701D01*
X172249495Y-117552688D01*
X172183056Y-117619127D01*
X172177502Y-117600820D01*
X172118537Y-117490506D01*
X172039185Y-117393815D01*
X171942494Y-117314463D01*
X171832180Y-117255498D01*
X171712482Y-117219188D01*
X171588000Y-117206928D01*
X169788000Y-117206928D01*
X169663518Y-117219188D01*
X169543820Y-117255498D01*
X169433506Y-117314463D01*
X169336815Y-117393815D01*
X169257463Y-117490506D01*
X169198498Y-117600820D01*
X169162188Y-117720518D01*
X169149928Y-117845000D01*
X169149928Y-119645000D01*
X169162188Y-119769482D01*
X169198498Y-119889180D01*
X169257463Y-119999494D01*
X169336815Y-120096185D01*
X169433506Y-120175537D01*
X169543820Y-120234502D01*
X169663518Y-120270812D01*
X169788000Y-120283072D01*
X171588000Y-120283072D01*
X171712482Y-120270812D01*
X171832180Y-120234502D01*
X171942494Y-120175537D01*
X172039185Y-120096185D01*
X172118537Y-119999494D01*
X172177502Y-119889180D01*
X172183056Y-119870873D01*
X172249495Y-119937312D01*
X172500905Y-120105299D01*
X172780257Y-120221011D01*
X173076816Y-120280000D01*
X173379184Y-120280000D01*
X173675743Y-120221011D01*
X173955095Y-120105299D01*
X174206505Y-119937312D01*
X174420312Y-119723505D01*
X174504427Y-119597618D01*
X174674536Y-120008298D01*
X174966406Y-120445113D01*
X175337887Y-120816594D01*
X175774702Y-121108464D01*
X176260065Y-121309508D01*
X176775323Y-121412000D01*
X177300677Y-121412000D01*
X177815935Y-121309508D01*
X178301298Y-121108464D01*
X178738113Y-120816594D01*
X178868001Y-120686706D01*
X178868000Y-124800908D01*
X178013909Y-125655000D01*
X126909707Y-125655000D01*
X127039594Y-125525113D01*
X127331464Y-125088298D01*
X127532508Y-124602935D01*
X127635000Y-124087677D01*
X127635000Y-123586802D01*
X128384201Y-124336003D01*
X128407999Y-124365001D01*
X128436997Y-124388799D01*
X128523723Y-124459974D01*
X128559928Y-124479326D01*
X128559928Y-124675000D01*
X128572188Y-124799482D01*
X128608498Y-124919180D01*
X128667463Y-125029494D01*
X128746815Y-125126185D01*
X128843506Y-125205537D01*
X128953820Y-125264502D01*
X129073518Y-125300812D01*
X129198000Y-125313072D01*
X130898000Y-125313072D01*
X131022482Y-125300812D01*
X131142180Y-125264502D01*
X131252494Y-125205537D01*
X131349185Y-125126185D01*
X131428537Y-125029494D01*
X131487502Y-124919180D01*
X131509513Y-124846620D01*
X131641368Y-124978475D01*
X131884589Y-125140990D01*
X132154842Y-125252932D01*
X132441740Y-125310000D01*
X132734260Y-125310000D01*
X133021158Y-125252932D01*
X133291411Y-125140990D01*
X133534632Y-124978475D01*
X133741475Y-124771632D01*
X133863195Y-124589466D01*
X133932822Y-124706355D01*
X134127731Y-124922588D01*
X134361080Y-125096641D01*
X134623901Y-125221825D01*
X134771110Y-125266476D01*
X135001000Y-125145155D01*
X135001000Y-123952000D01*
X135255000Y-123952000D01*
X135255000Y-125145155D01*
X135484890Y-125266476D01*
X135632099Y-125221825D01*
X135894920Y-125096641D01*
X136128269Y-124922588D01*
X136323178Y-124706355D01*
X136472157Y-124456252D01*
X136569481Y-124181891D01*
X136448814Y-123952000D01*
X135255000Y-123952000D01*
X135001000Y-123952000D01*
X134981000Y-123952000D01*
X134981000Y-123698000D01*
X135001000Y-123698000D01*
X135001000Y-122504845D01*
X135255000Y-122504845D01*
X135255000Y-123698000D01*
X136448814Y-123698000D01*
X136569481Y-123468109D01*
X136472157Y-123193748D01*
X136323178Y-122943645D01*
X136128269Y-122727412D01*
X135894920Y-122553359D01*
X135632099Y-122428175D01*
X135484890Y-122383524D01*
X135255000Y-122504845D01*
X135001000Y-122504845D01*
X134771110Y-122383524D01*
X134623901Y-122428175D01*
X134361080Y-122553359D01*
X134127731Y-122727412D01*
X133932822Y-122943645D01*
X133863195Y-123060534D01*
X133741475Y-122878368D01*
X133534632Y-122671525D01*
X133291411Y-122509010D01*
X133021158Y-122397068D01*
X132734260Y-122340000D01*
X132441740Y-122340000D01*
X132221593Y-122383790D01*
X130611804Y-120774003D01*
X130588001Y-120744999D01*
X130472276Y-120650026D01*
X130340247Y-120579454D01*
X130196986Y-120535997D01*
X130085333Y-120525000D01*
X130085322Y-120525000D01*
X130048000Y-120521324D01*
X130010678Y-120525000D01*
X127822802Y-120525000D01*
X126998000Y-119700199D01*
X126998000Y-117105000D01*
X128509928Y-117105000D01*
X128522188Y-117229482D01*
X128558498Y-117349180D01*
X128617463Y-117459494D01*
X128696815Y-117556185D01*
X128793506Y-117635537D01*
X128903820Y-117694502D01*
X128922127Y-117700056D01*
X128855688Y-117766495D01*
X128687701Y-118017905D01*
X128571989Y-118297257D01*
X128513000Y-118593816D01*
X128513000Y-118896184D01*
X128571989Y-119192743D01*
X128687701Y-119472095D01*
X128855688Y-119723505D01*
X129069495Y-119937312D01*
X129320905Y-120105299D01*
X129600257Y-120221011D01*
X129896816Y-120280000D01*
X130199184Y-120280000D01*
X130495743Y-120221011D01*
X130775095Y-120105299D01*
X131026505Y-119937312D01*
X131208817Y-119755000D01*
X133808392Y-119755000D01*
X133858000Y-119759886D01*
X134055994Y-119740385D01*
X134111640Y-119723505D01*
X134246380Y-119682632D01*
X134421840Y-119588847D01*
X134575633Y-119462633D01*
X134607261Y-119424094D01*
X135121355Y-118910000D01*
X135269335Y-118910000D01*
X135546574Y-118854853D01*
X135807727Y-118746680D01*
X136042759Y-118589637D01*
X136242637Y-118389759D01*
X136399680Y-118154727D01*
X136507853Y-117893574D01*
X136563000Y-117616335D01*
X136563000Y-117333665D01*
X136507853Y-117056426D01*
X136399680Y-116795273D01*
X136242637Y-116560241D01*
X136042759Y-116360363D01*
X135807727Y-116203320D01*
X135546574Y-116095147D01*
X135269335Y-116040000D01*
X134986665Y-116040000D01*
X134709426Y-116095147D01*
X134448273Y-116203320D01*
X134213241Y-116360363D01*
X134013363Y-116560241D01*
X133856320Y-116795273D01*
X133748147Y-117056426D01*
X133693000Y-117333665D01*
X133693000Y-117481645D01*
X133439645Y-117735000D01*
X131208817Y-117735000D01*
X131173873Y-117700056D01*
X131192180Y-117694502D01*
X131302494Y-117635537D01*
X131399185Y-117556185D01*
X131478537Y-117459494D01*
X131537502Y-117349180D01*
X131573812Y-117229482D01*
X131586072Y-117105000D01*
X131583000Y-116490750D01*
X131424250Y-116332000D01*
X130175000Y-116332000D01*
X130175000Y-116352000D01*
X129921000Y-116352000D01*
X129921000Y-116332000D01*
X128671750Y-116332000D01*
X128513000Y-116490750D01*
X128509928Y-117105000D01*
X126998000Y-117105000D01*
X126998000Y-115305000D01*
X128509928Y-115305000D01*
X128513000Y-115919250D01*
X128671750Y-116078000D01*
X129921000Y-116078000D01*
X129921000Y-114828750D01*
X130175000Y-114828750D01*
X130175000Y-116078000D01*
X131424250Y-116078000D01*
X131583000Y-115919250D01*
X131586072Y-115305000D01*
X131573812Y-115180518D01*
X131537502Y-115060820D01*
X131478537Y-114950506D01*
X131399185Y-114853815D01*
X131302494Y-114774463D01*
X131192180Y-114715498D01*
X131072482Y-114679188D01*
X130948000Y-114666928D01*
X130333750Y-114670000D01*
X130175000Y-114828750D01*
X129921000Y-114828750D01*
X129762250Y-114670000D01*
X129148000Y-114666928D01*
X129023518Y-114679188D01*
X128903820Y-114715498D01*
X128793506Y-114774463D01*
X128696815Y-114853815D01*
X128617463Y-114950506D01*
X128558498Y-115060820D01*
X128522188Y-115180518D01*
X128509928Y-115305000D01*
X126998000Y-115305000D01*
X126998000Y-112314799D01*
X133857022Y-105455778D01*
X134013363Y-105689759D01*
X134213241Y-105889637D01*
X134448273Y-106046680D01*
X134709426Y-106154853D01*
X134986665Y-106210000D01*
X135269335Y-106210000D01*
X135546574Y-106154853D01*
X135807727Y-106046680D01*
X136042759Y-105889637D01*
X136242637Y-105689759D01*
X136399680Y-105454727D01*
X136507853Y-105193574D01*
X136563000Y-104916335D01*
X136563000Y-104633665D01*
X136507853Y-104356426D01*
X136399680Y-104095273D01*
X136242637Y-103860241D01*
X136042759Y-103660363D01*
X135808778Y-103504022D01*
X137587800Y-101725000D01*
X138989957Y-101725000D01*
X139093363Y-101879759D01*
X139293241Y-102079637D01*
X139525759Y-102235000D01*
X139293241Y-102390363D01*
X139093363Y-102590241D01*
X138936320Y-102825273D01*
X138828147Y-103086426D01*
X138773000Y-103363665D01*
X138773000Y-103511644D01*
X136988901Y-105295744D01*
X136950368Y-105327367D01*
X136918745Y-105365900D01*
X136918744Y-105365901D01*
X136824154Y-105481160D01*
X136730368Y-105656621D01*
X136672615Y-105847006D01*
X136653114Y-106045000D01*
X136658001Y-106094618D01*
X136658000Y-112345392D01*
X136653114Y-112395000D01*
X136672615Y-112592994D01*
X136706757Y-112705544D01*
X136730368Y-112783379D01*
X136824153Y-112958840D01*
X136950367Y-113112633D01*
X136988906Y-113144261D01*
X138188739Y-114344094D01*
X138220367Y-114382633D01*
X138374160Y-114508847D01*
X138549620Y-114602632D01*
X138740006Y-114660385D01*
X138888392Y-114675000D01*
X138888394Y-114675000D01*
X138937999Y-114679886D01*
X138987604Y-114675000D01*
X139188604Y-114675000D01*
X139293241Y-114779637D01*
X139528273Y-114936680D01*
X139789426Y-115044853D01*
X140066665Y-115100000D01*
X140349335Y-115100000D01*
X140626574Y-115044853D01*
X140887727Y-114936680D01*
X141122759Y-114779637D01*
X141322637Y-114579759D01*
X141479680Y-114344727D01*
X141587853Y-114083574D01*
X141643000Y-113806335D01*
X141643000Y-113658355D01*
X141896355Y-113405000D01*
X146428130Y-113405000D01*
X146438498Y-113439180D01*
X146497463Y-113549494D01*
X146576815Y-113646185D01*
X146673506Y-113725537D01*
X146783820Y-113784502D01*
X146818001Y-113794871D01*
X146818000Y-116455604D01*
X146808604Y-116465000D01*
X146307396Y-116465000D01*
X146202759Y-116360363D01*
X145967727Y-116203320D01*
X145706574Y-116095147D01*
X145429335Y-116040000D01*
X145146665Y-116040000D01*
X144869426Y-116095147D01*
X144608273Y-116203320D01*
X144373241Y-116360363D01*
X144173363Y-116560241D01*
X144016320Y-116795273D01*
X143908147Y-117056426D01*
X143853000Y-117333665D01*
X143853000Y-117616335D01*
X143908147Y-117893574D01*
X144016320Y-118154727D01*
X144173363Y-118389759D01*
X144373241Y-118589637D01*
X144608273Y-118746680D01*
X144869426Y-118854853D01*
X145146665Y-118910000D01*
X145429335Y-118910000D01*
X145706574Y-118854853D01*
X145967727Y-118746680D01*
X146202759Y-118589637D01*
X146307396Y-118485000D01*
X146808604Y-118485000D01*
X146913241Y-118589637D01*
X147148273Y-118746680D01*
X147409426Y-118854853D01*
X147686665Y-118910000D01*
X147834645Y-118910000D01*
X148088001Y-119163356D01*
X148088000Y-122562832D01*
X148033203Y-122607803D01*
X147845931Y-122835995D01*
X147828000Y-122869541D01*
X147810069Y-122835994D01*
X147622797Y-122607803D01*
X147394605Y-122420531D01*
X147134263Y-122281375D01*
X146851776Y-122195684D01*
X146558000Y-122166749D01*
X146264223Y-122195684D01*
X145981736Y-122281375D01*
X145721394Y-122420531D01*
X145493203Y-122607803D01*
X145305931Y-122835995D01*
X145288000Y-122869541D01*
X145270069Y-122835994D01*
X145082797Y-122607803D01*
X144854605Y-122420531D01*
X144594263Y-122281375D01*
X144311776Y-122195684D01*
X144018000Y-122166749D01*
X143724223Y-122195684D01*
X143441736Y-122281375D01*
X143181394Y-122420531D01*
X142953203Y-122607803D01*
X142765931Y-122835995D01*
X142748000Y-122869541D01*
X142730069Y-122835994D01*
X142542797Y-122607803D01*
X142314605Y-122420531D01*
X142054263Y-122281375D01*
X141771776Y-122195684D01*
X141478000Y-122166749D01*
X141184223Y-122195684D01*
X140901736Y-122281375D01*
X140641394Y-122420531D01*
X140413203Y-122607803D01*
X140225931Y-122835995D01*
X140208000Y-122869541D01*
X140190069Y-122835994D01*
X140002797Y-122607803D01*
X139774605Y-122420531D01*
X139514263Y-122281375D01*
X139231776Y-122195684D01*
X138938000Y-122166749D01*
X138644223Y-122195684D01*
X138361736Y-122281375D01*
X138101394Y-122420531D01*
X137873203Y-122607803D01*
X137685931Y-122835995D01*
X137546775Y-123096337D01*
X137461084Y-123378824D01*
X137439400Y-123598982D01*
X137439400Y-124051019D01*
X137461084Y-124271177D01*
X137546775Y-124553664D01*
X137685931Y-124814006D01*
X137873203Y-125042197D01*
X138101395Y-125229469D01*
X138361737Y-125368625D01*
X138644224Y-125454316D01*
X138938000Y-125483251D01*
X139231777Y-125454316D01*
X139514264Y-125368625D01*
X139774606Y-125229469D01*
X140002797Y-125042197D01*
X140190069Y-124814006D01*
X140208000Y-124780459D01*
X140225931Y-124814006D01*
X140413203Y-125042197D01*
X140641395Y-125229469D01*
X140901737Y-125368625D01*
X141184224Y-125454316D01*
X141478000Y-125483251D01*
X141771777Y-125454316D01*
X142054264Y-125368625D01*
X142314606Y-125229469D01*
X142542797Y-125042197D01*
X142730069Y-124814006D01*
X142748000Y-124780459D01*
X142765931Y-124814006D01*
X142953203Y-125042197D01*
X143181395Y-125229469D01*
X143441737Y-125368625D01*
X143724224Y-125454316D01*
X144018000Y-125483251D01*
X144311777Y-125454316D01*
X144594264Y-125368625D01*
X144854606Y-125229469D01*
X145082797Y-125042197D01*
X145270069Y-124814006D01*
X145288000Y-124780459D01*
X145305931Y-124814006D01*
X145493203Y-125042197D01*
X145721395Y-125229469D01*
X145981737Y-125368625D01*
X146264224Y-125454316D01*
X146558000Y-125483251D01*
X146851777Y-125454316D01*
X147134264Y-125368625D01*
X147394606Y-125229469D01*
X147622797Y-125042197D01*
X147810069Y-124814006D01*
X147828000Y-124780459D01*
X147845931Y-124814006D01*
X148033203Y-125042197D01*
X148261395Y-125229469D01*
X148521737Y-125368625D01*
X148804224Y-125454316D01*
X149098000Y-125483251D01*
X149391777Y-125454316D01*
X149674264Y-125368625D01*
X149934606Y-125229469D01*
X150162797Y-125042197D01*
X150350069Y-124814006D01*
X150371424Y-124774053D01*
X150519514Y-124976729D01*
X150735965Y-125175733D01*
X150987081Y-125328686D01*
X151263211Y-125429709D01*
X151278974Y-125432358D01*
X151511000Y-125311217D01*
X151511000Y-123952000D01*
X151765000Y-123952000D01*
X151765000Y-125311217D01*
X151997026Y-125432358D01*
X152012789Y-125429709D01*
X152288919Y-125328686D01*
X152540035Y-125175733D01*
X152756486Y-124976729D01*
X152908000Y-124769367D01*
X153059514Y-124976729D01*
X153275965Y-125175733D01*
X153527081Y-125328686D01*
X153803211Y-125429709D01*
X153818974Y-125432358D01*
X154051000Y-125311217D01*
X154051000Y-123952000D01*
X151765000Y-123952000D01*
X151511000Y-123952000D01*
X151491000Y-123952000D01*
X151491000Y-123698000D01*
X151511000Y-123698000D01*
X151511000Y-122338783D01*
X151765000Y-122338783D01*
X151765000Y-123698000D01*
X154051000Y-123698000D01*
X154051000Y-122338783D01*
X154305000Y-122338783D01*
X154305000Y-123698000D01*
X154325000Y-123698000D01*
X154325000Y-123952000D01*
X154305000Y-123952000D01*
X154305000Y-125311217D01*
X154537026Y-125432358D01*
X154552789Y-125429709D01*
X154828919Y-125328686D01*
X155080035Y-125175733D01*
X155296486Y-124976729D01*
X155444576Y-124774053D01*
X155465931Y-124814006D01*
X155653203Y-125042197D01*
X155881395Y-125229469D01*
X156141737Y-125368625D01*
X156424224Y-125454316D01*
X156718000Y-125483251D01*
X157011777Y-125454316D01*
X157294264Y-125368625D01*
X157554606Y-125229469D01*
X157782797Y-125042197D01*
X157970069Y-124814006D01*
X158109225Y-124553663D01*
X158194916Y-124271176D01*
X158216600Y-124051018D01*
X158216600Y-123598982D01*
X160299400Y-123598982D01*
X160299400Y-124051019D01*
X160321084Y-124271177D01*
X160406775Y-124553664D01*
X160545931Y-124814006D01*
X160733203Y-125042197D01*
X160961395Y-125229469D01*
X161221737Y-125368625D01*
X161504224Y-125454316D01*
X161798000Y-125483251D01*
X162091777Y-125454316D01*
X162374264Y-125368625D01*
X162634606Y-125229469D01*
X162862797Y-125042197D01*
X163050069Y-124814006D01*
X163068000Y-124780459D01*
X163085931Y-124814006D01*
X163273203Y-125042197D01*
X163501395Y-125229469D01*
X163761737Y-125368625D01*
X164044224Y-125454316D01*
X164338000Y-125483251D01*
X164631777Y-125454316D01*
X164914264Y-125368625D01*
X165174606Y-125229469D01*
X165402797Y-125042197D01*
X165590069Y-124814006D01*
X165608000Y-124780459D01*
X165625931Y-124814006D01*
X165813203Y-125042197D01*
X166041395Y-125229469D01*
X166301737Y-125368625D01*
X166584224Y-125454316D01*
X166878000Y-125483251D01*
X167171777Y-125454316D01*
X167454264Y-125368625D01*
X167714606Y-125229469D01*
X167942797Y-125042197D01*
X168130069Y-124814006D01*
X168148000Y-124780459D01*
X168165931Y-124814006D01*
X168353203Y-125042197D01*
X168581395Y-125229469D01*
X168841737Y-125368625D01*
X169124224Y-125454316D01*
X169418000Y-125483251D01*
X169711777Y-125454316D01*
X169994264Y-125368625D01*
X170254606Y-125229469D01*
X170482797Y-125042197D01*
X170670069Y-124814006D01*
X170688000Y-124780459D01*
X170705931Y-124814006D01*
X170893203Y-125042197D01*
X171121395Y-125229469D01*
X171381737Y-125368625D01*
X171664224Y-125454316D01*
X171958000Y-125483251D01*
X172251777Y-125454316D01*
X172534264Y-125368625D01*
X172794606Y-125229469D01*
X173022797Y-125042197D01*
X173210069Y-124814006D01*
X173228000Y-124780459D01*
X173245931Y-124814006D01*
X173433203Y-125042197D01*
X173661395Y-125229469D01*
X173921737Y-125368625D01*
X174204224Y-125454316D01*
X174498000Y-125483251D01*
X174791777Y-125454316D01*
X175074264Y-125368625D01*
X175334606Y-125229469D01*
X175562797Y-125042197D01*
X175750069Y-124814006D01*
X175889225Y-124553663D01*
X175974916Y-124271176D01*
X175996600Y-124051018D01*
X175996600Y-123598981D01*
X175974916Y-123378823D01*
X175889225Y-123096336D01*
X175750069Y-122835994D01*
X175562797Y-122607803D01*
X175334605Y-122420531D01*
X175074263Y-122281375D01*
X174791776Y-122195684D01*
X174498000Y-122166749D01*
X174204223Y-122195684D01*
X173921736Y-122281375D01*
X173661394Y-122420531D01*
X173433203Y-122607803D01*
X173245931Y-122835995D01*
X173228000Y-122869541D01*
X173210069Y-122835994D01*
X173022797Y-122607803D01*
X172794605Y-122420531D01*
X172534263Y-122281375D01*
X172251776Y-122195684D01*
X171958000Y-122166749D01*
X171664223Y-122195684D01*
X171381736Y-122281375D01*
X171121394Y-122420531D01*
X170893203Y-122607803D01*
X170705931Y-122835995D01*
X170688000Y-122869541D01*
X170670069Y-122835994D01*
X170482797Y-122607803D01*
X170254605Y-122420531D01*
X169994263Y-122281375D01*
X169711776Y-122195684D01*
X169418000Y-122166749D01*
X169124223Y-122195684D01*
X168841736Y-122281375D01*
X168581394Y-122420531D01*
X168353203Y-122607803D01*
X168165931Y-122835995D01*
X168148000Y-122869541D01*
X168130069Y-122835994D01*
X167942797Y-122607803D01*
X167714605Y-122420531D01*
X167454263Y-122281375D01*
X167171776Y-122195684D01*
X166878000Y-122166749D01*
X166584223Y-122195684D01*
X166301736Y-122281375D01*
X166041394Y-122420531D01*
X165813203Y-122607803D01*
X165625931Y-122835995D01*
X165608000Y-122869541D01*
X165590069Y-122835994D01*
X165402797Y-122607803D01*
X165174605Y-122420531D01*
X164914263Y-122281375D01*
X164631776Y-122195684D01*
X164338000Y-122166749D01*
X164044223Y-122195684D01*
X163761736Y-122281375D01*
X163501394Y-122420531D01*
X163273203Y-122607803D01*
X163085931Y-122835995D01*
X163068000Y-122869541D01*
X163050069Y-122835994D01*
X162862797Y-122607803D01*
X162634605Y-122420531D01*
X162374263Y-122281375D01*
X162091776Y-122195684D01*
X161798000Y-122166749D01*
X161504223Y-122195684D01*
X161221736Y-122281375D01*
X160961394Y-122420531D01*
X160733203Y-122607803D01*
X160545931Y-122835995D01*
X160406775Y-123096337D01*
X160321084Y-123378824D01*
X160299400Y-123598982D01*
X158216600Y-123598982D01*
X158216600Y-123598981D01*
X158194916Y-123378823D01*
X158109225Y-123096336D01*
X157970069Y-122835994D01*
X157782797Y-122607803D01*
X157554605Y-122420531D01*
X157294263Y-122281375D01*
X157011776Y-122195684D01*
X156718000Y-122166749D01*
X156424223Y-122195684D01*
X156141736Y-122281375D01*
X155881394Y-122420531D01*
X155653203Y-122607803D01*
X155465931Y-122835995D01*
X155444576Y-122875947D01*
X155296486Y-122673271D01*
X155080035Y-122474267D01*
X154828919Y-122321314D01*
X154552789Y-122220291D01*
X154537026Y-122217642D01*
X154305000Y-122338783D01*
X154051000Y-122338783D01*
X153818974Y-122217642D01*
X153803211Y-122220291D01*
X153527081Y-122321314D01*
X153275965Y-122474267D01*
X153059514Y-122673271D01*
X152908000Y-122880633D01*
X152756486Y-122673271D01*
X152540035Y-122474267D01*
X152288919Y-122321314D01*
X152012789Y-122220291D01*
X151997026Y-122217642D01*
X151765000Y-122338783D01*
X151511000Y-122338783D01*
X151278974Y-122217642D01*
X151263211Y-122220291D01*
X150987081Y-122321314D01*
X150735965Y-122474267D01*
X150519514Y-122673271D01*
X150371424Y-122875947D01*
X150350069Y-122835994D01*
X150162797Y-122607803D01*
X150108000Y-122562832D01*
X150108000Y-118794604D01*
X150112886Y-118744999D01*
X150097995Y-118593816D01*
X150093385Y-118547006D01*
X150035632Y-118356620D01*
X149941847Y-118181160D01*
X149815633Y-118027367D01*
X149777094Y-117995739D01*
X149263000Y-117481645D01*
X149263000Y-117333665D01*
X156553000Y-117333665D01*
X156553000Y-117616335D01*
X156608147Y-117893574D01*
X156716320Y-118154727D01*
X156873363Y-118389759D01*
X157073241Y-118589637D01*
X157308273Y-118746680D01*
X157569426Y-118854853D01*
X157846665Y-118910000D01*
X158129335Y-118910000D01*
X158406574Y-118854853D01*
X158667727Y-118746680D01*
X158902759Y-118589637D01*
X159102637Y-118389759D01*
X159259680Y-118154727D01*
X159367853Y-117893574D01*
X159423000Y-117616335D01*
X159423000Y-117333665D01*
X159367853Y-117056426D01*
X159259680Y-116795273D01*
X159102637Y-116560241D01*
X158902759Y-116360363D01*
X158667727Y-116203320D01*
X158406574Y-116095147D01*
X158129335Y-116040000D01*
X157846665Y-116040000D01*
X157569426Y-116095147D01*
X157308273Y-116203320D01*
X157073241Y-116360363D01*
X156873363Y-116560241D01*
X156716320Y-116795273D01*
X156608147Y-117056426D01*
X156553000Y-117333665D01*
X149263000Y-117333665D01*
X149207853Y-117056426D01*
X149099680Y-116795273D01*
X148942637Y-116560241D01*
X148838000Y-116455604D01*
X148838000Y-113794870D01*
X148872180Y-113784502D01*
X148982494Y-113725537D01*
X149079185Y-113646185D01*
X149158537Y-113549494D01*
X149217502Y-113439180D01*
X149253812Y-113319482D01*
X149266072Y-113195000D01*
X149266072Y-111595000D01*
X149253812Y-111470518D01*
X149217502Y-111350820D01*
X149158537Y-111240506D01*
X149079185Y-111143815D01*
X148982494Y-111064463D01*
X148872180Y-111005498D01*
X148752482Y-110969188D01*
X148628000Y-110956928D01*
X148620785Y-110956928D01*
X148641097Y-110887702D01*
X147828000Y-110074605D01*
X147014903Y-110887702D01*
X147035215Y-110956928D01*
X147028000Y-110956928D01*
X146903518Y-110969188D01*
X146783820Y-111005498D01*
X146673506Y-111064463D01*
X146576815Y-111143815D01*
X146497463Y-111240506D01*
X146438498Y-111350820D01*
X146428130Y-111385000D01*
X141527604Y-111385000D01*
X141477999Y-111380114D01*
X141428394Y-111385000D01*
X141428392Y-111385000D01*
X141280006Y-111399615D01*
X141089620Y-111457368D01*
X140914160Y-111551153D01*
X140760367Y-111677367D01*
X140728739Y-111715906D01*
X140214645Y-112230000D01*
X140066665Y-112230000D01*
X139789426Y-112285147D01*
X139528273Y-112393320D01*
X139293241Y-112550363D01*
X139272480Y-112571125D01*
X138678000Y-111976645D01*
X138678000Y-109657702D01*
X139394903Y-109657702D01*
X139466486Y-109901671D01*
X139721996Y-110022571D01*
X139996184Y-110091300D01*
X140278512Y-110105217D01*
X140558130Y-110063787D01*
X140824292Y-109968603D01*
X140830074Y-109965512D01*
X146387783Y-109965512D01*
X146429213Y-110245130D01*
X146524397Y-110511292D01*
X146591329Y-110636514D01*
X146835298Y-110708097D01*
X147648395Y-109895000D01*
X148007605Y-109895000D01*
X148820702Y-110708097D01*
X149064671Y-110636514D01*
X149185571Y-110381004D01*
X149254300Y-110106816D01*
X149268217Y-109824488D01*
X149226787Y-109544870D01*
X149131603Y-109278708D01*
X149064671Y-109153486D01*
X148820702Y-109081903D01*
X148007605Y-109895000D01*
X147648395Y-109895000D01*
X146835298Y-109081903D01*
X146591329Y-109153486D01*
X146470429Y-109408996D01*
X146401700Y-109683184D01*
X146387783Y-109965512D01*
X140830074Y-109965512D01*
X140949514Y-109901671D01*
X141021097Y-109657702D01*
X140208000Y-108844605D01*
X139394903Y-109657702D01*
X138678000Y-109657702D01*
X138678000Y-108735512D01*
X138767783Y-108735512D01*
X138809213Y-109015130D01*
X138904397Y-109281292D01*
X138971329Y-109406514D01*
X139215298Y-109478097D01*
X140028395Y-108665000D01*
X140387605Y-108665000D01*
X141200702Y-109478097D01*
X141444671Y-109406514D01*
X141565571Y-109151004D01*
X141627912Y-108902298D01*
X147014903Y-108902298D01*
X147828000Y-109715395D01*
X148641097Y-108902298D01*
X148569514Y-108658329D01*
X148314004Y-108537429D01*
X148039816Y-108468700D01*
X147757488Y-108454783D01*
X147477870Y-108496213D01*
X147211708Y-108591397D01*
X147086486Y-108658329D01*
X147014903Y-108902298D01*
X141627912Y-108902298D01*
X141634300Y-108876816D01*
X141648217Y-108594488D01*
X141606787Y-108314870D01*
X141511603Y-108048708D01*
X141444671Y-107923486D01*
X141200702Y-107851903D01*
X140387605Y-108665000D01*
X140028395Y-108665000D01*
X139215298Y-107851903D01*
X138971329Y-107923486D01*
X138850429Y-108178996D01*
X138781700Y-108453184D01*
X138767783Y-108735512D01*
X138678000Y-108735512D01*
X138678000Y-107672298D01*
X139394903Y-107672298D01*
X140208000Y-108485395D01*
X141021097Y-107672298D01*
X140949514Y-107428329D01*
X140694004Y-107307429D01*
X140419816Y-107238700D01*
X140137488Y-107224783D01*
X139857870Y-107266213D01*
X139591708Y-107361397D01*
X139466486Y-107428329D01*
X139394903Y-107672298D01*
X138678000Y-107672298D01*
X138678000Y-106463355D01*
X140201356Y-104940000D01*
X140349335Y-104940000D01*
X140626574Y-104884853D01*
X140887727Y-104776680D01*
X141122759Y-104619637D01*
X141322637Y-104419759D01*
X141479680Y-104184727D01*
X141587853Y-103923574D01*
X141643000Y-103646335D01*
X141643000Y-103498355D01*
X144697100Y-100444256D01*
X144735633Y-100412633D01*
X144861847Y-100258840D01*
X144955632Y-100083380D01*
X145013385Y-99892994D01*
X145028000Y-99744608D01*
X145028000Y-99744607D01*
X145032886Y-99695000D01*
X145028000Y-99645392D01*
X145028000Y-95033355D01*
X147237100Y-92824256D01*
X147275633Y-92792633D01*
X147401847Y-92638840D01*
X147495632Y-92463380D01*
X147553385Y-92272994D01*
X147568000Y-92124608D01*
X147568000Y-92124606D01*
X147572886Y-92075001D01*
X147568000Y-92025396D01*
X147568000Y-91824396D01*
X147672637Y-91719759D01*
X147829680Y-91484727D01*
X147937853Y-91223574D01*
X147993000Y-90946335D01*
X147993000Y-90663665D01*
X147937853Y-90386426D01*
X147829680Y-90125273D01*
X147672637Y-89890241D01*
X147472759Y-89690363D01*
X147237727Y-89533320D01*
X146976574Y-89425147D01*
X146699335Y-89370000D01*
X146416665Y-89370000D01*
X146139426Y-89425147D01*
X145878273Y-89533320D01*
X145643241Y-89690363D01*
X145443363Y-89890241D01*
X145286320Y-90125273D01*
X145178147Y-90386426D01*
X145123000Y-90663665D01*
X145123000Y-90946335D01*
X145178147Y-91223574D01*
X145286320Y-91484727D01*
X145443363Y-91719759D01*
X145464124Y-91740520D01*
X143338901Y-93865744D01*
X143300368Y-93897367D01*
X143268745Y-93935900D01*
X143268744Y-93935901D01*
X143174154Y-94051160D01*
X143080368Y-94226621D01*
X143022615Y-94417006D01*
X143003114Y-94615000D01*
X143008001Y-94664618D01*
X143008000Y-99276644D01*
X141612801Y-100671844D01*
X141587853Y-100546426D01*
X141479680Y-100285273D01*
X141322637Y-100050241D01*
X141122759Y-99850363D01*
X140890241Y-99695000D01*
X141122759Y-99539637D01*
X141322637Y-99339759D01*
X141479680Y-99104727D01*
X141587853Y-98843574D01*
X141643000Y-98566335D01*
X141643000Y-98283665D01*
X141587853Y-98006426D01*
X141479680Y-97745273D01*
X141322637Y-97510241D01*
X141122759Y-97310363D01*
X140887727Y-97153320D01*
X140877135Y-97148933D01*
X141063131Y-97037385D01*
X141271519Y-96848414D01*
X141439037Y-96622420D01*
X141559246Y-96368087D01*
X141599904Y-96234039D01*
X141477915Y-96012000D01*
X140335000Y-96012000D01*
X140335000Y-96032000D01*
X140081000Y-96032000D01*
X140081000Y-96012000D01*
X138938085Y-96012000D01*
X138816096Y-96234039D01*
X138856754Y-96368087D01*
X138976963Y-96622420D01*
X139144481Y-96848414D01*
X139352869Y-97037385D01*
X139538865Y-97148933D01*
X139528273Y-97153320D01*
X139293241Y-97310363D01*
X139093363Y-97510241D01*
X138986481Y-97670202D01*
X138927644Y-97675997D01*
X138784383Y-97719454D01*
X138652353Y-97790026D01*
X138582569Y-97847297D01*
X138536629Y-97884999D01*
X138512831Y-97913997D01*
X124456998Y-111969831D01*
X124428000Y-111993629D01*
X124404202Y-112022627D01*
X124404201Y-112022628D01*
X124333026Y-112109354D01*
X124262454Y-112241384D01*
X124232180Y-112341188D01*
X124218998Y-112384644D01*
X124217978Y-112395000D01*
X124204324Y-112533630D01*
X124208001Y-112570962D01*
X124208000Y-119807677D01*
X124204324Y-119845000D01*
X124208000Y-119882322D01*
X124208000Y-119882332D01*
X124218997Y-119993985D01*
X124252763Y-120105299D01*
X124262454Y-120137246D01*
X124333026Y-120269276D01*
X124372871Y-120317826D01*
X124427999Y-120385001D01*
X124457003Y-120408804D01*
X125206199Y-121158000D01*
X124705323Y-121158000D01*
X124190065Y-121260492D01*
X123704702Y-121461536D01*
X123267887Y-121753406D01*
X123138000Y-121883293D01*
X123138000Y-113699877D01*
X123141435Y-113665000D01*
X123127727Y-113525816D01*
X123087128Y-113391980D01*
X123021200Y-113268637D01*
X122932475Y-113160525D01*
X122824363Y-113071800D01*
X122701020Y-113005872D01*
X122567184Y-112965273D01*
X122501877Y-112958841D01*
X122428000Y-112951565D01*
X122393123Y-112955000D01*
X106628000Y-112955000D01*
X106628000Y-109401052D01*
X111621553Y-109401052D01*
X111771548Y-109711493D01*
X112137819Y-109897311D01*
X112533303Y-110008101D01*
X112942801Y-110039609D01*
X113350577Y-109990621D01*
X113740962Y-109863021D01*
X114024452Y-109711493D01*
X114174447Y-109401052D01*
X112898000Y-108124605D01*
X111621553Y-109401052D01*
X106628000Y-109401052D01*
X106628000Y-107989801D01*
X110803391Y-107989801D01*
X110852379Y-108397577D01*
X110979979Y-108787962D01*
X111131507Y-109071452D01*
X111441948Y-109221447D01*
X112718395Y-107945000D01*
X113077605Y-107945000D01*
X114354052Y-109221447D01*
X114664493Y-109071452D01*
X114850311Y-108705181D01*
X114961101Y-108309697D01*
X114992609Y-107900199D01*
X114943621Y-107492423D01*
X114816021Y-107102038D01*
X114664493Y-106818548D01*
X114354052Y-106668553D01*
X113077605Y-107945000D01*
X112718395Y-107945000D01*
X111441948Y-106668553D01*
X111131507Y-106818548D01*
X110945689Y-107184819D01*
X110834899Y-107580303D01*
X110803391Y-107989801D01*
X106628000Y-107989801D01*
X106628000Y-106488948D01*
X111621553Y-106488948D01*
X112898000Y-107765395D01*
X114174447Y-106488948D01*
X114024452Y-106178507D01*
X113658181Y-105992689D01*
X113262697Y-105881899D01*
X112853199Y-105850391D01*
X112445423Y-105899379D01*
X112055038Y-106026979D01*
X111771548Y-106178507D01*
X111621553Y-106488948D01*
X106628000Y-106488948D01*
X106628000Y-105139023D01*
X121613582Y-105139023D01*
X121793648Y-105475060D01*
X122202474Y-105685820D01*
X122644562Y-105812772D01*
X123102922Y-105851037D01*
X123559940Y-105799146D01*
X123998053Y-105659092D01*
X124342352Y-105475060D01*
X124522418Y-105139023D01*
X123068000Y-103684605D01*
X121613582Y-105139023D01*
X106628000Y-105139023D01*
X106628000Y-103363665D01*
X108293000Y-103363665D01*
X108293000Y-103646335D01*
X108348147Y-103923574D01*
X108456320Y-104184727D01*
X108613363Y-104419759D01*
X108813241Y-104619637D01*
X109048273Y-104776680D01*
X109309426Y-104884853D01*
X109586665Y-104940000D01*
X109869335Y-104940000D01*
X110146574Y-104884853D01*
X110407727Y-104776680D01*
X110642759Y-104619637D01*
X110842637Y-104419759D01*
X110999680Y-104184727D01*
X111107853Y-103923574D01*
X111163000Y-103646335D01*
X111163000Y-103539922D01*
X120721963Y-103539922D01*
X120773854Y-103996940D01*
X120913908Y-104435053D01*
X121097940Y-104779352D01*
X121433977Y-104959418D01*
X122888395Y-103505000D01*
X123247605Y-103505000D01*
X124702023Y-104959418D01*
X125038060Y-104779352D01*
X125248820Y-104370526D01*
X125375772Y-103928438D01*
X125414037Y-103470078D01*
X125401955Y-103363665D01*
X128613000Y-103363665D01*
X128613000Y-103646335D01*
X128668147Y-103923574D01*
X128776320Y-104184727D01*
X128933363Y-104419759D01*
X129133241Y-104619637D01*
X129368273Y-104776680D01*
X129629426Y-104884853D01*
X129906665Y-104940000D01*
X130189335Y-104940000D01*
X130466574Y-104884853D01*
X130727727Y-104776680D01*
X130962759Y-104619637D01*
X131162637Y-104419759D01*
X131319680Y-104184727D01*
X131427853Y-103923574D01*
X131483000Y-103646335D01*
X131483000Y-103363665D01*
X131427853Y-103086426D01*
X131319680Y-102825273D01*
X131162637Y-102590241D01*
X130962759Y-102390363D01*
X130727727Y-102233320D01*
X130466574Y-102125147D01*
X130189335Y-102070000D01*
X129906665Y-102070000D01*
X129629426Y-102125147D01*
X129368273Y-102233320D01*
X129133241Y-102390363D01*
X128933363Y-102590241D01*
X128776320Y-102825273D01*
X128668147Y-103086426D01*
X128613000Y-103363665D01*
X125401955Y-103363665D01*
X125362146Y-103013060D01*
X125222092Y-102574947D01*
X125038060Y-102230648D01*
X124702023Y-102050582D01*
X123247605Y-103505000D01*
X122888395Y-103505000D01*
X121433977Y-102050582D01*
X121097940Y-102230648D01*
X120887180Y-102639474D01*
X120760228Y-103081562D01*
X120721963Y-103539922D01*
X111163000Y-103539922D01*
X111163000Y-103363665D01*
X111107853Y-103086426D01*
X110999680Y-102825273D01*
X110842637Y-102590241D01*
X110642759Y-102390363D01*
X110407727Y-102233320D01*
X110146574Y-102125147D01*
X109869335Y-102070000D01*
X109586665Y-102070000D01*
X109309426Y-102125147D01*
X109048273Y-102233320D01*
X108813241Y-102390363D01*
X108613363Y-102590241D01*
X108456320Y-102825273D01*
X108348147Y-103086426D01*
X108293000Y-103363665D01*
X106628000Y-103363665D01*
X106628000Y-99489645D01*
X117168000Y-99489645D01*
X117168000Y-99900355D01*
X117248126Y-100303172D01*
X117405297Y-100682618D01*
X117633475Y-101024110D01*
X117923890Y-101314525D01*
X118265382Y-101542703D01*
X118644828Y-101699874D01*
X119047645Y-101780000D01*
X119458355Y-101780000D01*
X119861172Y-101699874D01*
X120240618Y-101542703D01*
X120582110Y-101314525D01*
X120872525Y-101024110D01*
X121100703Y-100682618D01*
X121160500Y-100538255D01*
X121220297Y-100682618D01*
X121448475Y-101024110D01*
X121738890Y-101314525D01*
X121946494Y-101453242D01*
X121793648Y-101534940D01*
X121613582Y-101870977D01*
X123068000Y-103325395D01*
X124522418Y-101870977D01*
X124342352Y-101534940D01*
X124187054Y-101454880D01*
X124397110Y-101314525D01*
X124687525Y-101024110D01*
X124915703Y-100682618D01*
X125072874Y-100303172D01*
X125153000Y-99900355D01*
X125153000Y-99489645D01*
X125072874Y-99086828D01*
X124915703Y-98707382D01*
X124687525Y-98365890D01*
X124397110Y-98075475D01*
X124194861Y-97940336D01*
X124556476Y-97698713D01*
X124881713Y-97373476D01*
X125137250Y-96991037D01*
X125313267Y-96566094D01*
X125403000Y-96114977D01*
X125403000Y-95655023D01*
X125313267Y-95203906D01*
X125264015Y-95085000D01*
X128609928Y-95085000D01*
X128609928Y-96685000D01*
X128622188Y-96809482D01*
X128658498Y-96929180D01*
X128717463Y-97039494D01*
X128796815Y-97136185D01*
X128893506Y-97215537D01*
X129003820Y-97274502D01*
X129123518Y-97310812D01*
X129248000Y-97323072D01*
X130848000Y-97323072D01*
X130972482Y-97310812D01*
X131092180Y-97274502D01*
X131202494Y-97215537D01*
X131299185Y-97136185D01*
X131378537Y-97039494D01*
X131437502Y-96929180D01*
X131473812Y-96809482D01*
X131486072Y-96685000D01*
X131486072Y-95085000D01*
X131473812Y-94960518D01*
X131437502Y-94840820D01*
X131378537Y-94730506D01*
X131299185Y-94633815D01*
X131202494Y-94554463D01*
X131092180Y-94495498D01*
X131020207Y-94473665D01*
X133693000Y-94473665D01*
X133693000Y-94756335D01*
X133748147Y-95033574D01*
X133856320Y-95294727D01*
X134013363Y-95529759D01*
X134213241Y-95729637D01*
X134448273Y-95886680D01*
X134709426Y-95994853D01*
X134986665Y-96050000D01*
X135269335Y-96050000D01*
X135546574Y-95994853D01*
X135807727Y-95886680D01*
X136042759Y-95729637D01*
X136236435Y-95535961D01*
X138816096Y-95535961D01*
X138938085Y-95758000D01*
X140081000Y-95758000D01*
X140081000Y-94614376D01*
X140335000Y-94614376D01*
X140335000Y-95758000D01*
X141477915Y-95758000D01*
X141599904Y-95535961D01*
X141559246Y-95401913D01*
X141439037Y-95147580D01*
X141271519Y-94921586D01*
X141063131Y-94732615D01*
X140821881Y-94587930D01*
X140557040Y-94493091D01*
X140335000Y-94614376D01*
X140081000Y-94614376D01*
X139858960Y-94493091D01*
X139594119Y-94587930D01*
X139352869Y-94732615D01*
X139144481Y-94921586D01*
X138976963Y-95147580D01*
X138856754Y-95401913D01*
X138816096Y-95535961D01*
X136236435Y-95535961D01*
X136242637Y-95529759D01*
X136399680Y-95294727D01*
X136507853Y-95033574D01*
X136563000Y-94756335D01*
X136563000Y-94473665D01*
X136507853Y-94196426D01*
X136399680Y-93935273D01*
X136242637Y-93700241D01*
X136042759Y-93500363D01*
X135807727Y-93343320D01*
X135546574Y-93235147D01*
X135269335Y-93180000D01*
X134986665Y-93180000D01*
X134709426Y-93235147D01*
X134448273Y-93343320D01*
X134213241Y-93500363D01*
X134013363Y-93700241D01*
X133856320Y-93935273D01*
X133748147Y-94196426D01*
X133693000Y-94473665D01*
X131020207Y-94473665D01*
X130972482Y-94459188D01*
X130848000Y-94446928D01*
X129248000Y-94446928D01*
X129123518Y-94459188D01*
X129003820Y-94495498D01*
X128893506Y-94554463D01*
X128796815Y-94633815D01*
X128717463Y-94730506D01*
X128658498Y-94840820D01*
X128622188Y-94960518D01*
X128609928Y-95085000D01*
X125264015Y-95085000D01*
X125137250Y-94778963D01*
X124881713Y-94396524D01*
X124556476Y-94071287D01*
X124174037Y-93815750D01*
X123749094Y-93639733D01*
X123297977Y-93550000D01*
X122838023Y-93550000D01*
X122386906Y-93639733D01*
X121961963Y-93815750D01*
X121579524Y-94071287D01*
X121254287Y-94396524D01*
X120998750Y-94778963D01*
X120822733Y-95203906D01*
X120733000Y-95655023D01*
X120733000Y-96114977D01*
X120822733Y-96566094D01*
X120998750Y-96991037D01*
X121254287Y-97373476D01*
X121579524Y-97698713D01*
X121941139Y-97940336D01*
X121738890Y-98075475D01*
X121448475Y-98365890D01*
X121220297Y-98707382D01*
X121160500Y-98851745D01*
X121100703Y-98707382D01*
X120872525Y-98365890D01*
X120582110Y-98075475D01*
X120240618Y-97847297D01*
X119861172Y-97690126D01*
X119458355Y-97610000D01*
X119047645Y-97610000D01*
X118644828Y-97690126D01*
X118265382Y-97847297D01*
X117923890Y-98075475D01*
X117633475Y-98365890D01*
X117405297Y-98707382D01*
X117248126Y-99086828D01*
X117168000Y-99489645D01*
X106628000Y-99489645D01*
X106628000Y-95743665D01*
X113373000Y-95743665D01*
X113373000Y-96026335D01*
X113428147Y-96303574D01*
X113536320Y-96564727D01*
X113693363Y-96799759D01*
X113893241Y-96999637D01*
X114128273Y-97156680D01*
X114389426Y-97264853D01*
X114666665Y-97320000D01*
X114949335Y-97320000D01*
X115226574Y-97264853D01*
X115487727Y-97156680D01*
X115722759Y-96999637D01*
X115922637Y-96799759D01*
X116079680Y-96564727D01*
X116187853Y-96303574D01*
X116243000Y-96026335D01*
X116243000Y-95743665D01*
X116187853Y-95466426D01*
X116079680Y-95205273D01*
X115922637Y-94970241D01*
X115722759Y-94770363D01*
X115487727Y-94613320D01*
X115226574Y-94505147D01*
X114949335Y-94450000D01*
X114666665Y-94450000D01*
X114389426Y-94505147D01*
X114128273Y-94613320D01*
X113893241Y-94770363D01*
X113693363Y-94970241D01*
X113536320Y-95205273D01*
X113428147Y-95466426D01*
X113373000Y-95743665D01*
X106628000Y-95743665D01*
X106628000Y-92509645D01*
X117168000Y-92509645D01*
X117168000Y-92920355D01*
X117248126Y-93323172D01*
X117405297Y-93702618D01*
X117633475Y-94044110D01*
X117923890Y-94334525D01*
X118265382Y-94562703D01*
X118644828Y-94719874D01*
X119047645Y-94800000D01*
X119458355Y-94800000D01*
X119861172Y-94719874D01*
X120240618Y-94562703D01*
X120582110Y-94334525D01*
X120872525Y-94044110D01*
X121100703Y-93702618D01*
X121257874Y-93323172D01*
X121338000Y-92920355D01*
X121338000Y-92509645D01*
X121257874Y-92106828D01*
X121100703Y-91727382D01*
X120872525Y-91385890D01*
X120582110Y-91095475D01*
X120240618Y-90867297D01*
X119861172Y-90710126D01*
X119458355Y-90630000D01*
X119047645Y-90630000D01*
X118644828Y-90710126D01*
X118265382Y-90867297D01*
X117923890Y-91095475D01*
X117633475Y-91385890D01*
X117405297Y-91727382D01*
X117248126Y-92106828D01*
X117168000Y-92509645D01*
X106628000Y-92509645D01*
X106628000Y-90604570D01*
X126743000Y-90604570D01*
X126743000Y-91005430D01*
X126821204Y-91398587D01*
X126974607Y-91768934D01*
X127197313Y-92102237D01*
X127480763Y-92385687D01*
X127814066Y-92608393D01*
X128184413Y-92761796D01*
X128577570Y-92840000D01*
X128978430Y-92840000D01*
X129371587Y-92761796D01*
X129741934Y-92608393D01*
X130075237Y-92385687D01*
X130358687Y-92102237D01*
X130581393Y-91768934D01*
X130734796Y-91398587D01*
X130813000Y-91005430D01*
X130813000Y-90604570D01*
X130734796Y-90211413D01*
X130581393Y-89841066D01*
X130358687Y-89507763D01*
X130255924Y-89405000D01*
X133259928Y-89405000D01*
X133259928Y-92205000D01*
X133272188Y-92329482D01*
X133308498Y-92449180D01*
X133367463Y-92559494D01*
X133446815Y-92656185D01*
X133543506Y-92735537D01*
X133653820Y-92794502D01*
X133773518Y-92830812D01*
X133898000Y-92843072D01*
X136698000Y-92843072D01*
X136822482Y-92830812D01*
X136942180Y-92794502D01*
X137052494Y-92735537D01*
X137149185Y-92656185D01*
X137228537Y-92559494D01*
X137287502Y-92449180D01*
X137323812Y-92329482D01*
X137336072Y-92205000D01*
X137336072Y-91154040D01*
X140086091Y-91154040D01*
X140180930Y-91418881D01*
X140325615Y-91660131D01*
X140514586Y-91868519D01*
X140740580Y-92036037D01*
X140994913Y-92156246D01*
X141128961Y-92196904D01*
X141351000Y-92074915D01*
X141351000Y-90932000D01*
X141605000Y-90932000D01*
X141605000Y-92074915D01*
X141827039Y-92196904D01*
X141961087Y-92156246D01*
X142215420Y-92036037D01*
X142441414Y-91868519D01*
X142630385Y-91660131D01*
X142775070Y-91418881D01*
X142869909Y-91154040D01*
X142748624Y-90932000D01*
X141605000Y-90932000D01*
X141351000Y-90932000D01*
X140207376Y-90932000D01*
X140086091Y-91154040D01*
X137336072Y-91154040D01*
X137336072Y-90455960D01*
X140086091Y-90455960D01*
X140207376Y-90678000D01*
X141351000Y-90678000D01*
X141351000Y-89535085D01*
X141605000Y-89535085D01*
X141605000Y-90678000D01*
X142748624Y-90678000D01*
X142869909Y-90455960D01*
X142775070Y-90191119D01*
X142630385Y-89949869D01*
X142441414Y-89741481D01*
X142215420Y-89573963D01*
X141961087Y-89453754D01*
X141827039Y-89413096D01*
X141605000Y-89535085D01*
X141351000Y-89535085D01*
X141128961Y-89413096D01*
X140994913Y-89453754D01*
X140740580Y-89573963D01*
X140514586Y-89741481D01*
X140325615Y-89949869D01*
X140180930Y-90191119D01*
X140086091Y-90455960D01*
X137336072Y-90455960D01*
X137336072Y-89405000D01*
X137323812Y-89280518D01*
X137287502Y-89160820D01*
X137228537Y-89050506D01*
X137149185Y-88953815D01*
X137052494Y-88874463D01*
X136942180Y-88815498D01*
X136822482Y-88779188D01*
X136698000Y-88766928D01*
X133898000Y-88766928D01*
X133773518Y-88779188D01*
X133653820Y-88815498D01*
X133543506Y-88874463D01*
X133446815Y-88953815D01*
X133367463Y-89050506D01*
X133308498Y-89160820D01*
X133272188Y-89280518D01*
X133259928Y-89405000D01*
X130255924Y-89405000D01*
X130075237Y-89224313D01*
X129741934Y-89001607D01*
X129371587Y-88848204D01*
X128978430Y-88770000D01*
X128577570Y-88770000D01*
X128184413Y-88848204D01*
X127814066Y-89001607D01*
X127480763Y-89224313D01*
X127197313Y-89507763D01*
X126974607Y-89841066D01*
X126821204Y-90211413D01*
X126743000Y-90604570D01*
X106628000Y-90604570D01*
X106628000Y-86435000D01*
X123663123Y-86435000D01*
X123698000Y-86438435D01*
X123732877Y-86435000D01*
X123837184Y-86424727D01*
X123971020Y-86384128D01*
X124094363Y-86318200D01*
X124202475Y-86229475D01*
X124291200Y-86121363D01*
X124357128Y-85998020D01*
X124397727Y-85864184D01*
X124411435Y-85725000D01*
X124408000Y-85690123D01*
X124408000Y-82045000D01*
X126739928Y-82045000D01*
X126752188Y-82169482D01*
X126788498Y-82289180D01*
X126847463Y-82399494D01*
X126926815Y-82496185D01*
X127023506Y-82575537D01*
X127133820Y-82634502D01*
X127253518Y-82670812D01*
X127378000Y-82683072D01*
X128492250Y-82680000D01*
X128651000Y-82521250D01*
X128651000Y-80772000D01*
X128905000Y-80772000D01*
X128905000Y-82521250D01*
X129063750Y-82680000D01*
X130178000Y-82683072D01*
X130302482Y-82670812D01*
X130422180Y-82634502D01*
X130532494Y-82575537D01*
X130629185Y-82496185D01*
X130708537Y-82399494D01*
X130767502Y-82289180D01*
X130803812Y-82169482D01*
X130816072Y-82045000D01*
X130813434Y-81088161D01*
X133311836Y-81088161D01*
X133436456Y-81467127D01*
X133632614Y-81814499D01*
X133892772Y-82116928D01*
X134206932Y-82362792D01*
X134563021Y-82542642D01*
X134854840Y-82631160D01*
X135171000Y-82516947D01*
X135171000Y-80772000D01*
X135425000Y-80772000D01*
X135425000Y-82516947D01*
X135741160Y-82631160D01*
X136032979Y-82542642D01*
X136389068Y-82362792D01*
X136703228Y-82116928D01*
X136963386Y-81814499D01*
X137159544Y-81467127D01*
X137284164Y-81088161D01*
X137170287Y-80772000D01*
X135425000Y-80772000D01*
X135171000Y-80772000D01*
X133425713Y-80772000D01*
X133311836Y-81088161D01*
X130813434Y-81088161D01*
X130813000Y-80930750D01*
X130654250Y-80772000D01*
X128905000Y-80772000D01*
X128651000Y-80772000D01*
X126901750Y-80772000D01*
X126743000Y-80930750D01*
X126739928Y-82045000D01*
X124408000Y-82045000D01*
X124408000Y-79245000D01*
X126739928Y-79245000D01*
X126743000Y-80359250D01*
X126901750Y-80518000D01*
X128651000Y-80518000D01*
X128651000Y-78768750D01*
X128905000Y-78768750D01*
X128905000Y-80518000D01*
X130654250Y-80518000D01*
X130813000Y-80359250D01*
X130813433Y-80201839D01*
X133311836Y-80201839D01*
X133425713Y-80518000D01*
X135171000Y-80518000D01*
X135171000Y-78773053D01*
X135425000Y-78773053D01*
X135425000Y-80518000D01*
X137170287Y-80518000D01*
X137175450Y-80503665D01*
X140043000Y-80503665D01*
X140043000Y-80786335D01*
X140098147Y-81063574D01*
X140206320Y-81324727D01*
X140363363Y-81559759D01*
X140563241Y-81759637D01*
X140798273Y-81916680D01*
X141059426Y-82024853D01*
X141336665Y-82080000D01*
X141619335Y-82080000D01*
X141896574Y-82024853D01*
X142157727Y-81916680D01*
X142392759Y-81759637D01*
X142592637Y-81559759D01*
X142749680Y-81324727D01*
X142857853Y-81063574D01*
X142913000Y-80786335D01*
X142913000Y-80503665D01*
X145123000Y-80503665D01*
X145123000Y-80786335D01*
X145178147Y-81063574D01*
X145286320Y-81324727D01*
X145443363Y-81559759D01*
X145643241Y-81759637D01*
X145878273Y-81916680D01*
X146139426Y-82024853D01*
X146416665Y-82080000D01*
X146699335Y-82080000D01*
X146976574Y-82024853D01*
X147237727Y-81916680D01*
X147472759Y-81759637D01*
X147672637Y-81559759D01*
X147829680Y-81324727D01*
X147937853Y-81063574D01*
X147993000Y-80786335D01*
X147993000Y-80503665D01*
X147937853Y-80226426D01*
X147829680Y-79965273D01*
X147672637Y-79730241D01*
X147472759Y-79530363D01*
X147237727Y-79373320D01*
X146976574Y-79265147D01*
X146699335Y-79210000D01*
X146416665Y-79210000D01*
X146139426Y-79265147D01*
X145878273Y-79373320D01*
X145643241Y-79530363D01*
X145443363Y-79730241D01*
X145286320Y-79965273D01*
X145178147Y-80226426D01*
X145123000Y-80503665D01*
X142913000Y-80503665D01*
X142857853Y-80226426D01*
X142749680Y-79965273D01*
X142592637Y-79730241D01*
X142392759Y-79530363D01*
X142157727Y-79373320D01*
X141896574Y-79265147D01*
X141619335Y-79210000D01*
X141336665Y-79210000D01*
X141059426Y-79265147D01*
X140798273Y-79373320D01*
X140563241Y-79530363D01*
X140363363Y-79730241D01*
X140206320Y-79965273D01*
X140098147Y-80226426D01*
X140043000Y-80503665D01*
X137175450Y-80503665D01*
X137284164Y-80201839D01*
X137159544Y-79822873D01*
X136963386Y-79475501D01*
X136703228Y-79173072D01*
X136389068Y-78927208D01*
X136032979Y-78747358D01*
X135741160Y-78658840D01*
X135425000Y-78773053D01*
X135171000Y-78773053D01*
X134854840Y-78658840D01*
X134563021Y-78747358D01*
X134206932Y-78927208D01*
X133892772Y-79173072D01*
X133632614Y-79475501D01*
X133436456Y-79822873D01*
X133311836Y-80201839D01*
X130813433Y-80201839D01*
X130816072Y-79245000D01*
X130803812Y-79120518D01*
X130767502Y-79000820D01*
X130708537Y-78890506D01*
X130629185Y-78793815D01*
X130532494Y-78714463D01*
X130422180Y-78655498D01*
X130302482Y-78619188D01*
X130178000Y-78606928D01*
X129063750Y-78610000D01*
X128905000Y-78768750D01*
X128651000Y-78768750D01*
X128492250Y-78610000D01*
X127378000Y-78606928D01*
X127253518Y-78619188D01*
X127133820Y-78655498D01*
X127023506Y-78714463D01*
X126926815Y-78793815D01*
X126847463Y-78890506D01*
X126788498Y-79000820D01*
X126752188Y-79120518D01*
X126739928Y-79245000D01*
X124408000Y-79245000D01*
X124408000Y-77506707D01*
X124537887Y-77636594D01*
X124974702Y-77928464D01*
X125460065Y-78129508D01*
X125975323Y-78232000D01*
X126500677Y-78232000D01*
X127015935Y-78129508D01*
X127501298Y-77928464D01*
X127938113Y-77636594D01*
X128309594Y-77265113D01*
X128601464Y-76828298D01*
X128657001Y-76694219D01*
X128729203Y-76782197D01*
X128957395Y-76969469D01*
X129217737Y-77108625D01*
X129500224Y-77194316D01*
X129794000Y-77223251D01*
X130087777Y-77194316D01*
X130370264Y-77108625D01*
X130630606Y-76969469D01*
X130858797Y-76782197D01*
X131046069Y-76554006D01*
X131064000Y-76520459D01*
X131081931Y-76554006D01*
X131269203Y-76782197D01*
X131497395Y-76969469D01*
X131757737Y-77108625D01*
X132040224Y-77194316D01*
X132334000Y-77223251D01*
X132627777Y-77194316D01*
X132910264Y-77108625D01*
X133170606Y-76969469D01*
X133398797Y-76782197D01*
X133586069Y-76554006D01*
X133604000Y-76520459D01*
X133621931Y-76554006D01*
X133809203Y-76782197D01*
X134037395Y-76969469D01*
X134297737Y-77108625D01*
X134580224Y-77194316D01*
X134874000Y-77223251D01*
X135167777Y-77194316D01*
X135450264Y-77108625D01*
X135710606Y-76969469D01*
X135938797Y-76782197D01*
X136126069Y-76554006D01*
X136147424Y-76514053D01*
X136295514Y-76716729D01*
X136511965Y-76915733D01*
X136763081Y-77068686D01*
X137039211Y-77169709D01*
X137054974Y-77172358D01*
X137287000Y-77051217D01*
X137287000Y-75692000D01*
X137267000Y-75692000D01*
X137267000Y-75438000D01*
X137287000Y-75438000D01*
X137287000Y-74078783D01*
X137541000Y-74078783D01*
X137541000Y-75438000D01*
X137561000Y-75438000D01*
X137561000Y-75692000D01*
X137541000Y-75692000D01*
X137541000Y-77051217D01*
X137773026Y-77172358D01*
X137788789Y-77169709D01*
X138064919Y-77068686D01*
X138316035Y-76915733D01*
X138532486Y-76716729D01*
X138680576Y-76514053D01*
X138701931Y-76554006D01*
X138889203Y-76782197D01*
X139117395Y-76969469D01*
X139377737Y-77108625D01*
X139660224Y-77194316D01*
X139954000Y-77223251D01*
X140247777Y-77194316D01*
X140530264Y-77108625D01*
X140790606Y-76969469D01*
X141018797Y-76782197D01*
X141206069Y-76554006D01*
X141224000Y-76520459D01*
X141241931Y-76554006D01*
X141429203Y-76782197D01*
X141657395Y-76969469D01*
X141917737Y-77108625D01*
X142200224Y-77194316D01*
X142494000Y-77223251D01*
X142787777Y-77194316D01*
X143070264Y-77108625D01*
X143330606Y-76969469D01*
X143558797Y-76782197D01*
X143746069Y-76554006D01*
X143764000Y-76520459D01*
X143781931Y-76554006D01*
X143969203Y-76782197D01*
X144197395Y-76969469D01*
X144457737Y-77108625D01*
X144740224Y-77194316D01*
X145034000Y-77223251D01*
X145327777Y-77194316D01*
X145610264Y-77108625D01*
X145870606Y-76969469D01*
X146098797Y-76782197D01*
X146286069Y-76554006D01*
X146304000Y-76520459D01*
X146321931Y-76554006D01*
X146509203Y-76782197D01*
X146737395Y-76969469D01*
X146997737Y-77108625D01*
X147280224Y-77194316D01*
X147574000Y-77223251D01*
X147867777Y-77194316D01*
X148150264Y-77108625D01*
X148410606Y-76969469D01*
X148638797Y-76782197D01*
X148826069Y-76554006D01*
X148844000Y-76520459D01*
X148861931Y-76554006D01*
X149049203Y-76782197D01*
X149277395Y-76969469D01*
X149378142Y-77023320D01*
X149386605Y-77051217D01*
X149408454Y-77123246D01*
X149479026Y-77255276D01*
X149518871Y-77303826D01*
X149573999Y-77371001D01*
X149603003Y-77394804D01*
X152094200Y-79886002D01*
X152117999Y-79915001D01*
X152233724Y-80009974D01*
X152365753Y-80080546D01*
X152509014Y-80124003D01*
X152620667Y-80135000D01*
X152620676Y-80135000D01*
X152657999Y-80138676D01*
X152695322Y-80135000D01*
X163803199Y-80135000D01*
X164345636Y-80677437D01*
X164277463Y-80760506D01*
X164218498Y-80870820D01*
X164182188Y-80990518D01*
X164181357Y-80998961D01*
X163982759Y-80800363D01*
X163747727Y-80643320D01*
X163486574Y-80535147D01*
X163209335Y-80480000D01*
X162926665Y-80480000D01*
X162649426Y-80535147D01*
X162388273Y-80643320D01*
X162153241Y-80800363D01*
X161953363Y-81000241D01*
X161798000Y-81232759D01*
X161642637Y-81000241D01*
X161442759Y-80800363D01*
X161207727Y-80643320D01*
X160946574Y-80535147D01*
X160669335Y-80480000D01*
X160386665Y-80480000D01*
X160109426Y-80535147D01*
X159848273Y-80643320D01*
X159613241Y-80800363D01*
X159413363Y-81000241D01*
X159258000Y-81232759D01*
X159102637Y-81000241D01*
X158902759Y-80800363D01*
X158667727Y-80643320D01*
X158406574Y-80535147D01*
X158129335Y-80480000D01*
X157846665Y-80480000D01*
X157569426Y-80535147D01*
X157308273Y-80643320D01*
X157073241Y-80800363D01*
X156873363Y-81000241D01*
X156718000Y-81232759D01*
X156562637Y-81000241D01*
X156362759Y-80800363D01*
X156127727Y-80643320D01*
X155866574Y-80535147D01*
X155589335Y-80480000D01*
X155306665Y-80480000D01*
X155029426Y-80535147D01*
X154768273Y-80643320D01*
X154533241Y-80800363D01*
X154333363Y-81000241D01*
X154176320Y-81235273D01*
X154068147Y-81496426D01*
X154013000Y-81773665D01*
X154013000Y-82056335D01*
X154068147Y-82333574D01*
X154176320Y-82594727D01*
X154333363Y-82829759D01*
X154533241Y-83029637D01*
X154768273Y-83186680D01*
X155029426Y-83294853D01*
X155306665Y-83350000D01*
X155589335Y-83350000D01*
X155866574Y-83294853D01*
X156127727Y-83186680D01*
X156362759Y-83029637D01*
X156562637Y-82829759D01*
X156718000Y-82597241D01*
X156873363Y-82829759D01*
X157073241Y-83029637D01*
X157308273Y-83186680D01*
X157569426Y-83294853D01*
X157846665Y-83350000D01*
X158129335Y-83350000D01*
X158406574Y-83294853D01*
X158667727Y-83186680D01*
X158902759Y-83029637D01*
X159102637Y-82829759D01*
X159258000Y-82597241D01*
X159413363Y-82829759D01*
X159613241Y-83029637D01*
X159848273Y-83186680D01*
X160109426Y-83294853D01*
X160386665Y-83350000D01*
X160669335Y-83350000D01*
X160946574Y-83294853D01*
X161207727Y-83186680D01*
X161442759Y-83029637D01*
X161642637Y-82829759D01*
X161798000Y-82597241D01*
X161953363Y-82829759D01*
X162153241Y-83029637D01*
X162388273Y-83186680D01*
X162649426Y-83294853D01*
X162926665Y-83350000D01*
X163209335Y-83350000D01*
X163486574Y-83294853D01*
X163747727Y-83186680D01*
X163982759Y-83029637D01*
X164181357Y-82831039D01*
X164182188Y-82839482D01*
X164218498Y-82959180D01*
X164277463Y-83069494D01*
X164356815Y-83166185D01*
X164453506Y-83245537D01*
X164563820Y-83304502D01*
X164683518Y-83340812D01*
X164808000Y-83353072D01*
X166118001Y-83353072D01*
X166118001Y-84140197D01*
X165293199Y-84965000D01*
X152945325Y-84965000D01*
X152908000Y-84961324D01*
X152870675Y-84965000D01*
X152870667Y-84965000D01*
X152759014Y-84975997D01*
X152615753Y-85019454D01*
X152483724Y-85090026D01*
X152367999Y-85184999D01*
X152344201Y-85213997D01*
X148587003Y-88971196D01*
X148557999Y-88994999D01*
X148512446Y-89050506D01*
X148463026Y-89110724D01*
X148436249Y-89160820D01*
X148392454Y-89242754D01*
X148348997Y-89386015D01*
X148338000Y-89497668D01*
X148338000Y-89497678D01*
X148334324Y-89535000D01*
X148338000Y-89572323D01*
X148338001Y-94300197D01*
X148151886Y-94486312D01*
X147969335Y-94450000D01*
X147686665Y-94450000D01*
X147409426Y-94505147D01*
X147148273Y-94613320D01*
X146913241Y-94770363D01*
X146713363Y-94970241D01*
X146556320Y-95205273D01*
X146448147Y-95466426D01*
X146393000Y-95743665D01*
X146393000Y-96026335D01*
X146448147Y-96303574D01*
X146556320Y-96564727D01*
X146713363Y-96799759D01*
X146913241Y-96999637D01*
X147145759Y-97155000D01*
X146913241Y-97310363D01*
X146713363Y-97510241D01*
X146556320Y-97745273D01*
X146448147Y-98006426D01*
X146393000Y-98283665D01*
X146393000Y-98566335D01*
X146448147Y-98843574D01*
X146556320Y-99104727D01*
X146713363Y-99339759D01*
X146913241Y-99539637D01*
X147145759Y-99695000D01*
X146913241Y-99850363D01*
X146713363Y-100050241D01*
X146556320Y-100285273D01*
X146448147Y-100546426D01*
X146393000Y-100823665D01*
X146393000Y-101106335D01*
X146448147Y-101383574D01*
X146556320Y-101644727D01*
X146713363Y-101879759D01*
X146911961Y-102078357D01*
X146903518Y-102079188D01*
X146783820Y-102115498D01*
X146673506Y-102174463D01*
X146576815Y-102253815D01*
X146497463Y-102350506D01*
X146438498Y-102460820D01*
X146402188Y-102580518D01*
X146389928Y-102705000D01*
X146389928Y-104305000D01*
X146402188Y-104429482D01*
X146438498Y-104549180D01*
X146497463Y-104659494D01*
X146576815Y-104756185D01*
X146673506Y-104835537D01*
X146783820Y-104894502D01*
X146903518Y-104930812D01*
X147028000Y-104943072D01*
X148628000Y-104943072D01*
X148752482Y-104930812D01*
X148872180Y-104894502D01*
X148982494Y-104835537D01*
X149079185Y-104756185D01*
X149158537Y-104659494D01*
X149217502Y-104549180D01*
X149253812Y-104429482D01*
X149266072Y-104305000D01*
X149266072Y-104248213D01*
X149390247Y-104210546D01*
X149522276Y-104139974D01*
X149638001Y-104045001D01*
X149661804Y-104015997D01*
X162744115Y-90933688D01*
X162926665Y-90970000D01*
X163209335Y-90970000D01*
X163486574Y-90914853D01*
X163747727Y-90806680D01*
X163982759Y-90649637D01*
X164182637Y-90449759D01*
X164338000Y-90217241D01*
X164493363Y-90449759D01*
X164693241Y-90649637D01*
X164928273Y-90806680D01*
X165189426Y-90914853D01*
X165466665Y-90970000D01*
X165749335Y-90970000D01*
X166026574Y-90914853D01*
X166287727Y-90806680D01*
X166522759Y-90649637D01*
X166722637Y-90449759D01*
X166879680Y-90214727D01*
X166987853Y-89953574D01*
X167043000Y-89676335D01*
X167043000Y-89393665D01*
X166987853Y-89116426D01*
X166879680Y-88855273D01*
X166722637Y-88620241D01*
X166522759Y-88420363D01*
X166287727Y-88263320D01*
X166026574Y-88155147D01*
X165749335Y-88100000D01*
X165466665Y-88100000D01*
X165189426Y-88155147D01*
X164928273Y-88263320D01*
X164693241Y-88420363D01*
X164493363Y-88620241D01*
X164338000Y-88852759D01*
X164182637Y-88620241D01*
X163982759Y-88420363D01*
X163747727Y-88263320D01*
X163486574Y-88155147D01*
X163209335Y-88100000D01*
X162926665Y-88100000D01*
X162649426Y-88155147D01*
X162388273Y-88263320D01*
X162153241Y-88420363D01*
X161953363Y-88620241D01*
X161798000Y-88852759D01*
X161642637Y-88620241D01*
X161442759Y-88420363D01*
X161207727Y-88263320D01*
X160946574Y-88155147D01*
X160669335Y-88100000D01*
X160386665Y-88100000D01*
X160109426Y-88155147D01*
X159848273Y-88263320D01*
X159613241Y-88420363D01*
X159413363Y-88620241D01*
X159258000Y-88852759D01*
X159102637Y-88620241D01*
X158902759Y-88420363D01*
X158667727Y-88263320D01*
X158406574Y-88155147D01*
X158129335Y-88100000D01*
X157846665Y-88100000D01*
X157569426Y-88155147D01*
X157308273Y-88263320D01*
X157073241Y-88420363D01*
X156873363Y-88620241D01*
X156718000Y-88852759D01*
X156562637Y-88620241D01*
X156362759Y-88420363D01*
X156127727Y-88263320D01*
X155866574Y-88155147D01*
X155589335Y-88100000D01*
X155306665Y-88100000D01*
X155029426Y-88155147D01*
X154768273Y-88263320D01*
X154533241Y-88420363D01*
X154333363Y-88620241D01*
X154176320Y-88855273D01*
X154068147Y-89116426D01*
X154013000Y-89393665D01*
X154013000Y-89676335D01*
X154068147Y-89953574D01*
X154176320Y-90214727D01*
X154333363Y-90449759D01*
X154533241Y-90649637D01*
X154768273Y-90806680D01*
X155029426Y-90914853D01*
X155306665Y-90970000D01*
X155589335Y-90970000D01*
X155866574Y-90914853D01*
X156127727Y-90806680D01*
X156362759Y-90649637D01*
X156562637Y-90449759D01*
X156718000Y-90217241D01*
X156873363Y-90449759D01*
X157073241Y-90649637D01*
X157308273Y-90806680D01*
X157569426Y-90914853D01*
X157846665Y-90970000D01*
X158129335Y-90970000D01*
X158406574Y-90914853D01*
X158667727Y-90806680D01*
X158902759Y-90649637D01*
X159102637Y-90449759D01*
X159258000Y-90217241D01*
X159413363Y-90449759D01*
X159613241Y-90649637D01*
X159848273Y-90806680D01*
X160109426Y-90914853D01*
X160386665Y-90970000D01*
X160558197Y-90970000D01*
X149165210Y-102362989D01*
X149158537Y-102350506D01*
X149079185Y-102253815D01*
X148982494Y-102174463D01*
X148872180Y-102115498D01*
X148752482Y-102079188D01*
X148744039Y-102078357D01*
X148942637Y-101879759D01*
X149099680Y-101644727D01*
X149207853Y-101383574D01*
X149263000Y-101106335D01*
X149263000Y-100823665D01*
X149207853Y-100546426D01*
X149099680Y-100285273D01*
X148942637Y-100050241D01*
X148742759Y-99850363D01*
X148510241Y-99695000D01*
X148742759Y-99539637D01*
X148942637Y-99339759D01*
X149099680Y-99104727D01*
X149207853Y-98843574D01*
X149263000Y-98566335D01*
X149263000Y-98283665D01*
X149207853Y-98006426D01*
X149099680Y-97745273D01*
X148942637Y-97510241D01*
X148742759Y-97310363D01*
X148510241Y-97155000D01*
X148742759Y-96999637D01*
X148942637Y-96799759D01*
X149099680Y-96564727D01*
X149207853Y-96303574D01*
X149263000Y-96026335D01*
X149263000Y-95743665D01*
X149226688Y-95561114D01*
X149609003Y-95178799D01*
X149638001Y-95155001D01*
X149732974Y-95039276D01*
X149803546Y-94907247D01*
X149847003Y-94763986D01*
X149858000Y-94652333D01*
X149858000Y-94652324D01*
X149861676Y-94615001D01*
X149858000Y-94577678D01*
X149858000Y-89849801D01*
X153222802Y-86485000D01*
X165570678Y-86485000D01*
X165608000Y-86488676D01*
X165645322Y-86485000D01*
X165645333Y-86485000D01*
X165756986Y-86474003D01*
X165900247Y-86430546D01*
X166032276Y-86359974D01*
X166148001Y-86265001D01*
X166171804Y-86235997D01*
X167389003Y-85018799D01*
X167418001Y-84995001D01*
X167512974Y-84879276D01*
X167583546Y-84747247D01*
X167627003Y-84603986D01*
X167638000Y-84492333D01*
X167638000Y-84492324D01*
X167641676Y-84455001D01*
X167638000Y-84417678D01*
X167638000Y-79412322D01*
X167641676Y-79374999D01*
X167638000Y-79337676D01*
X167638000Y-79337667D01*
X167627003Y-79226014D01*
X167583546Y-79082753D01*
X167512974Y-78950724D01*
X167418001Y-78834999D01*
X167389003Y-78811201D01*
X166171804Y-77594003D01*
X166148001Y-77564999D01*
X166032276Y-77470026D01*
X165900247Y-77399454D01*
X165756986Y-77355997D01*
X165645333Y-77345000D01*
X165645322Y-77345000D01*
X165608000Y-77341324D01*
X165570678Y-77345000D01*
X158306802Y-77345000D01*
X157761487Y-76799686D01*
X157782797Y-76782197D01*
X157970069Y-76554006D01*
X157988000Y-76520459D01*
X158005931Y-76554006D01*
X158193203Y-76782197D01*
X158421395Y-76969469D01*
X158681737Y-77108625D01*
X158964224Y-77194316D01*
X159258000Y-77223251D01*
X159551777Y-77194316D01*
X159834264Y-77108625D01*
X160094606Y-76969469D01*
X160322797Y-76782197D01*
X160510069Y-76554006D01*
X160528000Y-76520459D01*
X160545931Y-76554006D01*
X160733203Y-76782197D01*
X160961395Y-76969469D01*
X161221737Y-77108625D01*
X161504224Y-77194316D01*
X161798000Y-77223251D01*
X162091777Y-77194316D01*
X162374264Y-77108625D01*
X162634606Y-76969469D01*
X162862797Y-76782197D01*
X163050069Y-76554006D01*
X163068000Y-76520459D01*
X163085931Y-76554006D01*
X163273203Y-76782197D01*
X163501395Y-76969469D01*
X163761737Y-77108625D01*
X164044224Y-77194316D01*
X164338000Y-77223251D01*
X164631777Y-77194316D01*
X164914264Y-77108625D01*
X165174606Y-76969469D01*
X165402797Y-76782197D01*
X165590069Y-76554006D01*
X165608000Y-76520459D01*
X165625931Y-76554006D01*
X165813203Y-76782197D01*
X166041395Y-76969469D01*
X166301737Y-77108625D01*
X166584224Y-77194316D01*
X166878000Y-77223251D01*
X167171777Y-77194316D01*
X167454264Y-77108625D01*
X167714606Y-76969469D01*
X167942797Y-76782197D01*
X168130069Y-76554006D01*
X168148000Y-76520459D01*
X168165931Y-76554006D01*
X168353203Y-76782197D01*
X168581395Y-76969469D01*
X168841737Y-77108625D01*
X169124224Y-77194316D01*
X169418000Y-77223251D01*
X169711777Y-77194316D01*
X169994264Y-77108625D01*
X170254606Y-76969469D01*
X170482797Y-76782197D01*
X170670069Y-76554006D01*
X170688000Y-76520459D01*
X170705931Y-76554006D01*
X170893203Y-76782197D01*
X171121395Y-76969469D01*
X171381737Y-77108625D01*
X171664224Y-77194316D01*
X171958000Y-77223251D01*
X172251777Y-77194316D01*
X172534264Y-77108625D01*
X172794606Y-76969469D01*
X173022797Y-76782197D01*
X173210069Y-76554006D01*
X173228000Y-76520459D01*
X173245931Y-76554006D01*
X173433203Y-76782197D01*
X173661395Y-76969469D01*
X173921737Y-77108625D01*
X174204224Y-77194316D01*
X174498000Y-77223251D01*
X174791777Y-77194316D01*
X175074264Y-77108625D01*
X175334606Y-76969469D01*
X175562797Y-76782197D01*
X175750069Y-76554006D01*
X175889225Y-76293663D01*
X175974916Y-76011176D01*
X175996600Y-75791018D01*
X175996600Y-75338981D01*
X175974916Y-75118823D01*
X175889225Y-74836336D01*
X175750069Y-74575994D01*
X175562797Y-74347803D01*
X175334605Y-74160531D01*
X175074263Y-74021375D01*
X174791776Y-73935684D01*
X174498000Y-73906749D01*
X174204223Y-73935684D01*
X173921736Y-74021375D01*
X173661394Y-74160531D01*
X173433203Y-74347803D01*
X173245931Y-74575995D01*
X173228000Y-74609541D01*
X173210069Y-74575994D01*
X173022797Y-74347803D01*
X172794605Y-74160531D01*
X172534263Y-74021375D01*
X172251776Y-73935684D01*
X171958000Y-73906749D01*
X171664223Y-73935684D01*
X171381736Y-74021375D01*
X171121394Y-74160531D01*
X170893203Y-74347803D01*
X170705931Y-74575995D01*
X170688000Y-74609541D01*
X170670069Y-74575994D01*
X170482797Y-74347803D01*
X170254605Y-74160531D01*
X169994263Y-74021375D01*
X169711776Y-73935684D01*
X169418000Y-73906749D01*
X169124223Y-73935684D01*
X168841736Y-74021375D01*
X168581394Y-74160531D01*
X168353203Y-74347803D01*
X168165931Y-74575995D01*
X168148000Y-74609541D01*
X168130069Y-74575994D01*
X167942797Y-74347803D01*
X167714605Y-74160531D01*
X167454263Y-74021375D01*
X167171776Y-73935684D01*
X166878000Y-73906749D01*
X166584223Y-73935684D01*
X166301736Y-74021375D01*
X166041394Y-74160531D01*
X165813203Y-74347803D01*
X165625931Y-74575995D01*
X165608000Y-74609541D01*
X165590069Y-74575994D01*
X165402797Y-74347803D01*
X165174605Y-74160531D01*
X164914263Y-74021375D01*
X164631776Y-73935684D01*
X164338000Y-73906749D01*
X164044223Y-73935684D01*
X163761736Y-74021375D01*
X163501394Y-74160531D01*
X163273203Y-74347803D01*
X163085931Y-74575995D01*
X163068000Y-74609541D01*
X163050069Y-74575994D01*
X162862797Y-74347803D01*
X162634605Y-74160531D01*
X162374263Y-74021375D01*
X162091776Y-73935684D01*
X161798000Y-73906749D01*
X161504223Y-73935684D01*
X161221736Y-74021375D01*
X160961394Y-74160531D01*
X160733203Y-74347803D01*
X160545931Y-74575995D01*
X160528000Y-74609541D01*
X160510069Y-74575994D01*
X160322797Y-74347803D01*
X160094605Y-74160531D01*
X159834263Y-74021375D01*
X159551776Y-73935684D01*
X159258000Y-73906749D01*
X158964223Y-73935684D01*
X158681736Y-74021375D01*
X158421394Y-74160531D01*
X158193203Y-74347803D01*
X158005931Y-74575995D01*
X157988000Y-74609541D01*
X157970069Y-74575994D01*
X157782797Y-74347803D01*
X157554605Y-74160531D01*
X157294263Y-74021375D01*
X157011776Y-73935684D01*
X156718000Y-73906749D01*
X156424223Y-73935684D01*
X156141736Y-74021375D01*
X155881394Y-74160531D01*
X155653203Y-74347803D01*
X155465931Y-74575995D01*
X155326775Y-74836337D01*
X155241084Y-75118824D01*
X155219400Y-75338982D01*
X155219400Y-75791019D01*
X155241084Y-76011177D01*
X155326775Y-76293664D01*
X155465931Y-76554006D01*
X155653203Y-76782197D01*
X155881395Y-76969469D01*
X155982143Y-77023320D01*
X156012454Y-77123246D01*
X156083026Y-77255276D01*
X156153645Y-77341324D01*
X156178000Y-77371001D01*
X156206998Y-77394799D01*
X157427198Y-78615000D01*
X152972802Y-78615000D01*
X151157487Y-76799686D01*
X151178797Y-76782197D01*
X151366069Y-76554006D01*
X151384000Y-76520459D01*
X151401931Y-76554006D01*
X151589203Y-76782197D01*
X151817395Y-76969469D01*
X152077737Y-77108625D01*
X152360224Y-77194316D01*
X152654000Y-77223251D01*
X152947777Y-77194316D01*
X153230264Y-77108625D01*
X153490606Y-76969469D01*
X153718797Y-76782197D01*
X153906069Y-76554006D01*
X154045225Y-76293663D01*
X154130916Y-76011176D01*
X154152600Y-75791018D01*
X154152600Y-75338981D01*
X154130916Y-75118823D01*
X154045225Y-74836336D01*
X153906069Y-74575994D01*
X153718797Y-74347803D01*
X153490605Y-74160531D01*
X153230263Y-74021375D01*
X152947776Y-73935684D01*
X152654000Y-73906749D01*
X152360223Y-73935684D01*
X152077736Y-74021375D01*
X151817394Y-74160531D01*
X151589203Y-74347803D01*
X151401931Y-74575995D01*
X151384000Y-74609541D01*
X151366069Y-74575994D01*
X151178797Y-74347803D01*
X150950605Y-74160531D01*
X150690263Y-74021375D01*
X150407776Y-73935684D01*
X150114000Y-73906749D01*
X149820223Y-73935684D01*
X149537736Y-74021375D01*
X149277394Y-74160531D01*
X149049203Y-74347803D01*
X148861931Y-74575995D01*
X148844000Y-74609541D01*
X148826069Y-74575994D01*
X148638797Y-74347803D01*
X148410605Y-74160531D01*
X148150263Y-74021375D01*
X147867776Y-73935684D01*
X147574000Y-73906749D01*
X147280223Y-73935684D01*
X146997736Y-74021375D01*
X146737394Y-74160531D01*
X146509203Y-74347803D01*
X146321931Y-74575995D01*
X146304000Y-74609541D01*
X146286069Y-74575994D01*
X146098797Y-74347803D01*
X145870605Y-74160531D01*
X145610263Y-74021375D01*
X145327776Y-73935684D01*
X145034000Y-73906749D01*
X144740223Y-73935684D01*
X144457736Y-74021375D01*
X144197394Y-74160531D01*
X143969203Y-74347803D01*
X143781931Y-74575995D01*
X143764000Y-74609541D01*
X143746069Y-74575994D01*
X143558797Y-74347803D01*
X143330605Y-74160531D01*
X143070263Y-74021375D01*
X142787776Y-73935684D01*
X142494000Y-73906749D01*
X142200223Y-73935684D01*
X141917736Y-74021375D01*
X141657394Y-74160531D01*
X141429203Y-74347803D01*
X141241931Y-74575995D01*
X141224000Y-74609541D01*
X141206069Y-74575994D01*
X141018797Y-74347803D01*
X140790605Y-74160531D01*
X140530263Y-74021375D01*
X140247776Y-73935684D01*
X139954000Y-73906749D01*
X139660223Y-73935684D01*
X139377736Y-74021375D01*
X139117394Y-74160531D01*
X138889203Y-74347803D01*
X138701931Y-74575995D01*
X138680576Y-74615947D01*
X138532486Y-74413271D01*
X138316035Y-74214267D01*
X138064919Y-74061314D01*
X137788789Y-73960291D01*
X137773026Y-73957642D01*
X137541000Y-74078783D01*
X137287000Y-74078783D01*
X137054974Y-73957642D01*
X137039211Y-73960291D01*
X136763081Y-74061314D01*
X136511965Y-74214267D01*
X136295514Y-74413271D01*
X136147424Y-74615947D01*
X136126069Y-74575994D01*
X135938797Y-74347803D01*
X135710605Y-74160531D01*
X135450263Y-74021375D01*
X135167776Y-73935684D01*
X134874000Y-73906749D01*
X134580223Y-73935684D01*
X134297736Y-74021375D01*
X134037394Y-74160531D01*
X133809203Y-74347803D01*
X133621931Y-74575995D01*
X133604000Y-74609541D01*
X133586069Y-74575994D01*
X133398797Y-74347803D01*
X133170605Y-74160531D01*
X132910263Y-74021375D01*
X132627776Y-73935684D01*
X132334000Y-73906749D01*
X132040223Y-73935684D01*
X131757736Y-74021375D01*
X131497394Y-74160531D01*
X131269203Y-74347803D01*
X131081931Y-74575995D01*
X131064000Y-74609541D01*
X131046069Y-74575994D01*
X130858797Y-74347803D01*
X130630605Y-74160531D01*
X130370263Y-74021375D01*
X130087776Y-73935684D01*
X129794000Y-73906749D01*
X129500223Y-73935684D01*
X129217736Y-74021375D01*
X128957394Y-74160531D01*
X128729203Y-74347803D01*
X128657001Y-74435781D01*
X128601464Y-74301702D01*
X128309594Y-73864887D01*
X128179707Y-73735000D01*
X178013909Y-73735000D01*
X178868001Y-74589093D01*
G37*
X178868001Y-74589093D02*
X178868000Y-77810908D01*
X178013909Y-78665000D01*
X169452877Y-78665000D01*
X169418000Y-78661565D01*
X169383123Y-78665000D01*
X169278816Y-78675273D01*
X169144980Y-78715872D01*
X169021637Y-78781800D01*
X168913525Y-78870525D01*
X168824800Y-78978637D01*
X168758872Y-79101980D01*
X168718273Y-79235816D01*
X168704565Y-79375000D01*
X168708001Y-79409887D01*
X168708000Y-116170123D01*
X168704565Y-116205000D01*
X168718273Y-116344184D01*
X168758872Y-116478020D01*
X168824800Y-116601363D01*
X168913525Y-116709475D01*
X169018070Y-116795273D01*
X169021637Y-116798200D01*
X169144980Y-116864128D01*
X169278816Y-116904727D01*
X169418000Y-116918435D01*
X169452877Y-116915000D01*
X175096293Y-116915000D01*
X174966406Y-117044887D01*
X174674536Y-117481702D01*
X174504427Y-117892382D01*
X174420312Y-117766495D01*
X174206505Y-117552688D01*
X173955095Y-117384701D01*
X173675743Y-117268989D01*
X173379184Y-117210000D01*
X173076816Y-117210000D01*
X172780257Y-117268989D01*
X172500905Y-117384701D01*
X172249495Y-117552688D01*
X172183056Y-117619127D01*
X172177502Y-117600820D01*
X172118537Y-117490506D01*
X172039185Y-117393815D01*
X171942494Y-117314463D01*
X171832180Y-117255498D01*
X171712482Y-117219188D01*
X171588000Y-117206928D01*
X169788000Y-117206928D01*
X169663518Y-117219188D01*
X169543820Y-117255498D01*
X169433506Y-117314463D01*
X169336815Y-117393815D01*
X169257463Y-117490506D01*
X169198498Y-117600820D01*
X169162188Y-117720518D01*
X169149928Y-117845000D01*
X169149928Y-119645000D01*
X169162188Y-119769482D01*
X169198498Y-119889180D01*
X169257463Y-119999494D01*
X169336815Y-120096185D01*
X169433506Y-120175537D01*
X169543820Y-120234502D01*
X169663518Y-120270812D01*
X169788000Y-120283072D01*
X171588000Y-120283072D01*
X171712482Y-120270812D01*
X171832180Y-120234502D01*
X171942494Y-120175537D01*
X172039185Y-120096185D01*
X172118537Y-119999494D01*
X172177502Y-119889180D01*
X172183056Y-119870873D01*
X172249495Y-119937312D01*
X172500905Y-120105299D01*
X172780257Y-120221011D01*
X173076816Y-120280000D01*
X173379184Y-120280000D01*
X173675743Y-120221011D01*
X173955095Y-120105299D01*
X174206505Y-119937312D01*
X174420312Y-119723505D01*
X174504427Y-119597618D01*
X174674536Y-120008298D01*
X174966406Y-120445113D01*
X175337887Y-120816594D01*
X175774702Y-121108464D01*
X176260065Y-121309508D01*
X176775323Y-121412000D01*
X177300677Y-121412000D01*
X177815935Y-121309508D01*
X178301298Y-121108464D01*
X178738113Y-120816594D01*
X178868001Y-120686706D01*
X178868000Y-124800908D01*
X178013909Y-125655000D01*
X126909707Y-125655000D01*
X127039594Y-125525113D01*
X127331464Y-125088298D01*
X127532508Y-124602935D01*
X127635000Y-124087677D01*
X127635000Y-123586802D01*
X128384201Y-124336003D01*
X128407999Y-124365001D01*
X128436997Y-124388799D01*
X128523723Y-124459974D01*
X128559928Y-124479326D01*
X128559928Y-124675000D01*
X128572188Y-124799482D01*
X128608498Y-124919180D01*
X128667463Y-125029494D01*
X128746815Y-125126185D01*
X128843506Y-125205537D01*
X128953820Y-125264502D01*
X129073518Y-125300812D01*
X129198000Y-125313072D01*
X130898000Y-125313072D01*
X131022482Y-125300812D01*
X131142180Y-125264502D01*
X131252494Y-125205537D01*
X131349185Y-125126185D01*
X131428537Y-125029494D01*
X131487502Y-124919180D01*
X131509513Y-124846620D01*
X131641368Y-124978475D01*
X131884589Y-125140990D01*
X132154842Y-125252932D01*
X132441740Y-125310000D01*
X132734260Y-125310000D01*
X133021158Y-125252932D01*
X133291411Y-125140990D01*
X133534632Y-124978475D01*
X133741475Y-124771632D01*
X133863195Y-124589466D01*
X133932822Y-124706355D01*
X134127731Y-124922588D01*
X134361080Y-125096641D01*
X134623901Y-125221825D01*
X134771110Y-125266476D01*
X135001000Y-125145155D01*
X135001000Y-123952000D01*
X135255000Y-123952000D01*
X135255000Y-125145155D01*
X135484890Y-125266476D01*
X135632099Y-125221825D01*
X135894920Y-125096641D01*
X136128269Y-124922588D01*
X136323178Y-124706355D01*
X136472157Y-124456252D01*
X136569481Y-124181891D01*
X136448814Y-123952000D01*
X135255000Y-123952000D01*
X135001000Y-123952000D01*
X134981000Y-123952000D01*
X134981000Y-123698000D01*
X135001000Y-123698000D01*
X135001000Y-122504845D01*
X135255000Y-122504845D01*
X135255000Y-123698000D01*
X136448814Y-123698000D01*
X136569481Y-123468109D01*
X136472157Y-123193748D01*
X136323178Y-122943645D01*
X136128269Y-122727412D01*
X135894920Y-122553359D01*
X135632099Y-122428175D01*
X135484890Y-122383524D01*
X135255000Y-122504845D01*
X135001000Y-122504845D01*
X134771110Y-122383524D01*
X134623901Y-122428175D01*
X134361080Y-122553359D01*
X134127731Y-122727412D01*
X133932822Y-122943645D01*
X133863195Y-123060534D01*
X133741475Y-122878368D01*
X133534632Y-122671525D01*
X133291411Y-122509010D01*
X133021158Y-122397068D01*
X132734260Y-122340000D01*
X132441740Y-122340000D01*
X132221593Y-122383790D01*
X130611804Y-120774003D01*
X130588001Y-120744999D01*
X130472276Y-120650026D01*
X130340247Y-120579454D01*
X130196986Y-120535997D01*
X130085333Y-120525000D01*
X130085322Y-120525000D01*
X130048000Y-120521324D01*
X130010678Y-120525000D01*
X127822802Y-120525000D01*
X126998000Y-119700199D01*
X126998000Y-117105000D01*
X128509928Y-117105000D01*
X128522188Y-117229482D01*
X128558498Y-117349180D01*
X128617463Y-117459494D01*
X128696815Y-117556185D01*
X128793506Y-117635537D01*
X128903820Y-117694502D01*
X128922127Y-117700056D01*
X128855688Y-117766495D01*
X128687701Y-118017905D01*
X128571989Y-118297257D01*
X128513000Y-118593816D01*
X128513000Y-118896184D01*
X128571989Y-119192743D01*
X128687701Y-119472095D01*
X128855688Y-119723505D01*
X129069495Y-119937312D01*
X129320905Y-120105299D01*
X129600257Y-120221011D01*
X129896816Y-120280000D01*
X130199184Y-120280000D01*
X130495743Y-120221011D01*
X130775095Y-120105299D01*
X131026505Y-119937312D01*
X131208817Y-119755000D01*
X133808392Y-119755000D01*
X133858000Y-119759886D01*
X134055994Y-119740385D01*
X134111640Y-119723505D01*
X134246380Y-119682632D01*
X134421840Y-119588847D01*
X134575633Y-119462633D01*
X134607261Y-119424094D01*
X135121355Y-118910000D01*
X135269335Y-118910000D01*
X135546574Y-118854853D01*
X135807727Y-118746680D01*
X136042759Y-118589637D01*
X136242637Y-118389759D01*
X136399680Y-118154727D01*
X136507853Y-117893574D01*
X136563000Y-117616335D01*
X136563000Y-117333665D01*
X136507853Y-117056426D01*
X136399680Y-116795273D01*
X136242637Y-116560241D01*
X136042759Y-116360363D01*
X135807727Y-116203320D01*
X135546574Y-116095147D01*
X135269335Y-116040000D01*
X134986665Y-116040000D01*
X134709426Y-116095147D01*
X134448273Y-116203320D01*
X134213241Y-116360363D01*
X134013363Y-116560241D01*
X133856320Y-116795273D01*
X133748147Y-117056426D01*
X133693000Y-117333665D01*
X133693000Y-117481645D01*
X133439645Y-117735000D01*
X131208817Y-117735000D01*
X131173873Y-117700056D01*
X131192180Y-117694502D01*
X131302494Y-117635537D01*
X131399185Y-117556185D01*
X131478537Y-117459494D01*
X131537502Y-117349180D01*
X131573812Y-117229482D01*
X131586072Y-117105000D01*
X131583000Y-116490750D01*
X131424250Y-116332000D01*
X130175000Y-116332000D01*
X130175000Y-116352000D01*
X129921000Y-116352000D01*
X129921000Y-116332000D01*
X128671750Y-116332000D01*
X128513000Y-116490750D01*
X128509928Y-117105000D01*
X126998000Y-117105000D01*
X126998000Y-115305000D01*
X128509928Y-115305000D01*
X128513000Y-115919250D01*
X128671750Y-116078000D01*
X129921000Y-116078000D01*
X129921000Y-114828750D01*
X130175000Y-114828750D01*
X130175000Y-116078000D01*
X131424250Y-116078000D01*
X131583000Y-115919250D01*
X131586072Y-115305000D01*
X131573812Y-115180518D01*
X131537502Y-115060820D01*
X131478537Y-114950506D01*
X131399185Y-114853815D01*
X131302494Y-114774463D01*
X131192180Y-114715498D01*
X131072482Y-114679188D01*
X130948000Y-114666928D01*
X130333750Y-114670000D01*
X130175000Y-114828750D01*
X129921000Y-114828750D01*
X129762250Y-114670000D01*
X129148000Y-114666928D01*
X129023518Y-114679188D01*
X128903820Y-114715498D01*
X128793506Y-114774463D01*
X128696815Y-114853815D01*
X128617463Y-114950506D01*
X128558498Y-115060820D01*
X128522188Y-115180518D01*
X128509928Y-115305000D01*
X126998000Y-115305000D01*
X126998000Y-112314799D01*
X133857022Y-105455778D01*
X134013363Y-105689759D01*
X134213241Y-105889637D01*
X134448273Y-106046680D01*
X134709426Y-106154853D01*
X134986665Y-106210000D01*
X135269335Y-106210000D01*
X135546574Y-106154853D01*
X135807727Y-106046680D01*
X136042759Y-105889637D01*
X136242637Y-105689759D01*
X136399680Y-105454727D01*
X136507853Y-105193574D01*
X136563000Y-104916335D01*
X136563000Y-104633665D01*
X136507853Y-104356426D01*
X136399680Y-104095273D01*
X136242637Y-103860241D01*
X136042759Y-103660363D01*
X135808778Y-103504022D01*
X137587800Y-101725000D01*
X138989957Y-101725000D01*
X139093363Y-101879759D01*
X139293241Y-102079637D01*
X139525759Y-102235000D01*
X139293241Y-102390363D01*
X139093363Y-102590241D01*
X138936320Y-102825273D01*
X138828147Y-103086426D01*
X138773000Y-103363665D01*
X138773000Y-103511644D01*
X136988901Y-105295744D01*
X136950368Y-105327367D01*
X136918745Y-105365900D01*
X136918744Y-105365901D01*
X136824154Y-105481160D01*
X136730368Y-105656621D01*
X136672615Y-105847006D01*
X136653114Y-106045000D01*
X136658001Y-106094618D01*
X136658000Y-112345392D01*
X136653114Y-112395000D01*
X136672615Y-112592994D01*
X136706757Y-112705544D01*
X136730368Y-112783379D01*
X136824153Y-112958840D01*
X136950367Y-113112633D01*
X136988906Y-113144261D01*
X138188739Y-114344094D01*
X138220367Y-114382633D01*
X138374160Y-114508847D01*
X138549620Y-114602632D01*
X138740006Y-114660385D01*
X138888392Y-114675000D01*
X138888394Y-114675000D01*
X138937999Y-114679886D01*
X138987604Y-114675000D01*
X139188604Y-114675000D01*
X139293241Y-114779637D01*
X139528273Y-114936680D01*
X139789426Y-115044853D01*
X140066665Y-115100000D01*
X140349335Y-115100000D01*
X140626574Y-115044853D01*
X140887727Y-114936680D01*
X141122759Y-114779637D01*
X141322637Y-114579759D01*
X141479680Y-114344727D01*
X141587853Y-114083574D01*
X141643000Y-113806335D01*
X141643000Y-113658355D01*
X141896355Y-113405000D01*
X146428130Y-113405000D01*
X146438498Y-113439180D01*
X146497463Y-113549494D01*
X146576815Y-113646185D01*
X146673506Y-113725537D01*
X146783820Y-113784502D01*
X146818001Y-113794871D01*
X146818000Y-116455604D01*
X146808604Y-116465000D01*
X146307396Y-116465000D01*
X146202759Y-116360363D01*
X145967727Y-116203320D01*
X145706574Y-116095147D01*
X145429335Y-116040000D01*
X145146665Y-116040000D01*
X144869426Y-116095147D01*
X144608273Y-116203320D01*
X144373241Y-116360363D01*
X144173363Y-116560241D01*
X144016320Y-116795273D01*
X143908147Y-117056426D01*
X143853000Y-117333665D01*
X143853000Y-117616335D01*
X143908147Y-117893574D01*
X144016320Y-118154727D01*
X144173363Y-118389759D01*
X144373241Y-118589637D01*
X144608273Y-118746680D01*
X144869426Y-118854853D01*
X145146665Y-118910000D01*
X145429335Y-118910000D01*
X145706574Y-118854853D01*
X145967727Y-118746680D01*
X146202759Y-118589637D01*
X146307396Y-118485000D01*
X146808604Y-118485000D01*
X146913241Y-118589637D01*
X147148273Y-118746680D01*
X147409426Y-118854853D01*
X147686665Y-118910000D01*
X147834645Y-118910000D01*
X148088001Y-119163356D01*
X148088000Y-122562832D01*
X148033203Y-122607803D01*
X147845931Y-122835995D01*
X147828000Y-122869541D01*
X147810069Y-122835994D01*
X147622797Y-122607803D01*
X147394605Y-122420531D01*
X147134263Y-122281375D01*
X146851776Y-122195684D01*
X146558000Y-122166749D01*
X146264223Y-122195684D01*
X145981736Y-122281375D01*
X145721394Y-122420531D01*
X145493203Y-122607803D01*
X145305931Y-122835995D01*
X145288000Y-122869541D01*
X145270069Y-122835994D01*
X145082797Y-122607803D01*
X144854605Y-122420531D01*
X144594263Y-122281375D01*
X144311776Y-122195684D01*
X144018000Y-122166749D01*
X143724223Y-122195684D01*
X143441736Y-122281375D01*
X143181394Y-122420531D01*
X142953203Y-122607803D01*
X142765931Y-122835995D01*
X142748000Y-122869541D01*
X142730069Y-122835994D01*
X142542797Y-122607803D01*
X142314605Y-122420531D01*
X142054263Y-122281375D01*
X141771776Y-122195684D01*
X141478000Y-122166749D01*
X141184223Y-122195684D01*
X140901736Y-122281375D01*
X140641394Y-122420531D01*
X140413203Y-122607803D01*
X140225931Y-122835995D01*
X140208000Y-122869541D01*
X140190069Y-122835994D01*
X140002797Y-122607803D01*
X139774605Y-122420531D01*
X139514263Y-122281375D01*
X139231776Y-122195684D01*
X138938000Y-122166749D01*
X138644223Y-122195684D01*
X138361736Y-122281375D01*
X138101394Y-122420531D01*
X137873203Y-122607803D01*
X137685931Y-122835995D01*
X137546775Y-123096337D01*
X137461084Y-123378824D01*
X137439400Y-123598982D01*
X137439400Y-124051019D01*
X137461084Y-124271177D01*
X137546775Y-124553664D01*
X137685931Y-124814006D01*
X137873203Y-125042197D01*
X138101395Y-125229469D01*
X138361737Y-125368625D01*
X138644224Y-125454316D01*
X138938000Y-125483251D01*
X139231777Y-125454316D01*
X139514264Y-125368625D01*
X139774606Y-125229469D01*
X140002797Y-125042197D01*
X140190069Y-124814006D01*
X140208000Y-124780459D01*
X140225931Y-124814006D01*
X140413203Y-125042197D01*
X140641395Y-125229469D01*
X140901737Y-125368625D01*
X141184224Y-125454316D01*
X141478000Y-125483251D01*
X141771777Y-125454316D01*
X142054264Y-125368625D01*
X142314606Y-125229469D01*
X142542797Y-125042197D01*
X142730069Y-124814006D01*
X142748000Y-124780459D01*
X142765931Y-124814006D01*
X142953203Y-125042197D01*
X143181395Y-125229469D01*
X143441737Y-125368625D01*
X143724224Y-125454316D01*
X144018000Y-125483251D01*
X144311777Y-125454316D01*
X144594264Y-125368625D01*
X144854606Y-125229469D01*
X145082797Y-125042197D01*
X145270069Y-124814006D01*
X145288000Y-124780459D01*
X145305931Y-124814006D01*
X145493203Y-125042197D01*
X145721395Y-125229469D01*
X145981737Y-125368625D01*
X146264224Y-125454316D01*
X146558000Y-125483251D01*
X146851777Y-125454316D01*
X147134264Y-125368625D01*
X147394606Y-125229469D01*
X147622797Y-125042197D01*
X147810069Y-124814006D01*
X147828000Y-124780459D01*
X147845931Y-124814006D01*
X148033203Y-125042197D01*
X148261395Y-125229469D01*
X148521737Y-125368625D01*
X148804224Y-125454316D01*
X149098000Y-125483251D01*
X149391777Y-125454316D01*
X149674264Y-125368625D01*
X149934606Y-125229469D01*
X150162797Y-125042197D01*
X150350069Y-124814006D01*
X150371424Y-124774053D01*
X150519514Y-124976729D01*
X150735965Y-125175733D01*
X150987081Y-125328686D01*
X151263211Y-125429709D01*
X151278974Y-125432358D01*
X151511000Y-125311217D01*
X151511000Y-123952000D01*
X151765000Y-123952000D01*
X151765000Y-125311217D01*
X151997026Y-125432358D01*
X152012789Y-125429709D01*
X152288919Y-125328686D01*
X152540035Y-125175733D01*
X152756486Y-124976729D01*
X152908000Y-124769367D01*
X153059514Y-124976729D01*
X153275965Y-125175733D01*
X153527081Y-125328686D01*
X153803211Y-125429709D01*
X153818974Y-125432358D01*
X154051000Y-125311217D01*
X154051000Y-123952000D01*
X151765000Y-123952000D01*
X151511000Y-123952000D01*
X151491000Y-123952000D01*
X151491000Y-123698000D01*
X151511000Y-123698000D01*
X151511000Y-122338783D01*
X151765000Y-122338783D01*
X151765000Y-123698000D01*
X154051000Y-123698000D01*
X154051000Y-122338783D01*
X154305000Y-122338783D01*
X154305000Y-123698000D01*
X154325000Y-123698000D01*
X154325000Y-123952000D01*
X154305000Y-123952000D01*
X154305000Y-125311217D01*
X154537026Y-125432358D01*
X154552789Y-125429709D01*
X154828919Y-125328686D01*
X155080035Y-125175733D01*
X155296486Y-124976729D01*
X155444576Y-124774053D01*
X155465931Y-124814006D01*
X155653203Y-125042197D01*
X155881395Y-125229469D01*
X156141737Y-125368625D01*
X156424224Y-125454316D01*
X156718000Y-125483251D01*
X157011777Y-125454316D01*
X157294264Y-125368625D01*
X157554606Y-125229469D01*
X157782797Y-125042197D01*
X157970069Y-124814006D01*
X158109225Y-124553663D01*
X158194916Y-124271176D01*
X158216600Y-124051018D01*
X158216600Y-123598982D01*
X160299400Y-123598982D01*
X160299400Y-124051019D01*
X160321084Y-124271177D01*
X160406775Y-124553664D01*
X160545931Y-124814006D01*
X160733203Y-125042197D01*
X160961395Y-125229469D01*
X161221737Y-125368625D01*
X161504224Y-125454316D01*
X161798000Y-125483251D01*
X162091777Y-125454316D01*
X162374264Y-125368625D01*
X162634606Y-125229469D01*
X162862797Y-125042197D01*
X163050069Y-124814006D01*
X163068000Y-124780459D01*
X163085931Y-124814006D01*
X163273203Y-125042197D01*
X163501395Y-125229469D01*
X163761737Y-125368625D01*
X164044224Y-125454316D01*
X164338000Y-125483251D01*
X164631777Y-125454316D01*
X164914264Y-125368625D01*
X165174606Y-125229469D01*
X165402797Y-125042197D01*
X165590069Y-124814006D01*
X165608000Y-124780459D01*
X165625931Y-124814006D01*
X165813203Y-125042197D01*
X166041395Y-125229469D01*
X166301737Y-125368625D01*
X166584224Y-125454316D01*
X166878000Y-125483251D01*
X167171777Y-125454316D01*
X167454264Y-125368625D01*
X167714606Y-125229469D01*
X167942797Y-125042197D01*
X168130069Y-124814006D01*
X168148000Y-124780459D01*
X168165931Y-124814006D01*
X168353203Y-125042197D01*
X168581395Y-125229469D01*
X168841737Y-125368625D01*
X169124224Y-125454316D01*
X169418000Y-125483251D01*
X169711777Y-125454316D01*
X169994264Y-125368625D01*
X170254606Y-125229469D01*
X170482797Y-125042197D01*
X170670069Y-124814006D01*
X170688000Y-124780459D01*
X170705931Y-124814006D01*
X170893203Y-125042197D01*
X171121395Y-125229469D01*
X171381737Y-125368625D01*
X171664224Y-125454316D01*
X171958000Y-125483251D01*
X172251777Y-125454316D01*
X172534264Y-125368625D01*
X172794606Y-125229469D01*
X173022797Y-125042197D01*
X173210069Y-124814006D01*
X173228000Y-124780459D01*
X173245931Y-124814006D01*
X173433203Y-125042197D01*
X173661395Y-125229469D01*
X173921737Y-125368625D01*
X174204224Y-125454316D01*
X174498000Y-125483251D01*
X174791777Y-125454316D01*
X175074264Y-125368625D01*
X175334606Y-125229469D01*
X175562797Y-125042197D01*
X175750069Y-124814006D01*
X175889225Y-124553663D01*
X175974916Y-124271176D01*
X175996600Y-124051018D01*
X175996600Y-123598981D01*
X175974916Y-123378823D01*
X175889225Y-123096336D01*
X175750069Y-122835994D01*
X175562797Y-122607803D01*
X175334605Y-122420531D01*
X175074263Y-122281375D01*
X174791776Y-122195684D01*
X174498000Y-122166749D01*
X174204223Y-122195684D01*
X173921736Y-122281375D01*
X173661394Y-122420531D01*
X173433203Y-122607803D01*
X173245931Y-122835995D01*
X173228000Y-122869541D01*
X173210069Y-122835994D01*
X173022797Y-122607803D01*
X172794605Y-122420531D01*
X172534263Y-122281375D01*
X172251776Y-122195684D01*
X171958000Y-122166749D01*
X171664223Y-122195684D01*
X171381736Y-122281375D01*
X171121394Y-122420531D01*
X170893203Y-122607803D01*
X170705931Y-122835995D01*
X170688000Y-122869541D01*
X170670069Y-122835994D01*
X170482797Y-122607803D01*
X170254605Y-122420531D01*
X169994263Y-122281375D01*
X169711776Y-122195684D01*
X169418000Y-122166749D01*
X169124223Y-122195684D01*
X168841736Y-122281375D01*
X168581394Y-122420531D01*
X168353203Y-122607803D01*
X168165931Y-122835995D01*
X168148000Y-122869541D01*
X168130069Y-122835994D01*
X167942797Y-122607803D01*
X167714605Y-122420531D01*
X167454263Y-122281375D01*
X167171776Y-122195684D01*
X166878000Y-122166749D01*
X166584223Y-122195684D01*
X166301736Y-122281375D01*
X166041394Y-122420531D01*
X165813203Y-122607803D01*
X165625931Y-122835995D01*
X165608000Y-122869541D01*
X165590069Y-122835994D01*
X165402797Y-122607803D01*
X165174605Y-122420531D01*
X164914263Y-122281375D01*
X164631776Y-122195684D01*
X164338000Y-122166749D01*
X164044223Y-122195684D01*
X163761736Y-122281375D01*
X163501394Y-122420531D01*
X163273203Y-122607803D01*
X163085931Y-122835995D01*
X163068000Y-122869541D01*
X163050069Y-122835994D01*
X162862797Y-122607803D01*
X162634605Y-122420531D01*
X162374263Y-122281375D01*
X162091776Y-122195684D01*
X161798000Y-122166749D01*
X161504223Y-122195684D01*
X161221736Y-122281375D01*
X160961394Y-122420531D01*
X160733203Y-122607803D01*
X160545931Y-122835995D01*
X160406775Y-123096337D01*
X160321084Y-123378824D01*
X160299400Y-123598982D01*
X158216600Y-123598982D01*
X158216600Y-123598981D01*
X158194916Y-123378823D01*
X158109225Y-123096336D01*
X157970069Y-122835994D01*
X157782797Y-122607803D01*
X157554605Y-122420531D01*
X157294263Y-122281375D01*
X157011776Y-122195684D01*
X156718000Y-122166749D01*
X156424223Y-122195684D01*
X156141736Y-122281375D01*
X155881394Y-122420531D01*
X155653203Y-122607803D01*
X155465931Y-122835995D01*
X155444576Y-122875947D01*
X155296486Y-122673271D01*
X155080035Y-122474267D01*
X154828919Y-122321314D01*
X154552789Y-122220291D01*
X154537026Y-122217642D01*
X154305000Y-122338783D01*
X154051000Y-122338783D01*
X153818974Y-122217642D01*
X153803211Y-122220291D01*
X153527081Y-122321314D01*
X153275965Y-122474267D01*
X153059514Y-122673271D01*
X152908000Y-122880633D01*
X152756486Y-122673271D01*
X152540035Y-122474267D01*
X152288919Y-122321314D01*
X152012789Y-122220291D01*
X151997026Y-122217642D01*
X151765000Y-122338783D01*
X151511000Y-122338783D01*
X151278974Y-122217642D01*
X151263211Y-122220291D01*
X150987081Y-122321314D01*
X150735965Y-122474267D01*
X150519514Y-122673271D01*
X150371424Y-122875947D01*
X150350069Y-122835994D01*
X150162797Y-122607803D01*
X150108000Y-122562832D01*
X150108000Y-118794604D01*
X150112886Y-118744999D01*
X150097995Y-118593816D01*
X150093385Y-118547006D01*
X150035632Y-118356620D01*
X149941847Y-118181160D01*
X149815633Y-118027367D01*
X149777094Y-117995739D01*
X149263000Y-117481645D01*
X149263000Y-117333665D01*
X156553000Y-117333665D01*
X156553000Y-117616335D01*
X156608147Y-117893574D01*
X156716320Y-118154727D01*
X156873363Y-118389759D01*
X157073241Y-118589637D01*
X157308273Y-118746680D01*
X157569426Y-118854853D01*
X157846665Y-118910000D01*
X158129335Y-118910000D01*
X158406574Y-118854853D01*
X158667727Y-118746680D01*
X158902759Y-118589637D01*
X159102637Y-118389759D01*
X159259680Y-118154727D01*
X159367853Y-117893574D01*
X159423000Y-117616335D01*
X159423000Y-117333665D01*
X159367853Y-117056426D01*
X159259680Y-116795273D01*
X159102637Y-116560241D01*
X158902759Y-116360363D01*
X158667727Y-116203320D01*
X158406574Y-116095147D01*
X158129335Y-116040000D01*
X157846665Y-116040000D01*
X157569426Y-116095147D01*
X157308273Y-116203320D01*
X157073241Y-116360363D01*
X156873363Y-116560241D01*
X156716320Y-116795273D01*
X156608147Y-117056426D01*
X156553000Y-117333665D01*
X149263000Y-117333665D01*
X149207853Y-117056426D01*
X149099680Y-116795273D01*
X148942637Y-116560241D01*
X148838000Y-116455604D01*
X148838000Y-113794870D01*
X148872180Y-113784502D01*
X148982494Y-113725537D01*
X149079185Y-113646185D01*
X149158537Y-113549494D01*
X149217502Y-113439180D01*
X149253812Y-113319482D01*
X149266072Y-113195000D01*
X149266072Y-111595000D01*
X149253812Y-111470518D01*
X149217502Y-111350820D01*
X149158537Y-111240506D01*
X149079185Y-111143815D01*
X148982494Y-111064463D01*
X148872180Y-111005498D01*
X148752482Y-110969188D01*
X148628000Y-110956928D01*
X148620785Y-110956928D01*
X148641097Y-110887702D01*
X147828000Y-110074605D01*
X147014903Y-110887702D01*
X147035215Y-110956928D01*
X147028000Y-110956928D01*
X146903518Y-110969188D01*
X146783820Y-111005498D01*
X146673506Y-111064463D01*
X146576815Y-111143815D01*
X146497463Y-111240506D01*
X146438498Y-111350820D01*
X146428130Y-111385000D01*
X141527604Y-111385000D01*
X141477999Y-111380114D01*
X141428394Y-111385000D01*
X141428392Y-111385000D01*
X141280006Y-111399615D01*
X141089620Y-111457368D01*
X140914160Y-111551153D01*
X140760367Y-111677367D01*
X140728739Y-111715906D01*
X140214645Y-112230000D01*
X140066665Y-112230000D01*
X139789426Y-112285147D01*
X139528273Y-112393320D01*
X139293241Y-112550363D01*
X139272480Y-112571125D01*
X138678000Y-111976645D01*
X138678000Y-109657702D01*
X139394903Y-109657702D01*
X139466486Y-109901671D01*
X139721996Y-110022571D01*
X139996184Y-110091300D01*
X140278512Y-110105217D01*
X140558130Y-110063787D01*
X140824292Y-109968603D01*
X140830074Y-109965512D01*
X146387783Y-109965512D01*
X146429213Y-110245130D01*
X146524397Y-110511292D01*
X146591329Y-110636514D01*
X146835298Y-110708097D01*
X147648395Y-109895000D01*
X148007605Y-109895000D01*
X148820702Y-110708097D01*
X149064671Y-110636514D01*
X149185571Y-110381004D01*
X149254300Y-110106816D01*
X149268217Y-109824488D01*
X149226787Y-109544870D01*
X149131603Y-109278708D01*
X149064671Y-109153486D01*
X148820702Y-109081903D01*
X148007605Y-109895000D01*
X147648395Y-109895000D01*
X146835298Y-109081903D01*
X146591329Y-109153486D01*
X146470429Y-109408996D01*
X146401700Y-109683184D01*
X146387783Y-109965512D01*
X140830074Y-109965512D01*
X140949514Y-109901671D01*
X141021097Y-109657702D01*
X140208000Y-108844605D01*
X139394903Y-109657702D01*
X138678000Y-109657702D01*
X138678000Y-108735512D01*
X138767783Y-108735512D01*
X138809213Y-109015130D01*
X138904397Y-109281292D01*
X138971329Y-109406514D01*
X139215298Y-109478097D01*
X140028395Y-108665000D01*
X140387605Y-108665000D01*
X141200702Y-109478097D01*
X141444671Y-109406514D01*
X141565571Y-109151004D01*
X141627912Y-108902298D01*
X147014903Y-108902298D01*
X147828000Y-109715395D01*
X148641097Y-108902298D01*
X148569514Y-108658329D01*
X148314004Y-108537429D01*
X148039816Y-108468700D01*
X147757488Y-108454783D01*
X147477870Y-108496213D01*
X147211708Y-108591397D01*
X147086486Y-108658329D01*
X147014903Y-108902298D01*
X141627912Y-108902298D01*
X141634300Y-108876816D01*
X141648217Y-108594488D01*
X141606787Y-108314870D01*
X141511603Y-108048708D01*
X141444671Y-107923486D01*
X141200702Y-107851903D01*
X140387605Y-108665000D01*
X140028395Y-108665000D01*
X139215298Y-107851903D01*
X138971329Y-107923486D01*
X138850429Y-108178996D01*
X138781700Y-108453184D01*
X138767783Y-108735512D01*
X138678000Y-108735512D01*
X138678000Y-107672298D01*
X139394903Y-107672298D01*
X140208000Y-108485395D01*
X141021097Y-107672298D01*
X140949514Y-107428329D01*
X140694004Y-107307429D01*
X140419816Y-107238700D01*
X140137488Y-107224783D01*
X139857870Y-107266213D01*
X139591708Y-107361397D01*
X139466486Y-107428329D01*
X139394903Y-107672298D01*
X138678000Y-107672298D01*
X138678000Y-106463355D01*
X140201356Y-104940000D01*
X140349335Y-104940000D01*
X140626574Y-104884853D01*
X140887727Y-104776680D01*
X141122759Y-104619637D01*
X141322637Y-104419759D01*
X141479680Y-104184727D01*
X141587853Y-103923574D01*
X141643000Y-103646335D01*
X141643000Y-103498355D01*
X144697100Y-100444256D01*
X144735633Y-100412633D01*
X144861847Y-100258840D01*
X144955632Y-100083380D01*
X145013385Y-99892994D01*
X145028000Y-99744608D01*
X145028000Y-99744607D01*
X145032886Y-99695000D01*
X145028000Y-99645392D01*
X145028000Y-95033355D01*
X147237100Y-92824256D01*
X147275633Y-92792633D01*
X147401847Y-92638840D01*
X147495632Y-92463380D01*
X147553385Y-92272994D01*
X147568000Y-92124608D01*
X147568000Y-92124606D01*
X147572886Y-92075001D01*
X147568000Y-92025396D01*
X147568000Y-91824396D01*
X147672637Y-91719759D01*
X147829680Y-91484727D01*
X147937853Y-91223574D01*
X147993000Y-90946335D01*
X147993000Y-90663665D01*
X147937853Y-90386426D01*
X147829680Y-90125273D01*
X147672637Y-89890241D01*
X147472759Y-89690363D01*
X147237727Y-89533320D01*
X146976574Y-89425147D01*
X146699335Y-89370000D01*
X146416665Y-89370000D01*
X146139426Y-89425147D01*
X145878273Y-89533320D01*
X145643241Y-89690363D01*
X145443363Y-89890241D01*
X145286320Y-90125273D01*
X145178147Y-90386426D01*
X145123000Y-90663665D01*
X145123000Y-90946335D01*
X145178147Y-91223574D01*
X145286320Y-91484727D01*
X145443363Y-91719759D01*
X145464124Y-91740520D01*
X143338901Y-93865744D01*
X143300368Y-93897367D01*
X143268745Y-93935900D01*
X143268744Y-93935901D01*
X143174154Y-94051160D01*
X143080368Y-94226621D01*
X143022615Y-94417006D01*
X143003114Y-94615000D01*
X143008001Y-94664618D01*
X143008000Y-99276644D01*
X141612801Y-100671844D01*
X141587853Y-100546426D01*
X141479680Y-100285273D01*
X141322637Y-100050241D01*
X141122759Y-99850363D01*
X140890241Y-99695000D01*
X141122759Y-99539637D01*
X141322637Y-99339759D01*
X141479680Y-99104727D01*
X141587853Y-98843574D01*
X141643000Y-98566335D01*
X141643000Y-98283665D01*
X141587853Y-98006426D01*
X141479680Y-97745273D01*
X141322637Y-97510241D01*
X141122759Y-97310363D01*
X140887727Y-97153320D01*
X140877135Y-97148933D01*
X141063131Y-97037385D01*
X141271519Y-96848414D01*
X141439037Y-96622420D01*
X141559246Y-96368087D01*
X141599904Y-96234039D01*
X141477915Y-96012000D01*
X140335000Y-96012000D01*
X140335000Y-96032000D01*
X140081000Y-96032000D01*
X140081000Y-96012000D01*
X138938085Y-96012000D01*
X138816096Y-96234039D01*
X138856754Y-96368087D01*
X138976963Y-96622420D01*
X139144481Y-96848414D01*
X139352869Y-97037385D01*
X139538865Y-97148933D01*
X139528273Y-97153320D01*
X139293241Y-97310363D01*
X139093363Y-97510241D01*
X138986481Y-97670202D01*
X138927644Y-97675997D01*
X138784383Y-97719454D01*
X138652353Y-97790026D01*
X138582569Y-97847297D01*
X138536629Y-97884999D01*
X138512831Y-97913997D01*
X124456998Y-111969831D01*
X124428000Y-111993629D01*
X124404202Y-112022627D01*
X124404201Y-112022628D01*
X124333026Y-112109354D01*
X124262454Y-112241384D01*
X124232180Y-112341188D01*
X124218998Y-112384644D01*
X124217978Y-112395000D01*
X124204324Y-112533630D01*
X124208001Y-112570962D01*
X124208000Y-119807677D01*
X124204324Y-119845000D01*
X124208000Y-119882322D01*
X124208000Y-119882332D01*
X124218997Y-119993985D01*
X124252763Y-120105299D01*
X124262454Y-120137246D01*
X124333026Y-120269276D01*
X124372871Y-120317826D01*
X124427999Y-120385001D01*
X124457003Y-120408804D01*
X125206199Y-121158000D01*
X124705323Y-121158000D01*
X124190065Y-121260492D01*
X123704702Y-121461536D01*
X123267887Y-121753406D01*
X123138000Y-121883293D01*
X123138000Y-113699877D01*
X123141435Y-113665000D01*
X123127727Y-113525816D01*
X123087128Y-113391980D01*
X123021200Y-113268637D01*
X122932475Y-113160525D01*
X122824363Y-113071800D01*
X122701020Y-113005872D01*
X122567184Y-112965273D01*
X122501877Y-112958841D01*
X122428000Y-112951565D01*
X122393123Y-112955000D01*
X106628000Y-112955000D01*
X106628000Y-109401052D01*
X111621553Y-109401052D01*
X111771548Y-109711493D01*
X112137819Y-109897311D01*
X112533303Y-110008101D01*
X112942801Y-110039609D01*
X113350577Y-109990621D01*
X113740962Y-109863021D01*
X114024452Y-109711493D01*
X114174447Y-109401052D01*
X112898000Y-108124605D01*
X111621553Y-109401052D01*
X106628000Y-109401052D01*
X106628000Y-107989801D01*
X110803391Y-107989801D01*
X110852379Y-108397577D01*
X110979979Y-108787962D01*
X111131507Y-109071452D01*
X111441948Y-109221447D01*
X112718395Y-107945000D01*
X113077605Y-107945000D01*
X114354052Y-109221447D01*
X114664493Y-109071452D01*
X114850311Y-108705181D01*
X114961101Y-108309697D01*
X114992609Y-107900199D01*
X114943621Y-107492423D01*
X114816021Y-107102038D01*
X114664493Y-106818548D01*
X114354052Y-106668553D01*
X113077605Y-107945000D01*
X112718395Y-107945000D01*
X111441948Y-106668553D01*
X111131507Y-106818548D01*
X110945689Y-107184819D01*
X110834899Y-107580303D01*
X110803391Y-107989801D01*
X106628000Y-107989801D01*
X106628000Y-106488948D01*
X111621553Y-106488948D01*
X112898000Y-107765395D01*
X114174447Y-106488948D01*
X114024452Y-106178507D01*
X113658181Y-105992689D01*
X113262697Y-105881899D01*
X112853199Y-105850391D01*
X112445423Y-105899379D01*
X112055038Y-106026979D01*
X111771548Y-106178507D01*
X111621553Y-106488948D01*
X106628000Y-106488948D01*
X106628000Y-105139023D01*
X121613582Y-105139023D01*
X121793648Y-105475060D01*
X122202474Y-105685820D01*
X122644562Y-105812772D01*
X123102922Y-105851037D01*
X123559940Y-105799146D01*
X123998053Y-105659092D01*
X124342352Y-105475060D01*
X124522418Y-105139023D01*
X123068000Y-103684605D01*
X121613582Y-105139023D01*
X106628000Y-105139023D01*
X106628000Y-103363665D01*
X108293000Y-103363665D01*
X108293000Y-103646335D01*
X108348147Y-103923574D01*
X108456320Y-104184727D01*
X108613363Y-104419759D01*
X108813241Y-104619637D01*
X109048273Y-104776680D01*
X109309426Y-104884853D01*
X109586665Y-104940000D01*
X109869335Y-104940000D01*
X110146574Y-104884853D01*
X110407727Y-104776680D01*
X110642759Y-104619637D01*
X110842637Y-104419759D01*
X110999680Y-104184727D01*
X111107853Y-103923574D01*
X111163000Y-103646335D01*
X111163000Y-103539922D01*
X120721963Y-103539922D01*
X120773854Y-103996940D01*
X120913908Y-104435053D01*
X121097940Y-104779352D01*
X121433977Y-104959418D01*
X122888395Y-103505000D01*
X123247605Y-103505000D01*
X124702023Y-104959418D01*
X125038060Y-104779352D01*
X125248820Y-104370526D01*
X125375772Y-103928438D01*
X125414037Y-103470078D01*
X125401955Y-103363665D01*
X128613000Y-103363665D01*
X128613000Y-103646335D01*
X128668147Y-103923574D01*
X128776320Y-104184727D01*
X128933363Y-104419759D01*
X129133241Y-104619637D01*
X129368273Y-104776680D01*
X129629426Y-104884853D01*
X129906665Y-104940000D01*
X130189335Y-104940000D01*
X130466574Y-104884853D01*
X130727727Y-104776680D01*
X130962759Y-104619637D01*
X131162637Y-104419759D01*
X131319680Y-104184727D01*
X131427853Y-103923574D01*
X131483000Y-103646335D01*
X131483000Y-103363665D01*
X131427853Y-103086426D01*
X131319680Y-102825273D01*
X131162637Y-102590241D01*
X130962759Y-102390363D01*
X130727727Y-102233320D01*
X130466574Y-102125147D01*
X130189335Y-102070000D01*
X129906665Y-102070000D01*
X129629426Y-102125147D01*
X129368273Y-102233320D01*
X129133241Y-102390363D01*
X128933363Y-102590241D01*
X128776320Y-102825273D01*
X128668147Y-103086426D01*
X128613000Y-103363665D01*
X125401955Y-103363665D01*
X125362146Y-103013060D01*
X125222092Y-102574947D01*
X125038060Y-102230648D01*
X124702023Y-102050582D01*
X123247605Y-103505000D01*
X122888395Y-103505000D01*
X121433977Y-102050582D01*
X121097940Y-102230648D01*
X120887180Y-102639474D01*
X120760228Y-103081562D01*
X120721963Y-103539922D01*
X111163000Y-103539922D01*
X111163000Y-103363665D01*
X111107853Y-103086426D01*
X110999680Y-102825273D01*
X110842637Y-102590241D01*
X110642759Y-102390363D01*
X110407727Y-102233320D01*
X110146574Y-102125147D01*
X109869335Y-102070000D01*
X109586665Y-102070000D01*
X109309426Y-102125147D01*
X109048273Y-102233320D01*
X108813241Y-102390363D01*
X108613363Y-102590241D01*
X108456320Y-102825273D01*
X108348147Y-103086426D01*
X108293000Y-103363665D01*
X106628000Y-103363665D01*
X106628000Y-99489645D01*
X117168000Y-99489645D01*
X117168000Y-99900355D01*
X117248126Y-100303172D01*
X117405297Y-100682618D01*
X117633475Y-101024110D01*
X117923890Y-101314525D01*
X118265382Y-101542703D01*
X118644828Y-101699874D01*
X119047645Y-101780000D01*
X119458355Y-101780000D01*
X119861172Y-101699874D01*
X120240618Y-101542703D01*
X120582110Y-101314525D01*
X120872525Y-101024110D01*
X121100703Y-100682618D01*
X121160500Y-100538255D01*
X121220297Y-100682618D01*
X121448475Y-101024110D01*
X121738890Y-101314525D01*
X121946494Y-101453242D01*
X121793648Y-101534940D01*
X121613582Y-101870977D01*
X123068000Y-103325395D01*
X124522418Y-101870977D01*
X124342352Y-101534940D01*
X124187054Y-101454880D01*
X124397110Y-101314525D01*
X124687525Y-101024110D01*
X124915703Y-100682618D01*
X125072874Y-100303172D01*
X125153000Y-99900355D01*
X125153000Y-99489645D01*
X125072874Y-99086828D01*
X124915703Y-98707382D01*
X124687525Y-98365890D01*
X124397110Y-98075475D01*
X124194861Y-97940336D01*
X124556476Y-97698713D01*
X124881713Y-97373476D01*
X125137250Y-96991037D01*
X125313267Y-96566094D01*
X125403000Y-96114977D01*
X125403000Y-95655023D01*
X125313267Y-95203906D01*
X125264015Y-95085000D01*
X128609928Y-95085000D01*
X128609928Y-96685000D01*
X128622188Y-96809482D01*
X128658498Y-96929180D01*
X128717463Y-97039494D01*
X128796815Y-97136185D01*
X128893506Y-97215537D01*
X129003820Y-97274502D01*
X129123518Y-97310812D01*
X129248000Y-97323072D01*
X130848000Y-97323072D01*
X130972482Y-97310812D01*
X131092180Y-97274502D01*
X131202494Y-97215537D01*
X131299185Y-97136185D01*
X131378537Y-97039494D01*
X131437502Y-96929180D01*
X131473812Y-96809482D01*
X131486072Y-96685000D01*
X131486072Y-95085000D01*
X131473812Y-94960518D01*
X131437502Y-94840820D01*
X131378537Y-94730506D01*
X131299185Y-94633815D01*
X131202494Y-94554463D01*
X131092180Y-94495498D01*
X131020207Y-94473665D01*
X133693000Y-94473665D01*
X133693000Y-94756335D01*
X133748147Y-95033574D01*
X133856320Y-95294727D01*
X134013363Y-95529759D01*
X134213241Y-95729637D01*
X134448273Y-95886680D01*
X134709426Y-95994853D01*
X134986665Y-96050000D01*
X135269335Y-96050000D01*
X135546574Y-95994853D01*
X135807727Y-95886680D01*
X136042759Y-95729637D01*
X136236435Y-95535961D01*
X138816096Y-95535961D01*
X138938085Y-95758000D01*
X140081000Y-95758000D01*
X140081000Y-94614376D01*
X140335000Y-94614376D01*
X140335000Y-95758000D01*
X141477915Y-95758000D01*
X141599904Y-95535961D01*
X141559246Y-95401913D01*
X141439037Y-95147580D01*
X141271519Y-94921586D01*
X141063131Y-94732615D01*
X140821881Y-94587930D01*
X140557040Y-94493091D01*
X140335000Y-94614376D01*
X140081000Y-94614376D01*
X139858960Y-94493091D01*
X139594119Y-94587930D01*
X139352869Y-94732615D01*
X139144481Y-94921586D01*
X138976963Y-95147580D01*
X138856754Y-95401913D01*
X138816096Y-95535961D01*
X136236435Y-95535961D01*
X136242637Y-95529759D01*
X136399680Y-95294727D01*
X136507853Y-95033574D01*
X136563000Y-94756335D01*
X136563000Y-94473665D01*
X136507853Y-94196426D01*
X136399680Y-93935273D01*
X136242637Y-93700241D01*
X136042759Y-93500363D01*
X135807727Y-93343320D01*
X135546574Y-93235147D01*
X135269335Y-93180000D01*
X134986665Y-93180000D01*
X134709426Y-93235147D01*
X134448273Y-93343320D01*
X134213241Y-93500363D01*
X134013363Y-93700241D01*
X133856320Y-93935273D01*
X133748147Y-94196426D01*
X133693000Y-94473665D01*
X131020207Y-94473665D01*
X130972482Y-94459188D01*
X130848000Y-94446928D01*
X129248000Y-94446928D01*
X129123518Y-94459188D01*
X129003820Y-94495498D01*
X128893506Y-94554463D01*
X128796815Y-94633815D01*
X128717463Y-94730506D01*
X128658498Y-94840820D01*
X128622188Y-94960518D01*
X128609928Y-95085000D01*
X125264015Y-95085000D01*
X125137250Y-94778963D01*
X124881713Y-94396524D01*
X124556476Y-94071287D01*
X124174037Y-93815750D01*
X123749094Y-93639733D01*
X123297977Y-93550000D01*
X122838023Y-93550000D01*
X122386906Y-93639733D01*
X121961963Y-93815750D01*
X121579524Y-94071287D01*
X121254287Y-94396524D01*
X120998750Y-94778963D01*
X120822733Y-95203906D01*
X120733000Y-95655023D01*
X120733000Y-96114977D01*
X120822733Y-96566094D01*
X120998750Y-96991037D01*
X121254287Y-97373476D01*
X121579524Y-97698713D01*
X121941139Y-97940336D01*
X121738890Y-98075475D01*
X121448475Y-98365890D01*
X121220297Y-98707382D01*
X121160500Y-98851745D01*
X121100703Y-98707382D01*
X120872525Y-98365890D01*
X120582110Y-98075475D01*
X120240618Y-97847297D01*
X119861172Y-97690126D01*
X119458355Y-97610000D01*
X119047645Y-97610000D01*
X118644828Y-97690126D01*
X118265382Y-97847297D01*
X117923890Y-98075475D01*
X117633475Y-98365890D01*
X117405297Y-98707382D01*
X117248126Y-99086828D01*
X117168000Y-99489645D01*
X106628000Y-99489645D01*
X106628000Y-95743665D01*
X113373000Y-95743665D01*
X113373000Y-96026335D01*
X113428147Y-96303574D01*
X113536320Y-96564727D01*
X113693363Y-96799759D01*
X113893241Y-96999637D01*
X114128273Y-97156680D01*
X114389426Y-97264853D01*
X114666665Y-97320000D01*
X114949335Y-97320000D01*
X115226574Y-97264853D01*
X115487727Y-97156680D01*
X115722759Y-96999637D01*
X115922637Y-96799759D01*
X116079680Y-96564727D01*
X116187853Y-96303574D01*
X116243000Y-96026335D01*
X116243000Y-95743665D01*
X116187853Y-95466426D01*
X116079680Y-95205273D01*
X115922637Y-94970241D01*
X115722759Y-94770363D01*
X115487727Y-94613320D01*
X115226574Y-94505147D01*
X114949335Y-94450000D01*
X114666665Y-94450000D01*
X114389426Y-94505147D01*
X114128273Y-94613320D01*
X113893241Y-94770363D01*
X113693363Y-94970241D01*
X113536320Y-95205273D01*
X113428147Y-95466426D01*
X113373000Y-95743665D01*
X106628000Y-95743665D01*
X106628000Y-92509645D01*
X117168000Y-92509645D01*
X117168000Y-92920355D01*
X117248126Y-93323172D01*
X117405297Y-93702618D01*
X117633475Y-94044110D01*
X117923890Y-94334525D01*
X118265382Y-94562703D01*
X118644828Y-94719874D01*
X119047645Y-94800000D01*
X119458355Y-94800000D01*
X119861172Y-94719874D01*
X120240618Y-94562703D01*
X120582110Y-94334525D01*
X120872525Y-94044110D01*
X121100703Y-93702618D01*
X121257874Y-93323172D01*
X121338000Y-92920355D01*
X121338000Y-92509645D01*
X121257874Y-92106828D01*
X121100703Y-91727382D01*
X120872525Y-91385890D01*
X120582110Y-91095475D01*
X120240618Y-90867297D01*
X119861172Y-90710126D01*
X119458355Y-90630000D01*
X119047645Y-90630000D01*
X118644828Y-90710126D01*
X118265382Y-90867297D01*
X117923890Y-91095475D01*
X117633475Y-91385890D01*
X117405297Y-91727382D01*
X117248126Y-92106828D01*
X117168000Y-92509645D01*
X106628000Y-92509645D01*
X106628000Y-90604570D01*
X126743000Y-90604570D01*
X126743000Y-91005430D01*
X126821204Y-91398587D01*
X126974607Y-91768934D01*
X127197313Y-92102237D01*
X127480763Y-92385687D01*
X127814066Y-92608393D01*
X128184413Y-92761796D01*
X128577570Y-92840000D01*
X128978430Y-92840000D01*
X129371587Y-92761796D01*
X129741934Y-92608393D01*
X130075237Y-92385687D01*
X130358687Y-92102237D01*
X130581393Y-91768934D01*
X130734796Y-91398587D01*
X130813000Y-91005430D01*
X130813000Y-90604570D01*
X130734796Y-90211413D01*
X130581393Y-89841066D01*
X130358687Y-89507763D01*
X130255924Y-89405000D01*
X133259928Y-89405000D01*
X133259928Y-92205000D01*
X133272188Y-92329482D01*
X133308498Y-92449180D01*
X133367463Y-92559494D01*
X133446815Y-92656185D01*
X133543506Y-92735537D01*
X133653820Y-92794502D01*
X133773518Y-92830812D01*
X133898000Y-92843072D01*
X136698000Y-92843072D01*
X136822482Y-92830812D01*
X136942180Y-92794502D01*
X137052494Y-92735537D01*
X137149185Y-92656185D01*
X137228537Y-92559494D01*
X137287502Y-92449180D01*
X137323812Y-92329482D01*
X137336072Y-92205000D01*
X137336072Y-91154040D01*
X140086091Y-91154040D01*
X140180930Y-91418881D01*
X140325615Y-91660131D01*
X140514586Y-91868519D01*
X140740580Y-92036037D01*
X140994913Y-92156246D01*
X141128961Y-92196904D01*
X141351000Y-92074915D01*
X141351000Y-90932000D01*
X141605000Y-90932000D01*
X141605000Y-92074915D01*
X141827039Y-92196904D01*
X141961087Y-92156246D01*
X142215420Y-92036037D01*
X142441414Y-91868519D01*
X142630385Y-91660131D01*
X142775070Y-91418881D01*
X142869909Y-91154040D01*
X142748624Y-90932000D01*
X141605000Y-90932000D01*
X141351000Y-90932000D01*
X140207376Y-90932000D01*
X140086091Y-91154040D01*
X137336072Y-91154040D01*
X137336072Y-90455960D01*
X140086091Y-90455960D01*
X140207376Y-90678000D01*
X141351000Y-90678000D01*
X141351000Y-89535085D01*
X141605000Y-89535085D01*
X141605000Y-90678000D01*
X142748624Y-90678000D01*
X142869909Y-90455960D01*
X142775070Y-90191119D01*
X142630385Y-89949869D01*
X142441414Y-89741481D01*
X142215420Y-89573963D01*
X141961087Y-89453754D01*
X141827039Y-89413096D01*
X141605000Y-89535085D01*
X141351000Y-89535085D01*
X141128961Y-89413096D01*
X140994913Y-89453754D01*
X140740580Y-89573963D01*
X140514586Y-89741481D01*
X140325615Y-89949869D01*
X140180930Y-90191119D01*
X140086091Y-90455960D01*
X137336072Y-90455960D01*
X137336072Y-89405000D01*
X137323812Y-89280518D01*
X137287502Y-89160820D01*
X137228537Y-89050506D01*
X137149185Y-88953815D01*
X137052494Y-88874463D01*
X136942180Y-88815498D01*
X136822482Y-88779188D01*
X136698000Y-88766928D01*
X133898000Y-88766928D01*
X133773518Y-88779188D01*
X133653820Y-88815498D01*
X133543506Y-88874463D01*
X133446815Y-88953815D01*
X133367463Y-89050506D01*
X133308498Y-89160820D01*
X133272188Y-89280518D01*
X133259928Y-89405000D01*
X130255924Y-89405000D01*
X130075237Y-89224313D01*
X129741934Y-89001607D01*
X129371587Y-88848204D01*
X128978430Y-88770000D01*
X128577570Y-88770000D01*
X128184413Y-88848204D01*
X127814066Y-89001607D01*
X127480763Y-89224313D01*
X127197313Y-89507763D01*
X126974607Y-89841066D01*
X126821204Y-90211413D01*
X126743000Y-90604570D01*
X106628000Y-90604570D01*
X106628000Y-86435000D01*
X123663123Y-86435000D01*
X123698000Y-86438435D01*
X123732877Y-86435000D01*
X123837184Y-86424727D01*
X123971020Y-86384128D01*
X124094363Y-86318200D01*
X124202475Y-86229475D01*
X124291200Y-86121363D01*
X124357128Y-85998020D01*
X124397727Y-85864184D01*
X124411435Y-85725000D01*
X124408000Y-85690123D01*
X124408000Y-82045000D01*
X126739928Y-82045000D01*
X126752188Y-82169482D01*
X126788498Y-82289180D01*
X126847463Y-82399494D01*
X126926815Y-82496185D01*
X127023506Y-82575537D01*
X127133820Y-82634502D01*
X127253518Y-82670812D01*
X127378000Y-82683072D01*
X128492250Y-82680000D01*
X128651000Y-82521250D01*
X128651000Y-80772000D01*
X128905000Y-80772000D01*
X128905000Y-82521250D01*
X129063750Y-82680000D01*
X130178000Y-82683072D01*
X130302482Y-82670812D01*
X130422180Y-82634502D01*
X130532494Y-82575537D01*
X130629185Y-82496185D01*
X130708537Y-82399494D01*
X130767502Y-82289180D01*
X130803812Y-82169482D01*
X130816072Y-82045000D01*
X130813434Y-81088161D01*
X133311836Y-81088161D01*
X133436456Y-81467127D01*
X133632614Y-81814499D01*
X133892772Y-82116928D01*
X134206932Y-82362792D01*
X134563021Y-82542642D01*
X134854840Y-82631160D01*
X135171000Y-82516947D01*
X135171000Y-80772000D01*
X135425000Y-80772000D01*
X135425000Y-82516947D01*
X135741160Y-82631160D01*
X136032979Y-82542642D01*
X136389068Y-82362792D01*
X136703228Y-82116928D01*
X136963386Y-81814499D01*
X137159544Y-81467127D01*
X137284164Y-81088161D01*
X137170287Y-80772000D01*
X135425000Y-80772000D01*
X135171000Y-80772000D01*
X133425713Y-80772000D01*
X133311836Y-81088161D01*
X130813434Y-81088161D01*
X130813000Y-80930750D01*
X130654250Y-80772000D01*
X128905000Y-80772000D01*
X128651000Y-80772000D01*
X126901750Y-80772000D01*
X126743000Y-80930750D01*
X126739928Y-82045000D01*
X124408000Y-82045000D01*
X124408000Y-79245000D01*
X126739928Y-79245000D01*
X126743000Y-80359250D01*
X126901750Y-80518000D01*
X128651000Y-80518000D01*
X128651000Y-78768750D01*
X128905000Y-78768750D01*
X128905000Y-80518000D01*
X130654250Y-80518000D01*
X130813000Y-80359250D01*
X130813433Y-80201839D01*
X133311836Y-80201839D01*
X133425713Y-80518000D01*
X135171000Y-80518000D01*
X135171000Y-78773053D01*
X135425000Y-78773053D01*
X135425000Y-80518000D01*
X137170287Y-80518000D01*
X137175450Y-80503665D01*
X140043000Y-80503665D01*
X140043000Y-80786335D01*
X140098147Y-81063574D01*
X140206320Y-81324727D01*
X140363363Y-81559759D01*
X140563241Y-81759637D01*
X140798273Y-81916680D01*
X141059426Y-82024853D01*
X141336665Y-82080000D01*
X141619335Y-82080000D01*
X141896574Y-82024853D01*
X142157727Y-81916680D01*
X142392759Y-81759637D01*
X142592637Y-81559759D01*
X142749680Y-81324727D01*
X142857853Y-81063574D01*
X142913000Y-80786335D01*
X142913000Y-80503665D01*
X145123000Y-80503665D01*
X145123000Y-80786335D01*
X145178147Y-81063574D01*
X145286320Y-81324727D01*
X145443363Y-81559759D01*
X145643241Y-81759637D01*
X145878273Y-81916680D01*
X146139426Y-82024853D01*
X146416665Y-82080000D01*
X146699335Y-82080000D01*
X146976574Y-82024853D01*
X147237727Y-81916680D01*
X147472759Y-81759637D01*
X147672637Y-81559759D01*
X147829680Y-81324727D01*
X147937853Y-81063574D01*
X147993000Y-80786335D01*
X147993000Y-80503665D01*
X147937853Y-80226426D01*
X147829680Y-79965273D01*
X147672637Y-79730241D01*
X147472759Y-79530363D01*
X147237727Y-79373320D01*
X146976574Y-79265147D01*
X146699335Y-79210000D01*
X146416665Y-79210000D01*
X146139426Y-79265147D01*
X145878273Y-79373320D01*
X145643241Y-79530363D01*
X145443363Y-79730241D01*
X145286320Y-79965273D01*
X145178147Y-80226426D01*
X145123000Y-80503665D01*
X142913000Y-80503665D01*
X142857853Y-80226426D01*
X142749680Y-79965273D01*
X142592637Y-79730241D01*
X142392759Y-79530363D01*
X142157727Y-79373320D01*
X141896574Y-79265147D01*
X141619335Y-79210000D01*
X141336665Y-79210000D01*
X141059426Y-79265147D01*
X140798273Y-79373320D01*
X140563241Y-79530363D01*
X140363363Y-79730241D01*
X140206320Y-79965273D01*
X140098147Y-80226426D01*
X140043000Y-80503665D01*
X137175450Y-80503665D01*
X137284164Y-80201839D01*
X137159544Y-79822873D01*
X136963386Y-79475501D01*
X136703228Y-79173072D01*
X136389068Y-78927208D01*
X136032979Y-78747358D01*
X135741160Y-78658840D01*
X135425000Y-78773053D01*
X135171000Y-78773053D01*
X134854840Y-78658840D01*
X134563021Y-78747358D01*
X134206932Y-78927208D01*
X133892772Y-79173072D01*
X133632614Y-79475501D01*
X133436456Y-79822873D01*
X133311836Y-80201839D01*
X130813433Y-80201839D01*
X130816072Y-79245000D01*
X130803812Y-79120518D01*
X130767502Y-79000820D01*
X130708537Y-78890506D01*
X130629185Y-78793815D01*
X130532494Y-78714463D01*
X130422180Y-78655498D01*
X130302482Y-78619188D01*
X130178000Y-78606928D01*
X129063750Y-78610000D01*
X128905000Y-78768750D01*
X128651000Y-78768750D01*
X128492250Y-78610000D01*
X127378000Y-78606928D01*
X127253518Y-78619188D01*
X127133820Y-78655498D01*
X127023506Y-78714463D01*
X126926815Y-78793815D01*
X126847463Y-78890506D01*
X126788498Y-79000820D01*
X126752188Y-79120518D01*
X126739928Y-79245000D01*
X124408000Y-79245000D01*
X124408000Y-77506707D01*
X124537887Y-77636594D01*
X124974702Y-77928464D01*
X125460065Y-78129508D01*
X125975323Y-78232000D01*
X126500677Y-78232000D01*
X127015935Y-78129508D01*
X127501298Y-77928464D01*
X127938113Y-77636594D01*
X128309594Y-77265113D01*
X128601464Y-76828298D01*
X128657001Y-76694219D01*
X128729203Y-76782197D01*
X128957395Y-76969469D01*
X129217737Y-77108625D01*
X129500224Y-77194316D01*
X129794000Y-77223251D01*
X130087777Y-77194316D01*
X130370264Y-77108625D01*
X130630606Y-76969469D01*
X130858797Y-76782197D01*
X131046069Y-76554006D01*
X131064000Y-76520459D01*
X131081931Y-76554006D01*
X131269203Y-76782197D01*
X131497395Y-76969469D01*
X131757737Y-77108625D01*
X132040224Y-77194316D01*
X132334000Y-77223251D01*
X132627777Y-77194316D01*
X132910264Y-77108625D01*
X133170606Y-76969469D01*
X133398797Y-76782197D01*
X133586069Y-76554006D01*
X133604000Y-76520459D01*
X133621931Y-76554006D01*
X133809203Y-76782197D01*
X134037395Y-76969469D01*
X134297737Y-77108625D01*
X134580224Y-77194316D01*
X134874000Y-77223251D01*
X135167777Y-77194316D01*
X135450264Y-77108625D01*
X135710606Y-76969469D01*
X135938797Y-76782197D01*
X136126069Y-76554006D01*
X136147424Y-76514053D01*
X136295514Y-76716729D01*
X136511965Y-76915733D01*
X136763081Y-77068686D01*
X137039211Y-77169709D01*
X137054974Y-77172358D01*
X137287000Y-77051217D01*
X137287000Y-75692000D01*
X137267000Y-75692000D01*
X137267000Y-75438000D01*
X137287000Y-75438000D01*
X137287000Y-74078783D01*
X137541000Y-74078783D01*
X137541000Y-75438000D01*
X137561000Y-75438000D01*
X137561000Y-75692000D01*
X137541000Y-75692000D01*
X137541000Y-77051217D01*
X137773026Y-77172358D01*
X137788789Y-77169709D01*
X138064919Y-77068686D01*
X138316035Y-76915733D01*
X138532486Y-76716729D01*
X138680576Y-76514053D01*
X138701931Y-76554006D01*
X138889203Y-76782197D01*
X139117395Y-76969469D01*
X139377737Y-77108625D01*
X139660224Y-77194316D01*
X139954000Y-77223251D01*
X140247777Y-77194316D01*
X140530264Y-77108625D01*
X140790606Y-76969469D01*
X141018797Y-76782197D01*
X141206069Y-76554006D01*
X141224000Y-76520459D01*
X141241931Y-76554006D01*
X141429203Y-76782197D01*
X141657395Y-76969469D01*
X141917737Y-77108625D01*
X142200224Y-77194316D01*
X142494000Y-77223251D01*
X142787777Y-77194316D01*
X143070264Y-77108625D01*
X143330606Y-76969469D01*
X143558797Y-76782197D01*
X143746069Y-76554006D01*
X143764000Y-76520459D01*
X143781931Y-76554006D01*
X143969203Y-76782197D01*
X144197395Y-76969469D01*
X144457737Y-77108625D01*
X144740224Y-77194316D01*
X145034000Y-77223251D01*
X145327777Y-77194316D01*
X145610264Y-77108625D01*
X145870606Y-76969469D01*
X146098797Y-76782197D01*
X146286069Y-76554006D01*
X146304000Y-76520459D01*
X146321931Y-76554006D01*
X146509203Y-76782197D01*
X146737395Y-76969469D01*
X146997737Y-77108625D01*
X147280224Y-77194316D01*
X147574000Y-77223251D01*
X147867777Y-77194316D01*
X148150264Y-77108625D01*
X148410606Y-76969469D01*
X148638797Y-76782197D01*
X148826069Y-76554006D01*
X148844000Y-76520459D01*
X148861931Y-76554006D01*
X149049203Y-76782197D01*
X149277395Y-76969469D01*
X149378142Y-77023320D01*
X149386605Y-77051217D01*
X149408454Y-77123246D01*
X149479026Y-77255276D01*
X149518871Y-77303826D01*
X149573999Y-77371001D01*
X149603003Y-77394804D01*
X152094200Y-79886002D01*
X152117999Y-79915001D01*
X152233724Y-80009974D01*
X152365753Y-80080546D01*
X152509014Y-80124003D01*
X152620667Y-80135000D01*
X152620676Y-80135000D01*
X152657999Y-80138676D01*
X152695322Y-80135000D01*
X163803199Y-80135000D01*
X164345636Y-80677437D01*
X164277463Y-80760506D01*
X164218498Y-80870820D01*
X164182188Y-80990518D01*
X164181357Y-80998961D01*
X163982759Y-80800363D01*
X163747727Y-80643320D01*
X163486574Y-80535147D01*
X163209335Y-80480000D01*
X162926665Y-80480000D01*
X162649426Y-80535147D01*
X162388273Y-80643320D01*
X162153241Y-80800363D01*
X161953363Y-81000241D01*
X161798000Y-81232759D01*
X161642637Y-81000241D01*
X161442759Y-80800363D01*
X161207727Y-80643320D01*
X160946574Y-80535147D01*
X160669335Y-80480000D01*
X160386665Y-80480000D01*
X160109426Y-80535147D01*
X159848273Y-80643320D01*
X159613241Y-80800363D01*
X159413363Y-81000241D01*
X159258000Y-81232759D01*
X159102637Y-81000241D01*
X158902759Y-80800363D01*
X158667727Y-80643320D01*
X158406574Y-80535147D01*
X158129335Y-80480000D01*
X157846665Y-80480000D01*
X157569426Y-80535147D01*
X157308273Y-80643320D01*
X157073241Y-80800363D01*
X156873363Y-81000241D01*
X156718000Y-81232759D01*
X156562637Y-81000241D01*
X156362759Y-80800363D01*
X156127727Y-80643320D01*
X155866574Y-80535147D01*
X155589335Y-80480000D01*
X155306665Y-80480000D01*
X155029426Y-80535147D01*
X154768273Y-80643320D01*
X154533241Y-80800363D01*
X154333363Y-81000241D01*
X154176320Y-81235273D01*
X154068147Y-81496426D01*
X154013000Y-81773665D01*
X154013000Y-82056335D01*
X154068147Y-82333574D01*
X154176320Y-82594727D01*
X154333363Y-82829759D01*
X154533241Y-83029637D01*
X154768273Y-83186680D01*
X155029426Y-83294853D01*
X155306665Y-83350000D01*
X155589335Y-83350000D01*
X155866574Y-83294853D01*
X156127727Y-83186680D01*
X156362759Y-83029637D01*
X156562637Y-82829759D01*
X156718000Y-82597241D01*
X156873363Y-82829759D01*
X157073241Y-83029637D01*
X157308273Y-83186680D01*
X157569426Y-83294853D01*
X157846665Y-83350000D01*
X158129335Y-83350000D01*
X158406574Y-83294853D01*
X158667727Y-83186680D01*
X158902759Y-83029637D01*
X159102637Y-82829759D01*
X159258000Y-82597241D01*
X159413363Y-82829759D01*
X159613241Y-83029637D01*
X159848273Y-83186680D01*
X160109426Y-83294853D01*
X160386665Y-83350000D01*
X160669335Y-83350000D01*
X160946574Y-83294853D01*
X161207727Y-83186680D01*
X161442759Y-83029637D01*
X161642637Y-82829759D01*
X161798000Y-82597241D01*
X161953363Y-82829759D01*
X162153241Y-83029637D01*
X162388273Y-83186680D01*
X162649426Y-83294853D01*
X162926665Y-83350000D01*
X163209335Y-83350000D01*
X163486574Y-83294853D01*
X163747727Y-83186680D01*
X163982759Y-83029637D01*
X164181357Y-82831039D01*
X164182188Y-82839482D01*
X164218498Y-82959180D01*
X164277463Y-83069494D01*
X164356815Y-83166185D01*
X164453506Y-83245537D01*
X164563820Y-83304502D01*
X164683518Y-83340812D01*
X164808000Y-83353072D01*
X166118001Y-83353072D01*
X166118001Y-84140197D01*
X165293199Y-84965000D01*
X152945325Y-84965000D01*
X152908000Y-84961324D01*
X152870675Y-84965000D01*
X152870667Y-84965000D01*
X152759014Y-84975997D01*
X152615753Y-85019454D01*
X152483724Y-85090026D01*
X152367999Y-85184999D01*
X152344201Y-85213997D01*
X148587003Y-88971196D01*
X148557999Y-88994999D01*
X148512446Y-89050506D01*
X148463026Y-89110724D01*
X148436249Y-89160820D01*
X148392454Y-89242754D01*
X148348997Y-89386015D01*
X148338000Y-89497668D01*
X148338000Y-89497678D01*
X148334324Y-89535000D01*
X148338000Y-89572323D01*
X148338001Y-94300197D01*
X148151886Y-94486312D01*
X147969335Y-94450000D01*
X147686665Y-94450000D01*
X147409426Y-94505147D01*
X147148273Y-94613320D01*
X146913241Y-94770363D01*
X146713363Y-94970241D01*
X146556320Y-95205273D01*
X146448147Y-95466426D01*
X146393000Y-95743665D01*
X146393000Y-96026335D01*
X146448147Y-96303574D01*
X146556320Y-96564727D01*
X146713363Y-96799759D01*
X146913241Y-96999637D01*
X147145759Y-97155000D01*
X146913241Y-97310363D01*
X146713363Y-97510241D01*
X146556320Y-97745273D01*
X146448147Y-98006426D01*
X146393000Y-98283665D01*
X146393000Y-98566335D01*
X146448147Y-98843574D01*
X146556320Y-99104727D01*
X146713363Y-99339759D01*
X146913241Y-99539637D01*
X147145759Y-99695000D01*
X146913241Y-99850363D01*
X146713363Y-100050241D01*
X146556320Y-100285273D01*
X146448147Y-100546426D01*
X146393000Y-100823665D01*
X146393000Y-101106335D01*
X146448147Y-101383574D01*
X146556320Y-101644727D01*
X146713363Y-101879759D01*
X146911961Y-102078357D01*
X146903518Y-102079188D01*
X146783820Y-102115498D01*
X146673506Y-102174463D01*
X146576815Y-102253815D01*
X146497463Y-102350506D01*
X146438498Y-102460820D01*
X146402188Y-102580518D01*
X146389928Y-102705000D01*
X146389928Y-104305000D01*
X146402188Y-104429482D01*
X146438498Y-104549180D01*
X146497463Y-104659494D01*
X146576815Y-104756185D01*
X146673506Y-104835537D01*
X146783820Y-104894502D01*
X146903518Y-104930812D01*
X147028000Y-104943072D01*
X148628000Y-104943072D01*
X148752482Y-104930812D01*
X148872180Y-104894502D01*
X148982494Y-104835537D01*
X149079185Y-104756185D01*
X149158537Y-104659494D01*
X149217502Y-104549180D01*
X149253812Y-104429482D01*
X149266072Y-104305000D01*
X149266072Y-104248213D01*
X149390247Y-104210546D01*
X149522276Y-104139974D01*
X149638001Y-104045001D01*
X149661804Y-104015997D01*
X162744115Y-90933688D01*
X162926665Y-90970000D01*
X163209335Y-90970000D01*
X163486574Y-90914853D01*
X163747727Y-90806680D01*
X163982759Y-90649637D01*
X164182637Y-90449759D01*
X164338000Y-90217241D01*
X164493363Y-90449759D01*
X164693241Y-90649637D01*
X164928273Y-90806680D01*
X165189426Y-90914853D01*
X165466665Y-90970000D01*
X165749335Y-90970000D01*
X166026574Y-90914853D01*
X166287727Y-90806680D01*
X166522759Y-90649637D01*
X166722637Y-90449759D01*
X166879680Y-90214727D01*
X166987853Y-89953574D01*
X167043000Y-89676335D01*
X167043000Y-89393665D01*
X166987853Y-89116426D01*
X166879680Y-88855273D01*
X166722637Y-88620241D01*
X166522759Y-88420363D01*
X166287727Y-88263320D01*
X166026574Y-88155147D01*
X165749335Y-88100000D01*
X165466665Y-88100000D01*
X165189426Y-88155147D01*
X164928273Y-88263320D01*
X164693241Y-88420363D01*
X164493363Y-88620241D01*
X164338000Y-88852759D01*
X164182637Y-88620241D01*
X163982759Y-88420363D01*
X163747727Y-88263320D01*
X163486574Y-88155147D01*
X163209335Y-88100000D01*
X162926665Y-88100000D01*
X162649426Y-88155147D01*
X162388273Y-88263320D01*
X162153241Y-88420363D01*
X161953363Y-88620241D01*
X161798000Y-88852759D01*
X161642637Y-88620241D01*
X161442759Y-88420363D01*
X161207727Y-88263320D01*
X160946574Y-88155147D01*
X160669335Y-88100000D01*
X160386665Y-88100000D01*
X160109426Y-88155147D01*
X159848273Y-88263320D01*
X159613241Y-88420363D01*
X159413363Y-88620241D01*
X159258000Y-88852759D01*
X159102637Y-88620241D01*
X158902759Y-88420363D01*
X158667727Y-88263320D01*
X158406574Y-88155147D01*
X158129335Y-88100000D01*
X157846665Y-88100000D01*
X157569426Y-88155147D01*
X157308273Y-88263320D01*
X157073241Y-88420363D01*
X156873363Y-88620241D01*
X156718000Y-88852759D01*
X156562637Y-88620241D01*
X156362759Y-88420363D01*
X156127727Y-88263320D01*
X155866574Y-88155147D01*
X155589335Y-88100000D01*
X155306665Y-88100000D01*
X155029426Y-88155147D01*
X154768273Y-88263320D01*
X154533241Y-88420363D01*
X154333363Y-88620241D01*
X154176320Y-88855273D01*
X154068147Y-89116426D01*
X154013000Y-89393665D01*
X154013000Y-89676335D01*
X154068147Y-89953574D01*
X154176320Y-90214727D01*
X154333363Y-90449759D01*
X154533241Y-90649637D01*
X154768273Y-90806680D01*
X155029426Y-90914853D01*
X155306665Y-90970000D01*
X155589335Y-90970000D01*
X155866574Y-90914853D01*
X156127727Y-90806680D01*
X156362759Y-90649637D01*
X156562637Y-90449759D01*
X156718000Y-90217241D01*
X156873363Y-90449759D01*
X157073241Y-90649637D01*
X157308273Y-90806680D01*
X157569426Y-90914853D01*
X157846665Y-90970000D01*
X158129335Y-90970000D01*
X158406574Y-90914853D01*
X158667727Y-90806680D01*
X158902759Y-90649637D01*
X159102637Y-90449759D01*
X159258000Y-90217241D01*
X159413363Y-90449759D01*
X159613241Y-90649637D01*
X159848273Y-90806680D01*
X160109426Y-90914853D01*
X160386665Y-90970000D01*
X160558197Y-90970000D01*
X149165210Y-102362989D01*
X149158537Y-102350506D01*
X149079185Y-102253815D01*
X148982494Y-102174463D01*
X148872180Y-102115498D01*
X148752482Y-102079188D01*
X148744039Y-102078357D01*
X148942637Y-101879759D01*
X149099680Y-101644727D01*
X149207853Y-101383574D01*
X149263000Y-101106335D01*
X149263000Y-100823665D01*
X149207853Y-100546426D01*
X149099680Y-100285273D01*
X148942637Y-100050241D01*
X148742759Y-99850363D01*
X148510241Y-99695000D01*
X148742759Y-99539637D01*
X148942637Y-99339759D01*
X149099680Y-99104727D01*
X149207853Y-98843574D01*
X149263000Y-98566335D01*
X149263000Y-98283665D01*
X149207853Y-98006426D01*
X149099680Y-97745273D01*
X148942637Y-97510241D01*
X148742759Y-97310363D01*
X148510241Y-97155000D01*
X148742759Y-96999637D01*
X148942637Y-96799759D01*
X149099680Y-96564727D01*
X149207853Y-96303574D01*
X149263000Y-96026335D01*
X149263000Y-95743665D01*
X149226688Y-95561114D01*
X149609003Y-95178799D01*
X149638001Y-95155001D01*
X149732974Y-95039276D01*
X149803546Y-94907247D01*
X149847003Y-94763986D01*
X149858000Y-94652333D01*
X149858000Y-94652324D01*
X149861676Y-94615001D01*
X149858000Y-94577678D01*
X149858000Y-89849801D01*
X153222802Y-86485000D01*
X165570678Y-86485000D01*
X165608000Y-86488676D01*
X165645322Y-86485000D01*
X165645333Y-86485000D01*
X165756986Y-86474003D01*
X165900247Y-86430546D01*
X166032276Y-86359974D01*
X166148001Y-86265001D01*
X166171804Y-86235997D01*
X167389003Y-85018799D01*
X167418001Y-84995001D01*
X167512974Y-84879276D01*
X167583546Y-84747247D01*
X167627003Y-84603986D01*
X167638000Y-84492333D01*
X167638000Y-84492324D01*
X167641676Y-84455001D01*
X167638000Y-84417678D01*
X167638000Y-79412322D01*
X167641676Y-79374999D01*
X167638000Y-79337676D01*
X167638000Y-79337667D01*
X167627003Y-79226014D01*
X167583546Y-79082753D01*
X167512974Y-78950724D01*
X167418001Y-78834999D01*
X167389003Y-78811201D01*
X166171804Y-77594003D01*
X166148001Y-77564999D01*
X166032276Y-77470026D01*
X165900247Y-77399454D01*
X165756986Y-77355997D01*
X165645333Y-77345000D01*
X165645322Y-77345000D01*
X165608000Y-77341324D01*
X165570678Y-77345000D01*
X158306802Y-77345000D01*
X157761487Y-76799686D01*
X157782797Y-76782197D01*
X157970069Y-76554006D01*
X157988000Y-76520459D01*
X158005931Y-76554006D01*
X158193203Y-76782197D01*
X158421395Y-76969469D01*
X158681737Y-77108625D01*
X158964224Y-77194316D01*
X159258000Y-77223251D01*
X159551777Y-77194316D01*
X159834264Y-77108625D01*
X160094606Y-76969469D01*
X160322797Y-76782197D01*
X160510069Y-76554006D01*
X160528000Y-76520459D01*
X160545931Y-76554006D01*
X160733203Y-76782197D01*
X160961395Y-76969469D01*
X161221737Y-77108625D01*
X161504224Y-77194316D01*
X161798000Y-77223251D01*
X162091777Y-77194316D01*
X162374264Y-77108625D01*
X162634606Y-76969469D01*
X162862797Y-76782197D01*
X163050069Y-76554006D01*
X163068000Y-76520459D01*
X163085931Y-76554006D01*
X163273203Y-76782197D01*
X163501395Y-76969469D01*
X163761737Y-77108625D01*
X164044224Y-77194316D01*
X164338000Y-77223251D01*
X164631777Y-77194316D01*
X164914264Y-77108625D01*
X165174606Y-76969469D01*
X165402797Y-76782197D01*
X165590069Y-76554006D01*
X165608000Y-76520459D01*
X165625931Y-76554006D01*
X165813203Y-76782197D01*
X166041395Y-76969469D01*
X166301737Y-77108625D01*
X166584224Y-77194316D01*
X166878000Y-77223251D01*
X167171777Y-77194316D01*
X167454264Y-77108625D01*
X167714606Y-76969469D01*
X167942797Y-76782197D01*
X168130069Y-76554006D01*
X168148000Y-76520459D01*
X168165931Y-76554006D01*
X168353203Y-76782197D01*
X168581395Y-76969469D01*
X168841737Y-77108625D01*
X169124224Y-77194316D01*
X169418000Y-77223251D01*
X169711777Y-77194316D01*
X169994264Y-77108625D01*
X170254606Y-76969469D01*
X170482797Y-76782197D01*
X170670069Y-76554006D01*
X170688000Y-76520459D01*
X170705931Y-76554006D01*
X170893203Y-76782197D01*
X171121395Y-76969469D01*
X171381737Y-77108625D01*
X171664224Y-77194316D01*
X171958000Y-77223251D01*
X172251777Y-77194316D01*
X172534264Y-77108625D01*
X172794606Y-76969469D01*
X173022797Y-76782197D01*
X173210069Y-76554006D01*
X173228000Y-76520459D01*
X173245931Y-76554006D01*
X173433203Y-76782197D01*
X173661395Y-76969469D01*
X173921737Y-77108625D01*
X174204224Y-77194316D01*
X174498000Y-77223251D01*
X174791777Y-77194316D01*
X175074264Y-77108625D01*
X175334606Y-76969469D01*
X175562797Y-76782197D01*
X175750069Y-76554006D01*
X175889225Y-76293663D01*
X175974916Y-76011176D01*
X175996600Y-75791018D01*
X175996600Y-75338981D01*
X175974916Y-75118823D01*
X175889225Y-74836336D01*
X175750069Y-74575994D01*
X175562797Y-74347803D01*
X175334605Y-74160531D01*
X175074263Y-74021375D01*
X174791776Y-73935684D01*
X174498000Y-73906749D01*
X174204223Y-73935684D01*
X173921736Y-74021375D01*
X173661394Y-74160531D01*
X173433203Y-74347803D01*
X173245931Y-74575995D01*
X173228000Y-74609541D01*
X173210069Y-74575994D01*
X173022797Y-74347803D01*
X172794605Y-74160531D01*
X172534263Y-74021375D01*
X172251776Y-73935684D01*
X171958000Y-73906749D01*
X171664223Y-73935684D01*
X171381736Y-74021375D01*
X171121394Y-74160531D01*
X170893203Y-74347803D01*
X170705931Y-74575995D01*
X170688000Y-74609541D01*
X170670069Y-74575994D01*
X170482797Y-74347803D01*
X170254605Y-74160531D01*
X169994263Y-74021375D01*
X169711776Y-73935684D01*
X169418000Y-73906749D01*
X169124223Y-73935684D01*
X168841736Y-74021375D01*
X168581394Y-74160531D01*
X168353203Y-74347803D01*
X168165931Y-74575995D01*
X168148000Y-74609541D01*
X168130069Y-74575994D01*
X167942797Y-74347803D01*
X167714605Y-74160531D01*
X167454263Y-74021375D01*
X167171776Y-73935684D01*
X166878000Y-73906749D01*
X166584223Y-73935684D01*
X166301736Y-74021375D01*
X166041394Y-74160531D01*
X165813203Y-74347803D01*
X165625931Y-74575995D01*
X165608000Y-74609541D01*
X165590069Y-74575994D01*
X165402797Y-74347803D01*
X165174605Y-74160531D01*
X164914263Y-74021375D01*
X164631776Y-73935684D01*
X164338000Y-73906749D01*
X164044223Y-73935684D01*
X163761736Y-74021375D01*
X163501394Y-74160531D01*
X163273203Y-74347803D01*
X163085931Y-74575995D01*
X163068000Y-74609541D01*
X163050069Y-74575994D01*
X162862797Y-74347803D01*
X162634605Y-74160531D01*
X162374263Y-74021375D01*
X162091776Y-73935684D01*
X161798000Y-73906749D01*
X161504223Y-73935684D01*
X161221736Y-74021375D01*
X160961394Y-74160531D01*
X160733203Y-74347803D01*
X160545931Y-74575995D01*
X160528000Y-74609541D01*
X160510069Y-74575994D01*
X160322797Y-74347803D01*
X160094605Y-74160531D01*
X159834263Y-74021375D01*
X159551776Y-73935684D01*
X159258000Y-73906749D01*
X158964223Y-73935684D01*
X158681736Y-74021375D01*
X158421394Y-74160531D01*
X158193203Y-74347803D01*
X158005931Y-74575995D01*
X157988000Y-74609541D01*
X157970069Y-74575994D01*
X157782797Y-74347803D01*
X157554605Y-74160531D01*
X157294263Y-74021375D01*
X157011776Y-73935684D01*
X156718000Y-73906749D01*
X156424223Y-73935684D01*
X156141736Y-74021375D01*
X155881394Y-74160531D01*
X155653203Y-74347803D01*
X155465931Y-74575995D01*
X155326775Y-74836337D01*
X155241084Y-75118824D01*
X155219400Y-75338982D01*
X155219400Y-75791019D01*
X155241084Y-76011177D01*
X155326775Y-76293664D01*
X155465931Y-76554006D01*
X155653203Y-76782197D01*
X155881395Y-76969469D01*
X155982143Y-77023320D01*
X156012454Y-77123246D01*
X156083026Y-77255276D01*
X156153645Y-77341324D01*
X156178000Y-77371001D01*
X156206998Y-77394799D01*
X157427198Y-78615000D01*
X152972802Y-78615000D01*
X151157487Y-76799686D01*
X151178797Y-76782197D01*
X151366069Y-76554006D01*
X151384000Y-76520459D01*
X151401931Y-76554006D01*
X151589203Y-76782197D01*
X151817395Y-76969469D01*
X152077737Y-77108625D01*
X152360224Y-77194316D01*
X152654000Y-77223251D01*
X152947777Y-77194316D01*
X153230264Y-77108625D01*
X153490606Y-76969469D01*
X153718797Y-76782197D01*
X153906069Y-76554006D01*
X154045225Y-76293663D01*
X154130916Y-76011176D01*
X154152600Y-75791018D01*
X154152600Y-75338981D01*
X154130916Y-75118823D01*
X154045225Y-74836336D01*
X153906069Y-74575994D01*
X153718797Y-74347803D01*
X153490605Y-74160531D01*
X153230263Y-74021375D01*
X152947776Y-73935684D01*
X152654000Y-73906749D01*
X152360223Y-73935684D01*
X152077736Y-74021375D01*
X151817394Y-74160531D01*
X151589203Y-74347803D01*
X151401931Y-74575995D01*
X151384000Y-74609541D01*
X151366069Y-74575994D01*
X151178797Y-74347803D01*
X150950605Y-74160531D01*
X150690263Y-74021375D01*
X150407776Y-73935684D01*
X150114000Y-73906749D01*
X149820223Y-73935684D01*
X149537736Y-74021375D01*
X149277394Y-74160531D01*
X149049203Y-74347803D01*
X148861931Y-74575995D01*
X148844000Y-74609541D01*
X148826069Y-74575994D01*
X148638797Y-74347803D01*
X148410605Y-74160531D01*
X148150263Y-74021375D01*
X147867776Y-73935684D01*
X147574000Y-73906749D01*
X147280223Y-73935684D01*
X146997736Y-74021375D01*
X146737394Y-74160531D01*
X146509203Y-74347803D01*
X146321931Y-74575995D01*
X146304000Y-74609541D01*
X146286069Y-74575994D01*
X146098797Y-74347803D01*
X145870605Y-74160531D01*
X145610263Y-74021375D01*
X145327776Y-73935684D01*
X145034000Y-73906749D01*
X144740223Y-73935684D01*
X144457736Y-74021375D01*
X144197394Y-74160531D01*
X143969203Y-74347803D01*
X143781931Y-74575995D01*
X143764000Y-74609541D01*
X143746069Y-74575994D01*
X143558797Y-74347803D01*
X143330605Y-74160531D01*
X143070263Y-74021375D01*
X142787776Y-73935684D01*
X142494000Y-73906749D01*
X142200223Y-73935684D01*
X141917736Y-74021375D01*
X141657394Y-74160531D01*
X141429203Y-74347803D01*
X141241931Y-74575995D01*
X141224000Y-74609541D01*
X141206069Y-74575994D01*
X141018797Y-74347803D01*
X140790605Y-74160531D01*
X140530263Y-74021375D01*
X140247776Y-73935684D01*
X139954000Y-73906749D01*
X139660223Y-73935684D01*
X139377736Y-74021375D01*
X139117394Y-74160531D01*
X138889203Y-74347803D01*
X138701931Y-74575995D01*
X138680576Y-74615947D01*
X138532486Y-74413271D01*
X138316035Y-74214267D01*
X138064919Y-74061314D01*
X137788789Y-73960291D01*
X137773026Y-73957642D01*
X137541000Y-74078783D01*
X137287000Y-74078783D01*
X137054974Y-73957642D01*
X137039211Y-73960291D01*
X136763081Y-74061314D01*
X136511965Y-74214267D01*
X136295514Y-74413271D01*
X136147424Y-74615947D01*
X136126069Y-74575994D01*
X135938797Y-74347803D01*
X135710605Y-74160531D01*
X135450263Y-74021375D01*
X135167776Y-73935684D01*
X134874000Y-73906749D01*
X134580223Y-73935684D01*
X134297736Y-74021375D01*
X134037394Y-74160531D01*
X133809203Y-74347803D01*
X133621931Y-74575995D01*
X133604000Y-74609541D01*
X133586069Y-74575994D01*
X133398797Y-74347803D01*
X133170605Y-74160531D01*
X132910263Y-74021375D01*
X132627776Y-73935684D01*
X132334000Y-73906749D01*
X132040223Y-73935684D01*
X131757736Y-74021375D01*
X131497394Y-74160531D01*
X131269203Y-74347803D01*
X131081931Y-74575995D01*
X131064000Y-74609541D01*
X131046069Y-74575994D01*
X130858797Y-74347803D01*
X130630605Y-74160531D01*
X130370263Y-74021375D01*
X130087776Y-73935684D01*
X129794000Y-73906749D01*
X129500223Y-73935684D01*
X129217736Y-74021375D01*
X128957394Y-74160531D01*
X128729203Y-74347803D01*
X128657001Y-74435781D01*
X128601464Y-74301702D01*
X128309594Y-73864887D01*
X128179707Y-73735000D01*
X178013909Y-73735000D01*
X178868001Y-74589093D01*
M02*
