G04 #@! TF.GenerationSoftware,KiCad,Pcbnew,(5.1.5)-3*
G04 #@! TF.CreationDate,2020-05-30T20:38:03+01:00*
G04 #@! TF.ProjectId,dmxhat,646d7868-6174-42e6-9b69-6361645f7063,rev?*
G04 #@! TF.SameCoordinates,Original*
G04 #@! TF.FileFunction,Legend,Top*
G04 #@! TF.FilePolarity,Positive*
%FSLAX46Y46*%
G04 Gerber Fmt 4.6, Leading zero omitted, Abs format (unit mm)*
G04 Created by KiCad (PCBNEW (5.1.5)-3) date 2020-05-30 20:38:03*
%MOMM*%
%LPD*%
G04 APERTURE LIST*
%ADD10C,0.150000*%
%ADD11C,0.350000*%
%ADD12C,0.120000*%
%ADD13C,0.010000*%
G04 APERTURE END LIST*
D10*
X132207047Y-121356428D02*
X132968952Y-121356428D01*
X129667047Y-121356428D02*
X130428952Y-121356428D01*
X130048000Y-121737380D02*
X130048000Y-120975476D01*
X168552761Y-120911666D02*
X168600380Y-120768809D01*
X168600380Y-120530714D01*
X168552761Y-120435476D01*
X168505142Y-120387857D01*
X168409904Y-120340238D01*
X168314666Y-120340238D01*
X168219428Y-120387857D01*
X168171809Y-120435476D01*
X168124190Y-120530714D01*
X168076571Y-120721190D01*
X168028952Y-120816428D01*
X167981333Y-120864047D01*
X167886095Y-120911666D01*
X167790857Y-120911666D01*
X167695619Y-120864047D01*
X167648000Y-120816428D01*
X167600380Y-120721190D01*
X167600380Y-120483095D01*
X167648000Y-120340238D01*
X167933714Y-120054523D02*
X167933714Y-119673571D01*
X167600380Y-119911666D02*
X168457523Y-119911666D01*
X168552761Y-119864047D01*
X168600380Y-119768809D01*
X168600380Y-119673571D01*
X168600380Y-118911666D02*
X168076571Y-118911666D01*
X167981333Y-118959285D01*
X167933714Y-119054523D01*
X167933714Y-119245000D01*
X167981333Y-119340238D01*
X168552761Y-118911666D02*
X168600380Y-119006904D01*
X168600380Y-119245000D01*
X168552761Y-119340238D01*
X168457523Y-119387857D01*
X168362285Y-119387857D01*
X168267047Y-119340238D01*
X168219428Y-119245000D01*
X168219428Y-119006904D01*
X168171809Y-118911666D01*
X167933714Y-118578333D02*
X167933714Y-118197380D01*
X167600380Y-118435476D02*
X168457523Y-118435476D01*
X168552761Y-118387857D01*
X168600380Y-118292619D01*
X168600380Y-118197380D01*
X167933714Y-117435476D02*
X168600380Y-117435476D01*
X167933714Y-117864047D02*
X168457523Y-117864047D01*
X168552761Y-117816428D01*
X168600380Y-117721190D01*
X168600380Y-117578333D01*
X168552761Y-117483095D01*
X168505142Y-117435476D01*
X168552761Y-117006904D02*
X168600380Y-116911666D01*
X168600380Y-116721190D01*
X168552761Y-116625952D01*
X168457523Y-116578333D01*
X168409904Y-116578333D01*
X168314666Y-116625952D01*
X168267047Y-116721190D01*
X168267047Y-116864047D01*
X168219428Y-116959285D01*
X168124190Y-117006904D01*
X168076571Y-117006904D01*
X167981333Y-116959285D01*
X167933714Y-116864047D01*
X167933714Y-116721190D01*
X167981333Y-116625952D01*
X126690380Y-119451190D02*
X125690380Y-119451190D01*
X125690380Y-119070238D01*
X125738000Y-118975000D01*
X125785619Y-118927380D01*
X125880857Y-118879761D01*
X126023714Y-118879761D01*
X126118952Y-118927380D01*
X126166571Y-118975000D01*
X126214190Y-119070238D01*
X126214190Y-119451190D01*
X126690380Y-118308333D02*
X126642761Y-118403571D01*
X126595142Y-118451190D01*
X126499904Y-118498809D01*
X126214190Y-118498809D01*
X126118952Y-118451190D01*
X126071333Y-118403571D01*
X126023714Y-118308333D01*
X126023714Y-118165476D01*
X126071333Y-118070238D01*
X126118952Y-118022619D01*
X126214190Y-117975000D01*
X126499904Y-117975000D01*
X126595142Y-118022619D01*
X126642761Y-118070238D01*
X126690380Y-118165476D01*
X126690380Y-118308333D01*
X126023714Y-117641666D02*
X126690380Y-117451190D01*
X126214190Y-117260714D01*
X126690380Y-117070238D01*
X126023714Y-116879761D01*
X126642761Y-116117857D02*
X126690380Y-116213095D01*
X126690380Y-116403571D01*
X126642761Y-116498809D01*
X126547523Y-116546428D01*
X126166571Y-116546428D01*
X126071333Y-116498809D01*
X126023714Y-116403571D01*
X126023714Y-116213095D01*
X126071333Y-116117857D01*
X126166571Y-116070238D01*
X126261809Y-116070238D01*
X126357047Y-116546428D01*
X126690380Y-115641666D02*
X126023714Y-115641666D01*
X126214190Y-115641666D02*
X126118952Y-115594047D01*
X126071333Y-115546428D01*
X126023714Y-115451190D01*
X126023714Y-115355952D01*
X165447285Y-119738928D02*
X166197285Y-119738928D01*
X165483000Y-119738928D02*
X165447285Y-119667500D01*
X165447285Y-119524642D01*
X165483000Y-119453214D01*
X165518714Y-119417500D01*
X165590142Y-119381785D01*
X165804428Y-119381785D01*
X165875857Y-119417500D01*
X165911571Y-119453214D01*
X165947285Y-119524642D01*
X165947285Y-119667500D01*
X165911571Y-119738928D01*
X165947285Y-118953214D02*
X165911571Y-119024642D01*
X165875857Y-119060357D01*
X165804428Y-119096071D01*
X165590142Y-119096071D01*
X165518714Y-119060357D01*
X165483000Y-119024642D01*
X165447285Y-118953214D01*
X165447285Y-118846071D01*
X165483000Y-118774642D01*
X165518714Y-118738928D01*
X165590142Y-118703214D01*
X165804428Y-118703214D01*
X165875857Y-118738928D01*
X165911571Y-118774642D01*
X165947285Y-118846071D01*
X165947285Y-118953214D01*
X165947285Y-118274642D02*
X165911571Y-118346071D01*
X165840142Y-118381785D01*
X165197285Y-118381785D01*
X165447285Y-118060357D02*
X165947285Y-117881785D01*
X165447285Y-117703214D02*
X165947285Y-117881785D01*
X166125857Y-117953214D01*
X166161571Y-117988928D01*
X166197285Y-118060357D01*
X165947285Y-117310357D02*
X165911571Y-117381785D01*
X165875857Y-117417500D01*
X165804428Y-117453214D01*
X165590142Y-117453214D01*
X165518714Y-117417500D01*
X165483000Y-117381785D01*
X165447285Y-117310357D01*
X165447285Y-117203214D01*
X165483000Y-117131785D01*
X165518714Y-117096071D01*
X165590142Y-117060357D01*
X165804428Y-117060357D01*
X165875857Y-117096071D01*
X165911571Y-117131785D01*
X165947285Y-117203214D01*
X165947285Y-117310357D01*
X165947285Y-116738928D02*
X165447285Y-116738928D01*
X165518714Y-116738928D02*
X165483000Y-116703214D01*
X165447285Y-116631785D01*
X165447285Y-116524642D01*
X165483000Y-116453214D01*
X165554428Y-116417500D01*
X165947285Y-116417500D01*
X165554428Y-116417500D02*
X165483000Y-116381785D01*
X165447285Y-116310357D01*
X165447285Y-116203214D01*
X165483000Y-116131785D01*
X165554428Y-116096071D01*
X165947285Y-116096071D01*
X165947285Y-115738928D02*
X165447285Y-115738928D01*
X165197285Y-115738928D02*
X165233000Y-115774642D01*
X165268714Y-115738928D01*
X165233000Y-115703214D01*
X165197285Y-115738928D01*
X165268714Y-115738928D01*
X165447285Y-115381785D02*
X165947285Y-115381785D01*
X165518714Y-115381785D02*
X165483000Y-115346071D01*
X165447285Y-115274642D01*
X165447285Y-115167500D01*
X165483000Y-115096071D01*
X165554428Y-115060357D01*
X165947285Y-115060357D01*
X165947285Y-114596071D02*
X165911571Y-114667500D01*
X165875857Y-114703214D01*
X165804428Y-114738928D01*
X165590142Y-114738928D01*
X165518714Y-114703214D01*
X165483000Y-114667500D01*
X165447285Y-114596071D01*
X165447285Y-114488928D01*
X165483000Y-114417500D01*
X165518714Y-114381785D01*
X165590142Y-114346071D01*
X165804428Y-114346071D01*
X165875857Y-114381785D01*
X165911571Y-114417500D01*
X165947285Y-114488928D01*
X165947285Y-114596071D01*
X165875857Y-114024642D02*
X165911571Y-113988928D01*
X165947285Y-114024642D01*
X165911571Y-114060357D01*
X165875857Y-114024642D01*
X165947285Y-114024642D01*
X165947285Y-113738928D02*
X165447285Y-113346071D01*
X165447285Y-113738928D02*
X165947285Y-113346071D01*
X165447285Y-113131785D02*
X165947285Y-112953214D01*
X165447285Y-112774642D02*
X165947285Y-112953214D01*
X166125857Y-113024642D01*
X166161571Y-113060357D01*
X166197285Y-113131785D01*
X165447285Y-112560357D02*
X165447285Y-112167500D01*
X165947285Y-112560357D01*
X165947285Y-112167500D01*
X165161571Y-111346071D02*
X166125857Y-111988928D01*
X165947285Y-110774642D02*
X165197285Y-110774642D01*
X165911571Y-110774642D02*
X165947285Y-110846071D01*
X165947285Y-110988928D01*
X165911571Y-111060357D01*
X165875857Y-111096071D01*
X165804428Y-111131785D01*
X165590142Y-111131785D01*
X165518714Y-111096071D01*
X165483000Y-111060357D01*
X165447285Y-110988928D01*
X165447285Y-110846071D01*
X165483000Y-110774642D01*
X165947285Y-110417500D02*
X165447285Y-110417500D01*
X165518714Y-110417500D02*
X165483000Y-110381785D01*
X165447285Y-110310357D01*
X165447285Y-110203214D01*
X165483000Y-110131785D01*
X165554428Y-110096071D01*
X165947285Y-110096071D01*
X165554428Y-110096071D02*
X165483000Y-110060357D01*
X165447285Y-109988928D01*
X165447285Y-109881785D01*
X165483000Y-109810357D01*
X165554428Y-109774642D01*
X165947285Y-109774642D01*
X165947285Y-109488928D02*
X165447285Y-109096071D01*
X165447285Y-109488928D02*
X165947285Y-109096071D01*
X164790380Y-119679404D02*
X163790380Y-119679404D01*
X163790380Y-119441309D01*
X163838000Y-119298452D01*
X163933238Y-119203214D01*
X164028476Y-119155595D01*
X164218952Y-119107976D01*
X164361809Y-119107976D01*
X164552285Y-119155595D01*
X164647523Y-119203214D01*
X164742761Y-119298452D01*
X164790380Y-119441309D01*
X164790380Y-119679404D01*
X164790380Y-118679404D02*
X163790380Y-118679404D01*
X164504666Y-118346071D01*
X163790380Y-118012738D01*
X164790380Y-118012738D01*
X163790380Y-117631785D02*
X164790380Y-116965119D01*
X163790380Y-116965119D02*
X164790380Y-117631785D01*
X163790380Y-116107976D02*
X163790380Y-116584166D01*
X164266571Y-116631785D01*
X164218952Y-116584166D01*
X164171333Y-116488928D01*
X164171333Y-116250833D01*
X164218952Y-116155595D01*
X164266571Y-116107976D01*
X164361809Y-116060357D01*
X164599904Y-116060357D01*
X164695142Y-116107976D01*
X164742761Y-116155595D01*
X164790380Y-116250833D01*
X164790380Y-116488928D01*
X164742761Y-116584166D01*
X164695142Y-116631785D01*
X164790380Y-115107976D02*
X164790380Y-115679404D01*
X164790380Y-115393690D02*
X163790380Y-115393690D01*
X163933238Y-115488928D01*
X164028476Y-115584166D01*
X164076095Y-115679404D01*
X163885619Y-114727023D02*
X163838000Y-114679404D01*
X163790380Y-114584166D01*
X163790380Y-114346071D01*
X163838000Y-114250833D01*
X163885619Y-114203214D01*
X163980857Y-114155595D01*
X164076095Y-114155595D01*
X164218952Y-114203214D01*
X164790380Y-114774642D01*
X164790380Y-114155595D01*
X164742761Y-113012738D02*
X164790380Y-112869880D01*
X164790380Y-112631785D01*
X164742761Y-112536547D01*
X164695142Y-112488928D01*
X164599904Y-112441309D01*
X164504666Y-112441309D01*
X164409428Y-112488928D01*
X164361809Y-112536547D01*
X164314190Y-112631785D01*
X164266571Y-112822261D01*
X164218952Y-112917500D01*
X164171333Y-112965119D01*
X164076095Y-113012738D01*
X163980857Y-113012738D01*
X163885619Y-112965119D01*
X163838000Y-112917500D01*
X163790380Y-112822261D01*
X163790380Y-112584166D01*
X163838000Y-112441309D01*
X164790380Y-112012738D02*
X163790380Y-112012738D01*
X164790380Y-111584166D02*
X164266571Y-111584166D01*
X164171333Y-111631785D01*
X164123714Y-111727023D01*
X164123714Y-111869880D01*
X164171333Y-111965119D01*
X164218952Y-112012738D01*
X164790380Y-111107976D02*
X164123714Y-111107976D01*
X163790380Y-111107976D02*
X163838000Y-111155595D01*
X163885619Y-111107976D01*
X163838000Y-111060357D01*
X163790380Y-111107976D01*
X163885619Y-111107976D01*
X164742761Y-110250833D02*
X164790380Y-110346071D01*
X164790380Y-110536547D01*
X164742761Y-110631785D01*
X164647523Y-110679404D01*
X164266571Y-110679404D01*
X164171333Y-110631785D01*
X164123714Y-110536547D01*
X164123714Y-110346071D01*
X164171333Y-110250833D01*
X164266571Y-110203214D01*
X164361809Y-110203214D01*
X164457047Y-110679404D01*
X164790380Y-109631785D02*
X164742761Y-109727023D01*
X164647523Y-109774642D01*
X163790380Y-109774642D01*
X164790380Y-108822261D02*
X163790380Y-108822261D01*
X164742761Y-108822261D02*
X164790380Y-108917500D01*
X164790380Y-109107976D01*
X164742761Y-109203214D01*
X164695142Y-109250833D01*
X164599904Y-109298452D01*
X164314190Y-109298452D01*
X164218952Y-109250833D01*
X164171333Y-109203214D01*
X164123714Y-109107976D01*
X164123714Y-108917500D01*
X164171333Y-108822261D01*
D11*
X162089666Y-119454166D02*
X162089666Y-118620833D01*
X162589666Y-119620833D02*
X160839666Y-119037500D01*
X162589666Y-118454166D01*
X162589666Y-117870833D02*
X161423000Y-117870833D01*
X161756333Y-117870833D02*
X161589666Y-117787500D01*
X161506333Y-117704166D01*
X161423000Y-117537500D01*
X161423000Y-117370833D01*
X162589666Y-116787500D02*
X160839666Y-116787500D01*
X160839666Y-116370833D01*
X160923000Y-116120833D01*
X161089666Y-115954166D01*
X161256333Y-115870833D01*
X161589666Y-115787500D01*
X161839666Y-115787500D01*
X162173000Y-115870833D01*
X162339666Y-115954166D01*
X162506333Y-116120833D01*
X162589666Y-116370833D01*
X162589666Y-116787500D01*
X162589666Y-115037500D02*
X160839666Y-115037500D01*
X162089666Y-114454166D01*
X160839666Y-113870833D01*
X162589666Y-113870833D01*
X160839666Y-113204166D02*
X162589666Y-112037500D01*
X160839666Y-112037500D02*
X162589666Y-113204166D01*
D10*
X151647234Y-105726910D02*
X161807234Y-105726910D01*
X151647234Y-91756910D02*
X151647234Y-105726910D01*
X154187234Y-91756910D02*
X151647234Y-91756910D01*
X154187234Y-91756910D02*
X154187234Y-105726910D01*
X161807234Y-91756910D02*
X154187234Y-91756910D01*
X161807234Y-91756910D02*
X161807234Y-105726910D01*
X152360380Y-104872470D02*
X152360380Y-104681994D01*
X152408000Y-104592708D01*
X152503238Y-104509375D01*
X152693714Y-104485565D01*
X153027047Y-104527232D01*
X153217523Y-104598660D01*
X153312761Y-104705803D01*
X153360380Y-104806994D01*
X153360380Y-104997470D01*
X153312761Y-105086755D01*
X153217523Y-105170089D01*
X153027047Y-105193898D01*
X152693714Y-105152232D01*
X152503238Y-105080803D01*
X152408000Y-104973660D01*
X152360380Y-104872470D01*
X152693714Y-104056994D02*
X153360380Y-104140327D01*
X152788952Y-104068898D02*
X152741333Y-104015327D01*
X152693714Y-103914136D01*
X152693714Y-103771279D01*
X152741333Y-103681994D01*
X152836571Y-103646279D01*
X153360380Y-103711755D01*
X153360380Y-103092708D02*
X153312761Y-103181994D01*
X153217523Y-103217708D01*
X152360380Y-103110565D01*
X152693714Y-102723660D02*
X153360380Y-102568898D01*
X152693714Y-102247470D02*
X153360380Y-102568898D01*
X153598476Y-102693898D01*
X153646095Y-102747470D01*
X153693714Y-102848660D01*
X152836571Y-101122470D02*
X152836571Y-100789136D01*
X153360380Y-100711755D02*
X153360380Y-101187946D01*
X152360380Y-101062946D01*
X152360380Y-100586755D01*
X152693714Y-100199851D02*
X153360380Y-100283184D01*
X152788952Y-100211755D02*
X152741333Y-100158184D01*
X152693714Y-100056994D01*
X152693714Y-99914136D01*
X152741333Y-99824851D01*
X152836571Y-99789136D01*
X153360380Y-99854613D01*
X153360380Y-98949851D02*
X152836571Y-98884375D01*
X152741333Y-98920089D01*
X152693714Y-99009375D01*
X152693714Y-99199851D01*
X152741333Y-99301041D01*
X153312761Y-98943898D02*
X153360380Y-99045089D01*
X153360380Y-99283184D01*
X153312761Y-99372470D01*
X153217523Y-99408184D01*
X153122285Y-99396279D01*
X153027047Y-99336755D01*
X152979428Y-99235565D01*
X152979428Y-98997470D01*
X152931809Y-98896279D01*
X153360380Y-98473660D02*
X152360380Y-98348660D01*
X152741333Y-98396279D02*
X152693714Y-98295089D01*
X152693714Y-98104613D01*
X152741333Y-98015327D01*
X152788952Y-97973660D01*
X152884190Y-97937946D01*
X153169904Y-97973660D01*
X153265142Y-98033184D01*
X153312761Y-98086755D01*
X153360380Y-98187946D01*
X153360380Y-98378422D01*
X153312761Y-98467708D01*
X153360380Y-97426041D02*
X153312761Y-97515327D01*
X153217523Y-97551041D01*
X152360380Y-97443898D01*
X153312761Y-96658184D02*
X153360380Y-96759375D01*
X153360380Y-96949851D01*
X153312761Y-97039136D01*
X153217523Y-97074851D01*
X152836571Y-97027232D01*
X152741333Y-96967708D01*
X152693714Y-96866517D01*
X152693714Y-96676041D01*
X152741333Y-96586755D01*
X152836571Y-96551041D01*
X152931809Y-96562946D01*
X153027047Y-97051041D01*
X152360380Y-95110565D02*
X152360380Y-94920089D01*
X152408000Y-94830803D01*
X152503238Y-94747470D01*
X152693714Y-94723660D01*
X153027047Y-94765327D01*
X153217523Y-94836755D01*
X153312761Y-94943898D01*
X153360380Y-95045089D01*
X153360380Y-95235565D01*
X153312761Y-95324851D01*
X153217523Y-95408184D01*
X153027047Y-95431994D01*
X152693714Y-95390327D01*
X152503238Y-95318898D01*
X152408000Y-95211755D01*
X152360380Y-95110565D01*
X152693714Y-94295089D02*
X153360380Y-94378422D01*
X152788952Y-94306994D02*
X152741333Y-94253422D01*
X152693714Y-94152232D01*
X152693714Y-94009375D01*
X152741333Y-93920089D01*
X152836571Y-93884375D01*
X153360380Y-93949851D01*
X153312761Y-93086755D02*
X153360380Y-93187946D01*
X153360380Y-93378422D01*
X153312761Y-93467708D01*
X153217523Y-93503422D01*
X152836571Y-93455803D01*
X152741333Y-93396279D01*
X152693714Y-93295089D01*
X152693714Y-93104613D01*
X152741333Y-93015327D01*
X152836571Y-92979613D01*
X152931809Y-92991517D01*
X153027047Y-93479613D01*
X153265142Y-92604613D02*
X153312761Y-92562946D01*
X153360380Y-92616517D01*
X153312761Y-92658184D01*
X153265142Y-92604613D01*
X153360380Y-92616517D01*
X152979428Y-92568898D02*
X152408000Y-92545089D01*
X152360380Y-92491517D01*
X152408000Y-92449851D01*
X152979428Y-92568898D01*
X152360380Y-92491517D01*
X155614666Y-103315357D02*
X155614666Y-102839166D01*
X155900380Y-103410595D02*
X154900380Y-103077261D01*
X155900380Y-102743928D01*
X155900380Y-102267738D02*
X155852761Y-102362976D01*
X155757523Y-102410595D01*
X154900380Y-102410595D01*
X155233714Y-101982023D02*
X155900380Y-101791547D01*
X155424190Y-101601071D01*
X155900380Y-101410595D01*
X155233714Y-101220119D01*
X155900380Y-100410595D02*
X155376571Y-100410595D01*
X155281333Y-100458214D01*
X155233714Y-100553452D01*
X155233714Y-100743928D01*
X155281333Y-100839166D01*
X155852761Y-100410595D02*
X155900380Y-100505833D01*
X155900380Y-100743928D01*
X155852761Y-100839166D01*
X155757523Y-100886785D01*
X155662285Y-100886785D01*
X155567047Y-100839166D01*
X155519428Y-100743928D01*
X155519428Y-100505833D01*
X155471809Y-100410595D01*
X155233714Y-100029642D02*
X155900380Y-99791547D01*
X155233714Y-99553452D02*
X155900380Y-99791547D01*
X156138476Y-99886785D01*
X156186095Y-99934404D01*
X156233714Y-100029642D01*
X155852761Y-99220119D02*
X155900380Y-99124880D01*
X155900380Y-98934404D01*
X155852761Y-98839166D01*
X155757523Y-98791547D01*
X155709904Y-98791547D01*
X155614666Y-98839166D01*
X155567047Y-98934404D01*
X155567047Y-99077261D01*
X155519428Y-99172500D01*
X155424190Y-99220119D01*
X155376571Y-99220119D01*
X155281333Y-99172500D01*
X155233714Y-99077261D01*
X155233714Y-98934404D01*
X155281333Y-98839166D01*
X155900380Y-97029642D02*
X155424190Y-97362976D01*
X155900380Y-97601071D02*
X154900380Y-97601071D01*
X154900380Y-97220119D01*
X154948000Y-97124880D01*
X154995619Y-97077261D01*
X155090857Y-97029642D01*
X155233714Y-97029642D01*
X155328952Y-97077261D01*
X155376571Y-97124880D01*
X155424190Y-97220119D01*
X155424190Y-97601071D01*
X155852761Y-96220119D02*
X155900380Y-96315357D01*
X155900380Y-96505833D01*
X155852761Y-96601071D01*
X155757523Y-96648690D01*
X155376571Y-96648690D01*
X155281333Y-96601071D01*
X155233714Y-96505833D01*
X155233714Y-96315357D01*
X155281333Y-96220119D01*
X155376571Y-96172500D01*
X155471809Y-96172500D01*
X155567047Y-96648690D01*
X155852761Y-95315357D02*
X155900380Y-95410595D01*
X155900380Y-95601071D01*
X155852761Y-95696309D01*
X155805142Y-95743928D01*
X155709904Y-95791547D01*
X155424190Y-95791547D01*
X155328952Y-95743928D01*
X155281333Y-95696309D01*
X155233714Y-95601071D01*
X155233714Y-95410595D01*
X155281333Y-95315357D01*
X155852761Y-94505833D02*
X155900380Y-94601071D01*
X155900380Y-94791547D01*
X155852761Y-94886785D01*
X155757523Y-94934404D01*
X155376571Y-94934404D01*
X155281333Y-94886785D01*
X155233714Y-94791547D01*
X155233714Y-94601071D01*
X155281333Y-94505833D01*
X155376571Y-94458214D01*
X155471809Y-94458214D01*
X155567047Y-94934404D01*
X155900380Y-94029642D02*
X155233714Y-94029642D01*
X154900380Y-94029642D02*
X154948000Y-94077261D01*
X154995619Y-94029642D01*
X154948000Y-93982023D01*
X154900380Y-94029642D01*
X154995619Y-94029642D01*
X155233714Y-93648690D02*
X155900380Y-93410595D01*
X155233714Y-93172500D01*
X155852761Y-92410595D02*
X155900380Y-92505833D01*
X155900380Y-92696309D01*
X155852761Y-92791547D01*
X155757523Y-92839166D01*
X155376571Y-92839166D01*
X155281333Y-92791547D01*
X155233714Y-92696309D01*
X155233714Y-92505833D01*
X155281333Y-92410595D01*
X155376571Y-92362976D01*
X155471809Y-92362976D01*
X155567047Y-92839166D01*
X158154666Y-104029642D02*
X158154666Y-103553452D01*
X158440380Y-104124880D02*
X157440380Y-103791547D01*
X158440380Y-103458214D01*
X158440380Y-102982023D02*
X158392761Y-103077261D01*
X158297523Y-103124880D01*
X157440380Y-103124880D01*
X157773714Y-102696309D02*
X158440380Y-102505833D01*
X157964190Y-102315357D01*
X158440380Y-102124880D01*
X157773714Y-101934404D01*
X158440380Y-101124880D02*
X157916571Y-101124880D01*
X157821333Y-101172500D01*
X157773714Y-101267738D01*
X157773714Y-101458214D01*
X157821333Y-101553452D01*
X158392761Y-101124880D02*
X158440380Y-101220119D01*
X158440380Y-101458214D01*
X158392761Y-101553452D01*
X158297523Y-101601071D01*
X158202285Y-101601071D01*
X158107047Y-101553452D01*
X158059428Y-101458214D01*
X158059428Y-101220119D01*
X158011809Y-101124880D01*
X157773714Y-100743928D02*
X158440380Y-100505833D01*
X157773714Y-100267738D02*
X158440380Y-100505833D01*
X158678476Y-100601071D01*
X158726095Y-100648690D01*
X158773714Y-100743928D01*
X158392761Y-99934404D02*
X158440380Y-99839166D01*
X158440380Y-99648690D01*
X158392761Y-99553452D01*
X158297523Y-99505833D01*
X158249904Y-99505833D01*
X158154666Y-99553452D01*
X158107047Y-99648690D01*
X158107047Y-99791547D01*
X158059428Y-99886785D01*
X157964190Y-99934404D01*
X157916571Y-99934404D01*
X157821333Y-99886785D01*
X157773714Y-99791547D01*
X157773714Y-99648690D01*
X157821333Y-99553452D01*
X157440380Y-98458214D02*
X157440380Y-97886785D01*
X158440380Y-98172500D02*
X157440380Y-98172500D01*
X158440380Y-97553452D02*
X157773714Y-97553452D01*
X157964190Y-97553452D02*
X157868952Y-97505833D01*
X157821333Y-97458214D01*
X157773714Y-97362976D01*
X157773714Y-97267738D01*
X158440380Y-96505833D02*
X157916571Y-96505833D01*
X157821333Y-96553452D01*
X157773714Y-96648690D01*
X157773714Y-96839166D01*
X157821333Y-96934404D01*
X158392761Y-96505833D02*
X158440380Y-96601071D01*
X158440380Y-96839166D01*
X158392761Y-96934404D01*
X158297523Y-96982023D01*
X158202285Y-96982023D01*
X158107047Y-96934404D01*
X158059428Y-96839166D01*
X158059428Y-96601071D01*
X158011809Y-96505833D01*
X157773714Y-96029642D02*
X158440380Y-96029642D01*
X157868952Y-96029642D02*
X157821333Y-95982023D01*
X157773714Y-95886785D01*
X157773714Y-95743928D01*
X157821333Y-95648690D01*
X157916571Y-95601071D01*
X158440380Y-95601071D01*
X158392761Y-95172500D02*
X158440380Y-95077261D01*
X158440380Y-94886785D01*
X158392761Y-94791547D01*
X158297523Y-94743928D01*
X158249904Y-94743928D01*
X158154666Y-94791547D01*
X158107047Y-94886785D01*
X158107047Y-95029642D01*
X158059428Y-95124880D01*
X157964190Y-95172500D01*
X157916571Y-95172500D01*
X157821333Y-95124880D01*
X157773714Y-95029642D01*
X157773714Y-94886785D01*
X157821333Y-94791547D01*
X158440380Y-94315357D02*
X157773714Y-94315357D01*
X157868952Y-94315357D02*
X157821333Y-94267738D01*
X157773714Y-94172500D01*
X157773714Y-94029642D01*
X157821333Y-93934404D01*
X157916571Y-93886785D01*
X158440380Y-93886785D01*
X157916571Y-93886785D02*
X157821333Y-93839166D01*
X157773714Y-93743928D01*
X157773714Y-93601071D01*
X157821333Y-93505833D01*
X157916571Y-93458214D01*
X158440380Y-93458214D01*
X158440380Y-92982023D02*
X157773714Y-92982023D01*
X157440380Y-92982023D02*
X157488000Y-93029642D01*
X157535619Y-92982023D01*
X157488000Y-92934404D01*
X157440380Y-92982023D01*
X157535619Y-92982023D01*
X157773714Y-92648690D02*
X157773714Y-92267738D01*
X157440380Y-92505833D02*
X158297523Y-92505833D01*
X158392761Y-92458214D01*
X158440380Y-92362976D01*
X158440380Y-92267738D01*
X160932761Y-104601071D02*
X160980380Y-104458214D01*
X160980380Y-104220119D01*
X160932761Y-104124880D01*
X160885142Y-104077261D01*
X160789904Y-104029642D01*
X160694666Y-104029642D01*
X160599428Y-104077261D01*
X160551809Y-104124880D01*
X160504190Y-104220119D01*
X160456571Y-104410595D01*
X160408952Y-104505833D01*
X160361333Y-104553452D01*
X160266095Y-104601071D01*
X160170857Y-104601071D01*
X160075619Y-104553452D01*
X160028000Y-104505833D01*
X159980380Y-104410595D01*
X159980380Y-104172500D01*
X160028000Y-104029642D01*
X160980380Y-103458214D02*
X160932761Y-103553452D01*
X160885142Y-103601071D01*
X160789904Y-103648690D01*
X160504190Y-103648690D01*
X160408952Y-103601071D01*
X160361333Y-103553452D01*
X160313714Y-103458214D01*
X160313714Y-103315357D01*
X160361333Y-103220119D01*
X160408952Y-103172500D01*
X160504190Y-103124880D01*
X160789904Y-103124880D01*
X160885142Y-103172500D01*
X160932761Y-103220119D01*
X160980380Y-103315357D01*
X160980380Y-103458214D01*
X160313714Y-102839166D02*
X160313714Y-102458214D01*
X160980380Y-102696309D02*
X160123238Y-102696309D01*
X160028000Y-102648690D01*
X159980380Y-102553452D01*
X159980380Y-102458214D01*
X160313714Y-102267738D02*
X160313714Y-101886785D01*
X159980380Y-102124880D02*
X160837523Y-102124880D01*
X160932761Y-102077261D01*
X160980380Y-101982023D01*
X160980380Y-101886785D01*
X160313714Y-101648690D02*
X160980380Y-101458214D01*
X160504190Y-101267738D01*
X160980380Y-101077261D01*
X160313714Y-100886785D01*
X160980380Y-100077261D02*
X160456571Y-100077261D01*
X160361333Y-100124880D01*
X160313714Y-100220119D01*
X160313714Y-100410595D01*
X160361333Y-100505833D01*
X160932761Y-100077261D02*
X160980380Y-100172500D01*
X160980380Y-100410595D01*
X160932761Y-100505833D01*
X160837523Y-100553452D01*
X160742285Y-100553452D01*
X160647047Y-100505833D01*
X160599428Y-100410595D01*
X160599428Y-100172500D01*
X160551809Y-100077261D01*
X160980380Y-99601071D02*
X160313714Y-99601071D01*
X160504190Y-99601071D02*
X160408952Y-99553452D01*
X160361333Y-99505833D01*
X160313714Y-99410595D01*
X160313714Y-99315357D01*
X160932761Y-98601071D02*
X160980380Y-98696309D01*
X160980380Y-98886785D01*
X160932761Y-98982023D01*
X160837523Y-99029642D01*
X160456571Y-99029642D01*
X160361333Y-98982023D01*
X160313714Y-98886785D01*
X160313714Y-98696309D01*
X160361333Y-98601071D01*
X160456571Y-98553452D01*
X160551809Y-98553452D01*
X160647047Y-99029642D01*
X160885142Y-96791547D02*
X160932761Y-96839166D01*
X160980380Y-96982023D01*
X160980380Y-97077261D01*
X160932761Y-97220119D01*
X160837523Y-97315357D01*
X160742285Y-97362976D01*
X160551809Y-97410595D01*
X160408952Y-97410595D01*
X160218476Y-97362976D01*
X160123238Y-97315357D01*
X160028000Y-97220119D01*
X159980380Y-97077261D01*
X159980380Y-96982023D01*
X160028000Y-96839166D01*
X160075619Y-96791547D01*
X160980380Y-96220119D02*
X160932761Y-96315357D01*
X160885142Y-96362976D01*
X160789904Y-96410595D01*
X160504190Y-96410595D01*
X160408952Y-96362976D01*
X160361333Y-96315357D01*
X160313714Y-96220119D01*
X160313714Y-96077261D01*
X160361333Y-95982023D01*
X160408952Y-95934404D01*
X160504190Y-95886785D01*
X160789904Y-95886785D01*
X160885142Y-95934404D01*
X160932761Y-95982023D01*
X160980380Y-96077261D01*
X160980380Y-96220119D01*
X160313714Y-95458214D02*
X160980380Y-95458214D01*
X160408952Y-95458214D02*
X160361333Y-95410595D01*
X160313714Y-95315357D01*
X160313714Y-95172500D01*
X160361333Y-95077261D01*
X160456571Y-95029642D01*
X160980380Y-95029642D01*
X160313714Y-94696309D02*
X160313714Y-94315357D01*
X159980380Y-94553452D02*
X160837523Y-94553452D01*
X160932761Y-94505833D01*
X160980380Y-94410595D01*
X160980380Y-94315357D01*
X160980380Y-93982023D02*
X160313714Y-93982023D01*
X160504190Y-93982023D02*
X160408952Y-93934404D01*
X160361333Y-93886785D01*
X160313714Y-93791547D01*
X160313714Y-93696309D01*
X160980380Y-93220119D02*
X160932761Y-93315357D01*
X160885142Y-93362976D01*
X160789904Y-93410595D01*
X160504190Y-93410595D01*
X160408952Y-93362976D01*
X160361333Y-93315357D01*
X160313714Y-93220119D01*
X160313714Y-93077261D01*
X160361333Y-92982023D01*
X160408952Y-92934404D01*
X160504190Y-92886785D01*
X160789904Y-92886785D01*
X160885142Y-92934404D01*
X160932761Y-92982023D01*
X160980380Y-93077261D01*
X160980380Y-93220119D01*
X160980380Y-92315357D02*
X160932761Y-92410595D01*
X160837523Y-92458214D01*
X159980380Y-92458214D01*
X163520380Y-100791547D02*
X163044190Y-101124880D01*
X163520380Y-101362976D02*
X162520380Y-101362976D01*
X162520380Y-100982023D01*
X162568000Y-100886785D01*
X162615619Y-100839166D01*
X162710857Y-100791547D01*
X162853714Y-100791547D01*
X162948952Y-100839166D01*
X162996571Y-100886785D01*
X163044190Y-100982023D01*
X163044190Y-101362976D01*
X163472761Y-99982023D02*
X163520380Y-100077261D01*
X163520380Y-100267738D01*
X163472761Y-100362976D01*
X163377523Y-100410595D01*
X162996571Y-100410595D01*
X162901333Y-100362976D01*
X162853714Y-100267738D01*
X162853714Y-100077261D01*
X162901333Y-99982023D01*
X162996571Y-99934404D01*
X163091809Y-99934404D01*
X163187047Y-100410595D01*
X163520380Y-99077261D02*
X162996571Y-99077261D01*
X162901333Y-99124880D01*
X162853714Y-99220119D01*
X162853714Y-99410595D01*
X162901333Y-99505833D01*
X163472761Y-99077261D02*
X163520380Y-99172500D01*
X163520380Y-99410595D01*
X163472761Y-99505833D01*
X163377523Y-99553452D01*
X163282285Y-99553452D01*
X163187047Y-99505833D01*
X163139428Y-99410595D01*
X163139428Y-99172500D01*
X163091809Y-99077261D01*
X163520380Y-98172500D02*
X162520380Y-98172500D01*
X163472761Y-98172500D02*
X163520380Y-98267738D01*
X163520380Y-98458214D01*
X163472761Y-98553452D01*
X163425142Y-98601071D01*
X163329904Y-98648690D01*
X163044190Y-98648690D01*
X162948952Y-98601071D01*
X162901333Y-98553452D01*
X162853714Y-98458214D01*
X162853714Y-98267738D01*
X162901333Y-98172500D01*
X162996571Y-96934404D02*
X162996571Y-96601071D01*
X163520380Y-96458214D02*
X163520380Y-96934404D01*
X162520380Y-96934404D01*
X162520380Y-96458214D01*
X162853714Y-96029642D02*
X163520380Y-96029642D01*
X162948952Y-96029642D02*
X162901333Y-95982023D01*
X162853714Y-95886785D01*
X162853714Y-95743928D01*
X162901333Y-95648690D01*
X162996571Y-95601071D01*
X163520380Y-95601071D01*
X163520380Y-94696309D02*
X162996571Y-94696309D01*
X162901333Y-94743928D01*
X162853714Y-94839166D01*
X162853714Y-95029642D01*
X162901333Y-95124880D01*
X163472761Y-94696309D02*
X163520380Y-94791547D01*
X163520380Y-95029642D01*
X163472761Y-95124880D01*
X163377523Y-95172500D01*
X163282285Y-95172500D01*
X163187047Y-95124880D01*
X163139428Y-95029642D01*
X163139428Y-94791547D01*
X163091809Y-94696309D01*
X163520380Y-94220119D02*
X162520380Y-94220119D01*
X162901333Y-94220119D02*
X162853714Y-94124880D01*
X162853714Y-93934404D01*
X162901333Y-93839166D01*
X162948952Y-93791547D01*
X163044190Y-93743928D01*
X163329904Y-93743928D01*
X163425142Y-93791547D01*
X163472761Y-93839166D01*
X163520380Y-93934404D01*
X163520380Y-94124880D01*
X163472761Y-94220119D01*
X163520380Y-93172500D02*
X163472761Y-93267738D01*
X163377523Y-93315357D01*
X162520380Y-93315357D01*
X163472761Y-92410595D02*
X163520380Y-92505833D01*
X163520380Y-92696309D01*
X163472761Y-92791547D01*
X163377523Y-92839166D01*
X162996571Y-92839166D01*
X162901333Y-92791547D01*
X162853714Y-92696309D01*
X162853714Y-92505833D01*
X162901333Y-92410595D01*
X162996571Y-92362976D01*
X163091809Y-92362976D01*
X163187047Y-92839166D01*
X166012761Y-105934404D02*
X166060380Y-105791547D01*
X166060380Y-105553452D01*
X166012761Y-105458214D01*
X165965142Y-105410595D01*
X165869904Y-105362976D01*
X165774666Y-105362976D01*
X165679428Y-105410595D01*
X165631809Y-105458214D01*
X165584190Y-105553452D01*
X165536571Y-105743928D01*
X165488952Y-105839166D01*
X165441333Y-105886785D01*
X165346095Y-105934404D01*
X165250857Y-105934404D01*
X165155619Y-105886785D01*
X165108000Y-105839166D01*
X165060380Y-105743928D01*
X165060380Y-105505833D01*
X165108000Y-105362976D01*
X165393714Y-105077261D02*
X165393714Y-104696309D01*
X165060380Y-104934404D02*
X165917523Y-104934404D01*
X166012761Y-104886785D01*
X166060380Y-104791547D01*
X166060380Y-104696309D01*
X166060380Y-103934404D02*
X165536571Y-103934404D01*
X165441333Y-103982023D01*
X165393714Y-104077261D01*
X165393714Y-104267738D01*
X165441333Y-104362976D01*
X166012761Y-103934404D02*
X166060380Y-104029642D01*
X166060380Y-104267738D01*
X166012761Y-104362976D01*
X165917523Y-104410595D01*
X165822285Y-104410595D01*
X165727047Y-104362976D01*
X165679428Y-104267738D01*
X165679428Y-104029642D01*
X165631809Y-103934404D01*
X165393714Y-103601071D02*
X165393714Y-103220119D01*
X165060380Y-103458214D02*
X165917523Y-103458214D01*
X166012761Y-103410595D01*
X166060380Y-103315357D01*
X166060380Y-103220119D01*
X165393714Y-102458214D02*
X166060380Y-102458214D01*
X165393714Y-102886785D02*
X165917523Y-102886785D01*
X166012761Y-102839166D01*
X166060380Y-102743928D01*
X166060380Y-102601071D01*
X166012761Y-102505833D01*
X165965142Y-102458214D01*
X166012761Y-102029642D02*
X166060380Y-101934404D01*
X166060380Y-101743928D01*
X166012761Y-101648690D01*
X165917523Y-101601071D01*
X165869904Y-101601071D01*
X165774666Y-101648690D01*
X165727047Y-101743928D01*
X165727047Y-101886785D01*
X165679428Y-101982023D01*
X165584190Y-102029642D01*
X165536571Y-102029642D01*
X165441333Y-101982023D01*
X165393714Y-101886785D01*
X165393714Y-101743928D01*
X165441333Y-101648690D01*
X166060380Y-99934404D02*
X166060380Y-100410595D01*
X165060380Y-100410595D01*
X165536571Y-99601071D02*
X165536571Y-99267738D01*
X166060380Y-99124880D02*
X166060380Y-99601071D01*
X165060380Y-99601071D01*
X165060380Y-99124880D01*
X166060380Y-98696309D02*
X165060380Y-98696309D01*
X165060380Y-98458214D01*
X165108000Y-98315357D01*
X165203238Y-98220119D01*
X165298476Y-98172500D01*
X165488952Y-98124880D01*
X165631809Y-98124880D01*
X165822285Y-98172500D01*
X165917523Y-98220119D01*
X166012761Y-98315357D01*
X166060380Y-98458214D01*
X166060380Y-98696309D01*
X165536571Y-96934404D02*
X165536571Y-96601071D01*
X166060380Y-96458214D02*
X166060380Y-96934404D01*
X165060380Y-96934404D01*
X165060380Y-96458214D01*
X165393714Y-96029642D02*
X166060380Y-96029642D01*
X165488952Y-96029642D02*
X165441333Y-95982023D01*
X165393714Y-95886785D01*
X165393714Y-95743928D01*
X165441333Y-95648690D01*
X165536571Y-95601071D01*
X166060380Y-95601071D01*
X166060380Y-94696309D02*
X165536571Y-94696309D01*
X165441333Y-94743928D01*
X165393714Y-94839166D01*
X165393714Y-95029642D01*
X165441333Y-95124880D01*
X166012761Y-94696309D02*
X166060380Y-94791547D01*
X166060380Y-95029642D01*
X166012761Y-95124880D01*
X165917523Y-95172500D01*
X165822285Y-95172500D01*
X165727047Y-95124880D01*
X165679428Y-95029642D01*
X165679428Y-94791547D01*
X165631809Y-94696309D01*
X166060380Y-94220119D02*
X165060380Y-94220119D01*
X165441333Y-94220119D02*
X165393714Y-94124880D01*
X165393714Y-93934404D01*
X165441333Y-93839166D01*
X165488952Y-93791547D01*
X165584190Y-93743928D01*
X165869904Y-93743928D01*
X165965142Y-93791547D01*
X166012761Y-93839166D01*
X166060380Y-93934404D01*
X166060380Y-94124880D01*
X166012761Y-94220119D01*
X166060380Y-93172500D02*
X166012761Y-93267738D01*
X165917523Y-93315357D01*
X165060380Y-93315357D01*
X166012761Y-92410595D02*
X166060380Y-92505833D01*
X166060380Y-92696309D01*
X166012761Y-92791547D01*
X165917523Y-92839166D01*
X165536571Y-92839166D01*
X165441333Y-92791547D01*
X165393714Y-92696309D01*
X165393714Y-92505833D01*
X165441333Y-92410595D01*
X165536571Y-92362976D01*
X165631809Y-92362976D01*
X165727047Y-92839166D01*
X129675380Y-108110595D02*
X129675380Y-108682023D01*
X129675380Y-108396309D02*
X128675380Y-108396309D01*
X128818238Y-108491547D01*
X128913476Y-108586785D01*
X128961095Y-108682023D01*
X128770619Y-107729642D02*
X128723000Y-107682023D01*
X128675380Y-107586785D01*
X128675380Y-107348690D01*
X128723000Y-107253452D01*
X128770619Y-107205833D01*
X128865857Y-107158214D01*
X128961095Y-107158214D01*
X129103952Y-107205833D01*
X129675380Y-107777261D01*
X129675380Y-107158214D01*
X128675380Y-106539166D02*
X128675380Y-106443928D01*
X128723000Y-106348690D01*
X128770619Y-106301071D01*
X128865857Y-106253452D01*
X129056333Y-106205833D01*
X129294428Y-106205833D01*
X129484904Y-106253452D01*
X129580142Y-106301071D01*
X129627761Y-106348690D01*
X129675380Y-106443928D01*
X129675380Y-106539166D01*
X129627761Y-106634404D01*
X129580142Y-106682023D01*
X129484904Y-106729642D01*
X129294428Y-106777261D01*
X129056333Y-106777261D01*
X128865857Y-106729642D01*
X128770619Y-106682023D01*
X128723000Y-106634404D01*
X128675380Y-106539166D01*
X129675380Y-105824880D02*
X129675380Y-105586785D01*
X129484904Y-105586785D01*
X129437285Y-105682023D01*
X129342047Y-105777261D01*
X129199190Y-105824880D01*
X128961095Y-105824880D01*
X128818238Y-105777261D01*
X128723000Y-105682023D01*
X128675380Y-105539166D01*
X128675380Y-105348690D01*
X128723000Y-105205833D01*
X128818238Y-105110595D01*
X128961095Y-105062976D01*
X129199190Y-105062976D01*
X129342047Y-105110595D01*
X129437285Y-105205833D01*
X129484904Y-105301071D01*
X129675380Y-105301071D01*
X129675380Y-105062976D01*
X130325380Y-113491547D02*
X130325380Y-112920119D01*
X131325380Y-113205833D02*
X130325380Y-113205833D01*
X131277761Y-112205833D02*
X131325380Y-112301071D01*
X131325380Y-112491547D01*
X131277761Y-112586785D01*
X131182523Y-112634404D01*
X130801571Y-112634404D01*
X130706333Y-112586785D01*
X130658714Y-112491547D01*
X130658714Y-112301071D01*
X130706333Y-112205833D01*
X130801571Y-112158214D01*
X130896809Y-112158214D01*
X130992047Y-112634404D01*
X131325380Y-111729642D02*
X130658714Y-111729642D01*
X130849190Y-111729642D02*
X130753952Y-111682023D01*
X130706333Y-111634404D01*
X130658714Y-111539166D01*
X130658714Y-111443928D01*
X131325380Y-111110595D02*
X130658714Y-111110595D01*
X130753952Y-111110595D02*
X130706333Y-111062976D01*
X130658714Y-110967738D01*
X130658714Y-110824880D01*
X130706333Y-110729642D01*
X130801571Y-110682023D01*
X131325380Y-110682023D01*
X130801571Y-110682023D02*
X130706333Y-110634404D01*
X130658714Y-110539166D01*
X130658714Y-110396309D01*
X130706333Y-110301071D01*
X130801571Y-110253452D01*
X131325380Y-110253452D01*
X131325380Y-109777261D02*
X130658714Y-109777261D01*
X130325380Y-109777261D02*
X130373000Y-109824880D01*
X130420619Y-109777261D01*
X130373000Y-109729642D01*
X130325380Y-109777261D01*
X130420619Y-109777261D01*
X130658714Y-109301071D02*
X131325380Y-109301071D01*
X130753952Y-109301071D02*
X130706333Y-109253452D01*
X130658714Y-109158214D01*
X130658714Y-109015357D01*
X130706333Y-108920119D01*
X130801571Y-108872500D01*
X131325380Y-108872500D01*
X131325380Y-107967738D02*
X130801571Y-107967738D01*
X130706333Y-108015357D01*
X130658714Y-108110595D01*
X130658714Y-108301071D01*
X130706333Y-108396309D01*
X131277761Y-107967738D02*
X131325380Y-108062976D01*
X131325380Y-108301071D01*
X131277761Y-108396309D01*
X131182523Y-108443928D01*
X131087285Y-108443928D01*
X130992047Y-108396309D01*
X130944428Y-108301071D01*
X130944428Y-108062976D01*
X130896809Y-107967738D01*
X130658714Y-107634404D02*
X130658714Y-107253452D01*
X130325380Y-107491547D02*
X131182523Y-107491547D01*
X131277761Y-107443928D01*
X131325380Y-107348690D01*
X131325380Y-107253452D01*
X131325380Y-106920119D02*
X130658714Y-106920119D01*
X130325380Y-106920119D02*
X130373000Y-106967738D01*
X130420619Y-106920119D01*
X130373000Y-106872500D01*
X130325380Y-106920119D01*
X130420619Y-106920119D01*
X131325380Y-106301071D02*
X131277761Y-106396309D01*
X131230142Y-106443928D01*
X131134904Y-106491547D01*
X130849190Y-106491547D01*
X130753952Y-106443928D01*
X130706333Y-106396309D01*
X130658714Y-106301071D01*
X130658714Y-106158214D01*
X130706333Y-106062976D01*
X130753952Y-106015357D01*
X130849190Y-105967738D01*
X131134904Y-105967738D01*
X131230142Y-106015357D01*
X131277761Y-106062976D01*
X131325380Y-106158214D01*
X131325380Y-106301071D01*
X130658714Y-105539166D02*
X131325380Y-105539166D01*
X130753952Y-105539166D02*
X130706333Y-105491547D01*
X130658714Y-105396309D01*
X130658714Y-105253452D01*
X130706333Y-105158214D01*
X130801571Y-105110595D01*
X131325380Y-105110595D01*
D12*
X128718000Y-125155000D02*
X128718000Y-123825000D01*
X130048000Y-125155000D02*
X128718000Y-125155000D01*
X131318000Y-125155000D02*
X131318000Y-122495000D01*
X131318000Y-122495000D02*
X136458000Y-122495000D01*
X131318000Y-125155000D02*
X136458000Y-125155000D01*
X136458000Y-125155000D02*
X136458000Y-122495000D01*
X128968000Y-115915000D02*
X128812000Y-115915000D01*
X131284000Y-115915000D02*
X131128000Y-115915000D01*
X128968163Y-118516130D02*
G75*
G02X128968000Y-116434039I1079837J1041130D01*
G01*
X131127837Y-118516130D02*
G75*
G03X131128000Y-116434039I-1079837J1041130D01*
G01*
X128969392Y-119147335D02*
G75*
G02X128812484Y-115915000I1078608J1672335D01*
G01*
X131126608Y-119147335D02*
G75*
G03X131283516Y-115915000I-1078608J1672335D01*
G01*
X136168000Y-117475000D02*
X136938000Y-117475000D01*
X144248000Y-117475000D02*
X143478000Y-117475000D01*
X136938000Y-118845000D02*
X143478000Y-118845000D01*
X136938000Y-116105000D02*
X136938000Y-118845000D01*
X143478000Y-116105000D02*
X136938000Y-116105000D01*
X143478000Y-118845000D02*
X143478000Y-116105000D01*
X118038000Y-108615000D02*
X125538000Y-108615000D01*
X118038000Y-108615000D02*
X118038000Y-110665000D01*
X112538000Y-110665000D02*
X118038000Y-110665000D01*
X125538000Y-108615000D02*
X125538000Y-90775000D01*
X118038000Y-90775000D02*
X125538000Y-90775000D01*
X118038000Y-90775000D02*
X118038000Y-88725000D01*
X112538000Y-88725000D02*
X118038000Y-88725000D01*
X112538000Y-86775000D02*
X112538000Y-88725000D01*
X112538000Y-110665000D02*
X112538000Y-112315000D01*
X106558000Y-112315000D02*
X112538000Y-112315000D01*
X106558000Y-86775000D02*
X112538000Y-86775000D01*
D13*
G36*
X152738018Y-110748036D02*
G01*
X153039570Y-110691188D01*
X153212512Y-110271662D01*
X153041395Y-110020016D01*
X152993750Y-109949542D01*
X152951210Y-109885837D01*
X152915715Y-109831874D01*
X152889210Y-109790627D01*
X152873636Y-109765066D01*
X152870278Y-109758105D01*
X152878914Y-109745565D01*
X152902792Y-109718769D01*
X152938859Y-109680720D01*
X152984067Y-109634421D01*
X153035364Y-109582877D01*
X153089701Y-109529091D01*
X153144028Y-109476065D01*
X153195295Y-109426805D01*
X153240451Y-109384313D01*
X153276446Y-109351593D01*
X153300230Y-109331649D01*
X153308190Y-109326881D01*
X153322865Y-109333743D01*
X153355014Y-109352980D01*
X153401492Y-109382570D01*
X153459156Y-109420490D01*
X153524860Y-109464718D01*
X153562336Y-109490346D01*
X153630768Y-109537059D01*
X153692520Y-109578568D01*
X153744519Y-109612860D01*
X153783692Y-109637920D01*
X153806965Y-109651736D01*
X153811855Y-109653812D01*
X153825755Y-109649105D01*
X153858150Y-109636277D01*
X153904485Y-109617262D01*
X153960206Y-109593997D01*
X154020758Y-109568416D01*
X154081586Y-109542455D01*
X154138136Y-109518050D01*
X154185852Y-109497137D01*
X154220181Y-109481651D01*
X154236568Y-109473528D01*
X154237212Y-109473048D01*
X154240341Y-109460293D01*
X154247321Y-109426323D01*
X154257467Y-109374660D01*
X154270092Y-109308824D01*
X154284509Y-109232336D01*
X154292823Y-109187710D01*
X154308384Y-109105979D01*
X154323192Y-109032157D01*
X154336436Y-108969979D01*
X154347305Y-108923178D01*
X154354989Y-108895491D01*
X154357427Y-108889926D01*
X154373930Y-108884474D01*
X154411200Y-108880076D01*
X154464880Y-108876728D01*
X154530612Y-108874426D01*
X154604037Y-108873168D01*
X154680796Y-108872952D01*
X154756532Y-108873773D01*
X154826886Y-108875629D01*
X154887500Y-108878518D01*
X154934016Y-108882435D01*
X154962075Y-108887378D01*
X154967916Y-108890343D01*
X154974917Y-108908066D01*
X154984927Y-108945619D01*
X154996769Y-108998036D01*
X155009267Y-109060348D01*
X155013310Y-109082100D01*
X155032520Y-109186976D01*
X155047991Y-109269820D01*
X155060337Y-109333370D01*
X155070173Y-109380363D01*
X155078114Y-109413537D01*
X155084776Y-109435629D01*
X155090773Y-109449376D01*
X155096719Y-109457516D01*
X155097894Y-109458655D01*
X155116826Y-109470023D01*
X155153669Y-109487365D01*
X155203913Y-109508950D01*
X155263046Y-109533046D01*
X155326556Y-109557921D01*
X155389932Y-109581843D01*
X155448662Y-109603081D01*
X155498235Y-109619903D01*
X155534139Y-109630578D01*
X155551862Y-109633373D01*
X155552483Y-109633140D01*
X155566970Y-109623669D01*
X155598844Y-109602182D01*
X155644789Y-109570937D01*
X155701485Y-109532193D01*
X155765617Y-109488207D01*
X155783842Y-109475681D01*
X155849914Y-109431016D01*
X155910200Y-109391712D01*
X155961235Y-109359912D01*
X155999560Y-109337755D01*
X156021711Y-109327383D01*
X156024432Y-109326881D01*
X156038736Y-109335595D01*
X156067072Y-109359675D01*
X156106396Y-109396024D01*
X156153661Y-109441547D01*
X156205823Y-109493148D01*
X156259835Y-109547733D01*
X156312653Y-109602206D01*
X156361231Y-109653471D01*
X156402523Y-109698433D01*
X156433485Y-109733996D01*
X156451070Y-109757065D01*
X156453941Y-109763446D01*
X156447178Y-109778301D01*
X156428939Y-109808714D01*
X156402297Y-109849732D01*
X156380852Y-109881291D01*
X156341503Y-109938475D01*
X156295171Y-110006194D01*
X156248913Y-110074120D01*
X156224155Y-110110639D01*
X156140547Y-110234248D01*
X156196650Y-110338009D01*
X156221228Y-110385280D01*
X156240331Y-110425477D01*
X156251227Y-110452674D01*
X156252743Y-110459598D01*
X156241549Y-110467923D01*
X156209917Y-110484346D01*
X156160765Y-110507643D01*
X156097010Y-110536586D01*
X156021571Y-110569950D01*
X155937364Y-110606509D01*
X155847308Y-110645036D01*
X155754321Y-110684306D01*
X155661320Y-110723092D01*
X155571223Y-110760170D01*
X155486948Y-110794311D01*
X155411413Y-110824292D01*
X155347534Y-110848884D01*
X155298231Y-110866864D01*
X155266421Y-110877003D01*
X155255496Y-110878634D01*
X155241561Y-110865709D01*
X155218940Y-110837411D01*
X155192333Y-110799654D01*
X155190228Y-110796485D01*
X155112114Y-110698900D01*
X155020982Y-110620214D01*
X154919745Y-110561109D01*
X154811318Y-110522268D01*
X154698614Y-110504372D01*
X154584548Y-110508103D01*
X154472034Y-110534143D01*
X154363985Y-110583175D01*
X154340345Y-110597600D01*
X154244887Y-110672631D01*
X154168232Y-110761270D01*
X154110780Y-110860451D01*
X154072929Y-110967105D01*
X154055078Y-111078164D01*
X154057625Y-111190561D01*
X154080970Y-111301227D01*
X154125510Y-111407094D01*
X154191645Y-111505095D01*
X154218487Y-111535410D01*
X154302512Y-111612562D01*
X154390966Y-111668782D01*
X154490115Y-111707347D01*
X154588303Y-111728826D01*
X154698697Y-111734128D01*
X154809640Y-111716448D01*
X154917381Y-111677581D01*
X155018169Y-111619323D01*
X155108256Y-111543469D01*
X155183892Y-111451817D01*
X155191864Y-111439772D01*
X155217974Y-111401611D01*
X155240595Y-111372601D01*
X155255039Y-111358732D01*
X155255496Y-111358531D01*
X155271121Y-111361508D01*
X155306582Y-111373311D01*
X155358962Y-111392714D01*
X155425345Y-111418488D01*
X155502814Y-111449409D01*
X155588450Y-111484249D01*
X155679337Y-111521783D01*
X155772559Y-111560783D01*
X155865197Y-111600023D01*
X155954335Y-111638276D01*
X156037055Y-111674317D01*
X156110441Y-111706917D01*
X156171575Y-111734852D01*
X156217541Y-111756895D01*
X156245421Y-111771818D01*
X156252743Y-111777828D01*
X156247041Y-111796191D01*
X156231749Y-111830552D01*
X156209599Y-111874984D01*
X156196650Y-111899417D01*
X156140547Y-112003178D01*
X156224155Y-112126787D01*
X156266987Y-112189886D01*
X156314122Y-112258970D01*
X156358503Y-112323707D01*
X156380852Y-112356134D01*
X156411477Y-112401741D01*
X156435747Y-112440360D01*
X156450587Y-112466952D01*
X156453724Y-112475590D01*
X156445261Y-112488161D01*
X156421636Y-112515984D01*
X156385302Y-112556361D01*
X156338711Y-112606595D01*
X156284317Y-112663988D01*
X156249392Y-112700286D01*
X156186996Y-112763790D01*
X156131188Y-112818673D01*
X156084354Y-112862714D01*
X156048882Y-112893695D01*
X156027161Y-112909398D01*
X156022752Y-112910905D01*
X156005985Y-112903914D01*
X155972082Y-112884594D01*
X155924476Y-112855091D01*
X155866599Y-112817545D01*
X155801884Y-112774100D01*
X155783842Y-112761745D01*
X155718267Y-112716727D01*
X155659228Y-112676340D01*
X155610042Y-112642840D01*
X155574028Y-112618486D01*
X155554502Y-112605536D01*
X155552483Y-112604285D01*
X155536922Y-112606156D01*
X155502709Y-112616087D01*
X155454355Y-112632347D01*
X155396371Y-112653205D01*
X155333270Y-112676927D01*
X155269563Y-112701784D01*
X155209761Y-112726042D01*
X155158376Y-112747971D01*
X155119919Y-112765838D01*
X155098902Y-112777913D01*
X155097894Y-112778771D01*
X155091888Y-112786154D01*
X155085948Y-112798625D01*
X155079460Y-112818920D01*
X155071809Y-112849778D01*
X155062380Y-112893934D01*
X155050559Y-112954126D01*
X155035729Y-113033093D01*
X155017277Y-113133570D01*
X155013310Y-113155325D01*
X155000853Y-113219802D01*
X154988666Y-113276011D01*
X154977926Y-113318987D01*
X154969809Y-113343760D01*
X154967916Y-113347082D01*
X154951138Y-113352556D01*
X154913645Y-113357006D01*
X154859794Y-113360428D01*
X154793944Y-113362819D01*
X154720453Y-113364177D01*
X154643680Y-113364499D01*
X154567983Y-113363781D01*
X154497720Y-113362021D01*
X154437250Y-113359216D01*
X154390930Y-113355362D01*
X154363119Y-113350457D01*
X154357427Y-113347500D01*
X154351686Y-113331037D01*
X154342345Y-113293551D01*
X154330215Y-113238775D01*
X154316107Y-113170445D01*
X154300830Y-113092294D01*
X154292823Y-113049716D01*
X154277721Y-112968929D01*
X154264040Y-112896887D01*
X154252467Y-112837111D01*
X154243687Y-112793121D01*
X154238387Y-112768439D01*
X154237212Y-112764377D01*
X154223965Y-112757511D01*
X154192057Y-112742998D01*
X154146047Y-112722771D01*
X154090492Y-112698766D01*
X154029953Y-112672918D01*
X153968986Y-112647160D01*
X153912151Y-112623427D01*
X153864006Y-112603654D01*
X153829110Y-112589776D01*
X153812021Y-112583726D01*
X153811274Y-112583614D01*
X153797793Y-112590472D01*
X153766770Y-112609698D01*
X153721289Y-112639272D01*
X153664432Y-112677173D01*
X153599283Y-112721380D01*
X153561862Y-112747079D01*
X153493247Y-112793907D01*
X153430952Y-112835499D01*
X153378129Y-112869825D01*
X153337927Y-112894857D01*
X153313500Y-112908565D01*
X153308024Y-112910544D01*
X153295278Y-112902034D01*
X153268063Y-112878507D01*
X153229428Y-112842968D01*
X153182423Y-112798423D01*
X153130095Y-112747877D01*
X153075495Y-112694336D01*
X153021670Y-112640805D01*
X152971670Y-112590289D01*
X152928543Y-112545794D01*
X152895339Y-112510325D01*
X152875106Y-112486887D01*
X152870278Y-112479046D01*
X152877067Y-112466280D01*
X152896142Y-112435744D01*
X152925561Y-112390410D01*
X152963381Y-112333244D01*
X153007661Y-112267216D01*
X153041395Y-112217410D01*
X153212512Y-111965764D01*
X153126041Y-111756001D01*
X153039570Y-111546237D01*
X152738018Y-111489389D01*
X152436466Y-111432540D01*
X152436466Y-110804885D01*
X152738018Y-110748036D01*
G37*
X152738018Y-110748036D02*
X153039570Y-110691188D01*
X153212512Y-110271662D01*
X153041395Y-110020016D01*
X152993750Y-109949542D01*
X152951210Y-109885837D01*
X152915715Y-109831874D01*
X152889210Y-109790627D01*
X152873636Y-109765066D01*
X152870278Y-109758105D01*
X152878914Y-109745565D01*
X152902792Y-109718769D01*
X152938859Y-109680720D01*
X152984067Y-109634421D01*
X153035364Y-109582877D01*
X153089701Y-109529091D01*
X153144028Y-109476065D01*
X153195295Y-109426805D01*
X153240451Y-109384313D01*
X153276446Y-109351593D01*
X153300230Y-109331649D01*
X153308190Y-109326881D01*
X153322865Y-109333743D01*
X153355014Y-109352980D01*
X153401492Y-109382570D01*
X153459156Y-109420490D01*
X153524860Y-109464718D01*
X153562336Y-109490346D01*
X153630768Y-109537059D01*
X153692520Y-109578568D01*
X153744519Y-109612860D01*
X153783692Y-109637920D01*
X153806965Y-109651736D01*
X153811855Y-109653812D01*
X153825755Y-109649105D01*
X153858150Y-109636277D01*
X153904485Y-109617262D01*
X153960206Y-109593997D01*
X154020758Y-109568416D01*
X154081586Y-109542455D01*
X154138136Y-109518050D01*
X154185852Y-109497137D01*
X154220181Y-109481651D01*
X154236568Y-109473528D01*
X154237212Y-109473048D01*
X154240341Y-109460293D01*
X154247321Y-109426323D01*
X154257467Y-109374660D01*
X154270092Y-109308824D01*
X154284509Y-109232336D01*
X154292823Y-109187710D01*
X154308384Y-109105979D01*
X154323192Y-109032157D01*
X154336436Y-108969979D01*
X154347305Y-108923178D01*
X154354989Y-108895491D01*
X154357427Y-108889926D01*
X154373930Y-108884474D01*
X154411200Y-108880076D01*
X154464880Y-108876728D01*
X154530612Y-108874426D01*
X154604037Y-108873168D01*
X154680796Y-108872952D01*
X154756532Y-108873773D01*
X154826886Y-108875629D01*
X154887500Y-108878518D01*
X154934016Y-108882435D01*
X154962075Y-108887378D01*
X154967916Y-108890343D01*
X154974917Y-108908066D01*
X154984927Y-108945619D01*
X154996769Y-108998036D01*
X155009267Y-109060348D01*
X155013310Y-109082100D01*
X155032520Y-109186976D01*
X155047991Y-109269820D01*
X155060337Y-109333370D01*
X155070173Y-109380363D01*
X155078114Y-109413537D01*
X155084776Y-109435629D01*
X155090773Y-109449376D01*
X155096719Y-109457516D01*
X155097894Y-109458655D01*
X155116826Y-109470023D01*
X155153669Y-109487365D01*
X155203913Y-109508950D01*
X155263046Y-109533046D01*
X155326556Y-109557921D01*
X155389932Y-109581843D01*
X155448662Y-109603081D01*
X155498235Y-109619903D01*
X155534139Y-109630578D01*
X155551862Y-109633373D01*
X155552483Y-109633140D01*
X155566970Y-109623669D01*
X155598844Y-109602182D01*
X155644789Y-109570937D01*
X155701485Y-109532193D01*
X155765617Y-109488207D01*
X155783842Y-109475681D01*
X155849914Y-109431016D01*
X155910200Y-109391712D01*
X155961235Y-109359912D01*
X155999560Y-109337755D01*
X156021711Y-109327383D01*
X156024432Y-109326881D01*
X156038736Y-109335595D01*
X156067072Y-109359675D01*
X156106396Y-109396024D01*
X156153661Y-109441547D01*
X156205823Y-109493148D01*
X156259835Y-109547733D01*
X156312653Y-109602206D01*
X156361231Y-109653471D01*
X156402523Y-109698433D01*
X156433485Y-109733996D01*
X156451070Y-109757065D01*
X156453941Y-109763446D01*
X156447178Y-109778301D01*
X156428939Y-109808714D01*
X156402297Y-109849732D01*
X156380852Y-109881291D01*
X156341503Y-109938475D01*
X156295171Y-110006194D01*
X156248913Y-110074120D01*
X156224155Y-110110639D01*
X156140547Y-110234248D01*
X156196650Y-110338009D01*
X156221228Y-110385280D01*
X156240331Y-110425477D01*
X156251227Y-110452674D01*
X156252743Y-110459598D01*
X156241549Y-110467923D01*
X156209917Y-110484346D01*
X156160765Y-110507643D01*
X156097010Y-110536586D01*
X156021571Y-110569950D01*
X155937364Y-110606509D01*
X155847308Y-110645036D01*
X155754321Y-110684306D01*
X155661320Y-110723092D01*
X155571223Y-110760170D01*
X155486948Y-110794311D01*
X155411413Y-110824292D01*
X155347534Y-110848884D01*
X155298231Y-110866864D01*
X155266421Y-110877003D01*
X155255496Y-110878634D01*
X155241561Y-110865709D01*
X155218940Y-110837411D01*
X155192333Y-110799654D01*
X155190228Y-110796485D01*
X155112114Y-110698900D01*
X155020982Y-110620214D01*
X154919745Y-110561109D01*
X154811318Y-110522268D01*
X154698614Y-110504372D01*
X154584548Y-110508103D01*
X154472034Y-110534143D01*
X154363985Y-110583175D01*
X154340345Y-110597600D01*
X154244887Y-110672631D01*
X154168232Y-110761270D01*
X154110780Y-110860451D01*
X154072929Y-110967105D01*
X154055078Y-111078164D01*
X154057625Y-111190561D01*
X154080970Y-111301227D01*
X154125510Y-111407094D01*
X154191645Y-111505095D01*
X154218487Y-111535410D01*
X154302512Y-111612562D01*
X154390966Y-111668782D01*
X154490115Y-111707347D01*
X154588303Y-111728826D01*
X154698697Y-111734128D01*
X154809640Y-111716448D01*
X154917381Y-111677581D01*
X155018169Y-111619323D01*
X155108256Y-111543469D01*
X155183892Y-111451817D01*
X155191864Y-111439772D01*
X155217974Y-111401611D01*
X155240595Y-111372601D01*
X155255039Y-111358732D01*
X155255496Y-111358531D01*
X155271121Y-111361508D01*
X155306582Y-111373311D01*
X155358962Y-111392714D01*
X155425345Y-111418488D01*
X155502814Y-111449409D01*
X155588450Y-111484249D01*
X155679337Y-111521783D01*
X155772559Y-111560783D01*
X155865197Y-111600023D01*
X155954335Y-111638276D01*
X156037055Y-111674317D01*
X156110441Y-111706917D01*
X156171575Y-111734852D01*
X156217541Y-111756895D01*
X156245421Y-111771818D01*
X156252743Y-111777828D01*
X156247041Y-111796191D01*
X156231749Y-111830552D01*
X156209599Y-111874984D01*
X156196650Y-111899417D01*
X156140547Y-112003178D01*
X156224155Y-112126787D01*
X156266987Y-112189886D01*
X156314122Y-112258970D01*
X156358503Y-112323707D01*
X156380852Y-112356134D01*
X156411477Y-112401741D01*
X156435747Y-112440360D01*
X156450587Y-112466952D01*
X156453724Y-112475590D01*
X156445261Y-112488161D01*
X156421636Y-112515984D01*
X156385302Y-112556361D01*
X156338711Y-112606595D01*
X156284317Y-112663988D01*
X156249392Y-112700286D01*
X156186996Y-112763790D01*
X156131188Y-112818673D01*
X156084354Y-112862714D01*
X156048882Y-112893695D01*
X156027161Y-112909398D01*
X156022752Y-112910905D01*
X156005985Y-112903914D01*
X155972082Y-112884594D01*
X155924476Y-112855091D01*
X155866599Y-112817545D01*
X155801884Y-112774100D01*
X155783842Y-112761745D01*
X155718267Y-112716727D01*
X155659228Y-112676340D01*
X155610042Y-112642840D01*
X155574028Y-112618486D01*
X155554502Y-112605536D01*
X155552483Y-112604285D01*
X155536922Y-112606156D01*
X155502709Y-112616087D01*
X155454355Y-112632347D01*
X155396371Y-112653205D01*
X155333270Y-112676927D01*
X155269563Y-112701784D01*
X155209761Y-112726042D01*
X155158376Y-112747971D01*
X155119919Y-112765838D01*
X155098902Y-112777913D01*
X155097894Y-112778771D01*
X155091888Y-112786154D01*
X155085948Y-112798625D01*
X155079460Y-112818920D01*
X155071809Y-112849778D01*
X155062380Y-112893934D01*
X155050559Y-112954126D01*
X155035729Y-113033093D01*
X155017277Y-113133570D01*
X155013310Y-113155325D01*
X155000853Y-113219802D01*
X154988666Y-113276011D01*
X154977926Y-113318987D01*
X154969809Y-113343760D01*
X154967916Y-113347082D01*
X154951138Y-113352556D01*
X154913645Y-113357006D01*
X154859794Y-113360428D01*
X154793944Y-113362819D01*
X154720453Y-113364177D01*
X154643680Y-113364499D01*
X154567983Y-113363781D01*
X154497720Y-113362021D01*
X154437250Y-113359216D01*
X154390930Y-113355362D01*
X154363119Y-113350457D01*
X154357427Y-113347500D01*
X154351686Y-113331037D01*
X154342345Y-113293551D01*
X154330215Y-113238775D01*
X154316107Y-113170445D01*
X154300830Y-113092294D01*
X154292823Y-113049716D01*
X154277721Y-112968929D01*
X154264040Y-112896887D01*
X154252467Y-112837111D01*
X154243687Y-112793121D01*
X154238387Y-112768439D01*
X154237212Y-112764377D01*
X154223965Y-112757511D01*
X154192057Y-112742998D01*
X154146047Y-112722771D01*
X154090492Y-112698766D01*
X154029953Y-112672918D01*
X153968986Y-112647160D01*
X153912151Y-112623427D01*
X153864006Y-112603654D01*
X153829110Y-112589776D01*
X153812021Y-112583726D01*
X153811274Y-112583614D01*
X153797793Y-112590472D01*
X153766770Y-112609698D01*
X153721289Y-112639272D01*
X153664432Y-112677173D01*
X153599283Y-112721380D01*
X153561862Y-112747079D01*
X153493247Y-112793907D01*
X153430952Y-112835499D01*
X153378129Y-112869825D01*
X153337927Y-112894857D01*
X153313500Y-112908565D01*
X153308024Y-112910544D01*
X153295278Y-112902034D01*
X153268063Y-112878507D01*
X153229428Y-112842968D01*
X153182423Y-112798423D01*
X153130095Y-112747877D01*
X153075495Y-112694336D01*
X153021670Y-112640805D01*
X152971670Y-112590289D01*
X152928543Y-112545794D01*
X152895339Y-112510325D01*
X152875106Y-112486887D01*
X152870278Y-112479046D01*
X152877067Y-112466280D01*
X152896142Y-112435744D01*
X152925561Y-112390410D01*
X152963381Y-112333244D01*
X153007661Y-112267216D01*
X153041395Y-112217410D01*
X153212512Y-111965764D01*
X153126041Y-111756001D01*
X153039570Y-111546237D01*
X152738018Y-111489389D01*
X152436466Y-111432540D01*
X152436466Y-110804885D01*
X152738018Y-110748036D01*
G36*
X156906030Y-109325540D02*
G01*
X156919245Y-109282289D01*
X156935941Y-109254442D01*
X156949145Y-109245371D01*
X156964797Y-109247868D01*
X156989385Y-109264069D01*
X157006800Y-109277768D01*
X157038283Y-109306008D01*
X157051529Y-109327225D01*
X157050664Y-109345312D01*
X157037010Y-109398965D01*
X157037630Y-109438370D01*
X157053104Y-109470368D01*
X157062161Y-109481110D01*
X157094027Y-109515495D01*
X157510179Y-109515495D01*
X157510179Y-109653812D01*
X156906614Y-109653812D01*
X156906614Y-109584653D01*
X156908256Y-109543131D01*
X156914087Y-109521709D01*
X156925461Y-109515498D01*
X156925798Y-109515495D01*
X156937713Y-109512561D01*
X156936159Y-109499296D01*
X156927563Y-109480916D01*
X156911568Y-109442954D01*
X156901945Y-109412128D01*
X156899478Y-109372464D01*
X156906030Y-109325540D01*
G37*
X156906030Y-109325540D02*
X156919245Y-109282289D01*
X156935941Y-109254442D01*
X156949145Y-109245371D01*
X156964797Y-109247868D01*
X156989385Y-109264069D01*
X157006800Y-109277768D01*
X157038283Y-109306008D01*
X157051529Y-109327225D01*
X157050664Y-109345312D01*
X157037010Y-109398965D01*
X157037630Y-109438370D01*
X157053104Y-109470368D01*
X157062161Y-109481110D01*
X157094027Y-109515495D01*
X157510179Y-109515495D01*
X157510179Y-109653812D01*
X156906614Y-109653812D01*
X156906614Y-109584653D01*
X156908256Y-109543131D01*
X156914087Y-109521709D01*
X156925461Y-109515498D01*
X156925798Y-109515495D01*
X156937713Y-109512561D01*
X156936159Y-109499296D01*
X156927563Y-109480916D01*
X156911568Y-109442954D01*
X156901945Y-109412128D01*
X156899478Y-109372464D01*
X156906030Y-109325540D01*
G36*
X156917002Y-111879012D02*
G01*
X156931950Y-111847717D01*
X156953541Y-111817409D01*
X156978391Y-111794318D01*
X157010087Y-111777500D01*
X157052214Y-111766006D01*
X157108358Y-111758891D01*
X157182106Y-111755207D01*
X157277044Y-111754008D01*
X157286985Y-111753989D01*
X157510179Y-111753713D01*
X157510179Y-111892030D01*
X157304418Y-111892030D01*
X157228189Y-111892128D01*
X157172939Y-111892809D01*
X157134501Y-111894651D01*
X157108706Y-111898233D01*
X157091384Y-111904132D01*
X157078368Y-111912927D01*
X157065507Y-111925180D01*
X157037873Y-111968047D01*
X157032745Y-112014843D01*
X157050217Y-112059424D01*
X157063221Y-112074928D01*
X157075447Y-112086310D01*
X157088540Y-112094481D01*
X157106615Y-112099974D01*
X157133787Y-112103320D01*
X157174170Y-112105051D01*
X157231879Y-112105697D01*
X157302132Y-112105792D01*
X157510179Y-112105792D01*
X157510179Y-112244109D01*
X156906614Y-112244109D01*
X156906614Y-112174950D01*
X156908256Y-112133428D01*
X156914087Y-112112006D01*
X156925461Y-112105795D01*
X156925798Y-112105792D01*
X156936938Y-112102910D01*
X156935674Y-112090199D01*
X156923434Y-112064926D01*
X156905424Y-112007605D01*
X156903421Y-111942037D01*
X156917002Y-111879012D01*
G37*
X156917002Y-111879012D02*
X156931950Y-111847717D01*
X156953541Y-111817409D01*
X156978391Y-111794318D01*
X157010087Y-111777500D01*
X157052214Y-111766006D01*
X157108358Y-111758891D01*
X157182106Y-111755207D01*
X157277044Y-111754008D01*
X157286985Y-111753989D01*
X157510179Y-111753713D01*
X157510179Y-111892030D01*
X157304418Y-111892030D01*
X157228189Y-111892128D01*
X157172939Y-111892809D01*
X157134501Y-111894651D01*
X157108706Y-111898233D01*
X157091384Y-111904132D01*
X157078368Y-111912927D01*
X157065507Y-111925180D01*
X157037873Y-111968047D01*
X157032745Y-112014843D01*
X157050217Y-112059424D01*
X157063221Y-112074928D01*
X157075447Y-112086310D01*
X157088540Y-112094481D01*
X157106615Y-112099974D01*
X157133787Y-112103320D01*
X157174170Y-112105051D01*
X157231879Y-112105697D01*
X157302132Y-112105792D01*
X157510179Y-112105792D01*
X157510179Y-112244109D01*
X156906614Y-112244109D01*
X156906614Y-112174950D01*
X156908256Y-112133428D01*
X156914087Y-112112006D01*
X156925461Y-112105795D01*
X156925798Y-112105792D01*
X156936938Y-112102910D01*
X156935674Y-112090199D01*
X156923434Y-112064926D01*
X156905424Y-112007605D01*
X156903421Y-111942037D01*
X156917002Y-111879012D01*
G36*
X156904457Y-108447102D02*
G01*
X156912279Y-108414904D01*
X156940921Y-108353175D01*
X156984667Y-108300390D01*
X157037117Y-108263859D01*
X157048893Y-108258840D01*
X157079740Y-108251955D01*
X157125371Y-108247136D01*
X157171492Y-108245495D01*
X157258693Y-108245495D01*
X157258693Y-108427822D01*
X157258978Y-108503021D01*
X157260704Y-108555997D01*
X157265181Y-108589675D01*
X157273720Y-108606980D01*
X157287630Y-108610837D01*
X157308222Y-108604171D01*
X157332315Y-108592230D01*
X157372525Y-108558920D01*
X157392558Y-108512632D01*
X157391905Y-108456056D01*
X157370101Y-108391969D01*
X157343193Y-108336583D01*
X157379532Y-108290625D01*
X157415872Y-108244667D01*
X157455819Y-108287904D01*
X157493563Y-108345626D01*
X157516320Y-108416614D01*
X157522688Y-108492971D01*
X157511268Y-108566801D01*
X157507393Y-108578713D01*
X157473506Y-108643601D01*
X157422986Y-108691870D01*
X157354325Y-108724535D01*
X157266014Y-108742615D01*
X157264121Y-108742825D01*
X157167878Y-108744444D01*
X157133542Y-108737900D01*
X157133542Y-108610148D01*
X157138822Y-108598416D01*
X157142867Y-108566562D01*
X157145176Y-108519603D01*
X157145525Y-108489846D01*
X157145306Y-108434352D01*
X157143916Y-108399654D01*
X157140251Y-108381399D01*
X157133210Y-108375234D01*
X157121690Y-108376805D01*
X157117233Y-108378122D01*
X157075355Y-108400618D01*
X157041604Y-108435997D01*
X157026773Y-108467220D01*
X157027668Y-108508699D01*
X157046164Y-108550731D01*
X157076786Y-108585988D01*
X157114062Y-108607146D01*
X157133542Y-108610148D01*
X157133542Y-108737900D01*
X157083229Y-108728310D01*
X157012191Y-108696302D01*
X156956779Y-108650299D01*
X156919009Y-108592179D01*
X156900896Y-108523820D01*
X156904457Y-108447102D01*
G37*
X156904457Y-108447102D02*
X156912279Y-108414904D01*
X156940921Y-108353175D01*
X156984667Y-108300390D01*
X157037117Y-108263859D01*
X157048893Y-108258840D01*
X157079740Y-108251955D01*
X157125371Y-108247136D01*
X157171492Y-108245495D01*
X157258693Y-108245495D01*
X157258693Y-108427822D01*
X157258978Y-108503021D01*
X157260704Y-108555997D01*
X157265181Y-108589675D01*
X157273720Y-108606980D01*
X157287630Y-108610837D01*
X157308222Y-108604171D01*
X157332315Y-108592230D01*
X157372525Y-108558920D01*
X157392558Y-108512632D01*
X157391905Y-108456056D01*
X157370101Y-108391969D01*
X157343193Y-108336583D01*
X157379532Y-108290625D01*
X157415872Y-108244667D01*
X157455819Y-108287904D01*
X157493563Y-108345626D01*
X157516320Y-108416614D01*
X157522688Y-108492971D01*
X157511268Y-108566801D01*
X157507393Y-108578713D01*
X157473506Y-108643601D01*
X157422986Y-108691870D01*
X157354325Y-108724535D01*
X157266014Y-108742615D01*
X157264121Y-108742825D01*
X157167878Y-108744444D01*
X157133542Y-108737900D01*
X157133542Y-108610148D01*
X157138822Y-108598416D01*
X157142867Y-108566562D01*
X157145176Y-108519603D01*
X157145525Y-108489846D01*
X157145306Y-108434352D01*
X157143916Y-108399654D01*
X157140251Y-108381399D01*
X157133210Y-108375234D01*
X157121690Y-108376805D01*
X157117233Y-108378122D01*
X157075355Y-108400618D01*
X157041604Y-108435997D01*
X157026773Y-108467220D01*
X157027668Y-108508699D01*
X157046164Y-108550731D01*
X157076786Y-108585988D01*
X157114062Y-108607146D01*
X157133542Y-108610148D01*
X157133542Y-108737900D01*
X157083229Y-108728310D01*
X157012191Y-108696302D01*
X156956779Y-108650299D01*
X156919009Y-108592179D01*
X156900896Y-108523820D01*
X156904457Y-108447102D01*
G36*
X156911880Y-108907774D02*
G01*
X156942830Y-108834920D01*
X156957895Y-108811973D01*
X156981048Y-108782646D01*
X156999253Y-108764236D01*
X157005183Y-108761039D01*
X157018340Y-108770065D01*
X157040667Y-108793163D01*
X157056250Y-108811656D01*
X157096926Y-108862272D01*
X157063295Y-108902240D01*
X157041584Y-108933126D01*
X157034090Y-108963241D01*
X157035920Y-108997708D01*
X157049528Y-109052439D01*
X157077772Y-109090114D01*
X157123433Y-109113009D01*
X157189289Y-109123403D01*
X157189331Y-109123405D01*
X157262939Y-109122506D01*
X157316946Y-109108537D01*
X157353716Y-109080672D01*
X157366168Y-109061675D01*
X157381673Y-109011224D01*
X157381683Y-108957337D01*
X157366638Y-108910454D01*
X157359287Y-108899356D01*
X157340511Y-108871524D01*
X157337434Y-108849764D01*
X157351409Y-108826296D01*
X157376510Y-108800351D01*
X157418880Y-108759284D01*
X157456464Y-108804879D01*
X157498882Y-108875326D01*
X157519785Y-108954767D01*
X157518272Y-109037785D01*
X157504411Y-109092306D01*
X157470135Y-109156030D01*
X157416212Y-109206995D01*
X157378149Y-109230149D01*
X157323536Y-109248901D01*
X157254369Y-109258285D01*
X157179407Y-109258357D01*
X157107409Y-109249176D01*
X157047137Y-109230801D01*
X157040958Y-109227907D01*
X156980351Y-109185048D01*
X156936224Y-109127021D01*
X156909493Y-109058409D01*
X156901073Y-108983799D01*
X156911880Y-108907774D01*
G37*
X156911880Y-108907774D02*
X156942830Y-108834920D01*
X156957895Y-108811973D01*
X156981048Y-108782646D01*
X156999253Y-108764236D01*
X157005183Y-108761039D01*
X157018340Y-108770065D01*
X157040667Y-108793163D01*
X157056250Y-108811656D01*
X157096926Y-108862272D01*
X157063295Y-108902240D01*
X157041584Y-108933126D01*
X157034090Y-108963241D01*
X157035920Y-108997708D01*
X157049528Y-109052439D01*
X157077772Y-109090114D01*
X157123433Y-109113009D01*
X157189289Y-109123403D01*
X157189331Y-109123405D01*
X157262939Y-109122506D01*
X157316946Y-109108537D01*
X157353716Y-109080672D01*
X157366168Y-109061675D01*
X157381673Y-109011224D01*
X157381683Y-108957337D01*
X157366638Y-108910454D01*
X157359287Y-108899356D01*
X157340511Y-108871524D01*
X157337434Y-108849764D01*
X157351409Y-108826296D01*
X157376510Y-108800351D01*
X157418880Y-108759284D01*
X157456464Y-108804879D01*
X157498882Y-108875326D01*
X157519785Y-108954767D01*
X157518272Y-109037785D01*
X157504411Y-109092306D01*
X157470135Y-109156030D01*
X157416212Y-109206995D01*
X157378149Y-109230149D01*
X157323536Y-109248901D01*
X157254369Y-109258285D01*
X157179407Y-109258357D01*
X157107409Y-109249176D01*
X157047137Y-109230801D01*
X157040958Y-109227907D01*
X156980351Y-109185048D01*
X156936224Y-109127021D01*
X156909493Y-109058409D01*
X156901073Y-108983799D01*
X156911880Y-108907774D01*
G36*
X157102342Y-110131633D02*
G01*
X157194563Y-110130445D01*
X157264610Y-110126103D01*
X157315381Y-110117442D01*
X157349772Y-110103296D01*
X157370679Y-110082500D01*
X157381000Y-110053890D01*
X157383636Y-110018465D01*
X157380682Y-109981364D01*
X157369889Y-109953182D01*
X157348360Y-109932757D01*
X157313199Y-109918921D01*
X157261510Y-109910509D01*
X157190394Y-109906357D01*
X157102342Y-109905297D01*
X156906614Y-109905297D01*
X156906614Y-109766980D01*
X157510179Y-109766980D01*
X157510179Y-109836138D01*
X157508489Y-109877830D01*
X157502556Y-109899299D01*
X157491293Y-109905297D01*
X157481261Y-109908909D01*
X157483383Y-109923286D01*
X157497580Y-109952264D01*
X157519480Y-110018681D01*
X157517928Y-110089125D01*
X157494147Y-110156623D01*
X157475362Y-110188767D01*
X157455022Y-110213285D01*
X157429573Y-110231196D01*
X157395458Y-110243521D01*
X157349121Y-110251277D01*
X157287007Y-110255484D01*
X157205561Y-110257160D01*
X157142578Y-110257376D01*
X156906614Y-110257376D01*
X156906614Y-110131633D01*
X157102342Y-110131633D01*
G37*
X157102342Y-110131633D02*
X157194563Y-110130445D01*
X157264610Y-110126103D01*
X157315381Y-110117442D01*
X157349772Y-110103296D01*
X157370679Y-110082500D01*
X157381000Y-110053890D01*
X157383636Y-110018465D01*
X157380682Y-109981364D01*
X157369889Y-109953182D01*
X157348360Y-109932757D01*
X157313199Y-109918921D01*
X157261510Y-109910509D01*
X157190394Y-109906357D01*
X157102342Y-109905297D01*
X156906614Y-109905297D01*
X156906614Y-109766980D01*
X157510179Y-109766980D01*
X157510179Y-109836138D01*
X157508489Y-109877830D01*
X157502556Y-109899299D01*
X157491293Y-109905297D01*
X157481261Y-109908909D01*
X157483383Y-109923286D01*
X157497580Y-109952264D01*
X157519480Y-110018681D01*
X157517928Y-110089125D01*
X157494147Y-110156623D01*
X157475362Y-110188767D01*
X157455022Y-110213285D01*
X157429573Y-110231196D01*
X157395458Y-110243521D01*
X157349121Y-110251277D01*
X157287007Y-110255484D01*
X157205561Y-110257160D01*
X157142578Y-110257376D01*
X156906614Y-110257376D01*
X156906614Y-110131633D01*
X157102342Y-110131633D01*
G36*
X156914055Y-110514238D02*
G01*
X156948692Y-110450637D01*
X157003372Y-110400877D01*
X157047842Y-110377432D01*
X157087121Y-110367366D01*
X157143116Y-110360844D01*
X157207621Y-110358049D01*
X157272429Y-110359164D01*
X157329334Y-110364374D01*
X157359727Y-110370459D01*
X157401306Y-110390986D01*
X157445468Y-110426537D01*
X157484087Y-110469381D01*
X157509034Y-110511789D01*
X157509430Y-110512823D01*
X157520331Y-110565447D01*
X157520601Y-110627812D01*
X157510676Y-110687076D01*
X157502722Y-110709960D01*
X157469300Y-110768898D01*
X157425511Y-110811110D01*
X157367538Y-110838844D01*
X157291565Y-110854349D01*
X157251771Y-110857857D01*
X157201766Y-110857410D01*
X157201766Y-110722624D01*
X157274732Y-110718083D01*
X157330334Y-110705014D01*
X157365861Y-110684244D01*
X157376020Y-110669448D01*
X157383104Y-110631536D01*
X157381007Y-110586473D01*
X157370812Y-110547513D01*
X157365204Y-110537296D01*
X157332538Y-110510341D01*
X157282545Y-110492549D01*
X157221705Y-110484976D01*
X157156497Y-110488675D01*
X157117253Y-110496943D01*
X157071805Y-110520680D01*
X157043396Y-110558151D01*
X157033573Y-110603280D01*
X157043887Y-110649989D01*
X157069112Y-110685868D01*
X157089925Y-110704723D01*
X157110439Y-110715728D01*
X157138203Y-110720974D01*
X157180762Y-110722551D01*
X157201766Y-110722624D01*
X157201766Y-110857410D01*
X157145580Y-110856906D01*
X157058501Y-110839612D01*
X156990530Y-110805971D01*
X156941664Y-110755982D01*
X156911899Y-110689644D01*
X156908448Y-110675399D01*
X156900345Y-110589790D01*
X156914055Y-110514238D01*
G37*
X156914055Y-110514238D02*
X156948692Y-110450637D01*
X157003372Y-110400877D01*
X157047842Y-110377432D01*
X157087121Y-110367366D01*
X157143116Y-110360844D01*
X157207621Y-110358049D01*
X157272429Y-110359164D01*
X157329334Y-110364374D01*
X157359727Y-110370459D01*
X157401306Y-110390986D01*
X157445468Y-110426537D01*
X157484087Y-110469381D01*
X157509034Y-110511789D01*
X157509430Y-110512823D01*
X157520331Y-110565447D01*
X157520601Y-110627812D01*
X157510676Y-110687076D01*
X157502722Y-110709960D01*
X157469300Y-110768898D01*
X157425511Y-110811110D01*
X157367538Y-110838844D01*
X157291565Y-110854349D01*
X157251771Y-110857857D01*
X157201766Y-110857410D01*
X157201766Y-110722624D01*
X157274732Y-110718083D01*
X157330334Y-110705014D01*
X157365861Y-110684244D01*
X157376020Y-110669448D01*
X157383104Y-110631536D01*
X157381007Y-110586473D01*
X157370812Y-110547513D01*
X157365204Y-110537296D01*
X157332538Y-110510341D01*
X157282545Y-110492549D01*
X157221705Y-110484976D01*
X157156497Y-110488675D01*
X157117253Y-110496943D01*
X157071805Y-110520680D01*
X157043396Y-110558151D01*
X157033573Y-110603280D01*
X157043887Y-110649989D01*
X157069112Y-110685868D01*
X157089925Y-110704723D01*
X157110439Y-110715728D01*
X157138203Y-110720974D01*
X157180762Y-110722551D01*
X157201766Y-110722624D01*
X157201766Y-110857410D01*
X157145580Y-110856906D01*
X157058501Y-110839612D01*
X156990530Y-110805971D01*
X156941664Y-110755982D01*
X156911899Y-110689644D01*
X156908448Y-110675399D01*
X156900345Y-110589790D01*
X156914055Y-110514238D01*
G36*
X156904452Y-111110983D02*
G01*
X156913482Y-111063366D01*
X156932370Y-111013966D01*
X156934777Y-111008688D01*
X156954476Y-110971226D01*
X156972781Y-110945283D01*
X156984508Y-110936897D01*
X157003632Y-110944883D01*
X157031850Y-110964280D01*
X157042384Y-110972890D01*
X157083847Y-111008372D01*
X157056858Y-111054115D01*
X157038878Y-111097650D01*
X157029267Y-111147950D01*
X157028660Y-111196188D01*
X157037691Y-111233533D01*
X157043327Y-111242495D01*
X157069171Y-111259563D01*
X157098941Y-111261637D01*
X157122197Y-111248866D01*
X157126708Y-111241312D01*
X157132309Y-111218675D01*
X157138892Y-111178885D01*
X157145183Y-111129834D01*
X157146170Y-111120785D01*
X157159798Y-111042004D01*
X157182946Y-110984864D01*
X157217752Y-110946970D01*
X157266354Y-110925921D01*
X157325718Y-110919365D01*
X157393198Y-110928423D01*
X157446188Y-110957836D01*
X157484783Y-111007722D01*
X157509081Y-111078200D01*
X157518667Y-111156435D01*
X157518552Y-111220234D01*
X157509845Y-111271984D01*
X157497825Y-111307327D01*
X157476880Y-111351983D01*
X157452574Y-111393253D01*
X157441876Y-111407921D01*
X157411084Y-111445643D01*
X157365049Y-111400148D01*
X157319013Y-111354653D01*
X157353243Y-111302928D01*
X157378952Y-111251048D01*
X157392399Y-111195649D01*
X157393818Y-111142395D01*
X157383443Y-111096951D01*
X157361507Y-111064984D01*
X157342998Y-111054662D01*
X157313314Y-111056211D01*
X157290615Y-111081860D01*
X157274940Y-111131540D01*
X157267695Y-111185969D01*
X157253873Y-111269736D01*
X157227796Y-111331967D01*
X157188699Y-111373493D01*
X157135820Y-111395147D01*
X157073126Y-111398147D01*
X157007642Y-111383329D01*
X156958144Y-111349546D01*
X156924408Y-111296495D01*
X156906207Y-111223874D01*
X156902639Y-111170072D01*
X156904452Y-111110983D01*
G37*
X156904452Y-111110983D02*
X156913482Y-111063366D01*
X156932370Y-111013966D01*
X156934777Y-111008688D01*
X156954476Y-110971226D01*
X156972781Y-110945283D01*
X156984508Y-110936897D01*
X157003632Y-110944883D01*
X157031850Y-110964280D01*
X157042384Y-110972890D01*
X157083847Y-111008372D01*
X157056858Y-111054115D01*
X157038878Y-111097650D01*
X157029267Y-111147950D01*
X157028660Y-111196188D01*
X157037691Y-111233533D01*
X157043327Y-111242495D01*
X157069171Y-111259563D01*
X157098941Y-111261637D01*
X157122197Y-111248866D01*
X157126708Y-111241312D01*
X157132309Y-111218675D01*
X157138892Y-111178885D01*
X157145183Y-111129834D01*
X157146170Y-111120785D01*
X157159798Y-111042004D01*
X157182946Y-110984864D01*
X157217752Y-110946970D01*
X157266354Y-110925921D01*
X157325718Y-110919365D01*
X157393198Y-110928423D01*
X157446188Y-110957836D01*
X157484783Y-111007722D01*
X157509081Y-111078200D01*
X157518667Y-111156435D01*
X157518552Y-111220234D01*
X157509845Y-111271984D01*
X157497825Y-111307327D01*
X157476880Y-111351983D01*
X157452574Y-111393253D01*
X157441876Y-111407921D01*
X157411084Y-111445643D01*
X157365049Y-111400148D01*
X157319013Y-111354653D01*
X157353243Y-111302928D01*
X157378952Y-111251048D01*
X157392399Y-111195649D01*
X157393818Y-111142395D01*
X157383443Y-111096951D01*
X157361507Y-111064984D01*
X157342998Y-111054662D01*
X157313314Y-111056211D01*
X157290615Y-111081860D01*
X157274940Y-111131540D01*
X157267695Y-111185969D01*
X157253873Y-111269736D01*
X157227796Y-111331967D01*
X157188699Y-111373493D01*
X157135820Y-111395147D01*
X157073126Y-111398147D01*
X157007642Y-111383329D01*
X156958144Y-111349546D01*
X156924408Y-111296495D01*
X156906207Y-111223874D01*
X156902639Y-111170072D01*
X156904452Y-111110983D01*
G36*
X156920614Y-112481699D02*
G01*
X156926514Y-112469168D01*
X156958283Y-112425799D01*
X157004646Y-112384790D01*
X157055696Y-112354168D01*
X157079166Y-112345459D01*
X157121091Y-112337512D01*
X157171757Y-112332774D01*
X157192679Y-112332199D01*
X157258693Y-112332129D01*
X157258693Y-112712083D01*
X157293273Y-112703983D01*
X157334170Y-112684104D01*
X157369514Y-112649347D01*
X157392282Y-112607998D01*
X157397010Y-112581649D01*
X157391273Y-112545916D01*
X157376882Y-112503282D01*
X157370262Y-112488799D01*
X157343513Y-112435240D01*
X157378376Y-112389533D01*
X157401955Y-112363158D01*
X157421417Y-112349124D01*
X157427129Y-112348414D01*
X157440973Y-112360951D01*
X157462012Y-112388428D01*
X157478425Y-112413366D01*
X157507930Y-112480664D01*
X157521284Y-112556110D01*
X157517812Y-112630888D01*
X157499663Y-112690495D01*
X157460784Y-112751941D01*
X157409595Y-112795608D01*
X157343367Y-112822926D01*
X157259371Y-112835322D01*
X157220936Y-112836421D01*
X157132861Y-112832022D01*
X157130299Y-112831482D01*
X157130299Y-112705582D01*
X157138558Y-112702115D01*
X157143113Y-112687863D01*
X157145065Y-112658470D01*
X157145517Y-112609575D01*
X157145525Y-112590748D01*
X157144843Y-112533467D01*
X157142364Y-112497141D01*
X157137443Y-112477604D01*
X157129434Y-112470690D01*
X157126862Y-112470445D01*
X157106423Y-112478336D01*
X157077789Y-112498085D01*
X157067763Y-112506575D01*
X157039408Y-112538094D01*
X157028259Y-112570949D01*
X157027327Y-112588651D01*
X157038981Y-112636539D01*
X157070285Y-112676699D01*
X157115752Y-112702173D01*
X157117233Y-112702625D01*
X157130299Y-112705582D01*
X157130299Y-112831482D01*
X157063510Y-112817392D01*
X157008025Y-112791038D01*
X156968639Y-112758807D01*
X156925931Y-112699217D01*
X156903109Y-112629168D01*
X156901046Y-112554661D01*
X156920614Y-112481699D01*
G37*
X156920614Y-112481699D02*
X156926514Y-112469168D01*
X156958283Y-112425799D01*
X157004646Y-112384790D01*
X157055696Y-112354168D01*
X157079166Y-112345459D01*
X157121091Y-112337512D01*
X157171757Y-112332774D01*
X157192679Y-112332199D01*
X157258693Y-112332129D01*
X157258693Y-112712083D01*
X157293273Y-112703983D01*
X157334170Y-112684104D01*
X157369514Y-112649347D01*
X157392282Y-112607998D01*
X157397010Y-112581649D01*
X157391273Y-112545916D01*
X157376882Y-112503282D01*
X157370262Y-112488799D01*
X157343513Y-112435240D01*
X157378376Y-112389533D01*
X157401955Y-112363158D01*
X157421417Y-112349124D01*
X157427129Y-112348414D01*
X157440973Y-112360951D01*
X157462012Y-112388428D01*
X157478425Y-112413366D01*
X157507930Y-112480664D01*
X157521284Y-112556110D01*
X157517812Y-112630888D01*
X157499663Y-112690495D01*
X157460784Y-112751941D01*
X157409595Y-112795608D01*
X157343367Y-112822926D01*
X157259371Y-112835322D01*
X157220936Y-112836421D01*
X157132861Y-112832022D01*
X157130299Y-112831482D01*
X157130299Y-112705582D01*
X157138558Y-112702115D01*
X157143113Y-112687863D01*
X157145065Y-112658470D01*
X157145517Y-112609575D01*
X157145525Y-112590748D01*
X157144843Y-112533467D01*
X157142364Y-112497141D01*
X157137443Y-112477604D01*
X157129434Y-112470690D01*
X157126862Y-112470445D01*
X157106423Y-112478336D01*
X157077789Y-112498085D01*
X157067763Y-112506575D01*
X157039408Y-112538094D01*
X157028259Y-112570949D01*
X157027327Y-112588651D01*
X157038981Y-112636539D01*
X157070285Y-112676699D01*
X157115752Y-112702173D01*
X157117233Y-112702625D01*
X157130299Y-112705582D01*
X157130299Y-112831482D01*
X157063510Y-112817392D01*
X157008025Y-112791038D01*
X156968639Y-112758807D01*
X156925931Y-112699217D01*
X156903109Y-112629168D01*
X156901046Y-112554661D01*
X156920614Y-112481699D01*
G36*
X156913148Y-113663261D02*
G01*
X156942231Y-113597479D01*
X156990793Y-113547540D01*
X157058908Y-113513374D01*
X157146651Y-113494907D01*
X157160351Y-113493583D01*
X157256939Y-113492546D01*
X157341602Y-113505993D01*
X157410221Y-113533108D01*
X157432294Y-113547627D01*
X157479011Y-113598201D01*
X157509268Y-113662609D01*
X157521824Y-113734666D01*
X157515439Y-113808185D01*
X157495772Y-113864072D01*
X157462629Y-113912132D01*
X157419175Y-113951412D01*
X157418158Y-113952092D01*
X157391338Y-113968044D01*
X157364368Y-113978410D01*
X157330332Y-113984688D01*
X157282310Y-113988373D01*
X157242931Y-113989997D01*
X157207219Y-113990672D01*
X157207219Y-113864955D01*
X157242770Y-113863726D01*
X157290094Y-113859266D01*
X157320465Y-113851397D01*
X157342072Y-113837207D01*
X157354694Y-113823917D01*
X157381122Y-113776802D01*
X157384653Y-113727505D01*
X157365639Y-113681593D01*
X157344331Y-113658638D01*
X157322859Y-113642096D01*
X157302313Y-113632421D01*
X157275574Y-113628174D01*
X157235523Y-113627920D01*
X157198638Y-113629228D01*
X157145947Y-113632043D01*
X157111772Y-113636505D01*
X157089480Y-113644548D01*
X157072442Y-113658103D01*
X157062703Y-113668845D01*
X157037123Y-113713777D01*
X157035847Y-113762249D01*
X157050999Y-113802894D01*
X157082642Y-113837567D01*
X157134620Y-113858224D01*
X157207219Y-113864955D01*
X157207219Y-113990672D01*
X157164621Y-113991479D01*
X157106056Y-113988948D01*
X157062007Y-113981362D01*
X157027248Y-113967681D01*
X156996551Y-113946865D01*
X156987436Y-113939147D01*
X156942021Y-113890889D01*
X156915493Y-113839128D01*
X156904379Y-113775828D01*
X156903471Y-113744961D01*
X156913148Y-113663261D01*
G37*
X156913148Y-113663261D02*
X156942231Y-113597479D01*
X156990793Y-113547540D01*
X157058908Y-113513374D01*
X157146651Y-113494907D01*
X157160351Y-113493583D01*
X157256939Y-113492546D01*
X157341602Y-113505993D01*
X157410221Y-113533108D01*
X157432294Y-113547627D01*
X157479011Y-113598201D01*
X157509268Y-113662609D01*
X157521824Y-113734666D01*
X157515439Y-113808185D01*
X157495772Y-113864072D01*
X157462629Y-113912132D01*
X157419175Y-113951412D01*
X157418158Y-113952092D01*
X157391338Y-113968044D01*
X157364368Y-113978410D01*
X157330332Y-113984688D01*
X157282310Y-113988373D01*
X157242931Y-113989997D01*
X157207219Y-113990672D01*
X157207219Y-113864955D01*
X157242770Y-113863726D01*
X157290094Y-113859266D01*
X157320465Y-113851397D01*
X157342072Y-113837207D01*
X157354694Y-113823917D01*
X157381122Y-113776802D01*
X157384653Y-113727505D01*
X157365639Y-113681593D01*
X157344331Y-113658638D01*
X157322859Y-113642096D01*
X157302313Y-113632421D01*
X157275574Y-113628174D01*
X157235523Y-113627920D01*
X157198638Y-113629228D01*
X157145947Y-113632043D01*
X157111772Y-113636505D01*
X157089480Y-113644548D01*
X157072442Y-113658103D01*
X157062703Y-113668845D01*
X157037123Y-113713777D01*
X157035847Y-113762249D01*
X157050999Y-113802894D01*
X157082642Y-113837567D01*
X157134620Y-113858224D01*
X157207219Y-113864955D01*
X157207219Y-113990672D01*
X157164621Y-113991479D01*
X157106056Y-113988948D01*
X157062007Y-113981362D01*
X157027248Y-113967681D01*
X156996551Y-113946865D01*
X156987436Y-113939147D01*
X156942021Y-113890889D01*
X156915493Y-113839128D01*
X156904379Y-113775828D01*
X156903471Y-113744961D01*
X156913148Y-113663261D01*
G36*
X157852970Y-109092419D02*
G01*
X157868597Y-109032315D01*
X157900848Y-108981979D01*
X157924940Y-108957607D01*
X157981895Y-108917655D01*
X158047965Y-108894758D01*
X158129182Y-108886892D01*
X158135748Y-108886852D01*
X158201763Y-108886782D01*
X158201763Y-109266736D01*
X158236342Y-109258637D01*
X158267659Y-109244013D01*
X158300291Y-109218419D01*
X158305500Y-109213065D01*
X158333694Y-109167057D01*
X158338475Y-109114590D01*
X158319926Y-109054197D01*
X158314931Y-109043960D01*
X158299745Y-109012561D01*
X158291094Y-108991530D01*
X158290293Y-108987861D01*
X158298063Y-108975052D01*
X158317072Y-108950622D01*
X158327460Y-108938221D01*
X158351321Y-108912524D01*
X158367077Y-108904085D01*
X158381571Y-108909942D01*
X158385534Y-108913072D01*
X158402879Y-108934275D01*
X158423959Y-108969262D01*
X158436265Y-108993663D01*
X158457946Y-109062928D01*
X158464971Y-109139612D01*
X158456647Y-109212235D01*
X158450686Y-109232574D01*
X158416952Y-109295524D01*
X158365045Y-109342185D01*
X158294459Y-109372827D01*
X158204692Y-109387718D01*
X158157753Y-109389353D01*
X158089413Y-109384579D01*
X158089413Y-109264010D01*
X158094465Y-109252348D01*
X158098429Y-109221002D01*
X158100768Y-109175429D01*
X158101169Y-109144554D01*
X158100783Y-109089019D01*
X158098975Y-109053967D01*
X158094773Y-109034738D01*
X158087203Y-109026670D01*
X158076218Y-109025099D01*
X158042381Y-109035879D01*
X158008940Y-109063020D01*
X157983272Y-109098723D01*
X157972772Y-109134440D01*
X157982086Y-109182952D01*
X158009013Y-109224947D01*
X158047827Y-109254064D01*
X158089413Y-109264010D01*
X158089413Y-109384579D01*
X158058236Y-109382401D01*
X157978949Y-109360945D01*
X157919263Y-109324530D01*
X157878549Y-109272703D01*
X157856179Y-109205010D01*
X157851871Y-109168338D01*
X157852970Y-109092419D01*
G37*
X157852970Y-109092419D02*
X157868597Y-109032315D01*
X157900848Y-108981979D01*
X157924940Y-108957607D01*
X157981895Y-108917655D01*
X158047965Y-108894758D01*
X158129182Y-108886892D01*
X158135748Y-108886852D01*
X158201763Y-108886782D01*
X158201763Y-109266736D01*
X158236342Y-109258637D01*
X158267659Y-109244013D01*
X158300291Y-109218419D01*
X158305500Y-109213065D01*
X158333694Y-109167057D01*
X158338475Y-109114590D01*
X158319926Y-109054197D01*
X158314931Y-109043960D01*
X158299745Y-109012561D01*
X158291094Y-108991530D01*
X158290293Y-108987861D01*
X158298063Y-108975052D01*
X158317072Y-108950622D01*
X158327460Y-108938221D01*
X158351321Y-108912524D01*
X158367077Y-108904085D01*
X158381571Y-108909942D01*
X158385534Y-108913072D01*
X158402879Y-108934275D01*
X158423959Y-108969262D01*
X158436265Y-108993663D01*
X158457946Y-109062928D01*
X158464971Y-109139612D01*
X158456647Y-109212235D01*
X158450686Y-109232574D01*
X158416952Y-109295524D01*
X158365045Y-109342185D01*
X158294459Y-109372827D01*
X158204692Y-109387718D01*
X158157753Y-109389353D01*
X158089413Y-109384579D01*
X158089413Y-109264010D01*
X158094465Y-109252348D01*
X158098429Y-109221002D01*
X158100768Y-109175429D01*
X158101169Y-109144554D01*
X158100783Y-109089019D01*
X158098975Y-109053967D01*
X158094773Y-109034738D01*
X158087203Y-109026670D01*
X158076218Y-109025099D01*
X158042381Y-109035879D01*
X158008940Y-109063020D01*
X157983272Y-109098723D01*
X157972772Y-109134440D01*
X157982086Y-109182952D01*
X158009013Y-109224947D01*
X158047827Y-109254064D01*
X158089413Y-109264010D01*
X158089413Y-109384579D01*
X158058236Y-109382401D01*
X157978949Y-109360945D01*
X157919263Y-109324530D01*
X157878549Y-109272703D01*
X157856179Y-109205010D01*
X157851871Y-109168338D01*
X157852970Y-109092419D01*
G36*
X157849486Y-109489745D02*
G01*
X157859015Y-109441405D01*
X157873125Y-109413886D01*
X157896568Y-109384936D01*
X157948571Y-109426124D01*
X157980064Y-109451518D01*
X157995428Y-109468762D01*
X157997776Y-109485898D01*
X157990217Y-109510973D01*
X157985941Y-109522743D01*
X157979631Y-109570730D01*
X157993156Y-109614676D01*
X158023710Y-109646940D01*
X158033452Y-109652181D01*
X158059258Y-109657888D01*
X158106817Y-109662294D01*
X158172758Y-109665189D01*
X158253710Y-109666369D01*
X158265226Y-109666386D01*
X158465822Y-109666386D01*
X158465822Y-109804703D01*
X157849683Y-109804703D01*
X157849683Y-109735544D01*
X157850725Y-109695667D01*
X157855358Y-109674893D01*
X157865849Y-109667211D01*
X157875745Y-109666386D01*
X157901806Y-109666386D01*
X157875745Y-109633255D01*
X157857965Y-109595265D01*
X157849174Y-109544230D01*
X157849486Y-109489745D01*
G37*
X157849486Y-109489745D02*
X157859015Y-109441405D01*
X157873125Y-109413886D01*
X157896568Y-109384936D01*
X157948571Y-109426124D01*
X157980064Y-109451518D01*
X157995428Y-109468762D01*
X157997776Y-109485898D01*
X157990217Y-109510973D01*
X157985941Y-109522743D01*
X157979631Y-109570730D01*
X157993156Y-109614676D01*
X158023710Y-109646940D01*
X158033452Y-109652181D01*
X158059258Y-109657888D01*
X158106817Y-109662294D01*
X158172758Y-109665189D01*
X158253710Y-109666369D01*
X158265226Y-109666386D01*
X158465822Y-109666386D01*
X158465822Y-109804703D01*
X157849683Y-109804703D01*
X157849683Y-109735544D01*
X157850725Y-109695667D01*
X157855358Y-109674893D01*
X157865849Y-109667211D01*
X157875745Y-109666386D01*
X157901806Y-109666386D01*
X157875745Y-109633255D01*
X157857965Y-109595265D01*
X157849174Y-109544230D01*
X157849486Y-109489745D01*
G36*
X157853417Y-110086589D02*
G01*
X157866290Y-110033589D01*
X157873110Y-110018269D01*
X157890974Y-109988572D01*
X157911093Y-109965780D01*
X157936962Y-109948917D01*
X157972073Y-109937002D01*
X158019920Y-109929058D01*
X158083996Y-109924106D01*
X158167794Y-109921169D01*
X158223768Y-109920053D01*
X158465822Y-109915948D01*
X158465822Y-109986068D01*
X158464038Y-110028607D01*
X158457942Y-110050524D01*
X158447706Y-110056188D01*
X158436637Y-110059179D01*
X158438754Y-110072549D01*
X158447629Y-110090767D01*
X158461233Y-110136376D01*
X158464899Y-110194993D01*
X158458903Y-110256646D01*
X158443521Y-110311362D01*
X158441386Y-110316270D01*
X158406255Y-110366277D01*
X158357419Y-110399244D01*
X158300333Y-110414413D01*
X158279824Y-110413254D01*
X158279824Y-110289492D01*
X158307425Y-110278587D01*
X158327204Y-110246255D01*
X158337819Y-110194090D01*
X158339228Y-110166213D01*
X158335620Y-110119753D01*
X158321597Y-110088871D01*
X158314931Y-110081336D01*
X158278666Y-110060924D01*
X158245773Y-110056188D01*
X158201763Y-110056188D01*
X158201763Y-110117487D01*
X158205395Y-110188744D01*
X158216818Y-110238724D01*
X158236824Y-110270304D01*
X158245743Y-110277374D01*
X158279824Y-110289492D01*
X158279824Y-110413254D01*
X158240456Y-110411029D01*
X158183244Y-110388337D01*
X158144580Y-110357376D01*
X158127864Y-110338624D01*
X158116878Y-110320267D01*
X158110180Y-110296381D01*
X158106326Y-110261043D01*
X158103873Y-110208331D01*
X158103168Y-110187423D01*
X158098879Y-110056188D01*
X158059158Y-110056380D01*
X158017405Y-110061463D01*
X157992158Y-110079838D01*
X157976030Y-110116961D01*
X157975742Y-110117957D01*
X157969400Y-110170590D01*
X157977684Y-110222094D01*
X157997827Y-110260370D01*
X158007773Y-110275728D01*
X158006397Y-110292270D01*
X157991987Y-110317725D01*
X157981817Y-110332672D01*
X157960088Y-110361909D01*
X157943800Y-110380020D01*
X157939137Y-110382926D01*
X157915005Y-110370960D01*
X157886185Y-110335604D01*
X157876461Y-110320247D01*
X157859714Y-110276099D01*
X157850227Y-110216602D01*
X157848095Y-110150513D01*
X157853417Y-110086589D01*
G37*
X157853417Y-110086589D02*
X157866290Y-110033589D01*
X157873110Y-110018269D01*
X157890974Y-109988572D01*
X157911093Y-109965780D01*
X157936962Y-109948917D01*
X157972073Y-109937002D01*
X158019920Y-109929058D01*
X158083996Y-109924106D01*
X158167794Y-109921169D01*
X158223768Y-109920053D01*
X158465822Y-109915948D01*
X158465822Y-109986068D01*
X158464038Y-110028607D01*
X158457942Y-110050524D01*
X158447706Y-110056188D01*
X158436637Y-110059179D01*
X158438754Y-110072549D01*
X158447629Y-110090767D01*
X158461233Y-110136376D01*
X158464899Y-110194993D01*
X158458903Y-110256646D01*
X158443521Y-110311362D01*
X158441386Y-110316270D01*
X158406255Y-110366277D01*
X158357419Y-110399244D01*
X158300333Y-110414413D01*
X158279824Y-110413254D01*
X158279824Y-110289492D01*
X158307425Y-110278587D01*
X158327204Y-110246255D01*
X158337819Y-110194090D01*
X158339228Y-110166213D01*
X158335620Y-110119753D01*
X158321597Y-110088871D01*
X158314931Y-110081336D01*
X158278666Y-110060924D01*
X158245773Y-110056188D01*
X158201763Y-110056188D01*
X158201763Y-110117487D01*
X158205395Y-110188744D01*
X158216818Y-110238724D01*
X158236824Y-110270304D01*
X158245743Y-110277374D01*
X158279824Y-110289492D01*
X158279824Y-110413254D01*
X158240456Y-110411029D01*
X158183244Y-110388337D01*
X158144580Y-110357376D01*
X158127864Y-110338624D01*
X158116878Y-110320267D01*
X158110180Y-110296381D01*
X158106326Y-110261043D01*
X158103873Y-110208331D01*
X158103168Y-110187423D01*
X158098879Y-110056188D01*
X158059158Y-110056380D01*
X158017405Y-110061463D01*
X157992158Y-110079838D01*
X157976030Y-110116961D01*
X157975742Y-110117957D01*
X157969400Y-110170590D01*
X157977684Y-110222094D01*
X157997827Y-110260370D01*
X158007773Y-110275728D01*
X158006397Y-110292270D01*
X157991987Y-110317725D01*
X157981817Y-110332672D01*
X157960088Y-110361909D01*
X157943800Y-110380020D01*
X157939137Y-110382926D01*
X157915005Y-110370960D01*
X157886185Y-110335604D01*
X157876461Y-110320247D01*
X157859714Y-110276099D01*
X157850227Y-110216602D01*
X157848095Y-110150513D01*
X157853417Y-110086589D01*
G36*
X157852237Y-110843476D02*
G01*
X157855971Y-110793745D01*
X158245773Y-110663709D01*
X158176614Y-110643322D01*
X158133874Y-110631054D01*
X158076115Y-110614915D01*
X158012625Y-110597488D01*
X157978570Y-110588274D01*
X157849683Y-110553612D01*
X157849683Y-110410609D01*
X157984857Y-110453354D01*
X158051342Y-110474404D01*
X158131539Y-110499833D01*
X158215193Y-110526390D01*
X158289782Y-110550098D01*
X158459535Y-110604098D01*
X158463328Y-110662402D01*
X158467122Y-110720705D01*
X158362734Y-110752321D01*
X158297889Y-110771818D01*
X158226400Y-110793096D01*
X158163263Y-110811692D01*
X158160750Y-110812426D01*
X158117969Y-110826316D01*
X158088779Y-110838571D01*
X158077741Y-110847154D01*
X158079018Y-110848918D01*
X158096130Y-110855109D01*
X158132787Y-110866872D01*
X158184378Y-110882775D01*
X158246294Y-110901386D01*
X158280352Y-110911457D01*
X158465822Y-110965993D01*
X158465822Y-111081736D01*
X158173471Y-111174263D01*
X158091462Y-111200256D01*
X158016987Y-111223934D01*
X157953544Y-111244180D01*
X157904632Y-111259874D01*
X157873749Y-111269898D01*
X157864726Y-111272945D01*
X157855487Y-111270533D01*
X157851441Y-111251592D01*
X157851846Y-111212177D01*
X157852152Y-111206007D01*
X157855971Y-111132914D01*
X158032010Y-111085043D01*
X158096211Y-111067447D01*
X158152649Y-111051723D01*
X158196422Y-111039254D01*
X158222630Y-111031426D01*
X158226903Y-111029980D01*
X158221990Y-111023986D01*
X158196532Y-111011899D01*
X158153997Y-110995107D01*
X158097850Y-110974997D01*
X158047130Y-110957997D01*
X157848504Y-110893206D01*
X157852237Y-110843476D01*
G37*
X157852237Y-110843476D02*
X157855971Y-110793745D01*
X158245773Y-110663709D01*
X158176614Y-110643322D01*
X158133874Y-110631054D01*
X158076115Y-110614915D01*
X158012625Y-110597488D01*
X157978570Y-110588274D01*
X157849683Y-110553612D01*
X157849683Y-110410609D01*
X157984857Y-110453354D01*
X158051342Y-110474404D01*
X158131539Y-110499833D01*
X158215193Y-110526390D01*
X158289782Y-110550098D01*
X158459535Y-110604098D01*
X158463328Y-110662402D01*
X158467122Y-110720705D01*
X158362734Y-110752321D01*
X158297889Y-110771818D01*
X158226400Y-110793096D01*
X158163263Y-110811692D01*
X158160750Y-110812426D01*
X158117969Y-110826316D01*
X158088779Y-110838571D01*
X158077741Y-110847154D01*
X158079018Y-110848918D01*
X158096130Y-110855109D01*
X158132787Y-110866872D01*
X158184378Y-110882775D01*
X158246294Y-110901386D01*
X158280352Y-110911457D01*
X158465822Y-110965993D01*
X158465822Y-111081736D01*
X158173471Y-111174263D01*
X158091462Y-111200256D01*
X158016987Y-111223934D01*
X157953544Y-111244180D01*
X157904632Y-111259874D01*
X157873749Y-111269898D01*
X157864726Y-111272945D01*
X157855487Y-111270533D01*
X157851441Y-111251592D01*
X157851846Y-111212177D01*
X157852152Y-111206007D01*
X157855971Y-111132914D01*
X158032010Y-111085043D01*
X158096211Y-111067447D01*
X158152649Y-111051723D01*
X158196422Y-111039254D01*
X158222630Y-111031426D01*
X158226903Y-111029980D01*
X158221990Y-111023986D01*
X158196532Y-111011899D01*
X158153997Y-110995107D01*
X158097850Y-110974997D01*
X158047130Y-110957997D01*
X157848504Y-110893206D01*
X157852237Y-110843476D01*
G36*
X158465822Y-111326188D02*
G01*
X158465822Y-111395346D01*
X158464645Y-111435488D01*
X158459772Y-111456394D01*
X158449186Y-111463922D01*
X158442029Y-111464505D01*
X158427676Y-111465774D01*
X158424923Y-111473779D01*
X158433771Y-111494815D01*
X158442029Y-111511173D01*
X158461597Y-111573977D01*
X158462729Y-111642248D01*
X158448135Y-111697752D01*
X158412877Y-111749438D01*
X158360835Y-111788838D01*
X158299450Y-111810413D01*
X158296018Y-111810962D01*
X158258571Y-111814167D01*
X158204813Y-111815761D01*
X158164155Y-111815633D01*
X158164155Y-111678279D01*
X158218194Y-111675097D01*
X158262735Y-111667859D01*
X158287888Y-111658060D01*
X158322260Y-111620989D01*
X158334582Y-111576974D01*
X158324618Y-111531584D01*
X158294895Y-111492797D01*
X158274905Y-111478108D01*
X158251050Y-111469519D01*
X158216230Y-111465496D01*
X158163930Y-111464505D01*
X158112139Y-111466278D01*
X158066634Y-111470963D01*
X158036181Y-111477603D01*
X158033452Y-111478710D01*
X158001000Y-111505491D01*
X157983183Y-111544579D01*
X157980306Y-111588315D01*
X157992674Y-111629038D01*
X158020593Y-111659087D01*
X158026148Y-111662204D01*
X158060022Y-111671961D01*
X158108728Y-111677277D01*
X158164155Y-111678279D01*
X158164155Y-111815633D01*
X158143540Y-111815568D01*
X158110563Y-111814664D01*
X158028981Y-111808514D01*
X157967730Y-111795733D01*
X157922449Y-111774471D01*
X157888779Y-111742878D01*
X157869014Y-111712207D01*
X157855120Y-111669354D01*
X157850354Y-111616056D01*
X157854236Y-111561480D01*
X157866282Y-111514792D01*
X157880693Y-111490124D01*
X157903878Y-111464505D01*
X157610773Y-111464505D01*
X157610773Y-111326188D01*
X158465822Y-111326188D01*
G37*
X158465822Y-111326188D02*
X158465822Y-111395346D01*
X158464645Y-111435488D01*
X158459772Y-111456394D01*
X158449186Y-111463922D01*
X158442029Y-111464505D01*
X158427676Y-111465774D01*
X158424923Y-111473779D01*
X158433771Y-111494815D01*
X158442029Y-111511173D01*
X158461597Y-111573977D01*
X158462729Y-111642248D01*
X158448135Y-111697752D01*
X158412877Y-111749438D01*
X158360835Y-111788838D01*
X158299450Y-111810413D01*
X158296018Y-111810962D01*
X158258571Y-111814167D01*
X158204813Y-111815761D01*
X158164155Y-111815633D01*
X158164155Y-111678279D01*
X158218194Y-111675097D01*
X158262735Y-111667859D01*
X158287888Y-111658060D01*
X158322260Y-111620989D01*
X158334582Y-111576974D01*
X158324618Y-111531584D01*
X158294895Y-111492797D01*
X158274905Y-111478108D01*
X158251050Y-111469519D01*
X158216230Y-111465496D01*
X158163930Y-111464505D01*
X158112139Y-111466278D01*
X158066634Y-111470963D01*
X158036181Y-111477603D01*
X158033452Y-111478710D01*
X158001000Y-111505491D01*
X157983183Y-111544579D01*
X157980306Y-111588315D01*
X157992674Y-111629038D01*
X158020593Y-111659087D01*
X158026148Y-111662204D01*
X158060022Y-111671961D01*
X158108728Y-111677277D01*
X158164155Y-111678279D01*
X158164155Y-111815633D01*
X158143540Y-111815568D01*
X158110563Y-111814664D01*
X158028981Y-111808514D01*
X157967730Y-111795733D01*
X157922449Y-111774471D01*
X157888779Y-111742878D01*
X157869014Y-111712207D01*
X157855120Y-111669354D01*
X157850354Y-111616056D01*
X157854236Y-111561480D01*
X157866282Y-111514792D01*
X157880693Y-111490124D01*
X157903878Y-111464505D01*
X157610773Y-111464505D01*
X157610773Y-111326188D01*
X158465822Y-111326188D01*
G36*
X157851020Y-112118356D02*
G01*
X157856660Y-112099539D01*
X157869053Y-112093473D01*
X157874647Y-112093218D01*
X157890230Y-112092129D01*
X157892676Y-112084632D01*
X157881993Y-112064381D01*
X157874694Y-112052351D01*
X157859063Y-112014400D01*
X157851334Y-111969072D01*
X157850740Y-111921544D01*
X157856513Y-111876995D01*
X157867884Y-111840602D01*
X157884088Y-111817543D01*
X157904355Y-111812996D01*
X157909843Y-111815291D01*
X157932626Y-111832020D01*
X157960647Y-111857963D01*
X157965177Y-111862655D01*
X157986005Y-111887383D01*
X157992735Y-111908718D01*
X157988038Y-111938555D01*
X157984917Y-111950508D01*
X157977421Y-111987705D01*
X157980792Y-112013859D01*
X157992681Y-112035946D01*
X158008635Y-112056178D01*
X158028700Y-112071079D01*
X158056702Y-112081434D01*
X158096467Y-112088029D01*
X158151823Y-112091649D01*
X158226594Y-112093078D01*
X158271740Y-112093218D01*
X158465822Y-112093218D01*
X158465822Y-112218960D01*
X157849683Y-112218960D01*
X157849683Y-112156089D01*
X157851020Y-112118356D01*
G37*
X157851020Y-112118356D02*
X157856660Y-112099539D01*
X157869053Y-112093473D01*
X157874647Y-112093218D01*
X157890230Y-112092129D01*
X157892676Y-112084632D01*
X157881993Y-112064381D01*
X157874694Y-112052351D01*
X157859063Y-112014400D01*
X157851334Y-111969072D01*
X157850740Y-111921544D01*
X157856513Y-111876995D01*
X157867884Y-111840602D01*
X157884088Y-111817543D01*
X157904355Y-111812996D01*
X157909843Y-111815291D01*
X157932626Y-111832020D01*
X157960647Y-111857963D01*
X157965177Y-111862655D01*
X157986005Y-111887383D01*
X157992735Y-111908718D01*
X157988038Y-111938555D01*
X157984917Y-111950508D01*
X157977421Y-111987705D01*
X157980792Y-112013859D01*
X157992681Y-112035946D01*
X158008635Y-112056178D01*
X158028700Y-112071079D01*
X158056702Y-112081434D01*
X158096467Y-112088029D01*
X158151823Y-112091649D01*
X158226594Y-112093078D01*
X158271740Y-112093218D01*
X158465822Y-112093218D01*
X158465822Y-112218960D01*
X157849683Y-112218960D01*
X157849683Y-112156089D01*
X157851020Y-112118356D01*
G36*
X157854555Y-112509210D02*
G01*
X157870339Y-112450055D01*
X157898948Y-112405023D01*
X157936419Y-112373246D01*
X157952411Y-112363366D01*
X157969163Y-112356073D01*
X157990592Y-112350974D01*
X158020616Y-112347679D01*
X158063154Y-112345797D01*
X158122122Y-112344937D01*
X158201440Y-112344707D01*
X158222484Y-112344703D01*
X158465822Y-112344703D01*
X158465822Y-112405059D01*
X158463126Y-112443557D01*
X158456295Y-112472023D01*
X158452083Y-112479155D01*
X158444813Y-112498652D01*
X158452083Y-112518566D01*
X158461160Y-112551353D01*
X158464813Y-112598978D01*
X158463228Y-112651764D01*
X158456589Y-112700036D01*
X158448072Y-112728218D01*
X158413063Y-112782753D01*
X158364479Y-112816835D01*
X158299882Y-112832157D01*
X158298223Y-112832299D01*
X158269566Y-112830955D01*
X158269566Y-112709356D01*
X158302161Y-112698726D01*
X158320505Y-112681410D01*
X158334379Y-112646652D01*
X158339917Y-112600773D01*
X158337191Y-112553988D01*
X158326274Y-112516514D01*
X158319269Y-112506015D01*
X158286904Y-112487668D01*
X158250111Y-112483020D01*
X158201763Y-112483020D01*
X158201763Y-112552582D01*
X158206850Y-112618667D01*
X158221263Y-112668764D01*
X158243729Y-112699929D01*
X158269566Y-112709356D01*
X158269566Y-112830955D01*
X158227647Y-112828987D01*
X158171845Y-112805710D01*
X158129647Y-112761948D01*
X158125808Y-112755899D01*
X158113309Y-112729907D01*
X158105740Y-112697735D01*
X158102061Y-112652760D01*
X158101216Y-112599331D01*
X158101169Y-112483020D01*
X158052411Y-112483020D01*
X158014581Y-112487953D01*
X157989236Y-112500543D01*
X157987887Y-112502017D01*
X157976800Y-112530034D01*
X157972503Y-112572326D01*
X157974615Y-112619064D01*
X157982756Y-112660418D01*
X157994965Y-112684957D01*
X158004746Y-112698253D01*
X158006613Y-112712294D01*
X157998600Y-112731671D01*
X157978739Y-112760976D01*
X157945063Y-112804803D01*
X157941909Y-112808825D01*
X157930236Y-112806764D01*
X157910822Y-112789568D01*
X157889248Y-112763433D01*
X157871096Y-112734552D01*
X157866809Y-112725478D01*
X157858256Y-112692380D01*
X157852155Y-112643880D01*
X157849708Y-112589695D01*
X157849703Y-112587161D01*
X157854555Y-112509210D01*
G37*
X157854555Y-112509210D02*
X157870339Y-112450055D01*
X157898948Y-112405023D01*
X157936419Y-112373246D01*
X157952411Y-112363366D01*
X157969163Y-112356073D01*
X157990592Y-112350974D01*
X158020616Y-112347679D01*
X158063154Y-112345797D01*
X158122122Y-112344937D01*
X158201440Y-112344707D01*
X158222484Y-112344703D01*
X158465822Y-112344703D01*
X158465822Y-112405059D01*
X158463126Y-112443557D01*
X158456295Y-112472023D01*
X158452083Y-112479155D01*
X158444813Y-112498652D01*
X158452083Y-112518566D01*
X158461160Y-112551353D01*
X158464813Y-112598978D01*
X158463228Y-112651764D01*
X158456589Y-112700036D01*
X158448072Y-112728218D01*
X158413063Y-112782753D01*
X158364479Y-112816835D01*
X158299882Y-112832157D01*
X158298223Y-112832299D01*
X158269566Y-112830955D01*
X158269566Y-112709356D01*
X158302161Y-112698726D01*
X158320505Y-112681410D01*
X158334379Y-112646652D01*
X158339917Y-112600773D01*
X158337191Y-112553988D01*
X158326274Y-112516514D01*
X158319269Y-112506015D01*
X158286904Y-112487668D01*
X158250111Y-112483020D01*
X158201763Y-112483020D01*
X158201763Y-112552582D01*
X158206850Y-112618667D01*
X158221263Y-112668764D01*
X158243729Y-112699929D01*
X158269566Y-112709356D01*
X158269566Y-112830955D01*
X158227647Y-112828987D01*
X158171845Y-112805710D01*
X158129647Y-112761948D01*
X158125808Y-112755899D01*
X158113309Y-112729907D01*
X158105740Y-112697735D01*
X158102061Y-112652760D01*
X158101216Y-112599331D01*
X158101169Y-112483020D01*
X158052411Y-112483020D01*
X158014581Y-112487953D01*
X157989236Y-112500543D01*
X157987887Y-112502017D01*
X157976800Y-112530034D01*
X157972503Y-112572326D01*
X157974615Y-112619064D01*
X157982756Y-112660418D01*
X157994965Y-112684957D01*
X158004746Y-112698253D01*
X158006613Y-112712294D01*
X157998600Y-112731671D01*
X157978739Y-112760976D01*
X157945063Y-112804803D01*
X157941909Y-112808825D01*
X157930236Y-112806764D01*
X157910822Y-112789568D01*
X157889248Y-112763433D01*
X157871096Y-112734552D01*
X157866809Y-112725478D01*
X157858256Y-112692380D01*
X157852155Y-112643880D01*
X157849708Y-112589695D01*
X157849703Y-112587161D01*
X157854555Y-112509210D01*
G36*
X156917184Y-113033759D02*
G01*
X156930282Y-113007247D01*
X156953106Y-112974553D01*
X156977996Y-112950725D01*
X157009249Y-112934406D01*
X157051166Y-112924240D01*
X157108044Y-112918872D01*
X157184184Y-112916944D01*
X157216917Y-112916831D01*
X157288656Y-112917161D01*
X157339927Y-112918527D01*
X157375404Y-112921500D01*
X157399763Y-112926649D01*
X157417680Y-112934543D01*
X157429902Y-112942757D01*
X157481905Y-112995187D01*
X157513184Y-113056930D01*
X157522592Y-113123536D01*
X157508980Y-113190558D01*
X157499354Y-113211792D01*
X157472859Y-113262624D01*
X157888052Y-113262624D01*
X157868868Y-113225525D01*
X157854025Y-113176643D01*
X157850222Y-113116561D01*
X157857243Y-113056564D01*
X157873013Y-113011256D01*
X157903047Y-112973675D01*
X157946024Y-112941564D01*
X157950436Y-112939150D01*
X157971221Y-112928967D01*
X157992170Y-112921530D01*
X158017548Y-112916411D01*
X158051618Y-112913181D01*
X158098641Y-112911413D01*
X158162882Y-112910677D01*
X158235176Y-112910544D01*
X158465822Y-112910544D01*
X158465822Y-113048861D01*
X158040533Y-113048861D01*
X158007979Y-113087549D01*
X157981940Y-113127738D01*
X157977205Y-113165797D01*
X157989389Y-113204066D01*
X158001320Y-113224462D01*
X158018313Y-113239642D01*
X158043995Y-113250438D01*
X158081991Y-113257683D01*
X158135926Y-113262208D01*
X158209425Y-113264844D01*
X158258347Y-113265772D01*
X158459535Y-113268911D01*
X158463336Y-113334926D01*
X158467136Y-113400940D01*
X157218650Y-113400940D01*
X157218650Y-113262624D01*
X157288254Y-113259097D01*
X157336569Y-113247215D01*
X157366631Y-113225020D01*
X157381471Y-113190559D01*
X157384436Y-113155742D01*
X157381028Y-113116329D01*
X157367617Y-113090171D01*
X157349896Y-113073814D01*
X157330835Y-113060937D01*
X157309601Y-113053272D01*
X157279849Y-113049861D01*
X157235236Y-113049749D01*
X157197880Y-113050897D01*
X157141604Y-113053532D01*
X157104658Y-113057456D01*
X157081223Y-113064063D01*
X157065480Y-113074749D01*
X157056380Y-113084833D01*
X157036537Y-113126970D01*
X157033332Y-113176840D01*
X157040168Y-113205476D01*
X157064464Y-113233828D01*
X157111728Y-113252609D01*
X157181624Y-113261712D01*
X157218650Y-113262624D01*
X157218650Y-113400940D01*
X156906614Y-113400940D01*
X156906614Y-113331782D01*
X156908256Y-113290260D01*
X156914087Y-113268838D01*
X156925461Y-113262626D01*
X156925798Y-113262624D01*
X156936938Y-113259742D01*
X156935673Y-113247030D01*
X156923433Y-113221757D01*
X156904707Y-113162869D01*
X156902739Y-113096615D01*
X156917184Y-113033759D01*
G37*
X156917184Y-113033759D02*
X156930282Y-113007247D01*
X156953106Y-112974553D01*
X156977996Y-112950725D01*
X157009249Y-112934406D01*
X157051166Y-112924240D01*
X157108044Y-112918872D01*
X157184184Y-112916944D01*
X157216917Y-112916831D01*
X157288656Y-112917161D01*
X157339927Y-112918527D01*
X157375404Y-112921500D01*
X157399763Y-112926649D01*
X157417680Y-112934543D01*
X157429902Y-112942757D01*
X157481905Y-112995187D01*
X157513184Y-113056930D01*
X157522592Y-113123536D01*
X157508980Y-113190558D01*
X157499354Y-113211792D01*
X157472859Y-113262624D01*
X157888052Y-113262624D01*
X157868868Y-113225525D01*
X157854025Y-113176643D01*
X157850222Y-113116561D01*
X157857243Y-113056564D01*
X157873013Y-113011256D01*
X157903047Y-112973675D01*
X157946024Y-112941564D01*
X157950436Y-112939150D01*
X157971221Y-112928967D01*
X157992170Y-112921530D01*
X158017548Y-112916411D01*
X158051618Y-112913181D01*
X158098641Y-112911413D01*
X158162882Y-112910677D01*
X158235176Y-112910544D01*
X158465822Y-112910544D01*
X158465822Y-113048861D01*
X158040533Y-113048861D01*
X158007979Y-113087549D01*
X157981940Y-113127738D01*
X157977205Y-113165797D01*
X157989389Y-113204066D01*
X158001320Y-113224462D01*
X158018313Y-113239642D01*
X158043995Y-113250438D01*
X158081991Y-113257683D01*
X158135926Y-113262208D01*
X158209425Y-113264844D01*
X158258347Y-113265772D01*
X158459535Y-113268911D01*
X158463336Y-113334926D01*
X158467136Y-113400940D01*
X157218650Y-113400940D01*
X157218650Y-113262624D01*
X157288254Y-113259097D01*
X157336569Y-113247215D01*
X157366631Y-113225020D01*
X157381471Y-113190559D01*
X157384436Y-113155742D01*
X157381028Y-113116329D01*
X157367617Y-113090171D01*
X157349896Y-113073814D01*
X157330835Y-113060937D01*
X157309601Y-113053272D01*
X157279849Y-113049861D01*
X157235236Y-113049749D01*
X157197880Y-113050897D01*
X157141604Y-113053532D01*
X157104658Y-113057456D01*
X157081223Y-113064063D01*
X157065480Y-113074749D01*
X157056380Y-113084833D01*
X157036537Y-113126970D01*
X157033332Y-113176840D01*
X157040168Y-113205476D01*
X157064464Y-113233828D01*
X157111728Y-113252609D01*
X157181624Y-113261712D01*
X157218650Y-113262624D01*
X157218650Y-113400940D01*
X156906614Y-113400940D01*
X156906614Y-113331782D01*
X156908256Y-113290260D01*
X156914087Y-113268838D01*
X156925461Y-113262626D01*
X156925798Y-113262624D01*
X156936938Y-113259742D01*
X156935673Y-113247030D01*
X156923433Y-113221757D01*
X156904707Y-113162869D01*
X156902739Y-113096615D01*
X156917184Y-113033759D01*
D12*
X130683000Y-99018333D02*
X129413000Y-99018333D01*
X129483000Y-97665000D02*
X129483000Y-99018333D01*
X129603000Y-97665000D02*
X129603000Y-99018333D01*
X129723000Y-97665000D02*
X129723000Y-99018333D01*
X129843000Y-97665000D02*
X129843000Y-99018333D01*
X129963000Y-97665000D02*
X129963000Y-99018333D01*
X130083000Y-97665000D02*
X130083000Y-99018333D01*
X130203000Y-97665000D02*
X130203000Y-99018333D01*
X130323000Y-97665000D02*
X130323000Y-99018333D01*
X130443000Y-97665000D02*
X130443000Y-99018333D01*
X130563000Y-97665000D02*
X130563000Y-99018333D01*
X130683000Y-101725000D02*
X130683000Y-97665000D01*
X129413000Y-101725000D02*
X130683000Y-101725000D01*
X129413000Y-97665000D02*
X129413000Y-101725000D01*
X130683000Y-97665000D02*
X129413000Y-97665000D01*
X132708000Y-94505000D02*
X131325000Y-94505000D01*
X132708000Y-94505000D02*
X132708000Y-95889000D01*
X132468000Y-104645000D02*
X127628000Y-104645000D01*
X132468000Y-94745000D02*
X127628000Y-94745000D01*
X127628000Y-94745000D02*
X127628000Y-104645000D01*
X132468000Y-94745000D02*
X132468000Y-104645000D01*
X133328000Y-88960000D02*
X137268000Y-88960000D01*
X133328000Y-88720000D02*
X137268000Y-88720000D01*
X133328000Y-88840000D02*
X137268000Y-88840000D01*
X137268000Y-81155000D02*
X136938000Y-81155000D01*
X137268000Y-90295000D02*
X137268000Y-81155000D01*
X136938000Y-90295000D02*
X137268000Y-90295000D01*
X133328000Y-81155000D02*
X133658000Y-81155000D01*
X133328000Y-90295000D02*
X133328000Y-81155000D01*
X133658000Y-90295000D02*
X133328000Y-90295000D01*
X130748000Y-82490000D02*
X126808000Y-82490000D01*
X130748000Y-82730000D02*
X126808000Y-82730000D01*
X130748000Y-82610000D02*
X126808000Y-82610000D01*
X126808000Y-90295000D02*
X127138000Y-90295000D01*
X126808000Y-81155000D02*
X126808000Y-90295000D01*
X127138000Y-81155000D02*
X126808000Y-81155000D01*
X130748000Y-90295000D02*
X130418000Y-90295000D01*
X130748000Y-81155000D02*
X130748000Y-90295000D01*
X130418000Y-81155000D02*
X130748000Y-81155000D01*
X156083000Y-85048333D02*
X154813000Y-85048333D01*
X154883000Y-83695000D02*
X154883000Y-85048333D01*
X155003000Y-83695000D02*
X155003000Y-85048333D01*
X155123000Y-83695000D02*
X155123000Y-85048333D01*
X155243000Y-83695000D02*
X155243000Y-85048333D01*
X155363000Y-83695000D02*
X155363000Y-85048333D01*
X155483000Y-83695000D02*
X155483000Y-85048333D01*
X155603000Y-83695000D02*
X155603000Y-85048333D01*
X155723000Y-83695000D02*
X155723000Y-85048333D01*
X155843000Y-83695000D02*
X155843000Y-85048333D01*
X155963000Y-83695000D02*
X155963000Y-85048333D01*
X156083000Y-87755000D02*
X156083000Y-83695000D01*
X154813000Y-87755000D02*
X156083000Y-87755000D01*
X154813000Y-83695000D02*
X154813000Y-87755000D01*
X156083000Y-83695000D02*
X154813000Y-83695000D01*
X158623000Y-85048333D02*
X157353000Y-85048333D01*
X157423000Y-83695000D02*
X157423000Y-85048333D01*
X157543000Y-83695000D02*
X157543000Y-85048333D01*
X157663000Y-83695000D02*
X157663000Y-85048333D01*
X157783000Y-83695000D02*
X157783000Y-85048333D01*
X157903000Y-83695000D02*
X157903000Y-85048333D01*
X158023000Y-83695000D02*
X158023000Y-85048333D01*
X158143000Y-83695000D02*
X158143000Y-85048333D01*
X158263000Y-83695000D02*
X158263000Y-85048333D01*
X158383000Y-83695000D02*
X158383000Y-85048333D01*
X158503000Y-83695000D02*
X158503000Y-85048333D01*
X158623000Y-87755000D02*
X158623000Y-83695000D01*
X157353000Y-87755000D02*
X158623000Y-87755000D01*
X157353000Y-83695000D02*
X157353000Y-87755000D01*
X158623000Y-83695000D02*
X157353000Y-83695000D01*
X161163000Y-85048333D02*
X159893000Y-85048333D01*
X159963000Y-83695000D02*
X159963000Y-85048333D01*
X160083000Y-83695000D02*
X160083000Y-85048333D01*
X160203000Y-83695000D02*
X160203000Y-85048333D01*
X160323000Y-83695000D02*
X160323000Y-85048333D01*
X160443000Y-83695000D02*
X160443000Y-85048333D01*
X160563000Y-83695000D02*
X160563000Y-85048333D01*
X160683000Y-83695000D02*
X160683000Y-85048333D01*
X160803000Y-83695000D02*
X160803000Y-85048333D01*
X160923000Y-83695000D02*
X160923000Y-85048333D01*
X161043000Y-83695000D02*
X161043000Y-85048333D01*
X161163000Y-87755000D02*
X161163000Y-83695000D01*
X159893000Y-87755000D02*
X161163000Y-87755000D01*
X159893000Y-83695000D02*
X159893000Y-87755000D01*
X161163000Y-83695000D02*
X159893000Y-83695000D01*
X163703000Y-85048333D02*
X162433000Y-85048333D01*
X162503000Y-83695000D02*
X162503000Y-85048333D01*
X162623000Y-83695000D02*
X162623000Y-85048333D01*
X162743000Y-83695000D02*
X162743000Y-85048333D01*
X162863000Y-83695000D02*
X162863000Y-85048333D01*
X162983000Y-83695000D02*
X162983000Y-85048333D01*
X163103000Y-83695000D02*
X163103000Y-85048333D01*
X163223000Y-83695000D02*
X163223000Y-85048333D01*
X163343000Y-83695000D02*
X163343000Y-85048333D01*
X163463000Y-83695000D02*
X163463000Y-85048333D01*
X163583000Y-83695000D02*
X163583000Y-85048333D01*
X163703000Y-87755000D02*
X163703000Y-83695000D01*
X162433000Y-87755000D02*
X163703000Y-87755000D01*
X162433000Y-83695000D02*
X162433000Y-87755000D01*
X163703000Y-83695000D02*
X162433000Y-83695000D01*
X166243000Y-85048333D02*
X164973000Y-85048333D01*
X165043000Y-83695000D02*
X165043000Y-85048333D01*
X165163000Y-83695000D02*
X165163000Y-85048333D01*
X165283000Y-83695000D02*
X165283000Y-85048333D01*
X165403000Y-83695000D02*
X165403000Y-85048333D01*
X165523000Y-83695000D02*
X165523000Y-85048333D01*
X165643000Y-83695000D02*
X165643000Y-85048333D01*
X165763000Y-83695000D02*
X165763000Y-85048333D01*
X165883000Y-83695000D02*
X165883000Y-85048333D01*
X166003000Y-83695000D02*
X166003000Y-85048333D01*
X166123000Y-83695000D02*
X166123000Y-85048333D01*
X166243000Y-87755000D02*
X166243000Y-83695000D01*
X164973000Y-87755000D02*
X166243000Y-87755000D01*
X164973000Y-83695000D02*
X164973000Y-87755000D01*
X166243000Y-83695000D02*
X164973000Y-83695000D01*
X168268000Y-80535000D02*
X166885000Y-80535000D01*
X168268000Y-80535000D02*
X168268000Y-81919000D01*
X168028000Y-90675000D02*
X153028000Y-90675000D01*
X168028000Y-80775000D02*
X153028000Y-80775000D01*
X153028000Y-80775000D02*
X153028000Y-90675000D01*
X168028000Y-80775000D02*
X168028000Y-90675000D01*
X146103000Y-113699775D02*
X146603000Y-113699775D01*
X146353000Y-113949775D02*
X146353000Y-113449775D01*
X147544000Y-108544000D02*
X148112000Y-108544000D01*
X147310000Y-108584000D02*
X148346000Y-108584000D01*
X147151000Y-108624000D02*
X148505000Y-108624000D01*
X147023000Y-108664000D02*
X148633000Y-108664000D01*
X146913000Y-108704000D02*
X148743000Y-108704000D01*
X146817000Y-108744000D02*
X148839000Y-108744000D01*
X146730000Y-108784000D02*
X148926000Y-108784000D01*
X146650000Y-108824000D02*
X149006000Y-108824000D01*
X148868000Y-108864000D02*
X149079000Y-108864000D01*
X146577000Y-108864000D02*
X146788000Y-108864000D01*
X148868000Y-108904000D02*
X149147000Y-108904000D01*
X146509000Y-108904000D02*
X146788000Y-108904000D01*
X148868000Y-108944000D02*
X149211000Y-108944000D01*
X146445000Y-108944000D02*
X146788000Y-108944000D01*
X148868000Y-108984000D02*
X149271000Y-108984000D01*
X146385000Y-108984000D02*
X146788000Y-108984000D01*
X148868000Y-109024000D02*
X149328000Y-109024000D01*
X146328000Y-109024000D02*
X146788000Y-109024000D01*
X148868000Y-109064000D02*
X149382000Y-109064000D01*
X146274000Y-109064000D02*
X146788000Y-109064000D01*
X148868000Y-109104000D02*
X149433000Y-109104000D01*
X146223000Y-109104000D02*
X146788000Y-109104000D01*
X148868000Y-109144000D02*
X149481000Y-109144000D01*
X146175000Y-109144000D02*
X146788000Y-109144000D01*
X148868000Y-109184000D02*
X149527000Y-109184000D01*
X146129000Y-109184000D02*
X146788000Y-109184000D01*
X148868000Y-109224000D02*
X149571000Y-109224000D01*
X146085000Y-109224000D02*
X146788000Y-109224000D01*
X148868000Y-109264000D02*
X149613000Y-109264000D01*
X146043000Y-109264000D02*
X146788000Y-109264000D01*
X148868000Y-109304000D02*
X149654000Y-109304000D01*
X146002000Y-109304000D02*
X146788000Y-109304000D01*
X148868000Y-109344000D02*
X149692000Y-109344000D01*
X145964000Y-109344000D02*
X146788000Y-109344000D01*
X148868000Y-109384000D02*
X149729000Y-109384000D01*
X145927000Y-109384000D02*
X146788000Y-109384000D01*
X148868000Y-109424000D02*
X149765000Y-109424000D01*
X145891000Y-109424000D02*
X146788000Y-109424000D01*
X148868000Y-109464000D02*
X149799000Y-109464000D01*
X145857000Y-109464000D02*
X146788000Y-109464000D01*
X148868000Y-109504000D02*
X149832000Y-109504000D01*
X145824000Y-109504000D02*
X146788000Y-109504000D01*
X148868000Y-109544000D02*
X149863000Y-109544000D01*
X145793000Y-109544000D02*
X146788000Y-109544000D01*
X148868000Y-109584000D02*
X149893000Y-109584000D01*
X145763000Y-109584000D02*
X146788000Y-109584000D01*
X148868000Y-109624000D02*
X149923000Y-109624000D01*
X145733000Y-109624000D02*
X146788000Y-109624000D01*
X148868000Y-109664000D02*
X149950000Y-109664000D01*
X145706000Y-109664000D02*
X146788000Y-109664000D01*
X148868000Y-109704000D02*
X149977000Y-109704000D01*
X145679000Y-109704000D02*
X146788000Y-109704000D01*
X148868000Y-109744000D02*
X150003000Y-109744000D01*
X145653000Y-109744000D02*
X146788000Y-109744000D01*
X148868000Y-109784000D02*
X150028000Y-109784000D01*
X145628000Y-109784000D02*
X146788000Y-109784000D01*
X148868000Y-109824000D02*
X150052000Y-109824000D01*
X145604000Y-109824000D02*
X146788000Y-109824000D01*
X148868000Y-109864000D02*
X150075000Y-109864000D01*
X145581000Y-109864000D02*
X146788000Y-109864000D01*
X148868000Y-109904000D02*
X150096000Y-109904000D01*
X145560000Y-109904000D02*
X146788000Y-109904000D01*
X148868000Y-109944000D02*
X150118000Y-109944000D01*
X145538000Y-109944000D02*
X146788000Y-109944000D01*
X148868000Y-109984000D02*
X150138000Y-109984000D01*
X145518000Y-109984000D02*
X146788000Y-109984000D01*
X148868000Y-110024000D02*
X150157000Y-110024000D01*
X145499000Y-110024000D02*
X146788000Y-110024000D01*
X148868000Y-110064000D02*
X150176000Y-110064000D01*
X145480000Y-110064000D02*
X146788000Y-110064000D01*
X148868000Y-110104000D02*
X150193000Y-110104000D01*
X145463000Y-110104000D02*
X146788000Y-110104000D01*
X148868000Y-110144000D02*
X150210000Y-110144000D01*
X145446000Y-110144000D02*
X146788000Y-110144000D01*
X148868000Y-110184000D02*
X150226000Y-110184000D01*
X145430000Y-110184000D02*
X146788000Y-110184000D01*
X148868000Y-110224000D02*
X150242000Y-110224000D01*
X145414000Y-110224000D02*
X146788000Y-110224000D01*
X148868000Y-110264000D02*
X150256000Y-110264000D01*
X145400000Y-110264000D02*
X146788000Y-110264000D01*
X148868000Y-110304000D02*
X150270000Y-110304000D01*
X145386000Y-110304000D02*
X146788000Y-110304000D01*
X148868000Y-110344000D02*
X150283000Y-110344000D01*
X145373000Y-110344000D02*
X146788000Y-110344000D01*
X148868000Y-110384000D02*
X150296000Y-110384000D01*
X145360000Y-110384000D02*
X146788000Y-110384000D01*
X148868000Y-110424000D02*
X150308000Y-110424000D01*
X145348000Y-110424000D02*
X146788000Y-110424000D01*
X148868000Y-110465000D02*
X150319000Y-110465000D01*
X145337000Y-110465000D02*
X146788000Y-110465000D01*
X148868000Y-110505000D02*
X150329000Y-110505000D01*
X145327000Y-110505000D02*
X146788000Y-110505000D01*
X148868000Y-110545000D02*
X150339000Y-110545000D01*
X145317000Y-110545000D02*
X146788000Y-110545000D01*
X148868000Y-110585000D02*
X150348000Y-110585000D01*
X145308000Y-110585000D02*
X146788000Y-110585000D01*
X148868000Y-110625000D02*
X150356000Y-110625000D01*
X145300000Y-110625000D02*
X146788000Y-110625000D01*
X148868000Y-110665000D02*
X150364000Y-110665000D01*
X145292000Y-110665000D02*
X146788000Y-110665000D01*
X148868000Y-110705000D02*
X150371000Y-110705000D01*
X145285000Y-110705000D02*
X146788000Y-110705000D01*
X148868000Y-110745000D02*
X150378000Y-110745000D01*
X145278000Y-110745000D02*
X146788000Y-110745000D01*
X148868000Y-110785000D02*
X150384000Y-110785000D01*
X145272000Y-110785000D02*
X146788000Y-110785000D01*
X148868000Y-110825000D02*
X150389000Y-110825000D01*
X145267000Y-110825000D02*
X146788000Y-110825000D01*
X148868000Y-110865000D02*
X150393000Y-110865000D01*
X145263000Y-110865000D02*
X146788000Y-110865000D01*
X148868000Y-110905000D02*
X150397000Y-110905000D01*
X145259000Y-110905000D02*
X146788000Y-110905000D01*
X145255000Y-110945000D02*
X150401000Y-110945000D01*
X145252000Y-110985000D02*
X150404000Y-110985000D01*
X145250000Y-111025000D02*
X150406000Y-111025000D01*
X145249000Y-111065000D02*
X150407000Y-111065000D01*
X145248000Y-111105000D02*
X150408000Y-111105000D01*
X145248000Y-111145000D02*
X150408000Y-111145000D01*
X150448000Y-111145000D02*
G75*
G03X150448000Y-111145000I-2620000J0D01*
G01*
X141263000Y-108545000D02*
X141578000Y-108545000D01*
X138838000Y-108545000D02*
X139153000Y-108545000D01*
X141263000Y-113785000D02*
X141578000Y-113785000D01*
X138838000Y-113785000D02*
X139153000Y-113785000D01*
X141578000Y-113785000D02*
X141578000Y-108545000D01*
X138838000Y-113785000D02*
X138838000Y-108545000D01*
X156948000Y-117475000D02*
X156178000Y-117475000D01*
X148868000Y-117475000D02*
X149638000Y-117475000D01*
X156178000Y-116105000D02*
X149638000Y-116105000D01*
X156178000Y-118845000D02*
X156178000Y-116105000D01*
X149638000Y-118845000D02*
X156178000Y-118845000D01*
X149638000Y-116105000D02*
X149638000Y-118845000D01*
X170398000Y-119825000D02*
X170398000Y-119981000D01*
X170398000Y-117509000D02*
X170398000Y-117665000D01*
X172999130Y-119824837D02*
G75*
G02X170917039Y-119825000I-1041130J1079837D01*
G01*
X172999130Y-117665163D02*
G75*
G03X170917039Y-117665000I-1041130J-1079837D01*
G01*
X173630335Y-119823608D02*
G75*
G02X170398000Y-119980516I-1672335J1078608D01*
G01*
X173630335Y-117666392D02*
G75*
G03X170398000Y-117509484I-1672335J-1078608D01*
G01*
X146558000Y-89765000D02*
X146558000Y-88995000D01*
X146558000Y-81685000D02*
X146558000Y-82455000D01*
X147928000Y-88995000D02*
X147928000Y-82455000D01*
X145188000Y-88995000D02*
X147928000Y-88995000D01*
X145188000Y-82455000D02*
X145188000Y-88995000D01*
X147928000Y-82455000D02*
X145188000Y-82455000D01*
X141478000Y-89765000D02*
X141478000Y-88995000D01*
X141478000Y-81685000D02*
X141478000Y-82455000D01*
X142848000Y-88995000D02*
X142848000Y-82455000D01*
X140108000Y-88995000D02*
X142848000Y-88995000D01*
X140108000Y-82455000D02*
X140108000Y-88995000D01*
X142848000Y-82455000D02*
X140108000Y-82455000D01*
X135128000Y-103735000D02*
X135128000Y-102965000D01*
X135128000Y-95655000D02*
X135128000Y-96425000D01*
X136498000Y-102965000D02*
X136498000Y-96425000D01*
X133758000Y-102965000D02*
X136498000Y-102965000D01*
X133758000Y-96425000D02*
X133758000Y-102965000D01*
X136498000Y-96425000D02*
X133758000Y-96425000D01*
X141368000Y-104835000D02*
X143018000Y-104835000D01*
X141368000Y-94555000D02*
X141368000Y-104835000D01*
X146668000Y-94555000D02*
X141368000Y-94555000D01*
X146668000Y-104835000D02*
X146668000Y-94555000D01*
X145018000Y-104835000D02*
X146668000Y-104835000D01*
X143018000Y-104835000D02*
G75*
G02X145018000Y-104835000I1000000J0D01*
G01*
D10*
X140208000Y-125095000D02*
X157988000Y-125095000D01*
X157988000Y-125095000D02*
X157988000Y-122555000D01*
X157988000Y-122555000D02*
X140208000Y-122555000D01*
X137388000Y-125375000D02*
X138938000Y-125375000D01*
X140208000Y-125095000D02*
X140208000Y-122555000D01*
X138938000Y-122275000D02*
X137388000Y-122275000D01*
X137388000Y-122275000D02*
X137388000Y-125375000D01*
X163068000Y-125095000D02*
X175768000Y-125095000D01*
X175768000Y-125095000D02*
X175768000Y-122555000D01*
X175768000Y-122555000D02*
X163068000Y-122555000D01*
X160248000Y-125375000D02*
X161798000Y-125375000D01*
X163068000Y-125095000D02*
X163068000Y-122555000D01*
X161798000Y-122275000D02*
X160248000Y-122275000D01*
X160248000Y-122275000D02*
X160248000Y-125375000D01*
X131064000Y-76835000D02*
X153924000Y-76835000D01*
X153924000Y-76835000D02*
X153924000Y-74295000D01*
X153924000Y-74295000D02*
X131064000Y-74295000D01*
X128244000Y-77115000D02*
X129794000Y-77115000D01*
X131064000Y-76835000D02*
X131064000Y-74295000D01*
X129794000Y-74015000D02*
X128244000Y-74015000D01*
X128244000Y-74015000D02*
X128244000Y-77115000D01*
X157988000Y-76835000D02*
X175768000Y-76835000D01*
X175768000Y-76835000D02*
X175768000Y-74295000D01*
X175768000Y-74295000D02*
X157988000Y-74295000D01*
X155168000Y-77115000D02*
X156718000Y-77115000D01*
X157988000Y-76835000D02*
X157988000Y-74295000D01*
X156718000Y-74015000D02*
X155168000Y-74015000D01*
X155168000Y-74015000D02*
X155168000Y-77115000D01*
X127254000Y-123825000D02*
G75*
G03X127254000Y-123825000I-2286000J0D01*
G01*
X179324000Y-118745000D02*
G75*
G03X179324000Y-118745000I-2286000J0D01*
G01*
X128524000Y-75565000D02*
G75*
G03X128524000Y-75565000I-2286000J0D01*
G01*
X134794666Y-120737380D02*
X134794666Y-121451666D01*
X134747047Y-121594523D01*
X134651809Y-121689761D01*
X134508952Y-121737380D01*
X134413714Y-121737380D01*
X135223238Y-120832619D02*
X135270857Y-120785000D01*
X135366095Y-120737380D01*
X135604190Y-120737380D01*
X135699428Y-120785000D01*
X135747047Y-120832619D01*
X135794666Y-120927857D01*
X135794666Y-121023095D01*
X135747047Y-121165952D01*
X135175619Y-121737380D01*
X135794666Y-121737380D01*
X133675380Y-118213095D02*
X132675380Y-118213095D01*
X132675380Y-117975000D01*
X132723000Y-117832142D01*
X132818238Y-117736904D01*
X132913476Y-117689285D01*
X133103952Y-117641666D01*
X133246809Y-117641666D01*
X133437285Y-117689285D01*
X133532523Y-117736904D01*
X133627761Y-117832142D01*
X133675380Y-117975000D01*
X133675380Y-118213095D01*
X133008714Y-116784523D02*
X133675380Y-116784523D01*
X132627761Y-117022619D02*
X133342047Y-117260714D01*
X133342047Y-116641666D01*
X142581333Y-120467380D02*
X142248000Y-119991190D01*
X142009904Y-120467380D02*
X142009904Y-119467380D01*
X142390857Y-119467380D01*
X142486095Y-119515000D01*
X142533714Y-119562619D01*
X142581333Y-119657857D01*
X142581333Y-119800714D01*
X142533714Y-119895952D01*
X142486095Y-119943571D01*
X142390857Y-119991190D01*
X142009904Y-119991190D01*
X143486095Y-119467380D02*
X143009904Y-119467380D01*
X142962285Y-119943571D01*
X143009904Y-119895952D01*
X143105142Y-119848333D01*
X143343238Y-119848333D01*
X143438476Y-119895952D01*
X143486095Y-119943571D01*
X143533714Y-120038809D01*
X143533714Y-120276904D01*
X143486095Y-120372142D01*
X143438476Y-120419761D01*
X143343238Y-120467380D01*
X143105142Y-120467380D01*
X143009904Y-120419761D01*
X142962285Y-120372142D01*
X110450380Y-100028333D02*
X111164666Y-100028333D01*
X111307523Y-100075952D01*
X111402761Y-100171190D01*
X111450380Y-100314047D01*
X111450380Y-100409285D01*
X111450380Y-99028333D02*
X111450380Y-99599761D01*
X111450380Y-99314047D02*
X110450380Y-99314047D01*
X110593238Y-99409285D01*
X110688476Y-99504523D01*
X110736095Y-99599761D01*
X127277761Y-101028333D02*
X127325380Y-100885476D01*
X127325380Y-100647380D01*
X127277761Y-100552142D01*
X127230142Y-100504523D01*
X127134904Y-100456904D01*
X127039666Y-100456904D01*
X126944428Y-100504523D01*
X126896809Y-100552142D01*
X126849190Y-100647380D01*
X126801571Y-100837857D01*
X126753952Y-100933095D01*
X126706333Y-100980714D01*
X126611095Y-101028333D01*
X126515857Y-101028333D01*
X126420619Y-100980714D01*
X126373000Y-100933095D01*
X126325380Y-100837857D01*
X126325380Y-100599761D01*
X126373000Y-100456904D01*
X126325380Y-100123571D02*
X127325380Y-99885476D01*
X126611095Y-99695000D01*
X127325380Y-99504523D01*
X126325380Y-99266428D01*
X126420619Y-98933095D02*
X126373000Y-98885476D01*
X126325380Y-98790238D01*
X126325380Y-98552142D01*
X126373000Y-98456904D01*
X126420619Y-98409285D01*
X126515857Y-98361666D01*
X126611095Y-98361666D01*
X126753952Y-98409285D01*
X127325380Y-98980714D01*
X127325380Y-98361666D01*
X138755380Y-86463095D02*
X137755380Y-86463095D01*
X137755380Y-86225000D01*
X137803000Y-86082142D01*
X137898238Y-85986904D01*
X137993476Y-85939285D01*
X138183952Y-85891666D01*
X138326809Y-85891666D01*
X138517285Y-85939285D01*
X138612523Y-85986904D01*
X138707761Y-86082142D01*
X138755380Y-86225000D01*
X138755380Y-86463095D01*
X137755380Y-85558333D02*
X137755380Y-84939285D01*
X138136333Y-85272619D01*
X138136333Y-85129761D01*
X138183952Y-85034523D01*
X138231571Y-84986904D01*
X138326809Y-84939285D01*
X138564904Y-84939285D01*
X138660142Y-84986904D01*
X138707761Y-85034523D01*
X138755380Y-85129761D01*
X138755380Y-85415476D01*
X138707761Y-85510714D01*
X138660142Y-85558333D01*
X132405380Y-86463095D02*
X131405380Y-86463095D01*
X131405380Y-86225000D01*
X131453000Y-86082142D01*
X131548238Y-85986904D01*
X131643476Y-85939285D01*
X131833952Y-85891666D01*
X131976809Y-85891666D01*
X132167285Y-85939285D01*
X132262523Y-85986904D01*
X132357761Y-86082142D01*
X132405380Y-86225000D01*
X132405380Y-86463095D01*
X131500619Y-85510714D02*
X131453000Y-85463095D01*
X131405380Y-85367857D01*
X131405380Y-85129761D01*
X131453000Y-85034523D01*
X131500619Y-84986904D01*
X131595857Y-84939285D01*
X131691095Y-84939285D01*
X131833952Y-84986904D01*
X132405380Y-85558333D01*
X132405380Y-84939285D01*
X152042761Y-87058333D02*
X152090380Y-86915476D01*
X152090380Y-86677380D01*
X152042761Y-86582142D01*
X151995142Y-86534523D01*
X151899904Y-86486904D01*
X151804666Y-86486904D01*
X151709428Y-86534523D01*
X151661809Y-86582142D01*
X151614190Y-86677380D01*
X151566571Y-86867857D01*
X151518952Y-86963095D01*
X151471333Y-87010714D01*
X151376095Y-87058333D01*
X151280857Y-87058333D01*
X151185619Y-87010714D01*
X151138000Y-86963095D01*
X151090380Y-86867857D01*
X151090380Y-86629761D01*
X151138000Y-86486904D01*
X151090380Y-86153571D02*
X152090380Y-85915476D01*
X151376095Y-85725000D01*
X152090380Y-85534523D01*
X151090380Y-85296428D01*
X152090380Y-84391666D02*
X152090380Y-84963095D01*
X152090380Y-84677380D02*
X151090380Y-84677380D01*
X151233238Y-84772619D01*
X151328476Y-84867857D01*
X151376095Y-84963095D01*
X144435142Y-111311666D02*
X144482761Y-111359285D01*
X144530380Y-111502142D01*
X144530380Y-111597380D01*
X144482761Y-111740238D01*
X144387523Y-111835476D01*
X144292285Y-111883095D01*
X144101809Y-111930714D01*
X143958952Y-111930714D01*
X143768476Y-111883095D01*
X143673238Y-111835476D01*
X143578000Y-111740238D01*
X143530380Y-111597380D01*
X143530380Y-111502142D01*
X143578000Y-111359285D01*
X143625619Y-111311666D01*
X143625619Y-110930714D02*
X143578000Y-110883095D01*
X143530380Y-110787857D01*
X143530380Y-110549761D01*
X143578000Y-110454523D01*
X143625619Y-110406904D01*
X143720857Y-110359285D01*
X143816095Y-110359285D01*
X143958952Y-110406904D01*
X144530380Y-110978333D01*
X144530380Y-110359285D01*
X138065142Y-111331666D02*
X138112761Y-111379285D01*
X138160380Y-111522142D01*
X138160380Y-111617380D01*
X138112761Y-111760238D01*
X138017523Y-111855476D01*
X137922285Y-111903095D01*
X137731809Y-111950714D01*
X137588952Y-111950714D01*
X137398476Y-111903095D01*
X137303238Y-111855476D01*
X137208000Y-111760238D01*
X137160380Y-111617380D01*
X137160380Y-111522142D01*
X137208000Y-111379285D01*
X137255619Y-111331666D01*
X138160380Y-110379285D02*
X138160380Y-110950714D01*
X138160380Y-110665000D02*
X137160380Y-110665000D01*
X137303238Y-110760238D01*
X137398476Y-110855476D01*
X137446095Y-110950714D01*
X155281333Y-120467380D02*
X154948000Y-119991190D01*
X154709904Y-120467380D02*
X154709904Y-119467380D01*
X155090857Y-119467380D01*
X155186095Y-119515000D01*
X155233714Y-119562619D01*
X155281333Y-119657857D01*
X155281333Y-119800714D01*
X155233714Y-119895952D01*
X155186095Y-119943571D01*
X155090857Y-119991190D01*
X154709904Y-119991190D01*
X156138476Y-119800714D02*
X156138476Y-120467380D01*
X155900380Y-119419761D02*
X155662285Y-120134047D01*
X156281333Y-120134047D01*
X171219904Y-122054880D02*
X171219904Y-121054880D01*
X171458000Y-121054880D01*
X171600857Y-121102500D01*
X171696095Y-121197738D01*
X171743714Y-121292976D01*
X171791333Y-121483452D01*
X171791333Y-121626309D01*
X171743714Y-121816785D01*
X171696095Y-121912023D01*
X171600857Y-122007261D01*
X171458000Y-122054880D01*
X171219904Y-122054880D01*
X172743714Y-122054880D02*
X172172285Y-122054880D01*
X172458000Y-122054880D02*
X172458000Y-121054880D01*
X172362761Y-121197738D01*
X172267523Y-121292976D01*
X172172285Y-121340595D01*
X149380380Y-85891666D02*
X148904190Y-86225000D01*
X149380380Y-86463095D02*
X148380380Y-86463095D01*
X148380380Y-86082142D01*
X148428000Y-85986904D01*
X148475619Y-85939285D01*
X148570857Y-85891666D01*
X148713714Y-85891666D01*
X148808952Y-85939285D01*
X148856571Y-85986904D01*
X148904190Y-86082142D01*
X148904190Y-86463095D01*
X148380380Y-85558333D02*
X148380380Y-84939285D01*
X148761333Y-85272619D01*
X148761333Y-85129761D01*
X148808952Y-85034523D01*
X148856571Y-84986904D01*
X148951809Y-84939285D01*
X149189904Y-84939285D01*
X149285142Y-84986904D01*
X149332761Y-85034523D01*
X149380380Y-85129761D01*
X149380380Y-85415476D01*
X149332761Y-85510714D01*
X149285142Y-85558333D01*
X144300380Y-85891666D02*
X143824190Y-86225000D01*
X144300380Y-86463095D02*
X143300380Y-86463095D01*
X143300380Y-86082142D01*
X143348000Y-85986904D01*
X143395619Y-85939285D01*
X143490857Y-85891666D01*
X143633714Y-85891666D01*
X143728952Y-85939285D01*
X143776571Y-85986904D01*
X143824190Y-86082142D01*
X143824190Y-86463095D01*
X143395619Y-85510714D02*
X143348000Y-85463095D01*
X143300380Y-85367857D01*
X143300380Y-85129761D01*
X143348000Y-85034523D01*
X143395619Y-84986904D01*
X143490857Y-84939285D01*
X143586095Y-84939285D01*
X143728952Y-84986904D01*
X144300380Y-85558333D01*
X144300380Y-84939285D01*
X138120380Y-99861666D02*
X137644190Y-100195000D01*
X138120380Y-100433095D02*
X137120380Y-100433095D01*
X137120380Y-100052142D01*
X137168000Y-99956904D01*
X137215619Y-99909285D01*
X137310857Y-99861666D01*
X137453714Y-99861666D01*
X137548952Y-99909285D01*
X137596571Y-99956904D01*
X137644190Y-100052142D01*
X137644190Y-100433095D01*
X138120380Y-98909285D02*
X138120380Y-99480714D01*
X138120380Y-99195000D02*
X137120380Y-99195000D01*
X137263238Y-99290238D01*
X137358476Y-99385476D01*
X137406095Y-99480714D01*
X149820380Y-100456904D02*
X150629904Y-100456904D01*
X150725142Y-100409285D01*
X150772761Y-100361666D01*
X150820380Y-100266428D01*
X150820380Y-100075952D01*
X150772761Y-99980714D01*
X150725142Y-99933095D01*
X150629904Y-99885476D01*
X149820380Y-99885476D01*
X150820380Y-98885476D02*
X150820380Y-99456904D01*
X150820380Y-99171190D02*
X149820380Y-99171190D01*
X149963238Y-99266428D01*
X150058476Y-99361666D01*
X150106095Y-99456904D01*
X138199904Y-121737380D02*
X138199904Y-120737380D01*
X138580857Y-120737380D01*
X138676095Y-120785000D01*
X138723714Y-120832619D01*
X138771333Y-120927857D01*
X138771333Y-121070714D01*
X138723714Y-121165952D01*
X138676095Y-121213571D01*
X138580857Y-121261190D01*
X138199904Y-121261190D01*
X139723714Y-121737380D02*
X139152285Y-121737380D01*
X139438000Y-121737380D02*
X139438000Y-120737380D01*
X139342761Y-120880238D01*
X139247523Y-120975476D01*
X139152285Y-121023095D01*
X161059904Y-121737380D02*
X161059904Y-120737380D01*
X161440857Y-120737380D01*
X161536095Y-120785000D01*
X161583714Y-120832619D01*
X161631333Y-120927857D01*
X161631333Y-121070714D01*
X161583714Y-121165952D01*
X161536095Y-121213571D01*
X161440857Y-121261190D01*
X161059904Y-121261190D01*
X162012285Y-120832619D02*
X162059904Y-120785000D01*
X162155142Y-120737380D01*
X162393238Y-120737380D01*
X162488476Y-120785000D01*
X162536095Y-120832619D01*
X162583714Y-120927857D01*
X162583714Y-121023095D01*
X162536095Y-121165952D01*
X161964666Y-121737380D01*
X162583714Y-121737380D01*
X152169904Y-78557380D02*
X152169904Y-77557380D01*
X152550857Y-77557380D01*
X152646095Y-77605000D01*
X152693714Y-77652619D01*
X152741333Y-77747857D01*
X152741333Y-77890714D01*
X152693714Y-77985952D01*
X152646095Y-78033571D01*
X152550857Y-78081190D01*
X152169904Y-78081190D01*
X153074666Y-77557380D02*
X153693714Y-77557380D01*
X153360380Y-77938333D01*
X153503238Y-77938333D01*
X153598476Y-77985952D01*
X153646095Y-78033571D01*
X153693714Y-78128809D01*
X153693714Y-78366904D01*
X153646095Y-78462142D01*
X153598476Y-78509761D01*
X153503238Y-78557380D01*
X153217523Y-78557380D01*
X153122285Y-78509761D01*
X153074666Y-78462142D01*
X173759904Y-78811380D02*
X173759904Y-77811380D01*
X174140857Y-77811380D01*
X174236095Y-77859000D01*
X174283714Y-77906619D01*
X174331333Y-78001857D01*
X174331333Y-78144714D01*
X174283714Y-78239952D01*
X174236095Y-78287571D01*
X174140857Y-78335190D01*
X173759904Y-78335190D01*
X175188476Y-78144714D02*
X175188476Y-78811380D01*
X174950380Y-77763761D02*
X174712285Y-78478047D01*
X175331333Y-78478047D01*
M02*
