G04 #@! TF.GenerationSoftware,KiCad,Pcbnew,(5.1.5)-3*
G04 #@! TF.CreationDate,2020-07-14T23:57:43+01:00*
G04 #@! TF.ProjectId,dmxhat,646d7868-6174-42e6-9b69-6361645f7063,rev?*
G04 #@! TF.SameCoordinates,Original*
G04 #@! TF.FileFunction,Soldermask,Top*
G04 #@! TF.FilePolarity,Negative*
%FSLAX46Y46*%
G04 Gerber Fmt 4.6, Leading zero omitted, Abs format (unit mm)*
G04 Created by KiCad (PCBNEW (5.1.5)-3) date 2020-07-14 23:57:43*
%MOMM*%
%LPD*%
G04 APERTURE LIST*
%ADD10C,2.900000*%
%ADD11C,3.400000*%
%ADD12C,1.600000*%
%ADD13O,1.700000X1.700000*%
%ADD14R,1.700000X1.700000*%
%ADD15C,1.800000*%
%ADD16R,1.800000X1.800000*%
%ADD17O,1.600000X1.600000*%
%ADD18R,1.600000X1.600000*%
%ADD19O,2.800000X2.800000*%
%ADD20R,2.800000X2.800000*%
%ADD21O,1.727200X2.032000*%
%ADD22C,4.064000*%
G04 APERTURE END LIST*
D10*
X123449000Y-103505000D03*
X113279000Y-111755000D03*
D11*
X123449000Y-99695000D03*
D12*
X115189000Y-99695000D03*
X110109000Y-107315000D03*
D10*
X119634000Y-96525000D03*
X119634000Y-103505000D03*
D11*
X123449000Y-107315000D03*
X119634000Y-99695000D03*
X118999000Y-107315000D03*
D13*
X135128000Y-123825000D03*
X132588000Y-123825000D03*
D14*
X130048000Y-123825000D03*
D15*
X130048000Y-118745000D03*
D16*
X130048000Y-116205000D03*
D17*
X135128000Y-117475000D03*
D12*
X145288000Y-117475000D03*
D17*
X130048000Y-103505000D03*
D18*
X130048000Y-95885000D03*
D19*
X135298000Y-80645000D03*
D20*
X135298000Y-90805000D03*
D19*
X128778000Y-90805000D03*
D20*
X128778000Y-80645000D03*
D17*
X165608000Y-89535000D03*
X155448000Y-81915000D03*
X163068000Y-89535000D03*
X157988000Y-81915000D03*
X160528000Y-89535000D03*
X160528000Y-81915000D03*
X157988000Y-89535000D03*
X163068000Y-81915000D03*
X155448000Y-89535000D03*
D18*
X165608000Y-81915000D03*
D12*
X147828000Y-109895000D03*
D18*
X147828000Y-112395000D03*
D12*
X140208000Y-108665000D03*
X140208000Y-113665000D03*
D17*
X157988000Y-117475000D03*
D12*
X147828000Y-117475000D03*
D15*
X173228000Y-118745000D03*
D16*
X170688000Y-118745000D03*
D17*
X146558000Y-90805000D03*
D12*
X146558000Y-80645000D03*
D17*
X141478000Y-90805000D03*
D12*
X141478000Y-80645000D03*
D17*
X135128000Y-104775000D03*
D12*
X135128000Y-94615000D03*
D17*
X140208000Y-103505000D03*
X147828000Y-95885000D03*
X140208000Y-100965000D03*
X147828000Y-98425000D03*
X140208000Y-98425000D03*
X147828000Y-100965000D03*
X140208000Y-95885000D03*
D18*
X147828000Y-103505000D03*
D21*
X138938000Y-123825000D03*
X141478000Y-123825000D03*
X144018000Y-123825000D03*
X146558000Y-123825000D03*
X149098000Y-123825000D03*
X151638000Y-123825000D03*
X154178000Y-123825000D03*
X156718000Y-123825000D03*
X161798000Y-123825000D03*
X164338000Y-123825000D03*
X166878000Y-123825000D03*
X169418000Y-123825000D03*
X171958000Y-123825000D03*
X174498000Y-123825000D03*
X129794000Y-75565000D03*
X132334000Y-75565000D03*
X134874000Y-75565000D03*
X137414000Y-75565000D03*
X139954000Y-75565000D03*
X142494000Y-75565000D03*
X145034000Y-75565000D03*
X147574000Y-75565000D03*
X150114000Y-75565000D03*
X152654000Y-75565000D03*
X156718000Y-75565000D03*
X159258000Y-75565000D03*
X161798000Y-75565000D03*
X164338000Y-75565000D03*
X166878000Y-75565000D03*
X169418000Y-75565000D03*
X171958000Y-75565000D03*
X174498000Y-75565000D03*
D22*
X124968000Y-123825000D03*
X177038000Y-118745000D03*
X126238000Y-75565000D03*
M02*
