G04 #@! TF.GenerationSoftware,KiCad,Pcbnew,(5.1.5)-3*
G04 #@! TF.CreationDate,2020-07-14T23:57:43+01:00*
G04 #@! TF.ProjectId,dmxhat,646d7868-6174-42e6-9b69-6361645f7063,rev?*
G04 #@! TF.SameCoordinates,Original*
G04 #@! TF.FileFunction,Copper,L1,Top*
G04 #@! TF.FilePolarity,Positive*
%FSLAX46Y46*%
G04 Gerber Fmt 4.6, Leading zero omitted, Abs format (unit mm)*
G04 Created by KiCad (PCBNEW (5.1.5)-3) date 2020-07-14 23:57:43*
%MOMM*%
%LPD*%
G04 APERTURE LIST*
%ADD10C,2.900000*%
%ADD11C,3.400000*%
%ADD12O,1.700000X1.700000*%
%ADD13R,1.700000X1.700000*%
%ADD14C,1.800000*%
%ADD15R,1.800000X1.800000*%
%ADD16O,1.600000X1.600000*%
%ADD17C,1.600000*%
%ADD18R,1.600000X1.600000*%
%ADD19O,2.800000X2.800000*%
%ADD20R,2.800000X2.800000*%
%ADD21O,1.727200X2.032000*%
%ADD22C,4.064000*%
%ADD23C,0.750000*%
%ADD24C,0.250000*%
%ADD25C,0.254000*%
G04 APERTURE END LIST*
D10*
X123449000Y-103505000D03*
X113279000Y-111755000D03*
D11*
X123449000Y-99695000D03*
D10*
X119634000Y-96525000D03*
X119634000Y-103505000D03*
D11*
X123449000Y-107315000D03*
X119634000Y-99695000D03*
X118999000Y-107315000D03*
D12*
X135128000Y-123825000D03*
X132588000Y-123825000D03*
D13*
X130048000Y-123825000D03*
D14*
X130048000Y-118745000D03*
D15*
X130048000Y-116205000D03*
D16*
X135128000Y-117475000D03*
D17*
X145288000Y-117475000D03*
D16*
X130048000Y-103505000D03*
D18*
X130048000Y-95885000D03*
D19*
X135298000Y-80645000D03*
D20*
X135298000Y-90805000D03*
D19*
X128778000Y-90805000D03*
D20*
X128778000Y-80645000D03*
D16*
X165608000Y-89535000D03*
X155448000Y-81915000D03*
X163068000Y-89535000D03*
X157988000Y-81915000D03*
X160528000Y-89535000D03*
X160528000Y-81915000D03*
X157988000Y-89535000D03*
X163068000Y-81915000D03*
X155448000Y-89535000D03*
D18*
X165608000Y-81915000D03*
D17*
X147828000Y-109895000D03*
D18*
X147828000Y-112395000D03*
D17*
X140208000Y-108665000D03*
X140208000Y-113665000D03*
D16*
X157988000Y-117475000D03*
D17*
X147828000Y-117475000D03*
D14*
X173228000Y-118745000D03*
D15*
X170688000Y-118745000D03*
D16*
X146558000Y-90805000D03*
D17*
X146558000Y-80645000D03*
D16*
X141478000Y-90805000D03*
D17*
X141478000Y-80645000D03*
D16*
X135128000Y-104775000D03*
D17*
X135128000Y-94615000D03*
D16*
X140208000Y-103505000D03*
X147828000Y-95885000D03*
X140208000Y-100965000D03*
X147828000Y-98425000D03*
X140208000Y-98425000D03*
X147828000Y-100965000D03*
X140208000Y-95885000D03*
D18*
X147828000Y-103505000D03*
D21*
X138938000Y-123825000D03*
X141478000Y-123825000D03*
X144018000Y-123825000D03*
X146558000Y-123825000D03*
X149098000Y-123825000D03*
X151638000Y-123825000D03*
X154178000Y-123825000D03*
X156718000Y-123825000D03*
X161798000Y-123825000D03*
X164338000Y-123825000D03*
X166878000Y-123825000D03*
X169418000Y-123825000D03*
X171958000Y-123825000D03*
X174498000Y-123825000D03*
X129794000Y-75565000D03*
X132334000Y-75565000D03*
X134874000Y-75565000D03*
X137414000Y-75565000D03*
X139954000Y-75565000D03*
X142494000Y-75565000D03*
X145034000Y-75565000D03*
X147574000Y-75565000D03*
X150114000Y-75565000D03*
X152654000Y-75565000D03*
X156718000Y-75565000D03*
X159258000Y-75565000D03*
X161798000Y-75565000D03*
X164338000Y-75565000D03*
X166878000Y-75565000D03*
X169418000Y-75565000D03*
X171958000Y-75565000D03*
X174498000Y-75565000D03*
D22*
X124968000Y-123825000D03*
X177038000Y-118745000D03*
X126238000Y-75565000D03*
D23*
X140208000Y-108665000D02*
X144018000Y-104855000D01*
X144018000Y-99695000D02*
X140208000Y-95885000D01*
X144018000Y-104855000D02*
X144018000Y-99695000D01*
X140208000Y-92075000D02*
X141478000Y-90805000D01*
X140208000Y-95885000D02*
X140208000Y-92075000D01*
X141478000Y-86825000D02*
X135298000Y-80645000D01*
X141478000Y-90805000D02*
X141478000Y-86825000D01*
X128778000Y-80645000D02*
X135298000Y-80645000D01*
X135298000Y-80645000D02*
X135298000Y-80475000D01*
X137414000Y-78359000D02*
X137414000Y-75565000D01*
X135298000Y-80475000D02*
X137414000Y-78359000D01*
X146598000Y-108665000D02*
X147828000Y-109895000D01*
X140208000Y-108665000D02*
X146598000Y-108665000D01*
X147828000Y-109895000D02*
X151638000Y-113705000D01*
X154178000Y-123825000D02*
X151638000Y-123825000D01*
X137208000Y-108665000D02*
X139076630Y-108665000D01*
X151638000Y-113705000D02*
X151638000Y-123825000D01*
X135128000Y-122595000D02*
X147828000Y-109895000D01*
X135128000Y-123825000D02*
X135128000Y-122595000D01*
X139076630Y-108665000D02*
X140208000Y-108665000D01*
X135938000Y-108665000D02*
X139076630Y-108665000D01*
X130048000Y-114555000D02*
X135938000Y-108665000D01*
X130048000Y-116205000D02*
X130048000Y-114555000D01*
X130048000Y-113914000D02*
X123449000Y-107315000D01*
X130048000Y-116205000D02*
X130048000Y-113914000D01*
X123449000Y-107315000D02*
X118999000Y-107315000D01*
X117719000Y-107315000D02*
X118999000Y-107315000D01*
X113279000Y-111755000D02*
X117719000Y-107315000D01*
D24*
X163068000Y-81915000D02*
X160528000Y-79375000D01*
X160528000Y-79375000D02*
X154178000Y-79375000D01*
X152654000Y-77851000D02*
X152654000Y-75565000D01*
X154178000Y-79375000D02*
X152654000Y-77851000D01*
X163068000Y-84455000D02*
X160528000Y-81915000D01*
X169418000Y-76835000D02*
X168148000Y-78105000D01*
X169418000Y-75565000D02*
X169418000Y-76835000D01*
X168148000Y-78105000D02*
X166878000Y-79375000D01*
X166878000Y-79375000D02*
X166878000Y-83185000D01*
X166878000Y-83185000D02*
X165608000Y-84455000D01*
X165608000Y-84455000D02*
X163068000Y-84455000D01*
X133858000Y-103505000D02*
X135128000Y-104775000D01*
X130048000Y-103505000D02*
X133858000Y-103505000D01*
X142748000Y-81915000D02*
X155448000Y-81915000D01*
X141478000Y-80645000D02*
X142748000Y-81915000D01*
X156718000Y-80645000D02*
X157988000Y-81915000D01*
X146558000Y-80645000D02*
X156718000Y-80645000D01*
X166878000Y-90805000D02*
X166878000Y-116205000D01*
X166878000Y-116205000D02*
X169418000Y-118745000D01*
X166878000Y-90805000D02*
X165608000Y-89535000D01*
X169418000Y-118745000D02*
X170688000Y-118745000D01*
X147828000Y-100965000D02*
X147828000Y-98425000D01*
X151638000Y-89535000D02*
X155448000Y-89535000D01*
X150368000Y-90805000D02*
X151638000Y-89535000D01*
X147828000Y-98425000D02*
X150368000Y-95885000D01*
X150368000Y-95885000D02*
X150368000Y-90805000D01*
X155448000Y-89535000D02*
X157988000Y-89535000D01*
X157988000Y-89535000D02*
X160528000Y-89535000D01*
X134078000Y-90805000D02*
X135298000Y-90805000D01*
X138938000Y-98425000D02*
X140208000Y-98425000D01*
X131318000Y-95885000D02*
X133858000Y-93345000D01*
X130048000Y-95885000D02*
X131318000Y-95885000D01*
X137668000Y-97155000D02*
X138938000Y-98425000D01*
X133858000Y-93345000D02*
X136398000Y-93345000D01*
X137668000Y-94615000D02*
X137668000Y-97155000D01*
X136398000Y-93345000D02*
X137668000Y-94615000D01*
X135298000Y-92455000D02*
X134408000Y-93345000D01*
X135298000Y-90805000D02*
X135298000Y-92455000D01*
X128998000Y-95885000D02*
X130048000Y-95885000D01*
X123449000Y-97290837D02*
X124854837Y-95885000D01*
X124854837Y-95885000D02*
X128998000Y-95885000D01*
X123449000Y-99695000D02*
X123449000Y-97290837D01*
X123449000Y-103505000D02*
X123449000Y-99695000D01*
X135128000Y-95885000D02*
X140208000Y-100965000D01*
X135128000Y-94615000D02*
X135128000Y-95885000D01*
X118999000Y-103505000D02*
X118999000Y-103632000D01*
X119634000Y-102099163D02*
X119634000Y-103505000D01*
X119634000Y-99695000D02*
X119634000Y-102099163D01*
X119634000Y-96525000D02*
X119634000Y-99695000D01*
X124462999Y-105280001D02*
X125603000Y-104140000D01*
X119634000Y-103505000D02*
X121409001Y-105280001D01*
X121409001Y-105280001D02*
X124462999Y-105280001D01*
X125603000Y-104140000D02*
X125603000Y-98425000D01*
X125603000Y-98425000D02*
X126873000Y-97155000D01*
X126873000Y-97155000D02*
X133858000Y-97155000D01*
X133858000Y-97155000D02*
X135128000Y-95885000D01*
X123058000Y-96525000D02*
X119634000Y-96525000D01*
X128778000Y-90805000D02*
X123058000Y-96525000D01*
X158787999Y-118274999D02*
X157988000Y-117475000D01*
X172002999Y-119970001D02*
X160483001Y-119970001D01*
X160483001Y-119970001D02*
X158787999Y-118274999D01*
X173228000Y-118745000D02*
X172002999Y-119970001D01*
D25*
G36*
X177392785Y-73773191D02*
G01*
X177734060Y-73876228D01*
X178048822Y-74043590D01*
X178325083Y-74268903D01*
X178552317Y-74543582D01*
X178721870Y-74857164D01*
X178827286Y-75197708D01*
X178868001Y-75585082D01*
X178868000Y-76800279D01*
X178829809Y-77189784D01*
X178726771Y-77531063D01*
X178559409Y-77845825D01*
X178334097Y-78122083D01*
X178059418Y-78349317D01*
X177745838Y-78518869D01*
X177405288Y-78624287D01*
X177017928Y-78665000D01*
X170018123Y-78665000D01*
X169988032Y-78667964D01*
X169984213Y-78667937D01*
X169974347Y-78668905D01*
X169851096Y-78681860D01*
X169788074Y-78694797D01*
X169724854Y-78706857D01*
X169715364Y-78709722D01*
X169596976Y-78746369D01*
X169537660Y-78771303D01*
X169477988Y-78795412D01*
X169469236Y-78800066D01*
X169360221Y-78859010D01*
X169306877Y-78894991D01*
X169253025Y-78930231D01*
X169245342Y-78936496D01*
X169149853Y-79015492D01*
X169104537Y-79061125D01*
X169058532Y-79106176D01*
X169052219Y-79113809D01*
X169052213Y-79113815D01*
X169052209Y-79113822D01*
X168973886Y-79209853D01*
X168938296Y-79263421D01*
X168901917Y-79316550D01*
X168897203Y-79325271D01*
X168839021Y-79434694D01*
X168814505Y-79494174D01*
X168789148Y-79553337D01*
X168786216Y-79562807D01*
X168750396Y-79681448D01*
X168737903Y-79744542D01*
X168724517Y-79807521D01*
X168723481Y-79817380D01*
X168711388Y-79940719D01*
X168711388Y-79940733D01*
X168708001Y-79975123D01*
X168708000Y-115604876D01*
X168710964Y-115634968D01*
X168710937Y-115638787D01*
X168711905Y-115648653D01*
X168724860Y-115771904D01*
X168737798Y-115834932D01*
X168749857Y-115898146D01*
X168752722Y-115907636D01*
X168789369Y-116026023D01*
X168814293Y-116085314D01*
X168838412Y-116145012D01*
X168843066Y-116153764D01*
X168902010Y-116262779D01*
X168937973Y-116316096D01*
X168973230Y-116369975D01*
X168979496Y-116377657D01*
X169058492Y-116473147D01*
X169104144Y-116518482D01*
X169149176Y-116564467D01*
X169156814Y-116570786D01*
X169252853Y-116649114D01*
X169306447Y-116684722D01*
X169359550Y-116721082D01*
X169368270Y-116725797D01*
X169477694Y-116783979D01*
X169537162Y-116808490D01*
X169596337Y-116833852D01*
X169605807Y-116836784D01*
X169724447Y-116872603D01*
X169787544Y-116885097D01*
X169850521Y-116898483D01*
X169860380Y-116899519D01*
X169983719Y-116911612D01*
X169983723Y-116911612D01*
X170018123Y-116915000D01*
X175096293Y-116915000D01*
X174966406Y-117044887D01*
X174674536Y-117481702D01*
X174504427Y-117892382D01*
X174420312Y-117766495D01*
X174206505Y-117552688D01*
X173955095Y-117384701D01*
X173675743Y-117268989D01*
X173379184Y-117210000D01*
X173076816Y-117210000D01*
X172780257Y-117268989D01*
X172500905Y-117384701D01*
X172249495Y-117552688D01*
X172183056Y-117619127D01*
X172177502Y-117600820D01*
X172118537Y-117490506D01*
X172039185Y-117393815D01*
X171942494Y-117314463D01*
X171832180Y-117255498D01*
X171712482Y-117219188D01*
X171588000Y-117206928D01*
X169788000Y-117206928D01*
X169663518Y-117219188D01*
X169543820Y-117255498D01*
X169433506Y-117314463D01*
X169336815Y-117393815D01*
X169257463Y-117490506D01*
X169250791Y-117502988D01*
X167638000Y-115890199D01*
X167638000Y-90842322D01*
X167641676Y-90804999D01*
X167638000Y-90767676D01*
X167638000Y-90767667D01*
X167627003Y-90656014D01*
X167583546Y-90512753D01*
X167512974Y-90380724D01*
X167418001Y-90264999D01*
X167389003Y-90241201D01*
X167006688Y-89858886D01*
X167043000Y-89676335D01*
X167043000Y-89393665D01*
X166987853Y-89116426D01*
X166879680Y-88855273D01*
X166722637Y-88620241D01*
X166522759Y-88420363D01*
X166287727Y-88263320D01*
X166026574Y-88155147D01*
X165749335Y-88100000D01*
X165466665Y-88100000D01*
X165189426Y-88155147D01*
X164928273Y-88263320D01*
X164693241Y-88420363D01*
X164493363Y-88620241D01*
X164338000Y-88852759D01*
X164182637Y-88620241D01*
X163982759Y-88420363D01*
X163747727Y-88263320D01*
X163486574Y-88155147D01*
X163209335Y-88100000D01*
X162926665Y-88100000D01*
X162649426Y-88155147D01*
X162388273Y-88263320D01*
X162153241Y-88420363D01*
X161953363Y-88620241D01*
X161798000Y-88852759D01*
X161642637Y-88620241D01*
X161442759Y-88420363D01*
X161207727Y-88263320D01*
X160946574Y-88155147D01*
X160669335Y-88100000D01*
X160386665Y-88100000D01*
X160109426Y-88155147D01*
X159848273Y-88263320D01*
X159613241Y-88420363D01*
X159413363Y-88620241D01*
X159309957Y-88775000D01*
X159206043Y-88775000D01*
X159102637Y-88620241D01*
X158902759Y-88420363D01*
X158667727Y-88263320D01*
X158406574Y-88155147D01*
X158129335Y-88100000D01*
X157846665Y-88100000D01*
X157569426Y-88155147D01*
X157308273Y-88263320D01*
X157073241Y-88420363D01*
X156873363Y-88620241D01*
X156769957Y-88775000D01*
X156666043Y-88775000D01*
X156562637Y-88620241D01*
X156362759Y-88420363D01*
X156127727Y-88263320D01*
X155866574Y-88155147D01*
X155589335Y-88100000D01*
X155306665Y-88100000D01*
X155029426Y-88155147D01*
X154768273Y-88263320D01*
X154533241Y-88420363D01*
X154333363Y-88620241D01*
X154229957Y-88775000D01*
X151675322Y-88775000D01*
X151637999Y-88771324D01*
X151600676Y-88775000D01*
X151600667Y-88775000D01*
X151489014Y-88785997D01*
X151345753Y-88829454D01*
X151213724Y-88900026D01*
X151097999Y-88994999D01*
X151074201Y-89023997D01*
X149856998Y-90241201D01*
X149828000Y-90264999D01*
X149804202Y-90293997D01*
X149804201Y-90293998D01*
X149733026Y-90380724D01*
X149662454Y-90512754D01*
X149632180Y-90612558D01*
X149618998Y-90656014D01*
X149614947Y-90697146D01*
X149604324Y-90805000D01*
X149608001Y-90842332D01*
X149608000Y-95570197D01*
X149263000Y-95915197D01*
X149263000Y-95743665D01*
X149207853Y-95466426D01*
X149099680Y-95205273D01*
X148942637Y-94970241D01*
X148742759Y-94770363D01*
X148507727Y-94613320D01*
X148246574Y-94505147D01*
X147969335Y-94450000D01*
X147686665Y-94450000D01*
X147409426Y-94505147D01*
X147148273Y-94613320D01*
X146913241Y-94770363D01*
X146713363Y-94970241D01*
X146556320Y-95205273D01*
X146448147Y-95466426D01*
X146393000Y-95743665D01*
X146393000Y-96026335D01*
X146448147Y-96303574D01*
X146556320Y-96564727D01*
X146713363Y-96799759D01*
X146913241Y-96999637D01*
X147145759Y-97155000D01*
X146913241Y-97310363D01*
X146713363Y-97510241D01*
X146556320Y-97745273D01*
X146448147Y-98006426D01*
X146393000Y-98283665D01*
X146393000Y-98566335D01*
X146448147Y-98843574D01*
X146556320Y-99104727D01*
X146713363Y-99339759D01*
X146913241Y-99539637D01*
X147068001Y-99643044D01*
X147068000Y-99746956D01*
X146913241Y-99850363D01*
X146713363Y-100050241D01*
X146556320Y-100285273D01*
X146448147Y-100546426D01*
X146393000Y-100823665D01*
X146393000Y-101106335D01*
X146448147Y-101383574D01*
X146556320Y-101644727D01*
X146713363Y-101879759D01*
X146911961Y-102078357D01*
X146903518Y-102079188D01*
X146783820Y-102115498D01*
X146673506Y-102174463D01*
X146576815Y-102253815D01*
X146497463Y-102350506D01*
X146438498Y-102460820D01*
X146402188Y-102580518D01*
X146389928Y-102705000D01*
X146389928Y-104305000D01*
X146402188Y-104429482D01*
X146438498Y-104549180D01*
X146497463Y-104659494D01*
X146576815Y-104756185D01*
X146673506Y-104835537D01*
X146783820Y-104894502D01*
X146903518Y-104930812D01*
X147028000Y-104943072D01*
X148628000Y-104943072D01*
X148752482Y-104930812D01*
X148872180Y-104894502D01*
X148982494Y-104835537D01*
X149079185Y-104756185D01*
X149158537Y-104659494D01*
X149217502Y-104549180D01*
X149253812Y-104429482D01*
X149266072Y-104305000D01*
X149266072Y-102705000D01*
X149253812Y-102580518D01*
X149217502Y-102460820D01*
X149158537Y-102350506D01*
X149079185Y-102253815D01*
X148982494Y-102174463D01*
X148872180Y-102115498D01*
X148752482Y-102079188D01*
X148744039Y-102078357D01*
X148942637Y-101879759D01*
X149099680Y-101644727D01*
X149207853Y-101383574D01*
X149263000Y-101106335D01*
X149263000Y-100823665D01*
X149207853Y-100546426D01*
X149099680Y-100285273D01*
X148942637Y-100050241D01*
X148742759Y-99850363D01*
X148588000Y-99746957D01*
X148588000Y-99643043D01*
X148742759Y-99539637D01*
X148942637Y-99339759D01*
X149099680Y-99104727D01*
X149207853Y-98843574D01*
X149263000Y-98566335D01*
X149263000Y-98283665D01*
X149226688Y-98101114D01*
X150879009Y-96448794D01*
X150908001Y-96425001D01*
X150931795Y-96396008D01*
X150931799Y-96396004D01*
X151002973Y-96309277D01*
X151002974Y-96309276D01*
X151073546Y-96177247D01*
X151117003Y-96033986D01*
X151128000Y-95922333D01*
X151128000Y-95922324D01*
X151131676Y-95885001D01*
X151128000Y-95847678D01*
X151128000Y-91119801D01*
X151952802Y-90295000D01*
X154229957Y-90295000D01*
X154333363Y-90449759D01*
X154533241Y-90649637D01*
X154768273Y-90806680D01*
X155029426Y-90914853D01*
X155306665Y-90970000D01*
X155589335Y-90970000D01*
X155866574Y-90914853D01*
X156127727Y-90806680D01*
X156362759Y-90649637D01*
X156562637Y-90449759D01*
X156666043Y-90295000D01*
X156769957Y-90295000D01*
X156873363Y-90449759D01*
X157073241Y-90649637D01*
X157308273Y-90806680D01*
X157569426Y-90914853D01*
X157846665Y-90970000D01*
X158129335Y-90970000D01*
X158406574Y-90914853D01*
X158667727Y-90806680D01*
X158902759Y-90649637D01*
X159102637Y-90449759D01*
X159206043Y-90295000D01*
X159309957Y-90295000D01*
X159413363Y-90449759D01*
X159613241Y-90649637D01*
X159848273Y-90806680D01*
X160109426Y-90914853D01*
X160386665Y-90970000D01*
X160669335Y-90970000D01*
X160946574Y-90914853D01*
X161207727Y-90806680D01*
X161442759Y-90649637D01*
X161642637Y-90449759D01*
X161798000Y-90217241D01*
X161953363Y-90449759D01*
X162153241Y-90649637D01*
X162388273Y-90806680D01*
X162649426Y-90914853D01*
X162926665Y-90970000D01*
X163209335Y-90970000D01*
X163486574Y-90914853D01*
X163747727Y-90806680D01*
X163982759Y-90649637D01*
X164182637Y-90449759D01*
X164338000Y-90217241D01*
X164493363Y-90449759D01*
X164693241Y-90649637D01*
X164928273Y-90806680D01*
X165189426Y-90914853D01*
X165466665Y-90970000D01*
X165749335Y-90970000D01*
X165931886Y-90933688D01*
X166118000Y-91119802D01*
X166118001Y-116167667D01*
X166114324Y-116205000D01*
X166118001Y-116242333D01*
X166128998Y-116353986D01*
X166139143Y-116387431D01*
X166172454Y-116497246D01*
X166243026Y-116629276D01*
X166310362Y-116711324D01*
X166338000Y-116745001D01*
X166366998Y-116768799D01*
X168808198Y-119210001D01*
X160797803Y-119210001D01*
X159386688Y-117798887D01*
X159423000Y-117616335D01*
X159423000Y-117333665D01*
X159367853Y-117056426D01*
X159259680Y-116795273D01*
X159102637Y-116560241D01*
X158902759Y-116360363D01*
X158667727Y-116203320D01*
X158406574Y-116095147D01*
X158129335Y-116040000D01*
X157846665Y-116040000D01*
X157569426Y-116095147D01*
X157308273Y-116203320D01*
X157073241Y-116360363D01*
X156873363Y-116560241D01*
X156716320Y-116795273D01*
X156608147Y-117056426D01*
X156553000Y-117333665D01*
X156553000Y-117616335D01*
X156608147Y-117893574D01*
X156716320Y-118154727D01*
X156873363Y-118389759D01*
X157073241Y-118589637D01*
X157308273Y-118746680D01*
X157569426Y-118854853D01*
X157846665Y-118910000D01*
X158129335Y-118910000D01*
X158311887Y-118873688D01*
X159919202Y-120481004D01*
X159943000Y-120510002D01*
X160058725Y-120604975D01*
X160190754Y-120675547D01*
X160334015Y-120719004D01*
X160445668Y-120730001D01*
X160445678Y-120730001D01*
X160483001Y-120733677D01*
X160520324Y-120730001D01*
X171965677Y-120730001D01*
X172002999Y-120733677D01*
X172040321Y-120730001D01*
X172040332Y-120730001D01*
X172151985Y-120719004D01*
X172295246Y-120675547D01*
X172427275Y-120604975D01*
X172543000Y-120510002D01*
X172566803Y-120480998D01*
X172819070Y-120228731D01*
X173076816Y-120280000D01*
X173379184Y-120280000D01*
X173675743Y-120221011D01*
X173955095Y-120105299D01*
X174206505Y-119937312D01*
X174420312Y-119723505D01*
X174504427Y-119597618D01*
X174674536Y-120008298D01*
X174966406Y-120445113D01*
X175337887Y-120816594D01*
X175774702Y-121108464D01*
X176260065Y-121309508D01*
X176775323Y-121412000D01*
X177300677Y-121412000D01*
X177815935Y-121309508D01*
X178301298Y-121108464D01*
X178738113Y-120816594D01*
X178868001Y-120686706D01*
X178868000Y-123790279D01*
X178829809Y-124179784D01*
X178726771Y-124521063D01*
X178559409Y-124835825D01*
X178334097Y-125112083D01*
X178059418Y-125339317D01*
X177745838Y-125508869D01*
X177405288Y-125614287D01*
X177017928Y-125655000D01*
X126909707Y-125655000D01*
X127039594Y-125525113D01*
X127331464Y-125088298D01*
X127532508Y-124602935D01*
X127635000Y-124087677D01*
X127635000Y-123562323D01*
X127532508Y-123047065D01*
X127502658Y-122975000D01*
X128559928Y-122975000D01*
X128559928Y-124675000D01*
X128572188Y-124799482D01*
X128608498Y-124919180D01*
X128667463Y-125029494D01*
X128746815Y-125126185D01*
X128843506Y-125205537D01*
X128953820Y-125264502D01*
X129073518Y-125300812D01*
X129198000Y-125313072D01*
X130898000Y-125313072D01*
X131022482Y-125300812D01*
X131142180Y-125264502D01*
X131252494Y-125205537D01*
X131349185Y-125126185D01*
X131428537Y-125029494D01*
X131487502Y-124919180D01*
X131509513Y-124846620D01*
X131641368Y-124978475D01*
X131884589Y-125140990D01*
X132154842Y-125252932D01*
X132441740Y-125310000D01*
X132734260Y-125310000D01*
X133021158Y-125252932D01*
X133291411Y-125140990D01*
X133534632Y-124978475D01*
X133741475Y-124771632D01*
X133863195Y-124589466D01*
X133932822Y-124706355D01*
X134127731Y-124922588D01*
X134361080Y-125096641D01*
X134623901Y-125221825D01*
X134771110Y-125266476D01*
X135001000Y-125145155D01*
X135001000Y-123952000D01*
X135255000Y-123952000D01*
X135255000Y-125145155D01*
X135484890Y-125266476D01*
X135632099Y-125221825D01*
X135894920Y-125096641D01*
X136128269Y-124922588D01*
X136323178Y-124706355D01*
X136472157Y-124456252D01*
X136569481Y-124181891D01*
X136448814Y-123952000D01*
X135255000Y-123952000D01*
X135001000Y-123952000D01*
X134981000Y-123952000D01*
X134981000Y-123698000D01*
X135001000Y-123698000D01*
X135001000Y-122504845D01*
X135255000Y-122504845D01*
X135255000Y-123698000D01*
X136448814Y-123698000D01*
X136500787Y-123598982D01*
X137439400Y-123598982D01*
X137439400Y-124051019D01*
X137461084Y-124271177D01*
X137546775Y-124553664D01*
X137685931Y-124814006D01*
X137873203Y-125042197D01*
X138101395Y-125229469D01*
X138361737Y-125368625D01*
X138644224Y-125454316D01*
X138938000Y-125483251D01*
X139231777Y-125454316D01*
X139514264Y-125368625D01*
X139774606Y-125229469D01*
X140002797Y-125042197D01*
X140190069Y-124814006D01*
X140208000Y-124780459D01*
X140225931Y-124814006D01*
X140413203Y-125042197D01*
X140641395Y-125229469D01*
X140901737Y-125368625D01*
X141184224Y-125454316D01*
X141478000Y-125483251D01*
X141771777Y-125454316D01*
X142054264Y-125368625D01*
X142314606Y-125229469D01*
X142542797Y-125042197D01*
X142730069Y-124814006D01*
X142748000Y-124780459D01*
X142765931Y-124814006D01*
X142953203Y-125042197D01*
X143181395Y-125229469D01*
X143441737Y-125368625D01*
X143724224Y-125454316D01*
X144018000Y-125483251D01*
X144311777Y-125454316D01*
X144594264Y-125368625D01*
X144854606Y-125229469D01*
X145082797Y-125042197D01*
X145270069Y-124814006D01*
X145288000Y-124780459D01*
X145305931Y-124814006D01*
X145493203Y-125042197D01*
X145721395Y-125229469D01*
X145981737Y-125368625D01*
X146264224Y-125454316D01*
X146558000Y-125483251D01*
X146851777Y-125454316D01*
X147134264Y-125368625D01*
X147394606Y-125229469D01*
X147622797Y-125042197D01*
X147810069Y-124814006D01*
X147828000Y-124780459D01*
X147845931Y-124814006D01*
X148033203Y-125042197D01*
X148261395Y-125229469D01*
X148521737Y-125368625D01*
X148804224Y-125454316D01*
X149098000Y-125483251D01*
X149391777Y-125454316D01*
X149674264Y-125368625D01*
X149934606Y-125229469D01*
X150162797Y-125042197D01*
X150350069Y-124814006D01*
X150371424Y-124774053D01*
X150519514Y-124976729D01*
X150735965Y-125175733D01*
X150987081Y-125328686D01*
X151263211Y-125429709D01*
X151278974Y-125432358D01*
X151511000Y-125311217D01*
X151511000Y-123952000D01*
X151765000Y-123952000D01*
X151765000Y-125311217D01*
X151997026Y-125432358D01*
X152012789Y-125429709D01*
X152288919Y-125328686D01*
X152540035Y-125175733D01*
X152756486Y-124976729D01*
X152908000Y-124769367D01*
X153059514Y-124976729D01*
X153275965Y-125175733D01*
X153527081Y-125328686D01*
X153803211Y-125429709D01*
X153818974Y-125432358D01*
X154051000Y-125311217D01*
X154051000Y-123952000D01*
X151765000Y-123952000D01*
X151511000Y-123952000D01*
X151491000Y-123952000D01*
X151491000Y-123698000D01*
X151511000Y-123698000D01*
X151511000Y-122338783D01*
X151765000Y-122338783D01*
X151765000Y-123698000D01*
X154051000Y-123698000D01*
X154051000Y-122338783D01*
X154305000Y-122338783D01*
X154305000Y-123698000D01*
X154325000Y-123698000D01*
X154325000Y-123952000D01*
X154305000Y-123952000D01*
X154305000Y-125311217D01*
X154537026Y-125432358D01*
X154552789Y-125429709D01*
X154828919Y-125328686D01*
X155080035Y-125175733D01*
X155296486Y-124976729D01*
X155444576Y-124774053D01*
X155465931Y-124814006D01*
X155653203Y-125042197D01*
X155881395Y-125229469D01*
X156141737Y-125368625D01*
X156424224Y-125454316D01*
X156718000Y-125483251D01*
X157011777Y-125454316D01*
X157294264Y-125368625D01*
X157554606Y-125229469D01*
X157782797Y-125042197D01*
X157970069Y-124814006D01*
X158109225Y-124553663D01*
X158194916Y-124271176D01*
X158216600Y-124051018D01*
X158216600Y-123598982D01*
X160299400Y-123598982D01*
X160299400Y-124051019D01*
X160321084Y-124271177D01*
X160406775Y-124553664D01*
X160545931Y-124814006D01*
X160733203Y-125042197D01*
X160961395Y-125229469D01*
X161221737Y-125368625D01*
X161504224Y-125454316D01*
X161798000Y-125483251D01*
X162091777Y-125454316D01*
X162374264Y-125368625D01*
X162634606Y-125229469D01*
X162862797Y-125042197D01*
X163050069Y-124814006D01*
X163068000Y-124780459D01*
X163085931Y-124814006D01*
X163273203Y-125042197D01*
X163501395Y-125229469D01*
X163761737Y-125368625D01*
X164044224Y-125454316D01*
X164338000Y-125483251D01*
X164631777Y-125454316D01*
X164914264Y-125368625D01*
X165174606Y-125229469D01*
X165402797Y-125042197D01*
X165590069Y-124814006D01*
X165608000Y-124780459D01*
X165625931Y-124814006D01*
X165813203Y-125042197D01*
X166041395Y-125229469D01*
X166301737Y-125368625D01*
X166584224Y-125454316D01*
X166878000Y-125483251D01*
X167171777Y-125454316D01*
X167454264Y-125368625D01*
X167714606Y-125229469D01*
X167942797Y-125042197D01*
X168130069Y-124814006D01*
X168148000Y-124780459D01*
X168165931Y-124814006D01*
X168353203Y-125042197D01*
X168581395Y-125229469D01*
X168841737Y-125368625D01*
X169124224Y-125454316D01*
X169418000Y-125483251D01*
X169711777Y-125454316D01*
X169994264Y-125368625D01*
X170254606Y-125229469D01*
X170482797Y-125042197D01*
X170670069Y-124814006D01*
X170688000Y-124780459D01*
X170705931Y-124814006D01*
X170893203Y-125042197D01*
X171121395Y-125229469D01*
X171381737Y-125368625D01*
X171664224Y-125454316D01*
X171958000Y-125483251D01*
X172251777Y-125454316D01*
X172534264Y-125368625D01*
X172794606Y-125229469D01*
X173022797Y-125042197D01*
X173210069Y-124814006D01*
X173228000Y-124780459D01*
X173245931Y-124814006D01*
X173433203Y-125042197D01*
X173661395Y-125229469D01*
X173921737Y-125368625D01*
X174204224Y-125454316D01*
X174498000Y-125483251D01*
X174791777Y-125454316D01*
X175074264Y-125368625D01*
X175334606Y-125229469D01*
X175562797Y-125042197D01*
X175750069Y-124814006D01*
X175889225Y-124553663D01*
X175974916Y-124271176D01*
X175996600Y-124051018D01*
X175996600Y-123598981D01*
X175974916Y-123378823D01*
X175889225Y-123096336D01*
X175750069Y-122835994D01*
X175562797Y-122607803D01*
X175334605Y-122420531D01*
X175074263Y-122281375D01*
X174791776Y-122195684D01*
X174498000Y-122166749D01*
X174204223Y-122195684D01*
X173921736Y-122281375D01*
X173661394Y-122420531D01*
X173433203Y-122607803D01*
X173245931Y-122835995D01*
X173228000Y-122869541D01*
X173210069Y-122835994D01*
X173022797Y-122607803D01*
X172794605Y-122420531D01*
X172534263Y-122281375D01*
X172251776Y-122195684D01*
X171958000Y-122166749D01*
X171664223Y-122195684D01*
X171381736Y-122281375D01*
X171121394Y-122420531D01*
X170893203Y-122607803D01*
X170705931Y-122835995D01*
X170688000Y-122869541D01*
X170670069Y-122835994D01*
X170482797Y-122607803D01*
X170254605Y-122420531D01*
X169994263Y-122281375D01*
X169711776Y-122195684D01*
X169418000Y-122166749D01*
X169124223Y-122195684D01*
X168841736Y-122281375D01*
X168581394Y-122420531D01*
X168353203Y-122607803D01*
X168165931Y-122835995D01*
X168148000Y-122869541D01*
X168130069Y-122835994D01*
X167942797Y-122607803D01*
X167714605Y-122420531D01*
X167454263Y-122281375D01*
X167171776Y-122195684D01*
X166878000Y-122166749D01*
X166584223Y-122195684D01*
X166301736Y-122281375D01*
X166041394Y-122420531D01*
X165813203Y-122607803D01*
X165625931Y-122835995D01*
X165608000Y-122869541D01*
X165590069Y-122835994D01*
X165402797Y-122607803D01*
X165174605Y-122420531D01*
X164914263Y-122281375D01*
X164631776Y-122195684D01*
X164338000Y-122166749D01*
X164044223Y-122195684D01*
X163761736Y-122281375D01*
X163501394Y-122420531D01*
X163273203Y-122607803D01*
X163085931Y-122835995D01*
X163068000Y-122869541D01*
X163050069Y-122835994D01*
X162862797Y-122607803D01*
X162634605Y-122420531D01*
X162374263Y-122281375D01*
X162091776Y-122195684D01*
X161798000Y-122166749D01*
X161504223Y-122195684D01*
X161221736Y-122281375D01*
X160961394Y-122420531D01*
X160733203Y-122607803D01*
X160545931Y-122835995D01*
X160406775Y-123096337D01*
X160321084Y-123378824D01*
X160299400Y-123598982D01*
X158216600Y-123598982D01*
X158216600Y-123598981D01*
X158194916Y-123378823D01*
X158109225Y-123096336D01*
X157970069Y-122835994D01*
X157782797Y-122607803D01*
X157554605Y-122420531D01*
X157294263Y-122281375D01*
X157011776Y-122195684D01*
X156718000Y-122166749D01*
X156424223Y-122195684D01*
X156141736Y-122281375D01*
X155881394Y-122420531D01*
X155653203Y-122607803D01*
X155465931Y-122835995D01*
X155444576Y-122875947D01*
X155296486Y-122673271D01*
X155080035Y-122474267D01*
X154828919Y-122321314D01*
X154552789Y-122220291D01*
X154537026Y-122217642D01*
X154305000Y-122338783D01*
X154051000Y-122338783D01*
X153818974Y-122217642D01*
X153803211Y-122220291D01*
X153527081Y-122321314D01*
X153275965Y-122474267D01*
X153059514Y-122673271D01*
X152908000Y-122880633D01*
X152756486Y-122673271D01*
X152540035Y-122474267D01*
X152288919Y-122321314D01*
X152012789Y-122220291D01*
X151997026Y-122217642D01*
X151765000Y-122338783D01*
X151511000Y-122338783D01*
X151278974Y-122217642D01*
X151263211Y-122220291D01*
X150987081Y-122321314D01*
X150735965Y-122474267D01*
X150519514Y-122673271D01*
X150371424Y-122875947D01*
X150350069Y-122835994D01*
X150162797Y-122607803D01*
X149934605Y-122420531D01*
X149674263Y-122281375D01*
X149391776Y-122195684D01*
X149098000Y-122166749D01*
X148804223Y-122195684D01*
X148521736Y-122281375D01*
X148261394Y-122420531D01*
X148033203Y-122607803D01*
X147845931Y-122835995D01*
X147828000Y-122869541D01*
X147810069Y-122835994D01*
X147622797Y-122607803D01*
X147394605Y-122420531D01*
X147134263Y-122281375D01*
X146851776Y-122195684D01*
X146558000Y-122166749D01*
X146264223Y-122195684D01*
X145981736Y-122281375D01*
X145721394Y-122420531D01*
X145493203Y-122607803D01*
X145305931Y-122835995D01*
X145288000Y-122869541D01*
X145270069Y-122835994D01*
X145082797Y-122607803D01*
X144854605Y-122420531D01*
X144594263Y-122281375D01*
X144311776Y-122195684D01*
X144018000Y-122166749D01*
X143724223Y-122195684D01*
X143441736Y-122281375D01*
X143181394Y-122420531D01*
X142953203Y-122607803D01*
X142765931Y-122835995D01*
X142748000Y-122869541D01*
X142730069Y-122835994D01*
X142542797Y-122607803D01*
X142314605Y-122420531D01*
X142054263Y-122281375D01*
X141771776Y-122195684D01*
X141478000Y-122166749D01*
X141184223Y-122195684D01*
X140901736Y-122281375D01*
X140641394Y-122420531D01*
X140413203Y-122607803D01*
X140225931Y-122835995D01*
X140208000Y-122869541D01*
X140190069Y-122835994D01*
X140002797Y-122607803D01*
X139774605Y-122420531D01*
X139514263Y-122281375D01*
X139231776Y-122195684D01*
X138938000Y-122166749D01*
X138644223Y-122195684D01*
X138361736Y-122281375D01*
X138101394Y-122420531D01*
X137873203Y-122607803D01*
X137685931Y-122835995D01*
X137546775Y-123096337D01*
X137461084Y-123378824D01*
X137439400Y-123598982D01*
X136500787Y-123598982D01*
X136569481Y-123468109D01*
X136472157Y-123193748D01*
X136323178Y-122943645D01*
X136128269Y-122727412D01*
X135894920Y-122553359D01*
X135632099Y-122428175D01*
X135484890Y-122383524D01*
X135255000Y-122504845D01*
X135001000Y-122504845D01*
X134771110Y-122383524D01*
X134623901Y-122428175D01*
X134361080Y-122553359D01*
X134127731Y-122727412D01*
X133932822Y-122943645D01*
X133863195Y-123060534D01*
X133741475Y-122878368D01*
X133534632Y-122671525D01*
X133291411Y-122509010D01*
X133021158Y-122397068D01*
X132734260Y-122340000D01*
X132441740Y-122340000D01*
X132154842Y-122397068D01*
X131884589Y-122509010D01*
X131641368Y-122671525D01*
X131509513Y-122803380D01*
X131487502Y-122730820D01*
X131428537Y-122620506D01*
X131349185Y-122523815D01*
X131252494Y-122444463D01*
X131142180Y-122385498D01*
X131022482Y-122349188D01*
X130898000Y-122336928D01*
X129198000Y-122336928D01*
X129073518Y-122349188D01*
X128953820Y-122385498D01*
X128843506Y-122444463D01*
X128746815Y-122523815D01*
X128667463Y-122620506D01*
X128608498Y-122730820D01*
X128572188Y-122850518D01*
X128559928Y-122975000D01*
X127502658Y-122975000D01*
X127331464Y-122561702D01*
X127039594Y-122124887D01*
X126668113Y-121753406D01*
X126231298Y-121461536D01*
X125745935Y-121260492D01*
X125230677Y-121158000D01*
X124705323Y-121158000D01*
X124190065Y-121260492D01*
X123704702Y-121461536D01*
X123267887Y-121753406D01*
X123138000Y-121883293D01*
X123138000Y-117440123D01*
X123135036Y-117410032D01*
X123135063Y-117406213D01*
X123134095Y-117396347D01*
X123121140Y-117273096D01*
X123108203Y-117210074D01*
X123096143Y-117146854D01*
X123093278Y-117137364D01*
X123083260Y-117105000D01*
X128509928Y-117105000D01*
X128522188Y-117229482D01*
X128558498Y-117349180D01*
X128617463Y-117459494D01*
X128696815Y-117556185D01*
X128793506Y-117635537D01*
X128903820Y-117694502D01*
X128922127Y-117700056D01*
X128855688Y-117766495D01*
X128687701Y-118017905D01*
X128571989Y-118297257D01*
X128513000Y-118593816D01*
X128513000Y-118896184D01*
X128571989Y-119192743D01*
X128687701Y-119472095D01*
X128855688Y-119723505D01*
X129069495Y-119937312D01*
X129320905Y-120105299D01*
X129600257Y-120221011D01*
X129896816Y-120280000D01*
X130199184Y-120280000D01*
X130495743Y-120221011D01*
X130775095Y-120105299D01*
X131026505Y-119937312D01*
X131240312Y-119723505D01*
X131408299Y-119472095D01*
X131524011Y-119192743D01*
X131583000Y-118896184D01*
X131583000Y-118593816D01*
X131524011Y-118297257D01*
X131408299Y-118017905D01*
X131240312Y-117766495D01*
X131173873Y-117700056D01*
X131192180Y-117694502D01*
X131302494Y-117635537D01*
X131399185Y-117556185D01*
X131478537Y-117459494D01*
X131537502Y-117349180D01*
X131542208Y-117333665D01*
X133693000Y-117333665D01*
X133693000Y-117616335D01*
X133748147Y-117893574D01*
X133856320Y-118154727D01*
X134013363Y-118389759D01*
X134213241Y-118589637D01*
X134448273Y-118746680D01*
X134709426Y-118854853D01*
X134986665Y-118910000D01*
X135269335Y-118910000D01*
X135546574Y-118854853D01*
X135807727Y-118746680D01*
X136042759Y-118589637D01*
X136242637Y-118389759D01*
X136399680Y-118154727D01*
X136507853Y-117893574D01*
X136563000Y-117616335D01*
X136563000Y-117333665D01*
X143853000Y-117333665D01*
X143853000Y-117616335D01*
X143908147Y-117893574D01*
X144016320Y-118154727D01*
X144173363Y-118389759D01*
X144373241Y-118589637D01*
X144608273Y-118746680D01*
X144869426Y-118854853D01*
X145146665Y-118910000D01*
X145429335Y-118910000D01*
X145706574Y-118854853D01*
X145967727Y-118746680D01*
X146202759Y-118589637D01*
X146402637Y-118389759D01*
X146558000Y-118157241D01*
X146713363Y-118389759D01*
X146913241Y-118589637D01*
X147148273Y-118746680D01*
X147409426Y-118854853D01*
X147686665Y-118910000D01*
X147969335Y-118910000D01*
X148246574Y-118854853D01*
X148507727Y-118746680D01*
X148742759Y-118589637D01*
X148942637Y-118389759D01*
X149099680Y-118154727D01*
X149207853Y-117893574D01*
X149263000Y-117616335D01*
X149263000Y-117333665D01*
X149207853Y-117056426D01*
X149099680Y-116795273D01*
X148942637Y-116560241D01*
X148742759Y-116360363D01*
X148507727Y-116203320D01*
X148246574Y-116095147D01*
X147969335Y-116040000D01*
X147686665Y-116040000D01*
X147409426Y-116095147D01*
X147148273Y-116203320D01*
X146913241Y-116360363D01*
X146713363Y-116560241D01*
X146558000Y-116792759D01*
X146402637Y-116560241D01*
X146202759Y-116360363D01*
X145967727Y-116203320D01*
X145706574Y-116095147D01*
X145429335Y-116040000D01*
X145146665Y-116040000D01*
X144869426Y-116095147D01*
X144608273Y-116203320D01*
X144373241Y-116360363D01*
X144173363Y-116560241D01*
X144016320Y-116795273D01*
X143908147Y-117056426D01*
X143853000Y-117333665D01*
X136563000Y-117333665D01*
X136507853Y-117056426D01*
X136399680Y-116795273D01*
X136242637Y-116560241D01*
X136042759Y-116360363D01*
X135807727Y-116203320D01*
X135546574Y-116095147D01*
X135269335Y-116040000D01*
X134986665Y-116040000D01*
X134709426Y-116095147D01*
X134448273Y-116203320D01*
X134213241Y-116360363D01*
X134013363Y-116560241D01*
X133856320Y-116795273D01*
X133748147Y-117056426D01*
X133693000Y-117333665D01*
X131542208Y-117333665D01*
X131573812Y-117229482D01*
X131586072Y-117105000D01*
X131583000Y-116490750D01*
X131424250Y-116332000D01*
X130175000Y-116332000D01*
X130175000Y-116352000D01*
X129921000Y-116352000D01*
X129921000Y-116332000D01*
X128671750Y-116332000D01*
X128513000Y-116490750D01*
X128509928Y-117105000D01*
X123083260Y-117105000D01*
X123056631Y-117018976D01*
X123031697Y-116959660D01*
X123007588Y-116899988D01*
X123002934Y-116891236D01*
X122943990Y-116782221D01*
X122908009Y-116728877D01*
X122872769Y-116675025D01*
X122866504Y-116667342D01*
X122787508Y-116571853D01*
X122741875Y-116526537D01*
X122696824Y-116480532D01*
X122689191Y-116474219D01*
X122689185Y-116474213D01*
X122689178Y-116474209D01*
X122593147Y-116395886D01*
X122539579Y-116360296D01*
X122486450Y-116323917D01*
X122477729Y-116319203D01*
X122368306Y-116261021D01*
X122308826Y-116236505D01*
X122249663Y-116211148D01*
X122240193Y-116208216D01*
X122121552Y-116172396D01*
X122058458Y-116159903D01*
X121995479Y-116146517D01*
X121985620Y-116145481D01*
X121862281Y-116133388D01*
X121862277Y-116133388D01*
X121827877Y-116130000D01*
X106628000Y-116130000D01*
X106628000Y-115305000D01*
X128509928Y-115305000D01*
X128513000Y-115919250D01*
X128671750Y-116078000D01*
X129921000Y-116078000D01*
X129921000Y-114828750D01*
X130175000Y-114828750D01*
X130175000Y-116078000D01*
X131424250Y-116078000D01*
X131583000Y-115919250D01*
X131586072Y-115305000D01*
X131573812Y-115180518D01*
X131537502Y-115060820D01*
X131478537Y-114950506D01*
X131399185Y-114853815D01*
X131302494Y-114774463D01*
X131192180Y-114715498D01*
X131072482Y-114679188D01*
X130948000Y-114666928D01*
X130333750Y-114670000D01*
X130175000Y-114828750D01*
X129921000Y-114828750D01*
X129762250Y-114670000D01*
X129148000Y-114666928D01*
X129023518Y-114679188D01*
X128903820Y-114715498D01*
X128793506Y-114774463D01*
X128696815Y-114853815D01*
X128617463Y-114950506D01*
X128558498Y-115060820D01*
X128522188Y-115180518D01*
X128509928Y-115305000D01*
X106628000Y-115305000D01*
X106628000Y-113211052D01*
X112002553Y-113211052D01*
X112152548Y-113521493D01*
X112518819Y-113707311D01*
X112914303Y-113818101D01*
X113323801Y-113849609D01*
X113731577Y-113800621D01*
X114121962Y-113673021D01*
X114401388Y-113523665D01*
X138773000Y-113523665D01*
X138773000Y-113806335D01*
X138828147Y-114083574D01*
X138936320Y-114344727D01*
X139093363Y-114579759D01*
X139293241Y-114779637D01*
X139528273Y-114936680D01*
X139789426Y-115044853D01*
X140066665Y-115100000D01*
X140349335Y-115100000D01*
X140626574Y-115044853D01*
X140887727Y-114936680D01*
X141122759Y-114779637D01*
X141322637Y-114579759D01*
X141479680Y-114344727D01*
X141587853Y-114083574D01*
X141643000Y-113806335D01*
X141643000Y-113523665D01*
X141587853Y-113246426D01*
X141479680Y-112985273D01*
X141322637Y-112750241D01*
X141122759Y-112550363D01*
X140887727Y-112393320D01*
X140626574Y-112285147D01*
X140349335Y-112230000D01*
X140066665Y-112230000D01*
X139789426Y-112285147D01*
X139528273Y-112393320D01*
X139293241Y-112550363D01*
X139093363Y-112750241D01*
X138936320Y-112985273D01*
X138828147Y-113246426D01*
X138773000Y-113523665D01*
X114401388Y-113523665D01*
X114405452Y-113521493D01*
X114555447Y-113211052D01*
X113279000Y-111934605D01*
X112002553Y-113211052D01*
X106628000Y-113211052D01*
X106628000Y-111799801D01*
X111184391Y-111799801D01*
X111233379Y-112207577D01*
X111360979Y-112597962D01*
X111512507Y-112881452D01*
X111822948Y-113031447D01*
X113099395Y-111755000D01*
X113458605Y-111755000D01*
X114735052Y-113031447D01*
X115045493Y-112881452D01*
X115231311Y-112515181D01*
X115342101Y-112119697D01*
X115373609Y-111710199D01*
X115359770Y-111595000D01*
X146389928Y-111595000D01*
X146389928Y-113195000D01*
X146402188Y-113319482D01*
X146438498Y-113439180D01*
X146497463Y-113549494D01*
X146576815Y-113646185D01*
X146673506Y-113725537D01*
X146783820Y-113784502D01*
X146903518Y-113820812D01*
X147028000Y-113833072D01*
X148628000Y-113833072D01*
X148752482Y-113820812D01*
X148872180Y-113784502D01*
X148982494Y-113725537D01*
X149079185Y-113646185D01*
X149158537Y-113549494D01*
X149217502Y-113439180D01*
X149253812Y-113319482D01*
X149266072Y-113195000D01*
X149266072Y-111595000D01*
X149253812Y-111470518D01*
X149217502Y-111350820D01*
X149158537Y-111240506D01*
X149079185Y-111143815D01*
X148982494Y-111064463D01*
X148872180Y-111005498D01*
X148752482Y-110969188D01*
X148628000Y-110956928D01*
X148620785Y-110956928D01*
X148641097Y-110887702D01*
X147828000Y-110074605D01*
X147014903Y-110887702D01*
X147035215Y-110956928D01*
X147028000Y-110956928D01*
X146903518Y-110969188D01*
X146783820Y-111005498D01*
X146673506Y-111064463D01*
X146576815Y-111143815D01*
X146497463Y-111240506D01*
X146438498Y-111350820D01*
X146402188Y-111470518D01*
X146389928Y-111595000D01*
X115359770Y-111595000D01*
X115324621Y-111302423D01*
X115197021Y-110912038D01*
X115045493Y-110628548D01*
X114735052Y-110478553D01*
X113458605Y-111755000D01*
X113099395Y-111755000D01*
X111822948Y-110478553D01*
X111512507Y-110628548D01*
X111326689Y-110994819D01*
X111215899Y-111390303D01*
X111184391Y-111799801D01*
X106628000Y-111799801D01*
X106628000Y-110298948D01*
X112002553Y-110298948D01*
X113279000Y-111575395D01*
X114555447Y-110298948D01*
X114405452Y-109988507D01*
X114039181Y-109802689D01*
X113643697Y-109691899D01*
X113234199Y-109660391D01*
X112826423Y-109709379D01*
X112436038Y-109836979D01*
X112152548Y-109988507D01*
X112002553Y-110298948D01*
X106628000Y-110298948D01*
X106628000Y-108949023D01*
X117544582Y-108949023D01*
X117724648Y-109285060D01*
X118133474Y-109495820D01*
X118575562Y-109622772D01*
X119033922Y-109661037D01*
X119490940Y-109609146D01*
X119929053Y-109469092D01*
X120273352Y-109285060D01*
X120453418Y-108949023D01*
X121994582Y-108949023D01*
X122174648Y-109285060D01*
X122583474Y-109495820D01*
X123025562Y-109622772D01*
X123483922Y-109661037D01*
X123513294Y-109657702D01*
X139394903Y-109657702D01*
X139466486Y-109901671D01*
X139721996Y-110022571D01*
X139996184Y-110091300D01*
X140278512Y-110105217D01*
X140558130Y-110063787D01*
X140824292Y-109968603D01*
X140830074Y-109965512D01*
X146387783Y-109965512D01*
X146429213Y-110245130D01*
X146524397Y-110511292D01*
X146591329Y-110636514D01*
X146835298Y-110708097D01*
X147648395Y-109895000D01*
X148007605Y-109895000D01*
X148820702Y-110708097D01*
X149064671Y-110636514D01*
X149185571Y-110381004D01*
X149254300Y-110106816D01*
X149268217Y-109824488D01*
X149226787Y-109544870D01*
X149131603Y-109278708D01*
X149064671Y-109153486D01*
X148820702Y-109081903D01*
X148007605Y-109895000D01*
X147648395Y-109895000D01*
X146835298Y-109081903D01*
X146591329Y-109153486D01*
X146470429Y-109408996D01*
X146401700Y-109683184D01*
X146387783Y-109965512D01*
X140830074Y-109965512D01*
X140949514Y-109901671D01*
X141021097Y-109657702D01*
X140208000Y-108844605D01*
X139394903Y-109657702D01*
X123513294Y-109657702D01*
X123940940Y-109609146D01*
X124379053Y-109469092D01*
X124723352Y-109285060D01*
X124903418Y-108949023D01*
X123449000Y-107494605D01*
X121994582Y-108949023D01*
X120453418Y-108949023D01*
X118999000Y-107494605D01*
X117544582Y-108949023D01*
X106628000Y-108949023D01*
X106628000Y-107173665D01*
X108674000Y-107173665D01*
X108674000Y-107456335D01*
X108729147Y-107733574D01*
X108837320Y-107994727D01*
X108994363Y-108229759D01*
X109194241Y-108429637D01*
X109429273Y-108586680D01*
X109690426Y-108694853D01*
X109967665Y-108750000D01*
X110250335Y-108750000D01*
X110527574Y-108694853D01*
X110788727Y-108586680D01*
X111023759Y-108429637D01*
X111223637Y-108229759D01*
X111380680Y-107994727D01*
X111488853Y-107733574D01*
X111544000Y-107456335D01*
X111544000Y-107349922D01*
X116652963Y-107349922D01*
X116704854Y-107806940D01*
X116844908Y-108245053D01*
X117028940Y-108589352D01*
X117364977Y-108769418D01*
X118819395Y-107315000D01*
X117364977Y-105860582D01*
X117028940Y-106040648D01*
X116818180Y-106449474D01*
X116691228Y-106891562D01*
X116652963Y-107349922D01*
X111544000Y-107349922D01*
X111544000Y-107173665D01*
X111488853Y-106896426D01*
X111380680Y-106635273D01*
X111223637Y-106400241D01*
X111023759Y-106200363D01*
X110788727Y-106043320D01*
X110527574Y-105935147D01*
X110250335Y-105880000D01*
X109967665Y-105880000D01*
X109690426Y-105935147D01*
X109429273Y-106043320D01*
X109194241Y-106200363D01*
X108994363Y-106400241D01*
X108837320Y-106635273D01*
X108729147Y-106896426D01*
X108674000Y-107173665D01*
X106628000Y-107173665D01*
X106628000Y-99553665D01*
X113754000Y-99553665D01*
X113754000Y-99836335D01*
X113809147Y-100113574D01*
X113917320Y-100374727D01*
X114074363Y-100609759D01*
X114274241Y-100809637D01*
X114509273Y-100966680D01*
X114770426Y-101074853D01*
X115047665Y-101130000D01*
X115330335Y-101130000D01*
X115607574Y-101074853D01*
X115868727Y-100966680D01*
X116103759Y-100809637D01*
X116303637Y-100609759D01*
X116460680Y-100374727D01*
X116568853Y-100113574D01*
X116624000Y-99836335D01*
X116624000Y-99553665D01*
X116606368Y-99465023D01*
X117299000Y-99465023D01*
X117299000Y-99924977D01*
X117388733Y-100376094D01*
X117564750Y-100801037D01*
X117820287Y-101183476D01*
X118145524Y-101508713D01*
X118507139Y-101750336D01*
X118304890Y-101885475D01*
X118014475Y-102175890D01*
X117786297Y-102517382D01*
X117629126Y-102896828D01*
X117549000Y-103299645D01*
X117549000Y-103710355D01*
X117629126Y-104113172D01*
X117786297Y-104492618D01*
X118014475Y-104834110D01*
X118275305Y-105094940D01*
X118068947Y-105160908D01*
X117724648Y-105344940D01*
X117544582Y-105680977D01*
X118999000Y-107135395D01*
X120453418Y-105680977D01*
X120340015Y-105469346D01*
X120469790Y-105415592D01*
X120845206Y-105791009D01*
X120869000Y-105820002D01*
X120897993Y-105843796D01*
X120897997Y-105843800D01*
X120968686Y-105901812D01*
X120984725Y-105914975D01*
X121116754Y-105985547D01*
X121260015Y-106029004D01*
X121371668Y-106040001D01*
X121371677Y-106040001D01*
X121409000Y-106043677D01*
X121446323Y-106040001D01*
X121480147Y-106040001D01*
X121478940Y-106040648D01*
X121268180Y-106449474D01*
X121223480Y-106605133D01*
X121153092Y-106384947D01*
X120969060Y-106040648D01*
X120633023Y-105860582D01*
X119178605Y-107315000D01*
X120633023Y-108769418D01*
X120969060Y-108589352D01*
X121179820Y-108180526D01*
X121224520Y-108024867D01*
X121294908Y-108245053D01*
X121478940Y-108589352D01*
X121814977Y-108769418D01*
X123269395Y-107315000D01*
X123255253Y-107300858D01*
X123434858Y-107121253D01*
X123449000Y-107135395D01*
X123463143Y-107121253D01*
X123642748Y-107300858D01*
X123628605Y-107315000D01*
X125083023Y-108769418D01*
X125146297Y-108735512D01*
X138767783Y-108735512D01*
X138809213Y-109015130D01*
X138904397Y-109281292D01*
X138971329Y-109406514D01*
X139215298Y-109478097D01*
X140028395Y-108665000D01*
X140387605Y-108665000D01*
X141200702Y-109478097D01*
X141444671Y-109406514D01*
X141565571Y-109151004D01*
X141627912Y-108902298D01*
X147014903Y-108902298D01*
X147828000Y-109715395D01*
X148641097Y-108902298D01*
X148569514Y-108658329D01*
X148314004Y-108537429D01*
X148039816Y-108468700D01*
X147757488Y-108454783D01*
X147477870Y-108496213D01*
X147211708Y-108591397D01*
X147086486Y-108658329D01*
X147014903Y-108902298D01*
X141627912Y-108902298D01*
X141634300Y-108876816D01*
X141648217Y-108594488D01*
X141606787Y-108314870D01*
X141511603Y-108048708D01*
X141444671Y-107923486D01*
X141200702Y-107851903D01*
X140387605Y-108665000D01*
X140028395Y-108665000D01*
X139215298Y-107851903D01*
X138971329Y-107923486D01*
X138850429Y-108178996D01*
X138781700Y-108453184D01*
X138767783Y-108735512D01*
X125146297Y-108735512D01*
X125419060Y-108589352D01*
X125629820Y-108180526D01*
X125756772Y-107738438D01*
X125762293Y-107672298D01*
X139394903Y-107672298D01*
X140208000Y-108485395D01*
X141021097Y-107672298D01*
X140949514Y-107428329D01*
X140694004Y-107307429D01*
X140419816Y-107238700D01*
X140137488Y-107224783D01*
X139857870Y-107266213D01*
X139591708Y-107361397D01*
X139466486Y-107428329D01*
X139394903Y-107672298D01*
X125762293Y-107672298D01*
X125795037Y-107280078D01*
X125743146Y-106823060D01*
X125603092Y-106384947D01*
X125419060Y-106040648D01*
X125083025Y-105860583D01*
X125197453Y-105746155D01*
X125134550Y-105683252D01*
X126114004Y-104703798D01*
X126143001Y-104680001D01*
X126187308Y-104626013D01*
X126237974Y-104564277D01*
X126308546Y-104432247D01*
X126324090Y-104381003D01*
X126352003Y-104288986D01*
X126363000Y-104177333D01*
X126363000Y-104177323D01*
X126366676Y-104140000D01*
X126363000Y-104102677D01*
X126363000Y-103363665D01*
X128613000Y-103363665D01*
X128613000Y-103646335D01*
X128668147Y-103923574D01*
X128776320Y-104184727D01*
X128933363Y-104419759D01*
X129133241Y-104619637D01*
X129368273Y-104776680D01*
X129629426Y-104884853D01*
X129906665Y-104940000D01*
X130189335Y-104940000D01*
X130466574Y-104884853D01*
X130727727Y-104776680D01*
X130962759Y-104619637D01*
X131162637Y-104419759D01*
X131266043Y-104265000D01*
X133543199Y-104265000D01*
X133729312Y-104451114D01*
X133693000Y-104633665D01*
X133693000Y-104916335D01*
X133748147Y-105193574D01*
X133856320Y-105454727D01*
X134013363Y-105689759D01*
X134213241Y-105889637D01*
X134448273Y-106046680D01*
X134709426Y-106154853D01*
X134986665Y-106210000D01*
X135269335Y-106210000D01*
X135546574Y-106154853D01*
X135807727Y-106046680D01*
X136042759Y-105889637D01*
X136242637Y-105689759D01*
X136399680Y-105454727D01*
X136507853Y-105193574D01*
X136563000Y-104916335D01*
X136563000Y-104633665D01*
X136507853Y-104356426D01*
X136399680Y-104095273D01*
X136242637Y-103860241D01*
X136042759Y-103660363D01*
X135807727Y-103503320D01*
X135546574Y-103395147D01*
X135269335Y-103340000D01*
X134986665Y-103340000D01*
X134804114Y-103376312D01*
X134421804Y-102994003D01*
X134398001Y-102964999D01*
X134282276Y-102870026D01*
X134150247Y-102799454D01*
X134006986Y-102755997D01*
X133895333Y-102745000D01*
X133895322Y-102745000D01*
X133858000Y-102741324D01*
X133820678Y-102745000D01*
X131266043Y-102745000D01*
X131162637Y-102590241D01*
X130962759Y-102390363D01*
X130727727Y-102233320D01*
X130466574Y-102125147D01*
X130189335Y-102070000D01*
X129906665Y-102070000D01*
X129629426Y-102125147D01*
X129368273Y-102233320D01*
X129133241Y-102390363D01*
X128933363Y-102590241D01*
X128776320Y-102825273D01*
X128668147Y-103086426D01*
X128613000Y-103363665D01*
X126363000Y-103363665D01*
X126363000Y-98739801D01*
X127187802Y-97915000D01*
X133820678Y-97915000D01*
X133858000Y-97918676D01*
X133895322Y-97915000D01*
X133895333Y-97915000D01*
X134006986Y-97904003D01*
X134150247Y-97860546D01*
X134282276Y-97789974D01*
X134398001Y-97695001D01*
X134421804Y-97665997D01*
X135128000Y-96959801D01*
X138809312Y-100641114D01*
X138773000Y-100823665D01*
X138773000Y-101106335D01*
X138828147Y-101383574D01*
X138936320Y-101644727D01*
X139093363Y-101879759D01*
X139293241Y-102079637D01*
X139525759Y-102235000D01*
X139293241Y-102390363D01*
X139093363Y-102590241D01*
X138936320Y-102825273D01*
X138828147Y-103086426D01*
X138773000Y-103363665D01*
X138773000Y-103646335D01*
X138828147Y-103923574D01*
X138936320Y-104184727D01*
X139093363Y-104419759D01*
X139293241Y-104619637D01*
X139528273Y-104776680D01*
X139789426Y-104884853D01*
X140066665Y-104940000D01*
X140349335Y-104940000D01*
X140626574Y-104884853D01*
X140887727Y-104776680D01*
X141122759Y-104619637D01*
X141322637Y-104419759D01*
X141479680Y-104184727D01*
X141587853Y-103923574D01*
X141643000Y-103646335D01*
X141643000Y-103363665D01*
X141587853Y-103086426D01*
X141479680Y-102825273D01*
X141322637Y-102590241D01*
X141122759Y-102390363D01*
X140890241Y-102235000D01*
X141122759Y-102079637D01*
X141322637Y-101879759D01*
X141479680Y-101644727D01*
X141587853Y-101383574D01*
X141643000Y-101106335D01*
X141643000Y-100823665D01*
X141587853Y-100546426D01*
X141479680Y-100285273D01*
X141322637Y-100050241D01*
X141122759Y-99850363D01*
X140890241Y-99695000D01*
X141122759Y-99539637D01*
X141322637Y-99339759D01*
X141479680Y-99104727D01*
X141587853Y-98843574D01*
X141643000Y-98566335D01*
X141643000Y-98283665D01*
X141587853Y-98006426D01*
X141479680Y-97745273D01*
X141322637Y-97510241D01*
X141122759Y-97310363D01*
X140887727Y-97153320D01*
X140877135Y-97148933D01*
X141063131Y-97037385D01*
X141271519Y-96848414D01*
X141439037Y-96622420D01*
X141559246Y-96368087D01*
X141599904Y-96234039D01*
X141477915Y-96012000D01*
X140335000Y-96012000D01*
X140335000Y-96032000D01*
X140081000Y-96032000D01*
X140081000Y-96012000D01*
X138938085Y-96012000D01*
X138816096Y-96234039D01*
X138856754Y-96368087D01*
X138976963Y-96622420D01*
X139144481Y-96848414D01*
X139352869Y-97037385D01*
X139538865Y-97148933D01*
X139528273Y-97153320D01*
X139293241Y-97310363D01*
X139095703Y-97507901D01*
X138428000Y-96840199D01*
X138428000Y-95535961D01*
X138816096Y-95535961D01*
X138938085Y-95758000D01*
X140081000Y-95758000D01*
X140081000Y-94614376D01*
X140335000Y-94614376D01*
X140335000Y-95758000D01*
X141477915Y-95758000D01*
X141599904Y-95535961D01*
X141559246Y-95401913D01*
X141439037Y-95147580D01*
X141271519Y-94921586D01*
X141063131Y-94732615D01*
X140821881Y-94587930D01*
X140557040Y-94493091D01*
X140335000Y-94614376D01*
X140081000Y-94614376D01*
X139858960Y-94493091D01*
X139594119Y-94587930D01*
X139352869Y-94732615D01*
X139144481Y-94921586D01*
X138976963Y-95147580D01*
X138856754Y-95401913D01*
X138816096Y-95535961D01*
X138428000Y-95535961D01*
X138428000Y-94652322D01*
X138431676Y-94614999D01*
X138428000Y-94577676D01*
X138428000Y-94577667D01*
X138417003Y-94466014D01*
X138373546Y-94322753D01*
X138302974Y-94190724D01*
X138208001Y-94074999D01*
X138179004Y-94051202D01*
X136961804Y-92834003D01*
X136938001Y-92804999D01*
X136929790Y-92798260D01*
X136942180Y-92794502D01*
X137052494Y-92735537D01*
X137149185Y-92656185D01*
X137228537Y-92559494D01*
X137287502Y-92449180D01*
X137323812Y-92329482D01*
X137336072Y-92205000D01*
X137336072Y-91154040D01*
X140086091Y-91154040D01*
X140180930Y-91418881D01*
X140325615Y-91660131D01*
X140514586Y-91868519D01*
X140740580Y-92036037D01*
X140994913Y-92156246D01*
X141128961Y-92196904D01*
X141351000Y-92074915D01*
X141351000Y-90932000D01*
X141605000Y-90932000D01*
X141605000Y-92074915D01*
X141827039Y-92196904D01*
X141961087Y-92156246D01*
X142215420Y-92036037D01*
X142441414Y-91868519D01*
X142630385Y-91660131D01*
X142775070Y-91418881D01*
X142869909Y-91154040D01*
X142748624Y-90932000D01*
X141605000Y-90932000D01*
X141351000Y-90932000D01*
X140207376Y-90932000D01*
X140086091Y-91154040D01*
X137336072Y-91154040D01*
X137336072Y-90455960D01*
X140086091Y-90455960D01*
X140207376Y-90678000D01*
X141351000Y-90678000D01*
X141351000Y-89535085D01*
X141605000Y-89535085D01*
X141605000Y-90678000D01*
X142748624Y-90678000D01*
X142756454Y-90663665D01*
X145123000Y-90663665D01*
X145123000Y-90946335D01*
X145178147Y-91223574D01*
X145286320Y-91484727D01*
X145443363Y-91719759D01*
X145643241Y-91919637D01*
X145878273Y-92076680D01*
X146139426Y-92184853D01*
X146416665Y-92240000D01*
X146699335Y-92240000D01*
X146976574Y-92184853D01*
X147237727Y-92076680D01*
X147472759Y-91919637D01*
X147672637Y-91719759D01*
X147829680Y-91484727D01*
X147937853Y-91223574D01*
X147993000Y-90946335D01*
X147993000Y-90663665D01*
X147937853Y-90386426D01*
X147829680Y-90125273D01*
X147672637Y-89890241D01*
X147472759Y-89690363D01*
X147237727Y-89533320D01*
X146976574Y-89425147D01*
X146699335Y-89370000D01*
X146416665Y-89370000D01*
X146139426Y-89425147D01*
X145878273Y-89533320D01*
X145643241Y-89690363D01*
X145443363Y-89890241D01*
X145286320Y-90125273D01*
X145178147Y-90386426D01*
X145123000Y-90663665D01*
X142756454Y-90663665D01*
X142869909Y-90455960D01*
X142775070Y-90191119D01*
X142630385Y-89949869D01*
X142441414Y-89741481D01*
X142215420Y-89573963D01*
X141961087Y-89453754D01*
X141827039Y-89413096D01*
X141605000Y-89535085D01*
X141351000Y-89535085D01*
X141128961Y-89413096D01*
X140994913Y-89453754D01*
X140740580Y-89573963D01*
X140514586Y-89741481D01*
X140325615Y-89949869D01*
X140180930Y-90191119D01*
X140086091Y-90455960D01*
X137336072Y-90455960D01*
X137336072Y-89405000D01*
X137323812Y-89280518D01*
X137287502Y-89160820D01*
X137228537Y-89050506D01*
X137149185Y-88953815D01*
X137052494Y-88874463D01*
X136942180Y-88815498D01*
X136822482Y-88779188D01*
X136698000Y-88766928D01*
X133898000Y-88766928D01*
X133773518Y-88779188D01*
X133653820Y-88815498D01*
X133543506Y-88874463D01*
X133446815Y-88953815D01*
X133367463Y-89050506D01*
X133308498Y-89160820D01*
X133272188Y-89280518D01*
X133259928Y-89405000D01*
X133259928Y-92205000D01*
X133272188Y-92329482D01*
X133308498Y-92449180D01*
X133367463Y-92559494D01*
X133446815Y-92656185D01*
X133481381Y-92684552D01*
X133433724Y-92710026D01*
X133433722Y-92710027D01*
X133433723Y-92710027D01*
X133346996Y-92781201D01*
X133346992Y-92781205D01*
X133317999Y-92804999D01*
X133294205Y-92833992D01*
X131385209Y-94742989D01*
X131378537Y-94730506D01*
X131299185Y-94633815D01*
X131202494Y-94554463D01*
X131092180Y-94495498D01*
X130972482Y-94459188D01*
X130848000Y-94446928D01*
X129248000Y-94446928D01*
X129123518Y-94459188D01*
X129003820Y-94495498D01*
X128893506Y-94554463D01*
X128796815Y-94633815D01*
X128717463Y-94730506D01*
X128658498Y-94840820D01*
X128622188Y-94960518D01*
X128609928Y-95085000D01*
X128609928Y-95125000D01*
X125532801Y-95125000D01*
X127980478Y-92677323D01*
X128184413Y-92761796D01*
X128577570Y-92840000D01*
X128978430Y-92840000D01*
X129371587Y-92761796D01*
X129741934Y-92608393D01*
X130075237Y-92385687D01*
X130358687Y-92102237D01*
X130581393Y-91768934D01*
X130734796Y-91398587D01*
X130813000Y-91005430D01*
X130813000Y-90604570D01*
X130734796Y-90211413D01*
X130581393Y-89841066D01*
X130358687Y-89507763D01*
X130075237Y-89224313D01*
X129741934Y-89001607D01*
X129371587Y-88848204D01*
X128978430Y-88770000D01*
X128577570Y-88770000D01*
X128184413Y-88848204D01*
X127814066Y-89001607D01*
X127480763Y-89224313D01*
X127197313Y-89507763D01*
X126974607Y-89841066D01*
X126821204Y-90211413D01*
X126743000Y-90604570D01*
X126743000Y-91005430D01*
X126821204Y-91398587D01*
X126905677Y-91602522D01*
X122743199Y-95765000D01*
X121575985Y-95765000D01*
X121481703Y-95537382D01*
X121253525Y-95195890D01*
X120963110Y-94905475D01*
X120621618Y-94677297D01*
X120242172Y-94520126D01*
X119839355Y-94440000D01*
X119428645Y-94440000D01*
X119025828Y-94520126D01*
X118646382Y-94677297D01*
X118304890Y-94905475D01*
X118014475Y-95195890D01*
X117786297Y-95537382D01*
X117629126Y-95916828D01*
X117549000Y-96319645D01*
X117549000Y-96730355D01*
X117629126Y-97133172D01*
X117786297Y-97512618D01*
X118014475Y-97854110D01*
X118093588Y-97933223D01*
X117820287Y-98206524D01*
X117564750Y-98588963D01*
X117388733Y-99013906D01*
X117299000Y-99465023D01*
X116606368Y-99465023D01*
X116568853Y-99276426D01*
X116460680Y-99015273D01*
X116303637Y-98780241D01*
X116103759Y-98580363D01*
X115868727Y-98423320D01*
X115607574Y-98315147D01*
X115330335Y-98260000D01*
X115047665Y-98260000D01*
X114770426Y-98315147D01*
X114509273Y-98423320D01*
X114274241Y-98580363D01*
X114074363Y-98780241D01*
X113917320Y-99015273D01*
X113809147Y-99276426D01*
X113754000Y-99553665D01*
X106628000Y-99553665D01*
X106628000Y-90499000D01*
X123097877Y-90499000D01*
X123127968Y-90496036D01*
X123131787Y-90496063D01*
X123141653Y-90495095D01*
X123264904Y-90482140D01*
X123327932Y-90469202D01*
X123391146Y-90457143D01*
X123400636Y-90454278D01*
X123519023Y-90417631D01*
X123578314Y-90392707D01*
X123638012Y-90368588D01*
X123646764Y-90363934D01*
X123755779Y-90304990D01*
X123809096Y-90269027D01*
X123862975Y-90233770D01*
X123870657Y-90227504D01*
X123966147Y-90148508D01*
X124011482Y-90102856D01*
X124057467Y-90057824D01*
X124063786Y-90050186D01*
X124142114Y-89954147D01*
X124177722Y-89900553D01*
X124214082Y-89847450D01*
X124218797Y-89838730D01*
X124276979Y-89729306D01*
X124301490Y-89669838D01*
X124326852Y-89610663D01*
X124329784Y-89601193D01*
X124365603Y-89482553D01*
X124378097Y-89419456D01*
X124391483Y-89356479D01*
X124392519Y-89346620D01*
X124404612Y-89223281D01*
X124404612Y-89223277D01*
X124408000Y-89188877D01*
X124408000Y-82045000D01*
X126739928Y-82045000D01*
X126752188Y-82169482D01*
X126788498Y-82289180D01*
X126847463Y-82399494D01*
X126926815Y-82496185D01*
X127023506Y-82575537D01*
X127133820Y-82634502D01*
X127253518Y-82670812D01*
X127378000Y-82683072D01*
X128492250Y-82680000D01*
X128651000Y-82521250D01*
X128651000Y-80772000D01*
X128905000Y-80772000D01*
X128905000Y-82521250D01*
X129063750Y-82680000D01*
X130178000Y-82683072D01*
X130302482Y-82670812D01*
X130422180Y-82634502D01*
X130532494Y-82575537D01*
X130629185Y-82496185D01*
X130708537Y-82399494D01*
X130767502Y-82289180D01*
X130803812Y-82169482D01*
X130816072Y-82045000D01*
X130813434Y-81088161D01*
X133311836Y-81088161D01*
X133436456Y-81467127D01*
X133632614Y-81814499D01*
X133892772Y-82116928D01*
X134206932Y-82362792D01*
X134563021Y-82542642D01*
X134854840Y-82631160D01*
X135171000Y-82516947D01*
X135171000Y-80772000D01*
X135425000Y-80772000D01*
X135425000Y-82516947D01*
X135741160Y-82631160D01*
X136032979Y-82542642D01*
X136389068Y-82362792D01*
X136703228Y-82116928D01*
X136963386Y-81814499D01*
X137159544Y-81467127D01*
X137284164Y-81088161D01*
X137170287Y-80772000D01*
X135425000Y-80772000D01*
X135171000Y-80772000D01*
X133425713Y-80772000D01*
X133311836Y-81088161D01*
X130813434Y-81088161D01*
X130813000Y-80930750D01*
X130654250Y-80772000D01*
X128905000Y-80772000D01*
X128651000Y-80772000D01*
X126901750Y-80772000D01*
X126743000Y-80930750D01*
X126739928Y-82045000D01*
X124408000Y-82045000D01*
X124408000Y-79245000D01*
X126739928Y-79245000D01*
X126743000Y-80359250D01*
X126901750Y-80518000D01*
X128651000Y-80518000D01*
X128651000Y-78768750D01*
X128905000Y-78768750D01*
X128905000Y-80518000D01*
X130654250Y-80518000D01*
X130813000Y-80359250D01*
X130813433Y-80201839D01*
X133311836Y-80201839D01*
X133425713Y-80518000D01*
X135171000Y-80518000D01*
X135171000Y-78773053D01*
X135425000Y-78773053D01*
X135425000Y-80518000D01*
X137170287Y-80518000D01*
X137284164Y-80201839D01*
X137159544Y-79822873D01*
X136963386Y-79475501D01*
X136703228Y-79173072D01*
X136389068Y-78927208D01*
X136032979Y-78747358D01*
X135741160Y-78658840D01*
X135425000Y-78773053D01*
X135171000Y-78773053D01*
X134854840Y-78658840D01*
X134563021Y-78747358D01*
X134206932Y-78927208D01*
X133892772Y-79173072D01*
X133632614Y-79475501D01*
X133436456Y-79822873D01*
X133311836Y-80201839D01*
X130813433Y-80201839D01*
X130816072Y-79245000D01*
X130803812Y-79120518D01*
X130767502Y-79000820D01*
X130708537Y-78890506D01*
X130629185Y-78793815D01*
X130532494Y-78714463D01*
X130422180Y-78655498D01*
X130302482Y-78619188D01*
X130178000Y-78606928D01*
X129063750Y-78610000D01*
X128905000Y-78768750D01*
X128651000Y-78768750D01*
X128492250Y-78610000D01*
X127378000Y-78606928D01*
X127253518Y-78619188D01*
X127133820Y-78655498D01*
X127023506Y-78714463D01*
X126926815Y-78793815D01*
X126847463Y-78890506D01*
X126788498Y-79000820D01*
X126752188Y-79120518D01*
X126739928Y-79245000D01*
X124408000Y-79245000D01*
X124408000Y-77506707D01*
X124537887Y-77636594D01*
X124974702Y-77928464D01*
X125460065Y-78129508D01*
X125975323Y-78232000D01*
X126500677Y-78232000D01*
X127015935Y-78129508D01*
X127501298Y-77928464D01*
X127938113Y-77636594D01*
X128309594Y-77265113D01*
X128601464Y-76828298D01*
X128657001Y-76694219D01*
X128729203Y-76782197D01*
X128957395Y-76969469D01*
X129217737Y-77108625D01*
X129500224Y-77194316D01*
X129794000Y-77223251D01*
X130087777Y-77194316D01*
X130370264Y-77108625D01*
X130630606Y-76969469D01*
X130858797Y-76782197D01*
X131046069Y-76554006D01*
X131064000Y-76520459D01*
X131081931Y-76554006D01*
X131269203Y-76782197D01*
X131497395Y-76969469D01*
X131757737Y-77108625D01*
X132040224Y-77194316D01*
X132334000Y-77223251D01*
X132627777Y-77194316D01*
X132910264Y-77108625D01*
X133170606Y-76969469D01*
X133398797Y-76782197D01*
X133586069Y-76554006D01*
X133604000Y-76520459D01*
X133621931Y-76554006D01*
X133809203Y-76782197D01*
X134037395Y-76969469D01*
X134297737Y-77108625D01*
X134580224Y-77194316D01*
X134874000Y-77223251D01*
X135167777Y-77194316D01*
X135450264Y-77108625D01*
X135710606Y-76969469D01*
X135938797Y-76782197D01*
X136126069Y-76554006D01*
X136147424Y-76514053D01*
X136295514Y-76716729D01*
X136511965Y-76915733D01*
X136763081Y-77068686D01*
X137039211Y-77169709D01*
X137054974Y-77172358D01*
X137287000Y-77051217D01*
X137287000Y-75692000D01*
X137267000Y-75692000D01*
X137267000Y-75438000D01*
X137287000Y-75438000D01*
X137287000Y-74078783D01*
X137541000Y-74078783D01*
X137541000Y-75438000D01*
X137561000Y-75438000D01*
X137561000Y-75692000D01*
X137541000Y-75692000D01*
X137541000Y-77051217D01*
X137773026Y-77172358D01*
X137788789Y-77169709D01*
X138064919Y-77068686D01*
X138316035Y-76915733D01*
X138532486Y-76716729D01*
X138680576Y-76514053D01*
X138701931Y-76554006D01*
X138889203Y-76782197D01*
X139117395Y-76969469D01*
X139377737Y-77108625D01*
X139660224Y-77194316D01*
X139954000Y-77223251D01*
X140247777Y-77194316D01*
X140530264Y-77108625D01*
X140790606Y-76969469D01*
X141018797Y-76782197D01*
X141206069Y-76554006D01*
X141224000Y-76520459D01*
X141241931Y-76554006D01*
X141429203Y-76782197D01*
X141657395Y-76969469D01*
X141917737Y-77108625D01*
X142200224Y-77194316D01*
X142494000Y-77223251D01*
X142787777Y-77194316D01*
X143070264Y-77108625D01*
X143330606Y-76969469D01*
X143558797Y-76782197D01*
X143746069Y-76554006D01*
X143764000Y-76520459D01*
X143781931Y-76554006D01*
X143969203Y-76782197D01*
X144197395Y-76969469D01*
X144457737Y-77108625D01*
X144740224Y-77194316D01*
X145034000Y-77223251D01*
X145327777Y-77194316D01*
X145610264Y-77108625D01*
X145870606Y-76969469D01*
X146098797Y-76782197D01*
X146286069Y-76554006D01*
X146304000Y-76520459D01*
X146321931Y-76554006D01*
X146509203Y-76782197D01*
X146737395Y-76969469D01*
X146997737Y-77108625D01*
X147280224Y-77194316D01*
X147574000Y-77223251D01*
X147867777Y-77194316D01*
X148150264Y-77108625D01*
X148410606Y-76969469D01*
X148638797Y-76782197D01*
X148826069Y-76554006D01*
X148844000Y-76520459D01*
X148861931Y-76554006D01*
X149049203Y-76782197D01*
X149277395Y-76969469D01*
X149537737Y-77108625D01*
X149820224Y-77194316D01*
X150114000Y-77223251D01*
X150407777Y-77194316D01*
X150690264Y-77108625D01*
X150950606Y-76969469D01*
X151178797Y-76782197D01*
X151366069Y-76554006D01*
X151384000Y-76520459D01*
X151401931Y-76554006D01*
X151589203Y-76782197D01*
X151817395Y-76969469D01*
X151894000Y-77010416D01*
X151894000Y-77813677D01*
X151890324Y-77851000D01*
X151894000Y-77888322D01*
X151894000Y-77888332D01*
X151904997Y-77999985D01*
X151936853Y-78105001D01*
X151948454Y-78143246D01*
X152019026Y-78275276D01*
X152047441Y-78309899D01*
X152113999Y-78391001D01*
X152143002Y-78414803D01*
X153613197Y-79885000D01*
X147776043Y-79885000D01*
X147672637Y-79730241D01*
X147472759Y-79530363D01*
X147237727Y-79373320D01*
X146976574Y-79265147D01*
X146699335Y-79210000D01*
X146416665Y-79210000D01*
X146139426Y-79265147D01*
X145878273Y-79373320D01*
X145643241Y-79530363D01*
X145443363Y-79730241D01*
X145286320Y-79965273D01*
X145178147Y-80226426D01*
X145123000Y-80503665D01*
X145123000Y-80786335D01*
X145178147Y-81063574D01*
X145216017Y-81155000D01*
X143062802Y-81155000D01*
X142876688Y-80968886D01*
X142913000Y-80786335D01*
X142913000Y-80503665D01*
X142857853Y-80226426D01*
X142749680Y-79965273D01*
X142592637Y-79730241D01*
X142392759Y-79530363D01*
X142157727Y-79373320D01*
X141896574Y-79265147D01*
X141619335Y-79210000D01*
X141336665Y-79210000D01*
X141059426Y-79265147D01*
X140798273Y-79373320D01*
X140563241Y-79530363D01*
X140363363Y-79730241D01*
X140206320Y-79965273D01*
X140098147Y-80226426D01*
X140043000Y-80503665D01*
X140043000Y-80786335D01*
X140098147Y-81063574D01*
X140206320Y-81324727D01*
X140363363Y-81559759D01*
X140563241Y-81759637D01*
X140798273Y-81916680D01*
X141059426Y-82024853D01*
X141336665Y-82080000D01*
X141619335Y-82080000D01*
X141801886Y-82043688D01*
X142184200Y-82426002D01*
X142207999Y-82455001D01*
X142323724Y-82549974D01*
X142455753Y-82620546D01*
X142599014Y-82664003D01*
X142710667Y-82675000D01*
X142710676Y-82675000D01*
X142747999Y-82678676D01*
X142785322Y-82675000D01*
X154229957Y-82675000D01*
X154333363Y-82829759D01*
X154533241Y-83029637D01*
X154768273Y-83186680D01*
X155029426Y-83294853D01*
X155306665Y-83350000D01*
X155589335Y-83350000D01*
X155866574Y-83294853D01*
X156127727Y-83186680D01*
X156362759Y-83029637D01*
X156562637Y-82829759D01*
X156718000Y-82597241D01*
X156873363Y-82829759D01*
X157073241Y-83029637D01*
X157308273Y-83186680D01*
X157569426Y-83294853D01*
X157846665Y-83350000D01*
X158129335Y-83350000D01*
X158406574Y-83294853D01*
X158667727Y-83186680D01*
X158902759Y-83029637D01*
X159102637Y-82829759D01*
X159258000Y-82597241D01*
X159413363Y-82829759D01*
X159613241Y-83029637D01*
X159848273Y-83186680D01*
X160109426Y-83294853D01*
X160386665Y-83350000D01*
X160669335Y-83350000D01*
X160851886Y-83313688D01*
X162504205Y-84966008D01*
X162527999Y-84995001D01*
X162556992Y-85018795D01*
X162556996Y-85018799D01*
X162627685Y-85076811D01*
X162643724Y-85089974D01*
X162775753Y-85160546D01*
X162919014Y-85204003D01*
X163030667Y-85215000D01*
X163030676Y-85215000D01*
X163067999Y-85218676D01*
X163105322Y-85215000D01*
X165570678Y-85215000D01*
X165608000Y-85218676D01*
X165645322Y-85215000D01*
X165645333Y-85215000D01*
X165756986Y-85204003D01*
X165900247Y-85160546D01*
X166032276Y-85089974D01*
X166148001Y-84995001D01*
X166171804Y-84965997D01*
X167389003Y-83748799D01*
X167418001Y-83725001D01*
X167512974Y-83609276D01*
X167583546Y-83477247D01*
X167627003Y-83333986D01*
X167638000Y-83222333D01*
X167638000Y-83222324D01*
X167641676Y-83185001D01*
X167638000Y-83147678D01*
X167638000Y-79689801D01*
X168711799Y-78616003D01*
X168711803Y-78615998D01*
X169929003Y-77398799D01*
X169958001Y-77375001D01*
X170052974Y-77259276D01*
X170123546Y-77127247D01*
X170155306Y-77022546D01*
X170254606Y-76969469D01*
X170482797Y-76782197D01*
X170670069Y-76554006D01*
X170688000Y-76520459D01*
X170705931Y-76554006D01*
X170893203Y-76782197D01*
X171121395Y-76969469D01*
X171381737Y-77108625D01*
X171664224Y-77194316D01*
X171958000Y-77223251D01*
X172251777Y-77194316D01*
X172534264Y-77108625D01*
X172794606Y-76969469D01*
X173022797Y-76782197D01*
X173210069Y-76554006D01*
X173228000Y-76520459D01*
X173245931Y-76554006D01*
X173433203Y-76782197D01*
X173661395Y-76969469D01*
X173921737Y-77108625D01*
X174204224Y-77194316D01*
X174498000Y-77223251D01*
X174791777Y-77194316D01*
X175074264Y-77108625D01*
X175334606Y-76969469D01*
X175562797Y-76782197D01*
X175750069Y-76554006D01*
X175889225Y-76293663D01*
X175974916Y-76011176D01*
X175996600Y-75791018D01*
X175996600Y-75338981D01*
X175974916Y-75118823D01*
X175889225Y-74836336D01*
X175750069Y-74575994D01*
X175562797Y-74347803D01*
X175334605Y-74160531D01*
X175074263Y-74021375D01*
X174791776Y-73935684D01*
X174498000Y-73906749D01*
X174204223Y-73935684D01*
X173921736Y-74021375D01*
X173661394Y-74160531D01*
X173433203Y-74347803D01*
X173245931Y-74575995D01*
X173228000Y-74609541D01*
X173210069Y-74575994D01*
X173022797Y-74347803D01*
X172794605Y-74160531D01*
X172534263Y-74021375D01*
X172251776Y-73935684D01*
X171958000Y-73906749D01*
X171664223Y-73935684D01*
X171381736Y-74021375D01*
X171121394Y-74160531D01*
X170893203Y-74347803D01*
X170705931Y-74575995D01*
X170688000Y-74609541D01*
X170670069Y-74575994D01*
X170482797Y-74347803D01*
X170254605Y-74160531D01*
X169994263Y-74021375D01*
X169711776Y-73935684D01*
X169418000Y-73906749D01*
X169124223Y-73935684D01*
X168841736Y-74021375D01*
X168581394Y-74160531D01*
X168353203Y-74347803D01*
X168165931Y-74575995D01*
X168148000Y-74609541D01*
X168130069Y-74575994D01*
X167942797Y-74347803D01*
X167714605Y-74160531D01*
X167454263Y-74021375D01*
X167171776Y-73935684D01*
X166878000Y-73906749D01*
X166584223Y-73935684D01*
X166301736Y-74021375D01*
X166041394Y-74160531D01*
X165813203Y-74347803D01*
X165625931Y-74575995D01*
X165608000Y-74609541D01*
X165590069Y-74575994D01*
X165402797Y-74347803D01*
X165174605Y-74160531D01*
X164914263Y-74021375D01*
X164631776Y-73935684D01*
X164338000Y-73906749D01*
X164044223Y-73935684D01*
X163761736Y-74021375D01*
X163501394Y-74160531D01*
X163273203Y-74347803D01*
X163085931Y-74575995D01*
X163068000Y-74609541D01*
X163050069Y-74575994D01*
X162862797Y-74347803D01*
X162634605Y-74160531D01*
X162374263Y-74021375D01*
X162091776Y-73935684D01*
X161798000Y-73906749D01*
X161504223Y-73935684D01*
X161221736Y-74021375D01*
X160961394Y-74160531D01*
X160733203Y-74347803D01*
X160545931Y-74575995D01*
X160528000Y-74609541D01*
X160510069Y-74575994D01*
X160322797Y-74347803D01*
X160094605Y-74160531D01*
X159834263Y-74021375D01*
X159551776Y-73935684D01*
X159258000Y-73906749D01*
X158964223Y-73935684D01*
X158681736Y-74021375D01*
X158421394Y-74160531D01*
X158193203Y-74347803D01*
X158005931Y-74575995D01*
X157988000Y-74609541D01*
X157970069Y-74575994D01*
X157782797Y-74347803D01*
X157554605Y-74160531D01*
X157294263Y-74021375D01*
X157011776Y-73935684D01*
X156718000Y-73906749D01*
X156424223Y-73935684D01*
X156141736Y-74021375D01*
X155881394Y-74160531D01*
X155653203Y-74347803D01*
X155465931Y-74575995D01*
X155326775Y-74836337D01*
X155241084Y-75118824D01*
X155219400Y-75338982D01*
X155219400Y-75791019D01*
X155241084Y-76011177D01*
X155326775Y-76293664D01*
X155465931Y-76554006D01*
X155653203Y-76782197D01*
X155881395Y-76969469D01*
X156141737Y-77108625D01*
X156424224Y-77194316D01*
X156718000Y-77223251D01*
X157011777Y-77194316D01*
X157294264Y-77108625D01*
X157554606Y-76969469D01*
X157782797Y-76782197D01*
X157970069Y-76554006D01*
X157988000Y-76520459D01*
X158005931Y-76554006D01*
X158193203Y-76782197D01*
X158421395Y-76969469D01*
X158681737Y-77108625D01*
X158964224Y-77194316D01*
X159258000Y-77223251D01*
X159551777Y-77194316D01*
X159834264Y-77108625D01*
X160094606Y-76969469D01*
X160322797Y-76782197D01*
X160510069Y-76554006D01*
X160528000Y-76520459D01*
X160545931Y-76554006D01*
X160733203Y-76782197D01*
X160961395Y-76969469D01*
X161221737Y-77108625D01*
X161504224Y-77194316D01*
X161798000Y-77223251D01*
X162091777Y-77194316D01*
X162374264Y-77108625D01*
X162634606Y-76969469D01*
X162862797Y-76782197D01*
X163050069Y-76554006D01*
X163068000Y-76520459D01*
X163085931Y-76554006D01*
X163273203Y-76782197D01*
X163501395Y-76969469D01*
X163761737Y-77108625D01*
X164044224Y-77194316D01*
X164338000Y-77223251D01*
X164631777Y-77194316D01*
X164914264Y-77108625D01*
X165174606Y-76969469D01*
X165402797Y-76782197D01*
X165590069Y-76554006D01*
X165608000Y-76520459D01*
X165625931Y-76554006D01*
X165813203Y-76782197D01*
X166041395Y-76969469D01*
X166301737Y-77108625D01*
X166584224Y-77194316D01*
X166878000Y-77223251D01*
X167171777Y-77194316D01*
X167454264Y-77108625D01*
X167714606Y-76969469D01*
X167942797Y-76782197D01*
X168130069Y-76554006D01*
X168148000Y-76520459D01*
X168165931Y-76554006D01*
X168353203Y-76782197D01*
X168376710Y-76801489D01*
X167637002Y-77541197D01*
X167636997Y-77541201D01*
X166367003Y-78811196D01*
X166337999Y-78834999D01*
X166299884Y-78881443D01*
X166243026Y-78950724D01*
X166177394Y-79073512D01*
X166172454Y-79082754D01*
X166128997Y-79226015D01*
X166118000Y-79337668D01*
X166118000Y-79337678D01*
X166114324Y-79375000D01*
X166118000Y-79412323D01*
X166118000Y-80476928D01*
X164808000Y-80476928D01*
X164683518Y-80489188D01*
X164563820Y-80525498D01*
X164453506Y-80584463D01*
X164356815Y-80663815D01*
X164277463Y-80760506D01*
X164218498Y-80870820D01*
X164182188Y-80990518D01*
X164181357Y-80998961D01*
X163982759Y-80800363D01*
X163747727Y-80643320D01*
X163486574Y-80535147D01*
X163209335Y-80480000D01*
X162926665Y-80480000D01*
X162744114Y-80516312D01*
X161091804Y-78864003D01*
X161068001Y-78834999D01*
X160952276Y-78740026D01*
X160820247Y-78669454D01*
X160676986Y-78625997D01*
X160565333Y-78615000D01*
X160565322Y-78615000D01*
X160528000Y-78611324D01*
X160490678Y-78615000D01*
X154492803Y-78615000D01*
X153414000Y-77536199D01*
X153414000Y-77010416D01*
X153490606Y-76969469D01*
X153718797Y-76782197D01*
X153906069Y-76554006D01*
X154045225Y-76293663D01*
X154130916Y-76011176D01*
X154152600Y-75791018D01*
X154152600Y-75338981D01*
X154130916Y-75118823D01*
X154045225Y-74836336D01*
X153906069Y-74575994D01*
X153718797Y-74347803D01*
X153490605Y-74160531D01*
X153230263Y-74021375D01*
X152947776Y-73935684D01*
X152654000Y-73906749D01*
X152360223Y-73935684D01*
X152077736Y-74021375D01*
X151817394Y-74160531D01*
X151589203Y-74347803D01*
X151401931Y-74575995D01*
X151384000Y-74609541D01*
X151366069Y-74575994D01*
X151178797Y-74347803D01*
X150950605Y-74160531D01*
X150690263Y-74021375D01*
X150407776Y-73935684D01*
X150114000Y-73906749D01*
X149820223Y-73935684D01*
X149537736Y-74021375D01*
X149277394Y-74160531D01*
X149049203Y-74347803D01*
X148861931Y-74575995D01*
X148844000Y-74609541D01*
X148826069Y-74575994D01*
X148638797Y-74347803D01*
X148410605Y-74160531D01*
X148150263Y-74021375D01*
X147867776Y-73935684D01*
X147574000Y-73906749D01*
X147280223Y-73935684D01*
X146997736Y-74021375D01*
X146737394Y-74160531D01*
X146509203Y-74347803D01*
X146321931Y-74575995D01*
X146304000Y-74609541D01*
X146286069Y-74575994D01*
X146098797Y-74347803D01*
X145870605Y-74160531D01*
X145610263Y-74021375D01*
X145327776Y-73935684D01*
X145034000Y-73906749D01*
X144740223Y-73935684D01*
X144457736Y-74021375D01*
X144197394Y-74160531D01*
X143969203Y-74347803D01*
X143781931Y-74575995D01*
X143764000Y-74609541D01*
X143746069Y-74575994D01*
X143558797Y-74347803D01*
X143330605Y-74160531D01*
X143070263Y-74021375D01*
X142787776Y-73935684D01*
X142494000Y-73906749D01*
X142200223Y-73935684D01*
X141917736Y-74021375D01*
X141657394Y-74160531D01*
X141429203Y-74347803D01*
X141241931Y-74575995D01*
X141224000Y-74609541D01*
X141206069Y-74575994D01*
X141018797Y-74347803D01*
X140790605Y-74160531D01*
X140530263Y-74021375D01*
X140247776Y-73935684D01*
X139954000Y-73906749D01*
X139660223Y-73935684D01*
X139377736Y-74021375D01*
X139117394Y-74160531D01*
X138889203Y-74347803D01*
X138701931Y-74575995D01*
X138680576Y-74615947D01*
X138532486Y-74413271D01*
X138316035Y-74214267D01*
X138064919Y-74061314D01*
X137788789Y-73960291D01*
X137773026Y-73957642D01*
X137541000Y-74078783D01*
X137287000Y-74078783D01*
X137054974Y-73957642D01*
X137039211Y-73960291D01*
X136763081Y-74061314D01*
X136511965Y-74214267D01*
X136295514Y-74413271D01*
X136147424Y-74615947D01*
X136126069Y-74575994D01*
X135938797Y-74347803D01*
X135710605Y-74160531D01*
X135450263Y-74021375D01*
X135167776Y-73935684D01*
X134874000Y-73906749D01*
X134580223Y-73935684D01*
X134297736Y-74021375D01*
X134037394Y-74160531D01*
X133809203Y-74347803D01*
X133621931Y-74575995D01*
X133604000Y-74609541D01*
X133586069Y-74575994D01*
X133398797Y-74347803D01*
X133170605Y-74160531D01*
X132910263Y-74021375D01*
X132627776Y-73935684D01*
X132334000Y-73906749D01*
X132040223Y-73935684D01*
X131757736Y-74021375D01*
X131497394Y-74160531D01*
X131269203Y-74347803D01*
X131081931Y-74575995D01*
X131064000Y-74609541D01*
X131046069Y-74575994D01*
X130858797Y-74347803D01*
X130630605Y-74160531D01*
X130370263Y-74021375D01*
X130087776Y-73935684D01*
X129794000Y-73906749D01*
X129500223Y-73935684D01*
X129217736Y-74021375D01*
X128957394Y-74160531D01*
X128729203Y-74347803D01*
X128657001Y-74435781D01*
X128601464Y-74301702D01*
X128309594Y-73864887D01*
X128179707Y-73735000D01*
X177003280Y-73735000D01*
X177392785Y-73773191D01*
G37*
X177392785Y-73773191D02*
X177734060Y-73876228D01*
X178048822Y-74043590D01*
X178325083Y-74268903D01*
X178552317Y-74543582D01*
X178721870Y-74857164D01*
X178827286Y-75197708D01*
X178868001Y-75585082D01*
X178868000Y-76800279D01*
X178829809Y-77189784D01*
X178726771Y-77531063D01*
X178559409Y-77845825D01*
X178334097Y-78122083D01*
X178059418Y-78349317D01*
X177745838Y-78518869D01*
X177405288Y-78624287D01*
X177017928Y-78665000D01*
X170018123Y-78665000D01*
X169988032Y-78667964D01*
X169984213Y-78667937D01*
X169974347Y-78668905D01*
X169851096Y-78681860D01*
X169788074Y-78694797D01*
X169724854Y-78706857D01*
X169715364Y-78709722D01*
X169596976Y-78746369D01*
X169537660Y-78771303D01*
X169477988Y-78795412D01*
X169469236Y-78800066D01*
X169360221Y-78859010D01*
X169306877Y-78894991D01*
X169253025Y-78930231D01*
X169245342Y-78936496D01*
X169149853Y-79015492D01*
X169104537Y-79061125D01*
X169058532Y-79106176D01*
X169052219Y-79113809D01*
X169052213Y-79113815D01*
X169052209Y-79113822D01*
X168973886Y-79209853D01*
X168938296Y-79263421D01*
X168901917Y-79316550D01*
X168897203Y-79325271D01*
X168839021Y-79434694D01*
X168814505Y-79494174D01*
X168789148Y-79553337D01*
X168786216Y-79562807D01*
X168750396Y-79681448D01*
X168737903Y-79744542D01*
X168724517Y-79807521D01*
X168723481Y-79817380D01*
X168711388Y-79940719D01*
X168711388Y-79940733D01*
X168708001Y-79975123D01*
X168708000Y-115604876D01*
X168710964Y-115634968D01*
X168710937Y-115638787D01*
X168711905Y-115648653D01*
X168724860Y-115771904D01*
X168737798Y-115834932D01*
X168749857Y-115898146D01*
X168752722Y-115907636D01*
X168789369Y-116026023D01*
X168814293Y-116085314D01*
X168838412Y-116145012D01*
X168843066Y-116153764D01*
X168902010Y-116262779D01*
X168937973Y-116316096D01*
X168973230Y-116369975D01*
X168979496Y-116377657D01*
X169058492Y-116473147D01*
X169104144Y-116518482D01*
X169149176Y-116564467D01*
X169156814Y-116570786D01*
X169252853Y-116649114D01*
X169306447Y-116684722D01*
X169359550Y-116721082D01*
X169368270Y-116725797D01*
X169477694Y-116783979D01*
X169537162Y-116808490D01*
X169596337Y-116833852D01*
X169605807Y-116836784D01*
X169724447Y-116872603D01*
X169787544Y-116885097D01*
X169850521Y-116898483D01*
X169860380Y-116899519D01*
X169983719Y-116911612D01*
X169983723Y-116911612D01*
X170018123Y-116915000D01*
X175096293Y-116915000D01*
X174966406Y-117044887D01*
X174674536Y-117481702D01*
X174504427Y-117892382D01*
X174420312Y-117766495D01*
X174206505Y-117552688D01*
X173955095Y-117384701D01*
X173675743Y-117268989D01*
X173379184Y-117210000D01*
X173076816Y-117210000D01*
X172780257Y-117268989D01*
X172500905Y-117384701D01*
X172249495Y-117552688D01*
X172183056Y-117619127D01*
X172177502Y-117600820D01*
X172118537Y-117490506D01*
X172039185Y-117393815D01*
X171942494Y-117314463D01*
X171832180Y-117255498D01*
X171712482Y-117219188D01*
X171588000Y-117206928D01*
X169788000Y-117206928D01*
X169663518Y-117219188D01*
X169543820Y-117255498D01*
X169433506Y-117314463D01*
X169336815Y-117393815D01*
X169257463Y-117490506D01*
X169250791Y-117502988D01*
X167638000Y-115890199D01*
X167638000Y-90842322D01*
X167641676Y-90804999D01*
X167638000Y-90767676D01*
X167638000Y-90767667D01*
X167627003Y-90656014D01*
X167583546Y-90512753D01*
X167512974Y-90380724D01*
X167418001Y-90264999D01*
X167389003Y-90241201D01*
X167006688Y-89858886D01*
X167043000Y-89676335D01*
X167043000Y-89393665D01*
X166987853Y-89116426D01*
X166879680Y-88855273D01*
X166722637Y-88620241D01*
X166522759Y-88420363D01*
X166287727Y-88263320D01*
X166026574Y-88155147D01*
X165749335Y-88100000D01*
X165466665Y-88100000D01*
X165189426Y-88155147D01*
X164928273Y-88263320D01*
X164693241Y-88420363D01*
X164493363Y-88620241D01*
X164338000Y-88852759D01*
X164182637Y-88620241D01*
X163982759Y-88420363D01*
X163747727Y-88263320D01*
X163486574Y-88155147D01*
X163209335Y-88100000D01*
X162926665Y-88100000D01*
X162649426Y-88155147D01*
X162388273Y-88263320D01*
X162153241Y-88420363D01*
X161953363Y-88620241D01*
X161798000Y-88852759D01*
X161642637Y-88620241D01*
X161442759Y-88420363D01*
X161207727Y-88263320D01*
X160946574Y-88155147D01*
X160669335Y-88100000D01*
X160386665Y-88100000D01*
X160109426Y-88155147D01*
X159848273Y-88263320D01*
X159613241Y-88420363D01*
X159413363Y-88620241D01*
X159309957Y-88775000D01*
X159206043Y-88775000D01*
X159102637Y-88620241D01*
X158902759Y-88420363D01*
X158667727Y-88263320D01*
X158406574Y-88155147D01*
X158129335Y-88100000D01*
X157846665Y-88100000D01*
X157569426Y-88155147D01*
X157308273Y-88263320D01*
X157073241Y-88420363D01*
X156873363Y-88620241D01*
X156769957Y-88775000D01*
X156666043Y-88775000D01*
X156562637Y-88620241D01*
X156362759Y-88420363D01*
X156127727Y-88263320D01*
X155866574Y-88155147D01*
X155589335Y-88100000D01*
X155306665Y-88100000D01*
X155029426Y-88155147D01*
X154768273Y-88263320D01*
X154533241Y-88420363D01*
X154333363Y-88620241D01*
X154229957Y-88775000D01*
X151675322Y-88775000D01*
X151637999Y-88771324D01*
X151600676Y-88775000D01*
X151600667Y-88775000D01*
X151489014Y-88785997D01*
X151345753Y-88829454D01*
X151213724Y-88900026D01*
X151097999Y-88994999D01*
X151074201Y-89023997D01*
X149856998Y-90241201D01*
X149828000Y-90264999D01*
X149804202Y-90293997D01*
X149804201Y-90293998D01*
X149733026Y-90380724D01*
X149662454Y-90512754D01*
X149632180Y-90612558D01*
X149618998Y-90656014D01*
X149614947Y-90697146D01*
X149604324Y-90805000D01*
X149608001Y-90842332D01*
X149608000Y-95570197D01*
X149263000Y-95915197D01*
X149263000Y-95743665D01*
X149207853Y-95466426D01*
X149099680Y-95205273D01*
X148942637Y-94970241D01*
X148742759Y-94770363D01*
X148507727Y-94613320D01*
X148246574Y-94505147D01*
X147969335Y-94450000D01*
X147686665Y-94450000D01*
X147409426Y-94505147D01*
X147148273Y-94613320D01*
X146913241Y-94770363D01*
X146713363Y-94970241D01*
X146556320Y-95205273D01*
X146448147Y-95466426D01*
X146393000Y-95743665D01*
X146393000Y-96026335D01*
X146448147Y-96303574D01*
X146556320Y-96564727D01*
X146713363Y-96799759D01*
X146913241Y-96999637D01*
X147145759Y-97155000D01*
X146913241Y-97310363D01*
X146713363Y-97510241D01*
X146556320Y-97745273D01*
X146448147Y-98006426D01*
X146393000Y-98283665D01*
X146393000Y-98566335D01*
X146448147Y-98843574D01*
X146556320Y-99104727D01*
X146713363Y-99339759D01*
X146913241Y-99539637D01*
X147068001Y-99643044D01*
X147068000Y-99746956D01*
X146913241Y-99850363D01*
X146713363Y-100050241D01*
X146556320Y-100285273D01*
X146448147Y-100546426D01*
X146393000Y-100823665D01*
X146393000Y-101106335D01*
X146448147Y-101383574D01*
X146556320Y-101644727D01*
X146713363Y-101879759D01*
X146911961Y-102078357D01*
X146903518Y-102079188D01*
X146783820Y-102115498D01*
X146673506Y-102174463D01*
X146576815Y-102253815D01*
X146497463Y-102350506D01*
X146438498Y-102460820D01*
X146402188Y-102580518D01*
X146389928Y-102705000D01*
X146389928Y-104305000D01*
X146402188Y-104429482D01*
X146438498Y-104549180D01*
X146497463Y-104659494D01*
X146576815Y-104756185D01*
X146673506Y-104835537D01*
X146783820Y-104894502D01*
X146903518Y-104930812D01*
X147028000Y-104943072D01*
X148628000Y-104943072D01*
X148752482Y-104930812D01*
X148872180Y-104894502D01*
X148982494Y-104835537D01*
X149079185Y-104756185D01*
X149158537Y-104659494D01*
X149217502Y-104549180D01*
X149253812Y-104429482D01*
X149266072Y-104305000D01*
X149266072Y-102705000D01*
X149253812Y-102580518D01*
X149217502Y-102460820D01*
X149158537Y-102350506D01*
X149079185Y-102253815D01*
X148982494Y-102174463D01*
X148872180Y-102115498D01*
X148752482Y-102079188D01*
X148744039Y-102078357D01*
X148942637Y-101879759D01*
X149099680Y-101644727D01*
X149207853Y-101383574D01*
X149263000Y-101106335D01*
X149263000Y-100823665D01*
X149207853Y-100546426D01*
X149099680Y-100285273D01*
X148942637Y-100050241D01*
X148742759Y-99850363D01*
X148588000Y-99746957D01*
X148588000Y-99643043D01*
X148742759Y-99539637D01*
X148942637Y-99339759D01*
X149099680Y-99104727D01*
X149207853Y-98843574D01*
X149263000Y-98566335D01*
X149263000Y-98283665D01*
X149226688Y-98101114D01*
X150879009Y-96448794D01*
X150908001Y-96425001D01*
X150931795Y-96396008D01*
X150931799Y-96396004D01*
X151002973Y-96309277D01*
X151002974Y-96309276D01*
X151073546Y-96177247D01*
X151117003Y-96033986D01*
X151128000Y-95922333D01*
X151128000Y-95922324D01*
X151131676Y-95885001D01*
X151128000Y-95847678D01*
X151128000Y-91119801D01*
X151952802Y-90295000D01*
X154229957Y-90295000D01*
X154333363Y-90449759D01*
X154533241Y-90649637D01*
X154768273Y-90806680D01*
X155029426Y-90914853D01*
X155306665Y-90970000D01*
X155589335Y-90970000D01*
X155866574Y-90914853D01*
X156127727Y-90806680D01*
X156362759Y-90649637D01*
X156562637Y-90449759D01*
X156666043Y-90295000D01*
X156769957Y-90295000D01*
X156873363Y-90449759D01*
X157073241Y-90649637D01*
X157308273Y-90806680D01*
X157569426Y-90914853D01*
X157846665Y-90970000D01*
X158129335Y-90970000D01*
X158406574Y-90914853D01*
X158667727Y-90806680D01*
X158902759Y-90649637D01*
X159102637Y-90449759D01*
X159206043Y-90295000D01*
X159309957Y-90295000D01*
X159413363Y-90449759D01*
X159613241Y-90649637D01*
X159848273Y-90806680D01*
X160109426Y-90914853D01*
X160386665Y-90970000D01*
X160669335Y-90970000D01*
X160946574Y-90914853D01*
X161207727Y-90806680D01*
X161442759Y-90649637D01*
X161642637Y-90449759D01*
X161798000Y-90217241D01*
X161953363Y-90449759D01*
X162153241Y-90649637D01*
X162388273Y-90806680D01*
X162649426Y-90914853D01*
X162926665Y-90970000D01*
X163209335Y-90970000D01*
X163486574Y-90914853D01*
X163747727Y-90806680D01*
X163982759Y-90649637D01*
X164182637Y-90449759D01*
X164338000Y-90217241D01*
X164493363Y-90449759D01*
X164693241Y-90649637D01*
X164928273Y-90806680D01*
X165189426Y-90914853D01*
X165466665Y-90970000D01*
X165749335Y-90970000D01*
X165931886Y-90933688D01*
X166118000Y-91119802D01*
X166118001Y-116167667D01*
X166114324Y-116205000D01*
X166118001Y-116242333D01*
X166128998Y-116353986D01*
X166139143Y-116387431D01*
X166172454Y-116497246D01*
X166243026Y-116629276D01*
X166310362Y-116711324D01*
X166338000Y-116745001D01*
X166366998Y-116768799D01*
X168808198Y-119210001D01*
X160797803Y-119210001D01*
X159386688Y-117798887D01*
X159423000Y-117616335D01*
X159423000Y-117333665D01*
X159367853Y-117056426D01*
X159259680Y-116795273D01*
X159102637Y-116560241D01*
X158902759Y-116360363D01*
X158667727Y-116203320D01*
X158406574Y-116095147D01*
X158129335Y-116040000D01*
X157846665Y-116040000D01*
X157569426Y-116095147D01*
X157308273Y-116203320D01*
X157073241Y-116360363D01*
X156873363Y-116560241D01*
X156716320Y-116795273D01*
X156608147Y-117056426D01*
X156553000Y-117333665D01*
X156553000Y-117616335D01*
X156608147Y-117893574D01*
X156716320Y-118154727D01*
X156873363Y-118389759D01*
X157073241Y-118589637D01*
X157308273Y-118746680D01*
X157569426Y-118854853D01*
X157846665Y-118910000D01*
X158129335Y-118910000D01*
X158311887Y-118873688D01*
X159919202Y-120481004D01*
X159943000Y-120510002D01*
X160058725Y-120604975D01*
X160190754Y-120675547D01*
X160334015Y-120719004D01*
X160445668Y-120730001D01*
X160445678Y-120730001D01*
X160483001Y-120733677D01*
X160520324Y-120730001D01*
X171965677Y-120730001D01*
X172002999Y-120733677D01*
X172040321Y-120730001D01*
X172040332Y-120730001D01*
X172151985Y-120719004D01*
X172295246Y-120675547D01*
X172427275Y-120604975D01*
X172543000Y-120510002D01*
X172566803Y-120480998D01*
X172819070Y-120228731D01*
X173076816Y-120280000D01*
X173379184Y-120280000D01*
X173675743Y-120221011D01*
X173955095Y-120105299D01*
X174206505Y-119937312D01*
X174420312Y-119723505D01*
X174504427Y-119597618D01*
X174674536Y-120008298D01*
X174966406Y-120445113D01*
X175337887Y-120816594D01*
X175774702Y-121108464D01*
X176260065Y-121309508D01*
X176775323Y-121412000D01*
X177300677Y-121412000D01*
X177815935Y-121309508D01*
X178301298Y-121108464D01*
X178738113Y-120816594D01*
X178868001Y-120686706D01*
X178868000Y-123790279D01*
X178829809Y-124179784D01*
X178726771Y-124521063D01*
X178559409Y-124835825D01*
X178334097Y-125112083D01*
X178059418Y-125339317D01*
X177745838Y-125508869D01*
X177405288Y-125614287D01*
X177017928Y-125655000D01*
X126909707Y-125655000D01*
X127039594Y-125525113D01*
X127331464Y-125088298D01*
X127532508Y-124602935D01*
X127635000Y-124087677D01*
X127635000Y-123562323D01*
X127532508Y-123047065D01*
X127502658Y-122975000D01*
X128559928Y-122975000D01*
X128559928Y-124675000D01*
X128572188Y-124799482D01*
X128608498Y-124919180D01*
X128667463Y-125029494D01*
X128746815Y-125126185D01*
X128843506Y-125205537D01*
X128953820Y-125264502D01*
X129073518Y-125300812D01*
X129198000Y-125313072D01*
X130898000Y-125313072D01*
X131022482Y-125300812D01*
X131142180Y-125264502D01*
X131252494Y-125205537D01*
X131349185Y-125126185D01*
X131428537Y-125029494D01*
X131487502Y-124919180D01*
X131509513Y-124846620D01*
X131641368Y-124978475D01*
X131884589Y-125140990D01*
X132154842Y-125252932D01*
X132441740Y-125310000D01*
X132734260Y-125310000D01*
X133021158Y-125252932D01*
X133291411Y-125140990D01*
X133534632Y-124978475D01*
X133741475Y-124771632D01*
X133863195Y-124589466D01*
X133932822Y-124706355D01*
X134127731Y-124922588D01*
X134361080Y-125096641D01*
X134623901Y-125221825D01*
X134771110Y-125266476D01*
X135001000Y-125145155D01*
X135001000Y-123952000D01*
X135255000Y-123952000D01*
X135255000Y-125145155D01*
X135484890Y-125266476D01*
X135632099Y-125221825D01*
X135894920Y-125096641D01*
X136128269Y-124922588D01*
X136323178Y-124706355D01*
X136472157Y-124456252D01*
X136569481Y-124181891D01*
X136448814Y-123952000D01*
X135255000Y-123952000D01*
X135001000Y-123952000D01*
X134981000Y-123952000D01*
X134981000Y-123698000D01*
X135001000Y-123698000D01*
X135001000Y-122504845D01*
X135255000Y-122504845D01*
X135255000Y-123698000D01*
X136448814Y-123698000D01*
X136500787Y-123598982D01*
X137439400Y-123598982D01*
X137439400Y-124051019D01*
X137461084Y-124271177D01*
X137546775Y-124553664D01*
X137685931Y-124814006D01*
X137873203Y-125042197D01*
X138101395Y-125229469D01*
X138361737Y-125368625D01*
X138644224Y-125454316D01*
X138938000Y-125483251D01*
X139231777Y-125454316D01*
X139514264Y-125368625D01*
X139774606Y-125229469D01*
X140002797Y-125042197D01*
X140190069Y-124814006D01*
X140208000Y-124780459D01*
X140225931Y-124814006D01*
X140413203Y-125042197D01*
X140641395Y-125229469D01*
X140901737Y-125368625D01*
X141184224Y-125454316D01*
X141478000Y-125483251D01*
X141771777Y-125454316D01*
X142054264Y-125368625D01*
X142314606Y-125229469D01*
X142542797Y-125042197D01*
X142730069Y-124814006D01*
X142748000Y-124780459D01*
X142765931Y-124814006D01*
X142953203Y-125042197D01*
X143181395Y-125229469D01*
X143441737Y-125368625D01*
X143724224Y-125454316D01*
X144018000Y-125483251D01*
X144311777Y-125454316D01*
X144594264Y-125368625D01*
X144854606Y-125229469D01*
X145082797Y-125042197D01*
X145270069Y-124814006D01*
X145288000Y-124780459D01*
X145305931Y-124814006D01*
X145493203Y-125042197D01*
X145721395Y-125229469D01*
X145981737Y-125368625D01*
X146264224Y-125454316D01*
X146558000Y-125483251D01*
X146851777Y-125454316D01*
X147134264Y-125368625D01*
X147394606Y-125229469D01*
X147622797Y-125042197D01*
X147810069Y-124814006D01*
X147828000Y-124780459D01*
X147845931Y-124814006D01*
X148033203Y-125042197D01*
X148261395Y-125229469D01*
X148521737Y-125368625D01*
X148804224Y-125454316D01*
X149098000Y-125483251D01*
X149391777Y-125454316D01*
X149674264Y-125368625D01*
X149934606Y-125229469D01*
X150162797Y-125042197D01*
X150350069Y-124814006D01*
X150371424Y-124774053D01*
X150519514Y-124976729D01*
X150735965Y-125175733D01*
X150987081Y-125328686D01*
X151263211Y-125429709D01*
X151278974Y-125432358D01*
X151511000Y-125311217D01*
X151511000Y-123952000D01*
X151765000Y-123952000D01*
X151765000Y-125311217D01*
X151997026Y-125432358D01*
X152012789Y-125429709D01*
X152288919Y-125328686D01*
X152540035Y-125175733D01*
X152756486Y-124976729D01*
X152908000Y-124769367D01*
X153059514Y-124976729D01*
X153275965Y-125175733D01*
X153527081Y-125328686D01*
X153803211Y-125429709D01*
X153818974Y-125432358D01*
X154051000Y-125311217D01*
X154051000Y-123952000D01*
X151765000Y-123952000D01*
X151511000Y-123952000D01*
X151491000Y-123952000D01*
X151491000Y-123698000D01*
X151511000Y-123698000D01*
X151511000Y-122338783D01*
X151765000Y-122338783D01*
X151765000Y-123698000D01*
X154051000Y-123698000D01*
X154051000Y-122338783D01*
X154305000Y-122338783D01*
X154305000Y-123698000D01*
X154325000Y-123698000D01*
X154325000Y-123952000D01*
X154305000Y-123952000D01*
X154305000Y-125311217D01*
X154537026Y-125432358D01*
X154552789Y-125429709D01*
X154828919Y-125328686D01*
X155080035Y-125175733D01*
X155296486Y-124976729D01*
X155444576Y-124774053D01*
X155465931Y-124814006D01*
X155653203Y-125042197D01*
X155881395Y-125229469D01*
X156141737Y-125368625D01*
X156424224Y-125454316D01*
X156718000Y-125483251D01*
X157011777Y-125454316D01*
X157294264Y-125368625D01*
X157554606Y-125229469D01*
X157782797Y-125042197D01*
X157970069Y-124814006D01*
X158109225Y-124553663D01*
X158194916Y-124271176D01*
X158216600Y-124051018D01*
X158216600Y-123598982D01*
X160299400Y-123598982D01*
X160299400Y-124051019D01*
X160321084Y-124271177D01*
X160406775Y-124553664D01*
X160545931Y-124814006D01*
X160733203Y-125042197D01*
X160961395Y-125229469D01*
X161221737Y-125368625D01*
X161504224Y-125454316D01*
X161798000Y-125483251D01*
X162091777Y-125454316D01*
X162374264Y-125368625D01*
X162634606Y-125229469D01*
X162862797Y-125042197D01*
X163050069Y-124814006D01*
X163068000Y-124780459D01*
X163085931Y-124814006D01*
X163273203Y-125042197D01*
X163501395Y-125229469D01*
X163761737Y-125368625D01*
X164044224Y-125454316D01*
X164338000Y-125483251D01*
X164631777Y-125454316D01*
X164914264Y-125368625D01*
X165174606Y-125229469D01*
X165402797Y-125042197D01*
X165590069Y-124814006D01*
X165608000Y-124780459D01*
X165625931Y-124814006D01*
X165813203Y-125042197D01*
X166041395Y-125229469D01*
X166301737Y-125368625D01*
X166584224Y-125454316D01*
X166878000Y-125483251D01*
X167171777Y-125454316D01*
X167454264Y-125368625D01*
X167714606Y-125229469D01*
X167942797Y-125042197D01*
X168130069Y-124814006D01*
X168148000Y-124780459D01*
X168165931Y-124814006D01*
X168353203Y-125042197D01*
X168581395Y-125229469D01*
X168841737Y-125368625D01*
X169124224Y-125454316D01*
X169418000Y-125483251D01*
X169711777Y-125454316D01*
X169994264Y-125368625D01*
X170254606Y-125229469D01*
X170482797Y-125042197D01*
X170670069Y-124814006D01*
X170688000Y-124780459D01*
X170705931Y-124814006D01*
X170893203Y-125042197D01*
X171121395Y-125229469D01*
X171381737Y-125368625D01*
X171664224Y-125454316D01*
X171958000Y-125483251D01*
X172251777Y-125454316D01*
X172534264Y-125368625D01*
X172794606Y-125229469D01*
X173022797Y-125042197D01*
X173210069Y-124814006D01*
X173228000Y-124780459D01*
X173245931Y-124814006D01*
X173433203Y-125042197D01*
X173661395Y-125229469D01*
X173921737Y-125368625D01*
X174204224Y-125454316D01*
X174498000Y-125483251D01*
X174791777Y-125454316D01*
X175074264Y-125368625D01*
X175334606Y-125229469D01*
X175562797Y-125042197D01*
X175750069Y-124814006D01*
X175889225Y-124553663D01*
X175974916Y-124271176D01*
X175996600Y-124051018D01*
X175996600Y-123598981D01*
X175974916Y-123378823D01*
X175889225Y-123096336D01*
X175750069Y-122835994D01*
X175562797Y-122607803D01*
X175334605Y-122420531D01*
X175074263Y-122281375D01*
X174791776Y-122195684D01*
X174498000Y-122166749D01*
X174204223Y-122195684D01*
X173921736Y-122281375D01*
X173661394Y-122420531D01*
X173433203Y-122607803D01*
X173245931Y-122835995D01*
X173228000Y-122869541D01*
X173210069Y-122835994D01*
X173022797Y-122607803D01*
X172794605Y-122420531D01*
X172534263Y-122281375D01*
X172251776Y-122195684D01*
X171958000Y-122166749D01*
X171664223Y-122195684D01*
X171381736Y-122281375D01*
X171121394Y-122420531D01*
X170893203Y-122607803D01*
X170705931Y-122835995D01*
X170688000Y-122869541D01*
X170670069Y-122835994D01*
X170482797Y-122607803D01*
X170254605Y-122420531D01*
X169994263Y-122281375D01*
X169711776Y-122195684D01*
X169418000Y-122166749D01*
X169124223Y-122195684D01*
X168841736Y-122281375D01*
X168581394Y-122420531D01*
X168353203Y-122607803D01*
X168165931Y-122835995D01*
X168148000Y-122869541D01*
X168130069Y-122835994D01*
X167942797Y-122607803D01*
X167714605Y-122420531D01*
X167454263Y-122281375D01*
X167171776Y-122195684D01*
X166878000Y-122166749D01*
X166584223Y-122195684D01*
X166301736Y-122281375D01*
X166041394Y-122420531D01*
X165813203Y-122607803D01*
X165625931Y-122835995D01*
X165608000Y-122869541D01*
X165590069Y-122835994D01*
X165402797Y-122607803D01*
X165174605Y-122420531D01*
X164914263Y-122281375D01*
X164631776Y-122195684D01*
X164338000Y-122166749D01*
X164044223Y-122195684D01*
X163761736Y-122281375D01*
X163501394Y-122420531D01*
X163273203Y-122607803D01*
X163085931Y-122835995D01*
X163068000Y-122869541D01*
X163050069Y-122835994D01*
X162862797Y-122607803D01*
X162634605Y-122420531D01*
X162374263Y-122281375D01*
X162091776Y-122195684D01*
X161798000Y-122166749D01*
X161504223Y-122195684D01*
X161221736Y-122281375D01*
X160961394Y-122420531D01*
X160733203Y-122607803D01*
X160545931Y-122835995D01*
X160406775Y-123096337D01*
X160321084Y-123378824D01*
X160299400Y-123598982D01*
X158216600Y-123598982D01*
X158216600Y-123598981D01*
X158194916Y-123378823D01*
X158109225Y-123096336D01*
X157970069Y-122835994D01*
X157782797Y-122607803D01*
X157554605Y-122420531D01*
X157294263Y-122281375D01*
X157011776Y-122195684D01*
X156718000Y-122166749D01*
X156424223Y-122195684D01*
X156141736Y-122281375D01*
X155881394Y-122420531D01*
X155653203Y-122607803D01*
X155465931Y-122835995D01*
X155444576Y-122875947D01*
X155296486Y-122673271D01*
X155080035Y-122474267D01*
X154828919Y-122321314D01*
X154552789Y-122220291D01*
X154537026Y-122217642D01*
X154305000Y-122338783D01*
X154051000Y-122338783D01*
X153818974Y-122217642D01*
X153803211Y-122220291D01*
X153527081Y-122321314D01*
X153275965Y-122474267D01*
X153059514Y-122673271D01*
X152908000Y-122880633D01*
X152756486Y-122673271D01*
X152540035Y-122474267D01*
X152288919Y-122321314D01*
X152012789Y-122220291D01*
X151997026Y-122217642D01*
X151765000Y-122338783D01*
X151511000Y-122338783D01*
X151278974Y-122217642D01*
X151263211Y-122220291D01*
X150987081Y-122321314D01*
X150735965Y-122474267D01*
X150519514Y-122673271D01*
X150371424Y-122875947D01*
X150350069Y-122835994D01*
X150162797Y-122607803D01*
X149934605Y-122420531D01*
X149674263Y-122281375D01*
X149391776Y-122195684D01*
X149098000Y-122166749D01*
X148804223Y-122195684D01*
X148521736Y-122281375D01*
X148261394Y-122420531D01*
X148033203Y-122607803D01*
X147845931Y-122835995D01*
X147828000Y-122869541D01*
X147810069Y-122835994D01*
X147622797Y-122607803D01*
X147394605Y-122420531D01*
X147134263Y-122281375D01*
X146851776Y-122195684D01*
X146558000Y-122166749D01*
X146264223Y-122195684D01*
X145981736Y-122281375D01*
X145721394Y-122420531D01*
X145493203Y-122607803D01*
X145305931Y-122835995D01*
X145288000Y-122869541D01*
X145270069Y-122835994D01*
X145082797Y-122607803D01*
X144854605Y-122420531D01*
X144594263Y-122281375D01*
X144311776Y-122195684D01*
X144018000Y-122166749D01*
X143724223Y-122195684D01*
X143441736Y-122281375D01*
X143181394Y-122420531D01*
X142953203Y-122607803D01*
X142765931Y-122835995D01*
X142748000Y-122869541D01*
X142730069Y-122835994D01*
X142542797Y-122607803D01*
X142314605Y-122420531D01*
X142054263Y-122281375D01*
X141771776Y-122195684D01*
X141478000Y-122166749D01*
X141184223Y-122195684D01*
X140901736Y-122281375D01*
X140641394Y-122420531D01*
X140413203Y-122607803D01*
X140225931Y-122835995D01*
X140208000Y-122869541D01*
X140190069Y-122835994D01*
X140002797Y-122607803D01*
X139774605Y-122420531D01*
X139514263Y-122281375D01*
X139231776Y-122195684D01*
X138938000Y-122166749D01*
X138644223Y-122195684D01*
X138361736Y-122281375D01*
X138101394Y-122420531D01*
X137873203Y-122607803D01*
X137685931Y-122835995D01*
X137546775Y-123096337D01*
X137461084Y-123378824D01*
X137439400Y-123598982D01*
X136500787Y-123598982D01*
X136569481Y-123468109D01*
X136472157Y-123193748D01*
X136323178Y-122943645D01*
X136128269Y-122727412D01*
X135894920Y-122553359D01*
X135632099Y-122428175D01*
X135484890Y-122383524D01*
X135255000Y-122504845D01*
X135001000Y-122504845D01*
X134771110Y-122383524D01*
X134623901Y-122428175D01*
X134361080Y-122553359D01*
X134127731Y-122727412D01*
X133932822Y-122943645D01*
X133863195Y-123060534D01*
X133741475Y-122878368D01*
X133534632Y-122671525D01*
X133291411Y-122509010D01*
X133021158Y-122397068D01*
X132734260Y-122340000D01*
X132441740Y-122340000D01*
X132154842Y-122397068D01*
X131884589Y-122509010D01*
X131641368Y-122671525D01*
X131509513Y-122803380D01*
X131487502Y-122730820D01*
X131428537Y-122620506D01*
X131349185Y-122523815D01*
X131252494Y-122444463D01*
X131142180Y-122385498D01*
X131022482Y-122349188D01*
X130898000Y-122336928D01*
X129198000Y-122336928D01*
X129073518Y-122349188D01*
X128953820Y-122385498D01*
X128843506Y-122444463D01*
X128746815Y-122523815D01*
X128667463Y-122620506D01*
X128608498Y-122730820D01*
X128572188Y-122850518D01*
X128559928Y-122975000D01*
X127502658Y-122975000D01*
X127331464Y-122561702D01*
X127039594Y-122124887D01*
X126668113Y-121753406D01*
X126231298Y-121461536D01*
X125745935Y-121260492D01*
X125230677Y-121158000D01*
X124705323Y-121158000D01*
X124190065Y-121260492D01*
X123704702Y-121461536D01*
X123267887Y-121753406D01*
X123138000Y-121883293D01*
X123138000Y-117440123D01*
X123135036Y-117410032D01*
X123135063Y-117406213D01*
X123134095Y-117396347D01*
X123121140Y-117273096D01*
X123108203Y-117210074D01*
X123096143Y-117146854D01*
X123093278Y-117137364D01*
X123083260Y-117105000D01*
X128509928Y-117105000D01*
X128522188Y-117229482D01*
X128558498Y-117349180D01*
X128617463Y-117459494D01*
X128696815Y-117556185D01*
X128793506Y-117635537D01*
X128903820Y-117694502D01*
X128922127Y-117700056D01*
X128855688Y-117766495D01*
X128687701Y-118017905D01*
X128571989Y-118297257D01*
X128513000Y-118593816D01*
X128513000Y-118896184D01*
X128571989Y-119192743D01*
X128687701Y-119472095D01*
X128855688Y-119723505D01*
X129069495Y-119937312D01*
X129320905Y-120105299D01*
X129600257Y-120221011D01*
X129896816Y-120280000D01*
X130199184Y-120280000D01*
X130495743Y-120221011D01*
X130775095Y-120105299D01*
X131026505Y-119937312D01*
X131240312Y-119723505D01*
X131408299Y-119472095D01*
X131524011Y-119192743D01*
X131583000Y-118896184D01*
X131583000Y-118593816D01*
X131524011Y-118297257D01*
X131408299Y-118017905D01*
X131240312Y-117766495D01*
X131173873Y-117700056D01*
X131192180Y-117694502D01*
X131302494Y-117635537D01*
X131399185Y-117556185D01*
X131478537Y-117459494D01*
X131537502Y-117349180D01*
X131542208Y-117333665D01*
X133693000Y-117333665D01*
X133693000Y-117616335D01*
X133748147Y-117893574D01*
X133856320Y-118154727D01*
X134013363Y-118389759D01*
X134213241Y-118589637D01*
X134448273Y-118746680D01*
X134709426Y-118854853D01*
X134986665Y-118910000D01*
X135269335Y-118910000D01*
X135546574Y-118854853D01*
X135807727Y-118746680D01*
X136042759Y-118589637D01*
X136242637Y-118389759D01*
X136399680Y-118154727D01*
X136507853Y-117893574D01*
X136563000Y-117616335D01*
X136563000Y-117333665D01*
X143853000Y-117333665D01*
X143853000Y-117616335D01*
X143908147Y-117893574D01*
X144016320Y-118154727D01*
X144173363Y-118389759D01*
X144373241Y-118589637D01*
X144608273Y-118746680D01*
X144869426Y-118854853D01*
X145146665Y-118910000D01*
X145429335Y-118910000D01*
X145706574Y-118854853D01*
X145967727Y-118746680D01*
X146202759Y-118589637D01*
X146402637Y-118389759D01*
X146558000Y-118157241D01*
X146713363Y-118389759D01*
X146913241Y-118589637D01*
X147148273Y-118746680D01*
X147409426Y-118854853D01*
X147686665Y-118910000D01*
X147969335Y-118910000D01*
X148246574Y-118854853D01*
X148507727Y-118746680D01*
X148742759Y-118589637D01*
X148942637Y-118389759D01*
X149099680Y-118154727D01*
X149207853Y-117893574D01*
X149263000Y-117616335D01*
X149263000Y-117333665D01*
X149207853Y-117056426D01*
X149099680Y-116795273D01*
X148942637Y-116560241D01*
X148742759Y-116360363D01*
X148507727Y-116203320D01*
X148246574Y-116095147D01*
X147969335Y-116040000D01*
X147686665Y-116040000D01*
X147409426Y-116095147D01*
X147148273Y-116203320D01*
X146913241Y-116360363D01*
X146713363Y-116560241D01*
X146558000Y-116792759D01*
X146402637Y-116560241D01*
X146202759Y-116360363D01*
X145967727Y-116203320D01*
X145706574Y-116095147D01*
X145429335Y-116040000D01*
X145146665Y-116040000D01*
X144869426Y-116095147D01*
X144608273Y-116203320D01*
X144373241Y-116360363D01*
X144173363Y-116560241D01*
X144016320Y-116795273D01*
X143908147Y-117056426D01*
X143853000Y-117333665D01*
X136563000Y-117333665D01*
X136507853Y-117056426D01*
X136399680Y-116795273D01*
X136242637Y-116560241D01*
X136042759Y-116360363D01*
X135807727Y-116203320D01*
X135546574Y-116095147D01*
X135269335Y-116040000D01*
X134986665Y-116040000D01*
X134709426Y-116095147D01*
X134448273Y-116203320D01*
X134213241Y-116360363D01*
X134013363Y-116560241D01*
X133856320Y-116795273D01*
X133748147Y-117056426D01*
X133693000Y-117333665D01*
X131542208Y-117333665D01*
X131573812Y-117229482D01*
X131586072Y-117105000D01*
X131583000Y-116490750D01*
X131424250Y-116332000D01*
X130175000Y-116332000D01*
X130175000Y-116352000D01*
X129921000Y-116352000D01*
X129921000Y-116332000D01*
X128671750Y-116332000D01*
X128513000Y-116490750D01*
X128509928Y-117105000D01*
X123083260Y-117105000D01*
X123056631Y-117018976D01*
X123031697Y-116959660D01*
X123007588Y-116899988D01*
X123002934Y-116891236D01*
X122943990Y-116782221D01*
X122908009Y-116728877D01*
X122872769Y-116675025D01*
X122866504Y-116667342D01*
X122787508Y-116571853D01*
X122741875Y-116526537D01*
X122696824Y-116480532D01*
X122689191Y-116474219D01*
X122689185Y-116474213D01*
X122689178Y-116474209D01*
X122593147Y-116395886D01*
X122539579Y-116360296D01*
X122486450Y-116323917D01*
X122477729Y-116319203D01*
X122368306Y-116261021D01*
X122308826Y-116236505D01*
X122249663Y-116211148D01*
X122240193Y-116208216D01*
X122121552Y-116172396D01*
X122058458Y-116159903D01*
X121995479Y-116146517D01*
X121985620Y-116145481D01*
X121862281Y-116133388D01*
X121862277Y-116133388D01*
X121827877Y-116130000D01*
X106628000Y-116130000D01*
X106628000Y-115305000D01*
X128509928Y-115305000D01*
X128513000Y-115919250D01*
X128671750Y-116078000D01*
X129921000Y-116078000D01*
X129921000Y-114828750D01*
X130175000Y-114828750D01*
X130175000Y-116078000D01*
X131424250Y-116078000D01*
X131583000Y-115919250D01*
X131586072Y-115305000D01*
X131573812Y-115180518D01*
X131537502Y-115060820D01*
X131478537Y-114950506D01*
X131399185Y-114853815D01*
X131302494Y-114774463D01*
X131192180Y-114715498D01*
X131072482Y-114679188D01*
X130948000Y-114666928D01*
X130333750Y-114670000D01*
X130175000Y-114828750D01*
X129921000Y-114828750D01*
X129762250Y-114670000D01*
X129148000Y-114666928D01*
X129023518Y-114679188D01*
X128903820Y-114715498D01*
X128793506Y-114774463D01*
X128696815Y-114853815D01*
X128617463Y-114950506D01*
X128558498Y-115060820D01*
X128522188Y-115180518D01*
X128509928Y-115305000D01*
X106628000Y-115305000D01*
X106628000Y-113211052D01*
X112002553Y-113211052D01*
X112152548Y-113521493D01*
X112518819Y-113707311D01*
X112914303Y-113818101D01*
X113323801Y-113849609D01*
X113731577Y-113800621D01*
X114121962Y-113673021D01*
X114401388Y-113523665D01*
X138773000Y-113523665D01*
X138773000Y-113806335D01*
X138828147Y-114083574D01*
X138936320Y-114344727D01*
X139093363Y-114579759D01*
X139293241Y-114779637D01*
X139528273Y-114936680D01*
X139789426Y-115044853D01*
X140066665Y-115100000D01*
X140349335Y-115100000D01*
X140626574Y-115044853D01*
X140887727Y-114936680D01*
X141122759Y-114779637D01*
X141322637Y-114579759D01*
X141479680Y-114344727D01*
X141587853Y-114083574D01*
X141643000Y-113806335D01*
X141643000Y-113523665D01*
X141587853Y-113246426D01*
X141479680Y-112985273D01*
X141322637Y-112750241D01*
X141122759Y-112550363D01*
X140887727Y-112393320D01*
X140626574Y-112285147D01*
X140349335Y-112230000D01*
X140066665Y-112230000D01*
X139789426Y-112285147D01*
X139528273Y-112393320D01*
X139293241Y-112550363D01*
X139093363Y-112750241D01*
X138936320Y-112985273D01*
X138828147Y-113246426D01*
X138773000Y-113523665D01*
X114401388Y-113523665D01*
X114405452Y-113521493D01*
X114555447Y-113211052D01*
X113279000Y-111934605D01*
X112002553Y-113211052D01*
X106628000Y-113211052D01*
X106628000Y-111799801D01*
X111184391Y-111799801D01*
X111233379Y-112207577D01*
X111360979Y-112597962D01*
X111512507Y-112881452D01*
X111822948Y-113031447D01*
X113099395Y-111755000D01*
X113458605Y-111755000D01*
X114735052Y-113031447D01*
X115045493Y-112881452D01*
X115231311Y-112515181D01*
X115342101Y-112119697D01*
X115373609Y-111710199D01*
X115359770Y-111595000D01*
X146389928Y-111595000D01*
X146389928Y-113195000D01*
X146402188Y-113319482D01*
X146438498Y-113439180D01*
X146497463Y-113549494D01*
X146576815Y-113646185D01*
X146673506Y-113725537D01*
X146783820Y-113784502D01*
X146903518Y-113820812D01*
X147028000Y-113833072D01*
X148628000Y-113833072D01*
X148752482Y-113820812D01*
X148872180Y-113784502D01*
X148982494Y-113725537D01*
X149079185Y-113646185D01*
X149158537Y-113549494D01*
X149217502Y-113439180D01*
X149253812Y-113319482D01*
X149266072Y-113195000D01*
X149266072Y-111595000D01*
X149253812Y-111470518D01*
X149217502Y-111350820D01*
X149158537Y-111240506D01*
X149079185Y-111143815D01*
X148982494Y-111064463D01*
X148872180Y-111005498D01*
X148752482Y-110969188D01*
X148628000Y-110956928D01*
X148620785Y-110956928D01*
X148641097Y-110887702D01*
X147828000Y-110074605D01*
X147014903Y-110887702D01*
X147035215Y-110956928D01*
X147028000Y-110956928D01*
X146903518Y-110969188D01*
X146783820Y-111005498D01*
X146673506Y-111064463D01*
X146576815Y-111143815D01*
X146497463Y-111240506D01*
X146438498Y-111350820D01*
X146402188Y-111470518D01*
X146389928Y-111595000D01*
X115359770Y-111595000D01*
X115324621Y-111302423D01*
X115197021Y-110912038D01*
X115045493Y-110628548D01*
X114735052Y-110478553D01*
X113458605Y-111755000D01*
X113099395Y-111755000D01*
X111822948Y-110478553D01*
X111512507Y-110628548D01*
X111326689Y-110994819D01*
X111215899Y-111390303D01*
X111184391Y-111799801D01*
X106628000Y-111799801D01*
X106628000Y-110298948D01*
X112002553Y-110298948D01*
X113279000Y-111575395D01*
X114555447Y-110298948D01*
X114405452Y-109988507D01*
X114039181Y-109802689D01*
X113643697Y-109691899D01*
X113234199Y-109660391D01*
X112826423Y-109709379D01*
X112436038Y-109836979D01*
X112152548Y-109988507D01*
X112002553Y-110298948D01*
X106628000Y-110298948D01*
X106628000Y-108949023D01*
X117544582Y-108949023D01*
X117724648Y-109285060D01*
X118133474Y-109495820D01*
X118575562Y-109622772D01*
X119033922Y-109661037D01*
X119490940Y-109609146D01*
X119929053Y-109469092D01*
X120273352Y-109285060D01*
X120453418Y-108949023D01*
X121994582Y-108949023D01*
X122174648Y-109285060D01*
X122583474Y-109495820D01*
X123025562Y-109622772D01*
X123483922Y-109661037D01*
X123513294Y-109657702D01*
X139394903Y-109657702D01*
X139466486Y-109901671D01*
X139721996Y-110022571D01*
X139996184Y-110091300D01*
X140278512Y-110105217D01*
X140558130Y-110063787D01*
X140824292Y-109968603D01*
X140830074Y-109965512D01*
X146387783Y-109965512D01*
X146429213Y-110245130D01*
X146524397Y-110511292D01*
X146591329Y-110636514D01*
X146835298Y-110708097D01*
X147648395Y-109895000D01*
X148007605Y-109895000D01*
X148820702Y-110708097D01*
X149064671Y-110636514D01*
X149185571Y-110381004D01*
X149254300Y-110106816D01*
X149268217Y-109824488D01*
X149226787Y-109544870D01*
X149131603Y-109278708D01*
X149064671Y-109153486D01*
X148820702Y-109081903D01*
X148007605Y-109895000D01*
X147648395Y-109895000D01*
X146835298Y-109081903D01*
X146591329Y-109153486D01*
X146470429Y-109408996D01*
X146401700Y-109683184D01*
X146387783Y-109965512D01*
X140830074Y-109965512D01*
X140949514Y-109901671D01*
X141021097Y-109657702D01*
X140208000Y-108844605D01*
X139394903Y-109657702D01*
X123513294Y-109657702D01*
X123940940Y-109609146D01*
X124379053Y-109469092D01*
X124723352Y-109285060D01*
X124903418Y-108949023D01*
X123449000Y-107494605D01*
X121994582Y-108949023D01*
X120453418Y-108949023D01*
X118999000Y-107494605D01*
X117544582Y-108949023D01*
X106628000Y-108949023D01*
X106628000Y-107173665D01*
X108674000Y-107173665D01*
X108674000Y-107456335D01*
X108729147Y-107733574D01*
X108837320Y-107994727D01*
X108994363Y-108229759D01*
X109194241Y-108429637D01*
X109429273Y-108586680D01*
X109690426Y-108694853D01*
X109967665Y-108750000D01*
X110250335Y-108750000D01*
X110527574Y-108694853D01*
X110788727Y-108586680D01*
X111023759Y-108429637D01*
X111223637Y-108229759D01*
X111380680Y-107994727D01*
X111488853Y-107733574D01*
X111544000Y-107456335D01*
X111544000Y-107349922D01*
X116652963Y-107349922D01*
X116704854Y-107806940D01*
X116844908Y-108245053D01*
X117028940Y-108589352D01*
X117364977Y-108769418D01*
X118819395Y-107315000D01*
X117364977Y-105860582D01*
X117028940Y-106040648D01*
X116818180Y-106449474D01*
X116691228Y-106891562D01*
X116652963Y-107349922D01*
X111544000Y-107349922D01*
X111544000Y-107173665D01*
X111488853Y-106896426D01*
X111380680Y-106635273D01*
X111223637Y-106400241D01*
X111023759Y-106200363D01*
X110788727Y-106043320D01*
X110527574Y-105935147D01*
X110250335Y-105880000D01*
X109967665Y-105880000D01*
X109690426Y-105935147D01*
X109429273Y-106043320D01*
X109194241Y-106200363D01*
X108994363Y-106400241D01*
X108837320Y-106635273D01*
X108729147Y-106896426D01*
X108674000Y-107173665D01*
X106628000Y-107173665D01*
X106628000Y-99553665D01*
X113754000Y-99553665D01*
X113754000Y-99836335D01*
X113809147Y-100113574D01*
X113917320Y-100374727D01*
X114074363Y-100609759D01*
X114274241Y-100809637D01*
X114509273Y-100966680D01*
X114770426Y-101074853D01*
X115047665Y-101130000D01*
X115330335Y-101130000D01*
X115607574Y-101074853D01*
X115868727Y-100966680D01*
X116103759Y-100809637D01*
X116303637Y-100609759D01*
X116460680Y-100374727D01*
X116568853Y-100113574D01*
X116624000Y-99836335D01*
X116624000Y-99553665D01*
X116606368Y-99465023D01*
X117299000Y-99465023D01*
X117299000Y-99924977D01*
X117388733Y-100376094D01*
X117564750Y-100801037D01*
X117820287Y-101183476D01*
X118145524Y-101508713D01*
X118507139Y-101750336D01*
X118304890Y-101885475D01*
X118014475Y-102175890D01*
X117786297Y-102517382D01*
X117629126Y-102896828D01*
X117549000Y-103299645D01*
X117549000Y-103710355D01*
X117629126Y-104113172D01*
X117786297Y-104492618D01*
X118014475Y-104834110D01*
X118275305Y-105094940D01*
X118068947Y-105160908D01*
X117724648Y-105344940D01*
X117544582Y-105680977D01*
X118999000Y-107135395D01*
X120453418Y-105680977D01*
X120340015Y-105469346D01*
X120469790Y-105415592D01*
X120845206Y-105791009D01*
X120869000Y-105820002D01*
X120897993Y-105843796D01*
X120897997Y-105843800D01*
X120968686Y-105901812D01*
X120984725Y-105914975D01*
X121116754Y-105985547D01*
X121260015Y-106029004D01*
X121371668Y-106040001D01*
X121371677Y-106040001D01*
X121409000Y-106043677D01*
X121446323Y-106040001D01*
X121480147Y-106040001D01*
X121478940Y-106040648D01*
X121268180Y-106449474D01*
X121223480Y-106605133D01*
X121153092Y-106384947D01*
X120969060Y-106040648D01*
X120633023Y-105860582D01*
X119178605Y-107315000D01*
X120633023Y-108769418D01*
X120969060Y-108589352D01*
X121179820Y-108180526D01*
X121224520Y-108024867D01*
X121294908Y-108245053D01*
X121478940Y-108589352D01*
X121814977Y-108769418D01*
X123269395Y-107315000D01*
X123255253Y-107300858D01*
X123434858Y-107121253D01*
X123449000Y-107135395D01*
X123463143Y-107121253D01*
X123642748Y-107300858D01*
X123628605Y-107315000D01*
X125083023Y-108769418D01*
X125146297Y-108735512D01*
X138767783Y-108735512D01*
X138809213Y-109015130D01*
X138904397Y-109281292D01*
X138971329Y-109406514D01*
X139215298Y-109478097D01*
X140028395Y-108665000D01*
X140387605Y-108665000D01*
X141200702Y-109478097D01*
X141444671Y-109406514D01*
X141565571Y-109151004D01*
X141627912Y-108902298D01*
X147014903Y-108902298D01*
X147828000Y-109715395D01*
X148641097Y-108902298D01*
X148569514Y-108658329D01*
X148314004Y-108537429D01*
X148039816Y-108468700D01*
X147757488Y-108454783D01*
X147477870Y-108496213D01*
X147211708Y-108591397D01*
X147086486Y-108658329D01*
X147014903Y-108902298D01*
X141627912Y-108902298D01*
X141634300Y-108876816D01*
X141648217Y-108594488D01*
X141606787Y-108314870D01*
X141511603Y-108048708D01*
X141444671Y-107923486D01*
X141200702Y-107851903D01*
X140387605Y-108665000D01*
X140028395Y-108665000D01*
X139215298Y-107851903D01*
X138971329Y-107923486D01*
X138850429Y-108178996D01*
X138781700Y-108453184D01*
X138767783Y-108735512D01*
X125146297Y-108735512D01*
X125419060Y-108589352D01*
X125629820Y-108180526D01*
X125756772Y-107738438D01*
X125762293Y-107672298D01*
X139394903Y-107672298D01*
X140208000Y-108485395D01*
X141021097Y-107672298D01*
X140949514Y-107428329D01*
X140694004Y-107307429D01*
X140419816Y-107238700D01*
X140137488Y-107224783D01*
X139857870Y-107266213D01*
X139591708Y-107361397D01*
X139466486Y-107428329D01*
X139394903Y-107672298D01*
X125762293Y-107672298D01*
X125795037Y-107280078D01*
X125743146Y-106823060D01*
X125603092Y-106384947D01*
X125419060Y-106040648D01*
X125083025Y-105860583D01*
X125197453Y-105746155D01*
X125134550Y-105683252D01*
X126114004Y-104703798D01*
X126143001Y-104680001D01*
X126187308Y-104626013D01*
X126237974Y-104564277D01*
X126308546Y-104432247D01*
X126324090Y-104381003D01*
X126352003Y-104288986D01*
X126363000Y-104177333D01*
X126363000Y-104177323D01*
X126366676Y-104140000D01*
X126363000Y-104102677D01*
X126363000Y-103363665D01*
X128613000Y-103363665D01*
X128613000Y-103646335D01*
X128668147Y-103923574D01*
X128776320Y-104184727D01*
X128933363Y-104419759D01*
X129133241Y-104619637D01*
X129368273Y-104776680D01*
X129629426Y-104884853D01*
X129906665Y-104940000D01*
X130189335Y-104940000D01*
X130466574Y-104884853D01*
X130727727Y-104776680D01*
X130962759Y-104619637D01*
X131162637Y-104419759D01*
X131266043Y-104265000D01*
X133543199Y-104265000D01*
X133729312Y-104451114D01*
X133693000Y-104633665D01*
X133693000Y-104916335D01*
X133748147Y-105193574D01*
X133856320Y-105454727D01*
X134013363Y-105689759D01*
X134213241Y-105889637D01*
X134448273Y-106046680D01*
X134709426Y-106154853D01*
X134986665Y-106210000D01*
X135269335Y-106210000D01*
X135546574Y-106154853D01*
X135807727Y-106046680D01*
X136042759Y-105889637D01*
X136242637Y-105689759D01*
X136399680Y-105454727D01*
X136507853Y-105193574D01*
X136563000Y-104916335D01*
X136563000Y-104633665D01*
X136507853Y-104356426D01*
X136399680Y-104095273D01*
X136242637Y-103860241D01*
X136042759Y-103660363D01*
X135807727Y-103503320D01*
X135546574Y-103395147D01*
X135269335Y-103340000D01*
X134986665Y-103340000D01*
X134804114Y-103376312D01*
X134421804Y-102994003D01*
X134398001Y-102964999D01*
X134282276Y-102870026D01*
X134150247Y-102799454D01*
X134006986Y-102755997D01*
X133895333Y-102745000D01*
X133895322Y-102745000D01*
X133858000Y-102741324D01*
X133820678Y-102745000D01*
X131266043Y-102745000D01*
X131162637Y-102590241D01*
X130962759Y-102390363D01*
X130727727Y-102233320D01*
X130466574Y-102125147D01*
X130189335Y-102070000D01*
X129906665Y-102070000D01*
X129629426Y-102125147D01*
X129368273Y-102233320D01*
X129133241Y-102390363D01*
X128933363Y-102590241D01*
X128776320Y-102825273D01*
X128668147Y-103086426D01*
X128613000Y-103363665D01*
X126363000Y-103363665D01*
X126363000Y-98739801D01*
X127187802Y-97915000D01*
X133820678Y-97915000D01*
X133858000Y-97918676D01*
X133895322Y-97915000D01*
X133895333Y-97915000D01*
X134006986Y-97904003D01*
X134150247Y-97860546D01*
X134282276Y-97789974D01*
X134398001Y-97695001D01*
X134421804Y-97665997D01*
X135128000Y-96959801D01*
X138809312Y-100641114D01*
X138773000Y-100823665D01*
X138773000Y-101106335D01*
X138828147Y-101383574D01*
X138936320Y-101644727D01*
X139093363Y-101879759D01*
X139293241Y-102079637D01*
X139525759Y-102235000D01*
X139293241Y-102390363D01*
X139093363Y-102590241D01*
X138936320Y-102825273D01*
X138828147Y-103086426D01*
X138773000Y-103363665D01*
X138773000Y-103646335D01*
X138828147Y-103923574D01*
X138936320Y-104184727D01*
X139093363Y-104419759D01*
X139293241Y-104619637D01*
X139528273Y-104776680D01*
X139789426Y-104884853D01*
X140066665Y-104940000D01*
X140349335Y-104940000D01*
X140626574Y-104884853D01*
X140887727Y-104776680D01*
X141122759Y-104619637D01*
X141322637Y-104419759D01*
X141479680Y-104184727D01*
X141587853Y-103923574D01*
X141643000Y-103646335D01*
X141643000Y-103363665D01*
X141587853Y-103086426D01*
X141479680Y-102825273D01*
X141322637Y-102590241D01*
X141122759Y-102390363D01*
X140890241Y-102235000D01*
X141122759Y-102079637D01*
X141322637Y-101879759D01*
X141479680Y-101644727D01*
X141587853Y-101383574D01*
X141643000Y-101106335D01*
X141643000Y-100823665D01*
X141587853Y-100546426D01*
X141479680Y-100285273D01*
X141322637Y-100050241D01*
X141122759Y-99850363D01*
X140890241Y-99695000D01*
X141122759Y-99539637D01*
X141322637Y-99339759D01*
X141479680Y-99104727D01*
X141587853Y-98843574D01*
X141643000Y-98566335D01*
X141643000Y-98283665D01*
X141587853Y-98006426D01*
X141479680Y-97745273D01*
X141322637Y-97510241D01*
X141122759Y-97310363D01*
X140887727Y-97153320D01*
X140877135Y-97148933D01*
X141063131Y-97037385D01*
X141271519Y-96848414D01*
X141439037Y-96622420D01*
X141559246Y-96368087D01*
X141599904Y-96234039D01*
X141477915Y-96012000D01*
X140335000Y-96012000D01*
X140335000Y-96032000D01*
X140081000Y-96032000D01*
X140081000Y-96012000D01*
X138938085Y-96012000D01*
X138816096Y-96234039D01*
X138856754Y-96368087D01*
X138976963Y-96622420D01*
X139144481Y-96848414D01*
X139352869Y-97037385D01*
X139538865Y-97148933D01*
X139528273Y-97153320D01*
X139293241Y-97310363D01*
X139095703Y-97507901D01*
X138428000Y-96840199D01*
X138428000Y-95535961D01*
X138816096Y-95535961D01*
X138938085Y-95758000D01*
X140081000Y-95758000D01*
X140081000Y-94614376D01*
X140335000Y-94614376D01*
X140335000Y-95758000D01*
X141477915Y-95758000D01*
X141599904Y-95535961D01*
X141559246Y-95401913D01*
X141439037Y-95147580D01*
X141271519Y-94921586D01*
X141063131Y-94732615D01*
X140821881Y-94587930D01*
X140557040Y-94493091D01*
X140335000Y-94614376D01*
X140081000Y-94614376D01*
X139858960Y-94493091D01*
X139594119Y-94587930D01*
X139352869Y-94732615D01*
X139144481Y-94921586D01*
X138976963Y-95147580D01*
X138856754Y-95401913D01*
X138816096Y-95535961D01*
X138428000Y-95535961D01*
X138428000Y-94652322D01*
X138431676Y-94614999D01*
X138428000Y-94577676D01*
X138428000Y-94577667D01*
X138417003Y-94466014D01*
X138373546Y-94322753D01*
X138302974Y-94190724D01*
X138208001Y-94074999D01*
X138179004Y-94051202D01*
X136961804Y-92834003D01*
X136938001Y-92804999D01*
X136929790Y-92798260D01*
X136942180Y-92794502D01*
X137052494Y-92735537D01*
X137149185Y-92656185D01*
X137228537Y-92559494D01*
X137287502Y-92449180D01*
X137323812Y-92329482D01*
X137336072Y-92205000D01*
X137336072Y-91154040D01*
X140086091Y-91154040D01*
X140180930Y-91418881D01*
X140325615Y-91660131D01*
X140514586Y-91868519D01*
X140740580Y-92036037D01*
X140994913Y-92156246D01*
X141128961Y-92196904D01*
X141351000Y-92074915D01*
X141351000Y-90932000D01*
X141605000Y-90932000D01*
X141605000Y-92074915D01*
X141827039Y-92196904D01*
X141961087Y-92156246D01*
X142215420Y-92036037D01*
X142441414Y-91868519D01*
X142630385Y-91660131D01*
X142775070Y-91418881D01*
X142869909Y-91154040D01*
X142748624Y-90932000D01*
X141605000Y-90932000D01*
X141351000Y-90932000D01*
X140207376Y-90932000D01*
X140086091Y-91154040D01*
X137336072Y-91154040D01*
X137336072Y-90455960D01*
X140086091Y-90455960D01*
X140207376Y-90678000D01*
X141351000Y-90678000D01*
X141351000Y-89535085D01*
X141605000Y-89535085D01*
X141605000Y-90678000D01*
X142748624Y-90678000D01*
X142756454Y-90663665D01*
X145123000Y-90663665D01*
X145123000Y-90946335D01*
X145178147Y-91223574D01*
X145286320Y-91484727D01*
X145443363Y-91719759D01*
X145643241Y-91919637D01*
X145878273Y-92076680D01*
X146139426Y-92184853D01*
X146416665Y-92240000D01*
X146699335Y-92240000D01*
X146976574Y-92184853D01*
X147237727Y-92076680D01*
X147472759Y-91919637D01*
X147672637Y-91719759D01*
X147829680Y-91484727D01*
X147937853Y-91223574D01*
X147993000Y-90946335D01*
X147993000Y-90663665D01*
X147937853Y-90386426D01*
X147829680Y-90125273D01*
X147672637Y-89890241D01*
X147472759Y-89690363D01*
X147237727Y-89533320D01*
X146976574Y-89425147D01*
X146699335Y-89370000D01*
X146416665Y-89370000D01*
X146139426Y-89425147D01*
X145878273Y-89533320D01*
X145643241Y-89690363D01*
X145443363Y-89890241D01*
X145286320Y-90125273D01*
X145178147Y-90386426D01*
X145123000Y-90663665D01*
X142756454Y-90663665D01*
X142869909Y-90455960D01*
X142775070Y-90191119D01*
X142630385Y-89949869D01*
X142441414Y-89741481D01*
X142215420Y-89573963D01*
X141961087Y-89453754D01*
X141827039Y-89413096D01*
X141605000Y-89535085D01*
X141351000Y-89535085D01*
X141128961Y-89413096D01*
X140994913Y-89453754D01*
X140740580Y-89573963D01*
X140514586Y-89741481D01*
X140325615Y-89949869D01*
X140180930Y-90191119D01*
X140086091Y-90455960D01*
X137336072Y-90455960D01*
X137336072Y-89405000D01*
X137323812Y-89280518D01*
X137287502Y-89160820D01*
X137228537Y-89050506D01*
X137149185Y-88953815D01*
X137052494Y-88874463D01*
X136942180Y-88815498D01*
X136822482Y-88779188D01*
X136698000Y-88766928D01*
X133898000Y-88766928D01*
X133773518Y-88779188D01*
X133653820Y-88815498D01*
X133543506Y-88874463D01*
X133446815Y-88953815D01*
X133367463Y-89050506D01*
X133308498Y-89160820D01*
X133272188Y-89280518D01*
X133259928Y-89405000D01*
X133259928Y-92205000D01*
X133272188Y-92329482D01*
X133308498Y-92449180D01*
X133367463Y-92559494D01*
X133446815Y-92656185D01*
X133481381Y-92684552D01*
X133433724Y-92710026D01*
X133433722Y-92710027D01*
X133433723Y-92710027D01*
X133346996Y-92781201D01*
X133346992Y-92781205D01*
X133317999Y-92804999D01*
X133294205Y-92833992D01*
X131385209Y-94742989D01*
X131378537Y-94730506D01*
X131299185Y-94633815D01*
X131202494Y-94554463D01*
X131092180Y-94495498D01*
X130972482Y-94459188D01*
X130848000Y-94446928D01*
X129248000Y-94446928D01*
X129123518Y-94459188D01*
X129003820Y-94495498D01*
X128893506Y-94554463D01*
X128796815Y-94633815D01*
X128717463Y-94730506D01*
X128658498Y-94840820D01*
X128622188Y-94960518D01*
X128609928Y-95085000D01*
X128609928Y-95125000D01*
X125532801Y-95125000D01*
X127980478Y-92677323D01*
X128184413Y-92761796D01*
X128577570Y-92840000D01*
X128978430Y-92840000D01*
X129371587Y-92761796D01*
X129741934Y-92608393D01*
X130075237Y-92385687D01*
X130358687Y-92102237D01*
X130581393Y-91768934D01*
X130734796Y-91398587D01*
X130813000Y-91005430D01*
X130813000Y-90604570D01*
X130734796Y-90211413D01*
X130581393Y-89841066D01*
X130358687Y-89507763D01*
X130075237Y-89224313D01*
X129741934Y-89001607D01*
X129371587Y-88848204D01*
X128978430Y-88770000D01*
X128577570Y-88770000D01*
X128184413Y-88848204D01*
X127814066Y-89001607D01*
X127480763Y-89224313D01*
X127197313Y-89507763D01*
X126974607Y-89841066D01*
X126821204Y-90211413D01*
X126743000Y-90604570D01*
X126743000Y-91005430D01*
X126821204Y-91398587D01*
X126905677Y-91602522D01*
X122743199Y-95765000D01*
X121575985Y-95765000D01*
X121481703Y-95537382D01*
X121253525Y-95195890D01*
X120963110Y-94905475D01*
X120621618Y-94677297D01*
X120242172Y-94520126D01*
X119839355Y-94440000D01*
X119428645Y-94440000D01*
X119025828Y-94520126D01*
X118646382Y-94677297D01*
X118304890Y-94905475D01*
X118014475Y-95195890D01*
X117786297Y-95537382D01*
X117629126Y-95916828D01*
X117549000Y-96319645D01*
X117549000Y-96730355D01*
X117629126Y-97133172D01*
X117786297Y-97512618D01*
X118014475Y-97854110D01*
X118093588Y-97933223D01*
X117820287Y-98206524D01*
X117564750Y-98588963D01*
X117388733Y-99013906D01*
X117299000Y-99465023D01*
X116606368Y-99465023D01*
X116568853Y-99276426D01*
X116460680Y-99015273D01*
X116303637Y-98780241D01*
X116103759Y-98580363D01*
X115868727Y-98423320D01*
X115607574Y-98315147D01*
X115330335Y-98260000D01*
X115047665Y-98260000D01*
X114770426Y-98315147D01*
X114509273Y-98423320D01*
X114274241Y-98580363D01*
X114074363Y-98780241D01*
X113917320Y-99015273D01*
X113809147Y-99276426D01*
X113754000Y-99553665D01*
X106628000Y-99553665D01*
X106628000Y-90499000D01*
X123097877Y-90499000D01*
X123127968Y-90496036D01*
X123131787Y-90496063D01*
X123141653Y-90495095D01*
X123264904Y-90482140D01*
X123327932Y-90469202D01*
X123391146Y-90457143D01*
X123400636Y-90454278D01*
X123519023Y-90417631D01*
X123578314Y-90392707D01*
X123638012Y-90368588D01*
X123646764Y-90363934D01*
X123755779Y-90304990D01*
X123809096Y-90269027D01*
X123862975Y-90233770D01*
X123870657Y-90227504D01*
X123966147Y-90148508D01*
X124011482Y-90102856D01*
X124057467Y-90057824D01*
X124063786Y-90050186D01*
X124142114Y-89954147D01*
X124177722Y-89900553D01*
X124214082Y-89847450D01*
X124218797Y-89838730D01*
X124276979Y-89729306D01*
X124301490Y-89669838D01*
X124326852Y-89610663D01*
X124329784Y-89601193D01*
X124365603Y-89482553D01*
X124378097Y-89419456D01*
X124391483Y-89356479D01*
X124392519Y-89346620D01*
X124404612Y-89223281D01*
X124404612Y-89223277D01*
X124408000Y-89188877D01*
X124408000Y-82045000D01*
X126739928Y-82045000D01*
X126752188Y-82169482D01*
X126788498Y-82289180D01*
X126847463Y-82399494D01*
X126926815Y-82496185D01*
X127023506Y-82575537D01*
X127133820Y-82634502D01*
X127253518Y-82670812D01*
X127378000Y-82683072D01*
X128492250Y-82680000D01*
X128651000Y-82521250D01*
X128651000Y-80772000D01*
X128905000Y-80772000D01*
X128905000Y-82521250D01*
X129063750Y-82680000D01*
X130178000Y-82683072D01*
X130302482Y-82670812D01*
X130422180Y-82634502D01*
X130532494Y-82575537D01*
X130629185Y-82496185D01*
X130708537Y-82399494D01*
X130767502Y-82289180D01*
X130803812Y-82169482D01*
X130816072Y-82045000D01*
X130813434Y-81088161D01*
X133311836Y-81088161D01*
X133436456Y-81467127D01*
X133632614Y-81814499D01*
X133892772Y-82116928D01*
X134206932Y-82362792D01*
X134563021Y-82542642D01*
X134854840Y-82631160D01*
X135171000Y-82516947D01*
X135171000Y-80772000D01*
X135425000Y-80772000D01*
X135425000Y-82516947D01*
X135741160Y-82631160D01*
X136032979Y-82542642D01*
X136389068Y-82362792D01*
X136703228Y-82116928D01*
X136963386Y-81814499D01*
X137159544Y-81467127D01*
X137284164Y-81088161D01*
X137170287Y-80772000D01*
X135425000Y-80772000D01*
X135171000Y-80772000D01*
X133425713Y-80772000D01*
X133311836Y-81088161D01*
X130813434Y-81088161D01*
X130813000Y-80930750D01*
X130654250Y-80772000D01*
X128905000Y-80772000D01*
X128651000Y-80772000D01*
X126901750Y-80772000D01*
X126743000Y-80930750D01*
X126739928Y-82045000D01*
X124408000Y-82045000D01*
X124408000Y-79245000D01*
X126739928Y-79245000D01*
X126743000Y-80359250D01*
X126901750Y-80518000D01*
X128651000Y-80518000D01*
X128651000Y-78768750D01*
X128905000Y-78768750D01*
X128905000Y-80518000D01*
X130654250Y-80518000D01*
X130813000Y-80359250D01*
X130813433Y-80201839D01*
X133311836Y-80201839D01*
X133425713Y-80518000D01*
X135171000Y-80518000D01*
X135171000Y-78773053D01*
X135425000Y-78773053D01*
X135425000Y-80518000D01*
X137170287Y-80518000D01*
X137284164Y-80201839D01*
X137159544Y-79822873D01*
X136963386Y-79475501D01*
X136703228Y-79173072D01*
X136389068Y-78927208D01*
X136032979Y-78747358D01*
X135741160Y-78658840D01*
X135425000Y-78773053D01*
X135171000Y-78773053D01*
X134854840Y-78658840D01*
X134563021Y-78747358D01*
X134206932Y-78927208D01*
X133892772Y-79173072D01*
X133632614Y-79475501D01*
X133436456Y-79822873D01*
X133311836Y-80201839D01*
X130813433Y-80201839D01*
X130816072Y-79245000D01*
X130803812Y-79120518D01*
X130767502Y-79000820D01*
X130708537Y-78890506D01*
X130629185Y-78793815D01*
X130532494Y-78714463D01*
X130422180Y-78655498D01*
X130302482Y-78619188D01*
X130178000Y-78606928D01*
X129063750Y-78610000D01*
X128905000Y-78768750D01*
X128651000Y-78768750D01*
X128492250Y-78610000D01*
X127378000Y-78606928D01*
X127253518Y-78619188D01*
X127133820Y-78655498D01*
X127023506Y-78714463D01*
X126926815Y-78793815D01*
X126847463Y-78890506D01*
X126788498Y-79000820D01*
X126752188Y-79120518D01*
X126739928Y-79245000D01*
X124408000Y-79245000D01*
X124408000Y-77506707D01*
X124537887Y-77636594D01*
X124974702Y-77928464D01*
X125460065Y-78129508D01*
X125975323Y-78232000D01*
X126500677Y-78232000D01*
X127015935Y-78129508D01*
X127501298Y-77928464D01*
X127938113Y-77636594D01*
X128309594Y-77265113D01*
X128601464Y-76828298D01*
X128657001Y-76694219D01*
X128729203Y-76782197D01*
X128957395Y-76969469D01*
X129217737Y-77108625D01*
X129500224Y-77194316D01*
X129794000Y-77223251D01*
X130087777Y-77194316D01*
X130370264Y-77108625D01*
X130630606Y-76969469D01*
X130858797Y-76782197D01*
X131046069Y-76554006D01*
X131064000Y-76520459D01*
X131081931Y-76554006D01*
X131269203Y-76782197D01*
X131497395Y-76969469D01*
X131757737Y-77108625D01*
X132040224Y-77194316D01*
X132334000Y-77223251D01*
X132627777Y-77194316D01*
X132910264Y-77108625D01*
X133170606Y-76969469D01*
X133398797Y-76782197D01*
X133586069Y-76554006D01*
X133604000Y-76520459D01*
X133621931Y-76554006D01*
X133809203Y-76782197D01*
X134037395Y-76969469D01*
X134297737Y-77108625D01*
X134580224Y-77194316D01*
X134874000Y-77223251D01*
X135167777Y-77194316D01*
X135450264Y-77108625D01*
X135710606Y-76969469D01*
X135938797Y-76782197D01*
X136126069Y-76554006D01*
X136147424Y-76514053D01*
X136295514Y-76716729D01*
X136511965Y-76915733D01*
X136763081Y-77068686D01*
X137039211Y-77169709D01*
X137054974Y-77172358D01*
X137287000Y-77051217D01*
X137287000Y-75692000D01*
X137267000Y-75692000D01*
X137267000Y-75438000D01*
X137287000Y-75438000D01*
X137287000Y-74078783D01*
X137541000Y-74078783D01*
X137541000Y-75438000D01*
X137561000Y-75438000D01*
X137561000Y-75692000D01*
X137541000Y-75692000D01*
X137541000Y-77051217D01*
X137773026Y-77172358D01*
X137788789Y-77169709D01*
X138064919Y-77068686D01*
X138316035Y-76915733D01*
X138532486Y-76716729D01*
X138680576Y-76514053D01*
X138701931Y-76554006D01*
X138889203Y-76782197D01*
X139117395Y-76969469D01*
X139377737Y-77108625D01*
X139660224Y-77194316D01*
X139954000Y-77223251D01*
X140247777Y-77194316D01*
X140530264Y-77108625D01*
X140790606Y-76969469D01*
X141018797Y-76782197D01*
X141206069Y-76554006D01*
X141224000Y-76520459D01*
X141241931Y-76554006D01*
X141429203Y-76782197D01*
X141657395Y-76969469D01*
X141917737Y-77108625D01*
X142200224Y-77194316D01*
X142494000Y-77223251D01*
X142787777Y-77194316D01*
X143070264Y-77108625D01*
X143330606Y-76969469D01*
X143558797Y-76782197D01*
X143746069Y-76554006D01*
X143764000Y-76520459D01*
X143781931Y-76554006D01*
X143969203Y-76782197D01*
X144197395Y-76969469D01*
X144457737Y-77108625D01*
X144740224Y-77194316D01*
X145034000Y-77223251D01*
X145327777Y-77194316D01*
X145610264Y-77108625D01*
X145870606Y-76969469D01*
X146098797Y-76782197D01*
X146286069Y-76554006D01*
X146304000Y-76520459D01*
X146321931Y-76554006D01*
X146509203Y-76782197D01*
X146737395Y-76969469D01*
X146997737Y-77108625D01*
X147280224Y-77194316D01*
X147574000Y-77223251D01*
X147867777Y-77194316D01*
X148150264Y-77108625D01*
X148410606Y-76969469D01*
X148638797Y-76782197D01*
X148826069Y-76554006D01*
X148844000Y-76520459D01*
X148861931Y-76554006D01*
X149049203Y-76782197D01*
X149277395Y-76969469D01*
X149537737Y-77108625D01*
X149820224Y-77194316D01*
X150114000Y-77223251D01*
X150407777Y-77194316D01*
X150690264Y-77108625D01*
X150950606Y-76969469D01*
X151178797Y-76782197D01*
X151366069Y-76554006D01*
X151384000Y-76520459D01*
X151401931Y-76554006D01*
X151589203Y-76782197D01*
X151817395Y-76969469D01*
X151894000Y-77010416D01*
X151894000Y-77813677D01*
X151890324Y-77851000D01*
X151894000Y-77888322D01*
X151894000Y-77888332D01*
X151904997Y-77999985D01*
X151936853Y-78105001D01*
X151948454Y-78143246D01*
X152019026Y-78275276D01*
X152047441Y-78309899D01*
X152113999Y-78391001D01*
X152143002Y-78414803D01*
X153613197Y-79885000D01*
X147776043Y-79885000D01*
X147672637Y-79730241D01*
X147472759Y-79530363D01*
X147237727Y-79373320D01*
X146976574Y-79265147D01*
X146699335Y-79210000D01*
X146416665Y-79210000D01*
X146139426Y-79265147D01*
X145878273Y-79373320D01*
X145643241Y-79530363D01*
X145443363Y-79730241D01*
X145286320Y-79965273D01*
X145178147Y-80226426D01*
X145123000Y-80503665D01*
X145123000Y-80786335D01*
X145178147Y-81063574D01*
X145216017Y-81155000D01*
X143062802Y-81155000D01*
X142876688Y-80968886D01*
X142913000Y-80786335D01*
X142913000Y-80503665D01*
X142857853Y-80226426D01*
X142749680Y-79965273D01*
X142592637Y-79730241D01*
X142392759Y-79530363D01*
X142157727Y-79373320D01*
X141896574Y-79265147D01*
X141619335Y-79210000D01*
X141336665Y-79210000D01*
X141059426Y-79265147D01*
X140798273Y-79373320D01*
X140563241Y-79530363D01*
X140363363Y-79730241D01*
X140206320Y-79965273D01*
X140098147Y-80226426D01*
X140043000Y-80503665D01*
X140043000Y-80786335D01*
X140098147Y-81063574D01*
X140206320Y-81324727D01*
X140363363Y-81559759D01*
X140563241Y-81759637D01*
X140798273Y-81916680D01*
X141059426Y-82024853D01*
X141336665Y-82080000D01*
X141619335Y-82080000D01*
X141801886Y-82043688D01*
X142184200Y-82426002D01*
X142207999Y-82455001D01*
X142323724Y-82549974D01*
X142455753Y-82620546D01*
X142599014Y-82664003D01*
X142710667Y-82675000D01*
X142710676Y-82675000D01*
X142747999Y-82678676D01*
X142785322Y-82675000D01*
X154229957Y-82675000D01*
X154333363Y-82829759D01*
X154533241Y-83029637D01*
X154768273Y-83186680D01*
X155029426Y-83294853D01*
X155306665Y-83350000D01*
X155589335Y-83350000D01*
X155866574Y-83294853D01*
X156127727Y-83186680D01*
X156362759Y-83029637D01*
X156562637Y-82829759D01*
X156718000Y-82597241D01*
X156873363Y-82829759D01*
X157073241Y-83029637D01*
X157308273Y-83186680D01*
X157569426Y-83294853D01*
X157846665Y-83350000D01*
X158129335Y-83350000D01*
X158406574Y-83294853D01*
X158667727Y-83186680D01*
X158902759Y-83029637D01*
X159102637Y-82829759D01*
X159258000Y-82597241D01*
X159413363Y-82829759D01*
X159613241Y-83029637D01*
X159848273Y-83186680D01*
X160109426Y-83294853D01*
X160386665Y-83350000D01*
X160669335Y-83350000D01*
X160851886Y-83313688D01*
X162504205Y-84966008D01*
X162527999Y-84995001D01*
X162556992Y-85018795D01*
X162556996Y-85018799D01*
X162627685Y-85076811D01*
X162643724Y-85089974D01*
X162775753Y-85160546D01*
X162919014Y-85204003D01*
X163030667Y-85215000D01*
X163030676Y-85215000D01*
X163067999Y-85218676D01*
X163105322Y-85215000D01*
X165570678Y-85215000D01*
X165608000Y-85218676D01*
X165645322Y-85215000D01*
X165645333Y-85215000D01*
X165756986Y-85204003D01*
X165900247Y-85160546D01*
X166032276Y-85089974D01*
X166148001Y-84995001D01*
X166171804Y-84965997D01*
X167389003Y-83748799D01*
X167418001Y-83725001D01*
X167512974Y-83609276D01*
X167583546Y-83477247D01*
X167627003Y-83333986D01*
X167638000Y-83222333D01*
X167638000Y-83222324D01*
X167641676Y-83185001D01*
X167638000Y-83147678D01*
X167638000Y-79689801D01*
X168711799Y-78616003D01*
X168711803Y-78615998D01*
X169929003Y-77398799D01*
X169958001Y-77375001D01*
X170052974Y-77259276D01*
X170123546Y-77127247D01*
X170155306Y-77022546D01*
X170254606Y-76969469D01*
X170482797Y-76782197D01*
X170670069Y-76554006D01*
X170688000Y-76520459D01*
X170705931Y-76554006D01*
X170893203Y-76782197D01*
X171121395Y-76969469D01*
X171381737Y-77108625D01*
X171664224Y-77194316D01*
X171958000Y-77223251D01*
X172251777Y-77194316D01*
X172534264Y-77108625D01*
X172794606Y-76969469D01*
X173022797Y-76782197D01*
X173210069Y-76554006D01*
X173228000Y-76520459D01*
X173245931Y-76554006D01*
X173433203Y-76782197D01*
X173661395Y-76969469D01*
X173921737Y-77108625D01*
X174204224Y-77194316D01*
X174498000Y-77223251D01*
X174791777Y-77194316D01*
X175074264Y-77108625D01*
X175334606Y-76969469D01*
X175562797Y-76782197D01*
X175750069Y-76554006D01*
X175889225Y-76293663D01*
X175974916Y-76011176D01*
X175996600Y-75791018D01*
X175996600Y-75338981D01*
X175974916Y-75118823D01*
X175889225Y-74836336D01*
X175750069Y-74575994D01*
X175562797Y-74347803D01*
X175334605Y-74160531D01*
X175074263Y-74021375D01*
X174791776Y-73935684D01*
X174498000Y-73906749D01*
X174204223Y-73935684D01*
X173921736Y-74021375D01*
X173661394Y-74160531D01*
X173433203Y-74347803D01*
X173245931Y-74575995D01*
X173228000Y-74609541D01*
X173210069Y-74575994D01*
X173022797Y-74347803D01*
X172794605Y-74160531D01*
X172534263Y-74021375D01*
X172251776Y-73935684D01*
X171958000Y-73906749D01*
X171664223Y-73935684D01*
X171381736Y-74021375D01*
X171121394Y-74160531D01*
X170893203Y-74347803D01*
X170705931Y-74575995D01*
X170688000Y-74609541D01*
X170670069Y-74575994D01*
X170482797Y-74347803D01*
X170254605Y-74160531D01*
X169994263Y-74021375D01*
X169711776Y-73935684D01*
X169418000Y-73906749D01*
X169124223Y-73935684D01*
X168841736Y-74021375D01*
X168581394Y-74160531D01*
X168353203Y-74347803D01*
X168165931Y-74575995D01*
X168148000Y-74609541D01*
X168130069Y-74575994D01*
X167942797Y-74347803D01*
X167714605Y-74160531D01*
X167454263Y-74021375D01*
X167171776Y-73935684D01*
X166878000Y-73906749D01*
X166584223Y-73935684D01*
X166301736Y-74021375D01*
X166041394Y-74160531D01*
X165813203Y-74347803D01*
X165625931Y-74575995D01*
X165608000Y-74609541D01*
X165590069Y-74575994D01*
X165402797Y-74347803D01*
X165174605Y-74160531D01*
X164914263Y-74021375D01*
X164631776Y-73935684D01*
X164338000Y-73906749D01*
X164044223Y-73935684D01*
X163761736Y-74021375D01*
X163501394Y-74160531D01*
X163273203Y-74347803D01*
X163085931Y-74575995D01*
X163068000Y-74609541D01*
X163050069Y-74575994D01*
X162862797Y-74347803D01*
X162634605Y-74160531D01*
X162374263Y-74021375D01*
X162091776Y-73935684D01*
X161798000Y-73906749D01*
X161504223Y-73935684D01*
X161221736Y-74021375D01*
X160961394Y-74160531D01*
X160733203Y-74347803D01*
X160545931Y-74575995D01*
X160528000Y-74609541D01*
X160510069Y-74575994D01*
X160322797Y-74347803D01*
X160094605Y-74160531D01*
X159834263Y-74021375D01*
X159551776Y-73935684D01*
X159258000Y-73906749D01*
X158964223Y-73935684D01*
X158681736Y-74021375D01*
X158421394Y-74160531D01*
X158193203Y-74347803D01*
X158005931Y-74575995D01*
X157988000Y-74609541D01*
X157970069Y-74575994D01*
X157782797Y-74347803D01*
X157554605Y-74160531D01*
X157294263Y-74021375D01*
X157011776Y-73935684D01*
X156718000Y-73906749D01*
X156424223Y-73935684D01*
X156141736Y-74021375D01*
X155881394Y-74160531D01*
X155653203Y-74347803D01*
X155465931Y-74575995D01*
X155326775Y-74836337D01*
X155241084Y-75118824D01*
X155219400Y-75338982D01*
X155219400Y-75791019D01*
X155241084Y-76011177D01*
X155326775Y-76293664D01*
X155465931Y-76554006D01*
X155653203Y-76782197D01*
X155881395Y-76969469D01*
X156141737Y-77108625D01*
X156424224Y-77194316D01*
X156718000Y-77223251D01*
X157011777Y-77194316D01*
X157294264Y-77108625D01*
X157554606Y-76969469D01*
X157782797Y-76782197D01*
X157970069Y-76554006D01*
X157988000Y-76520459D01*
X158005931Y-76554006D01*
X158193203Y-76782197D01*
X158421395Y-76969469D01*
X158681737Y-77108625D01*
X158964224Y-77194316D01*
X159258000Y-77223251D01*
X159551777Y-77194316D01*
X159834264Y-77108625D01*
X160094606Y-76969469D01*
X160322797Y-76782197D01*
X160510069Y-76554006D01*
X160528000Y-76520459D01*
X160545931Y-76554006D01*
X160733203Y-76782197D01*
X160961395Y-76969469D01*
X161221737Y-77108625D01*
X161504224Y-77194316D01*
X161798000Y-77223251D01*
X162091777Y-77194316D01*
X162374264Y-77108625D01*
X162634606Y-76969469D01*
X162862797Y-76782197D01*
X163050069Y-76554006D01*
X163068000Y-76520459D01*
X163085931Y-76554006D01*
X163273203Y-76782197D01*
X163501395Y-76969469D01*
X163761737Y-77108625D01*
X164044224Y-77194316D01*
X164338000Y-77223251D01*
X164631777Y-77194316D01*
X164914264Y-77108625D01*
X165174606Y-76969469D01*
X165402797Y-76782197D01*
X165590069Y-76554006D01*
X165608000Y-76520459D01*
X165625931Y-76554006D01*
X165813203Y-76782197D01*
X166041395Y-76969469D01*
X166301737Y-77108625D01*
X166584224Y-77194316D01*
X166878000Y-77223251D01*
X167171777Y-77194316D01*
X167454264Y-77108625D01*
X167714606Y-76969469D01*
X167942797Y-76782197D01*
X168130069Y-76554006D01*
X168148000Y-76520459D01*
X168165931Y-76554006D01*
X168353203Y-76782197D01*
X168376710Y-76801489D01*
X167637002Y-77541197D01*
X167636997Y-77541201D01*
X166367003Y-78811196D01*
X166337999Y-78834999D01*
X166299884Y-78881443D01*
X166243026Y-78950724D01*
X166177394Y-79073512D01*
X166172454Y-79082754D01*
X166128997Y-79226015D01*
X166118000Y-79337668D01*
X166118000Y-79337678D01*
X166114324Y-79375000D01*
X166118000Y-79412323D01*
X166118000Y-80476928D01*
X164808000Y-80476928D01*
X164683518Y-80489188D01*
X164563820Y-80525498D01*
X164453506Y-80584463D01*
X164356815Y-80663815D01*
X164277463Y-80760506D01*
X164218498Y-80870820D01*
X164182188Y-80990518D01*
X164181357Y-80998961D01*
X163982759Y-80800363D01*
X163747727Y-80643320D01*
X163486574Y-80535147D01*
X163209335Y-80480000D01*
X162926665Y-80480000D01*
X162744114Y-80516312D01*
X161091804Y-78864003D01*
X161068001Y-78834999D01*
X160952276Y-78740026D01*
X160820247Y-78669454D01*
X160676986Y-78625997D01*
X160565333Y-78615000D01*
X160565322Y-78615000D01*
X160528000Y-78611324D01*
X160490678Y-78615000D01*
X154492803Y-78615000D01*
X153414000Y-77536199D01*
X153414000Y-77010416D01*
X153490606Y-76969469D01*
X153718797Y-76782197D01*
X153906069Y-76554006D01*
X154045225Y-76293663D01*
X154130916Y-76011176D01*
X154152600Y-75791018D01*
X154152600Y-75338981D01*
X154130916Y-75118823D01*
X154045225Y-74836336D01*
X153906069Y-74575994D01*
X153718797Y-74347803D01*
X153490605Y-74160531D01*
X153230263Y-74021375D01*
X152947776Y-73935684D01*
X152654000Y-73906749D01*
X152360223Y-73935684D01*
X152077736Y-74021375D01*
X151817394Y-74160531D01*
X151589203Y-74347803D01*
X151401931Y-74575995D01*
X151384000Y-74609541D01*
X151366069Y-74575994D01*
X151178797Y-74347803D01*
X150950605Y-74160531D01*
X150690263Y-74021375D01*
X150407776Y-73935684D01*
X150114000Y-73906749D01*
X149820223Y-73935684D01*
X149537736Y-74021375D01*
X149277394Y-74160531D01*
X149049203Y-74347803D01*
X148861931Y-74575995D01*
X148844000Y-74609541D01*
X148826069Y-74575994D01*
X148638797Y-74347803D01*
X148410605Y-74160531D01*
X148150263Y-74021375D01*
X147867776Y-73935684D01*
X147574000Y-73906749D01*
X147280223Y-73935684D01*
X146997736Y-74021375D01*
X146737394Y-74160531D01*
X146509203Y-74347803D01*
X146321931Y-74575995D01*
X146304000Y-74609541D01*
X146286069Y-74575994D01*
X146098797Y-74347803D01*
X145870605Y-74160531D01*
X145610263Y-74021375D01*
X145327776Y-73935684D01*
X145034000Y-73906749D01*
X144740223Y-73935684D01*
X144457736Y-74021375D01*
X144197394Y-74160531D01*
X143969203Y-74347803D01*
X143781931Y-74575995D01*
X143764000Y-74609541D01*
X143746069Y-74575994D01*
X143558797Y-74347803D01*
X143330605Y-74160531D01*
X143070263Y-74021375D01*
X142787776Y-73935684D01*
X142494000Y-73906749D01*
X142200223Y-73935684D01*
X141917736Y-74021375D01*
X141657394Y-74160531D01*
X141429203Y-74347803D01*
X141241931Y-74575995D01*
X141224000Y-74609541D01*
X141206069Y-74575994D01*
X141018797Y-74347803D01*
X140790605Y-74160531D01*
X140530263Y-74021375D01*
X140247776Y-73935684D01*
X139954000Y-73906749D01*
X139660223Y-73935684D01*
X139377736Y-74021375D01*
X139117394Y-74160531D01*
X138889203Y-74347803D01*
X138701931Y-74575995D01*
X138680576Y-74615947D01*
X138532486Y-74413271D01*
X138316035Y-74214267D01*
X138064919Y-74061314D01*
X137788789Y-73960291D01*
X137773026Y-73957642D01*
X137541000Y-74078783D01*
X137287000Y-74078783D01*
X137054974Y-73957642D01*
X137039211Y-73960291D01*
X136763081Y-74061314D01*
X136511965Y-74214267D01*
X136295514Y-74413271D01*
X136147424Y-74615947D01*
X136126069Y-74575994D01*
X135938797Y-74347803D01*
X135710605Y-74160531D01*
X135450263Y-74021375D01*
X135167776Y-73935684D01*
X134874000Y-73906749D01*
X134580223Y-73935684D01*
X134297736Y-74021375D01*
X134037394Y-74160531D01*
X133809203Y-74347803D01*
X133621931Y-74575995D01*
X133604000Y-74609541D01*
X133586069Y-74575994D01*
X133398797Y-74347803D01*
X133170605Y-74160531D01*
X132910263Y-74021375D01*
X132627776Y-73935684D01*
X132334000Y-73906749D01*
X132040223Y-73935684D01*
X131757736Y-74021375D01*
X131497394Y-74160531D01*
X131269203Y-74347803D01*
X131081931Y-74575995D01*
X131064000Y-74609541D01*
X131046069Y-74575994D01*
X130858797Y-74347803D01*
X130630605Y-74160531D01*
X130370263Y-74021375D01*
X130087776Y-73935684D01*
X129794000Y-73906749D01*
X129500223Y-73935684D01*
X129217736Y-74021375D01*
X128957394Y-74160531D01*
X128729203Y-74347803D01*
X128657001Y-74435781D01*
X128601464Y-74301702D01*
X128309594Y-73864887D01*
X128179707Y-73735000D01*
X177003280Y-73735000D01*
X177392785Y-73773191D01*
M02*
