M48
; DRILL file {KiCad (5.1.5)-3} date 14/07/2020 23:57:47
; FORMAT={-:-/ absolute / inch / decimal}
; #@! TF.CreationDate,2020-07-14T23:57:47+01:00
; #@! TF.GenerationSoftware,Kicad,Pcbnew,(5.1.5)-3
; #@! TF.FileFunction,Plated,1,2,PTH
FMAT,2
INCH
T1C0.0315
T2C0.0354
T3C0.0394
T4C0.0400
T5C0.0472
T6C0.0551
T7C0.0630
T8C0.1200
%
G90
G05
T1
X5.77Y-3.175
X5.77Y-3.575
X6.12Y-3.225
X6.12Y-3.525
X6.22Y-3.225
X6.22Y-3.525
X6.32Y-3.225
X6.32Y-3.525
X6.42Y-3.225
X6.42Y-3.525
X6.52Y-3.225
X6.52Y-3.525
X5.32Y-4.625
X5.72Y-4.625
X5.82Y-4.3266
X5.82Y-4.425
X5.57Y-3.175
X5.57Y-3.575
X5.52Y-3.775
X5.52Y-3.875
X5.52Y-3.975
X5.52Y-4.075
X5.82Y-3.775
X5.82Y-3.875
X5.82Y-3.975
X5.82Y-4.075
X5.82Y-4.625
X6.22Y-4.625
X5.12Y-3.775
X5.12Y-4.075
X5.52Y-4.2781
X5.52Y-4.475
X5.32Y-3.725
X5.32Y-4.125
T2
X6.72Y-4.675
X6.82Y-4.675
X5.12Y-4.575
X5.12Y-4.675
T3
X5.12Y-4.875
X5.22Y-4.875
X5.32Y-4.875
T4
X6.37Y-4.875
X6.47Y-4.875
X6.57Y-4.875
X6.67Y-4.875
X6.77Y-4.875
X6.87Y-4.875
X5.47Y-4.875
X5.57Y-4.875
X5.67Y-4.875
X5.77Y-4.875
X5.87Y-4.875
X5.97Y-4.875
X6.07Y-4.875
X6.17Y-4.875
X5.11Y-2.975
X5.21Y-2.975
X5.31Y-2.975
X5.41Y-2.975
X5.51Y-2.975
X5.61Y-2.975
X5.71Y-2.975
X5.81Y-2.975
X5.91Y-2.975
X6.01Y-2.975
X6.17Y-2.975
X6.27Y-2.975
X6.37Y-2.975
X6.47Y-2.975
X6.57Y-2.975
X6.67Y-2.975
X6.77Y-2.975
X6.87Y-2.975
T5
X4.4598Y-4.3998
X4.71Y-3.8002
X4.71Y-4.075
X4.8602Y-4.075
T6
X5.07Y-3.175
X5.07Y-3.575
X5.3267Y-3.175
X5.3267Y-3.575
T7
X4.685Y-4.225
X4.71Y-3.925
X4.8602Y-3.925
X4.8602Y-4.225
T8
X6.97Y-4.675
X4.97Y-2.975
X4.92Y-4.875
T0
M30
