G04 #@! TF.GenerationSoftware,KiCad,Pcbnew,(5.1.5)-3*
G04 #@! TF.CreationDate,2020-07-14T23:57:43+01:00*
G04 #@! TF.ProjectId,dmxhat,646d7868-6174-42e6-9b69-6361645f7063,rev?*
G04 #@! TF.SameCoordinates,Original*
G04 #@! TF.FileFunction,Profile,NP*
%FSLAX46Y46*%
G04 Gerber Fmt 4.6, Leading zero omitted, Abs format (unit mm)*
G04 Created by KiCad (PCBNEW (5.1.5)-3) date 2020-07-14 23:57:43*
%MOMM*%
%LPD*%
G04 APERTURE LIST*
%ADD10C,0.150000*%
G04 APERTURE END LIST*
D10*
X105918000Y-90424000D02*
G75*
G02X106553000Y-89789000I635000J0D01*
G01*
X106553000Y-116840000D02*
G75*
G02X105918000Y-116205000I0J635000D01*
G01*
X170053000Y-116205000D02*
G75*
G02X169418000Y-115570000I0J635000D01*
G01*
X169418000Y-80010000D02*
G75*
G02X170053000Y-79375000I635000J0D01*
G01*
X123698000Y-89154000D02*
G75*
G02X123063000Y-89789000I-635000J0D01*
G01*
X121793000Y-116840000D02*
G75*
G02X122428000Y-117475000I0J-635000D01*
G01*
X124968000Y-126365000D02*
G75*
G02X122428000Y-123825000I0J2540000D01*
G01*
X179578000Y-123825000D02*
G75*
G02X177038000Y-126365000I-2540000J0D01*
G01*
X177038000Y-116205000D02*
G75*
G02X179578000Y-118745000I0J-2540000D01*
G01*
X179578000Y-76835000D02*
G75*
G02X177038000Y-79375000I-2540000J0D01*
G01*
X177038000Y-73025000D02*
G75*
G02X179578000Y-75565000I0J-2540000D01*
G01*
X123698000Y-75565000D02*
G75*
G02X126238000Y-73025000I2540000J0D01*
G01*
X121793000Y-116840000D02*
X106553000Y-116840000D01*
X122428000Y-123825000D02*
X122428000Y-117475000D01*
X123063000Y-89789000D02*
X106553000Y-89789000D01*
X123698000Y-75565000D02*
X123698000Y-89154000D01*
X177038000Y-79375000D02*
X170053000Y-79375000D01*
X170053000Y-116205000D02*
X177038000Y-116205000D01*
X179578000Y-123825000D02*
X179578000Y-118745000D01*
X179578000Y-76835000D02*
X179578000Y-75565000D01*
X169418000Y-115570000D02*
X169418000Y-80010000D01*
X124968000Y-126365000D02*
X177038000Y-126365000D01*
X105918000Y-90424000D02*
X105918000Y-116205000D01*
X177038000Y-73025000D02*
X126238000Y-73025000D01*
M02*
